<svg xmlns="http://www.w3.org/2000/svg" xmlns:xlink="http://www.w3.org/1999/xlink" viewBox="0 0 43.62 57.48"><defs><style>.cls-1{isolation:isolate;}.cls-2{opacity:0.8;fill:url(#Áåçûìÿííûé_ãðàäèåíò_179);}.cls-10,.cls-2{mix-blend-mode:multiply;}.cls-3,.cls-8{fill:#fff;}.cls-4{fill:url(#Áåçûìÿííûé_ãðàäèåíò_260);}.cls-5{mix-blend-mode:screen;fill:url(#Áåçûìÿííûé_ãðàäèåíò_272);}.cls-6{fill:#f5ddc4;opacity:0.97;}.cls-6,.cls-8{mix-blend-mode:soft-light;}.cls-7{fill:#ffa4e9;}.cls-9{fill:#90a4ff;}.cls-10{fill:#ab2a92;opacity:0.87;}.cls-10,.cls-11,.cls-12{fill-rule:evenodd;}.cls-11{fill:url(#Áåçûìÿííûé_ãðàäèåíò_279);}.cls-12{fill:#c5d3ff;}.cls-13{fill:#9397d3;}</style><linearGradient id="Áåçûìÿííûé_ãðàäèåíò_179" x1="21.81" y1="57.48" x2="21.81" y2="1.83" gradientUnits="userSpaceOnUse"><stop offset="0.01" stop-color="#e7e5f0"/><stop offset="0.98" stop-color="#8e75a0"/></linearGradient><radialGradient id="Áåçûìÿííûé_ãðàäèåíò_260" cx="21.16" cy="44.87" r="27" gradientTransform="translate(30.32 -5.51) rotate(45)" gradientUnits="userSpaceOnUse"><stop offset="0" stop-color="#ff1c43"/><stop offset="0.7" stop-color="#bd0a47"/><stop offset="0.94" stop-color="#bd0aa9"/></radialGradient><radialGradient id="Áåçûìÿííûé_ãðàäèåíò_272" cx="21.81" cy="33.84" r="18.46" gradientTransform="translate(30.32 -5.51) rotate(45)" gradientUnits="userSpaceOnUse"><stop offset="0.69"/><stop offset="0.8" stop-color="#020102"/><stop offset="0.85" stop-color="#090709"/><stop offset="0.88" stop-color="#141014"/><stop offset="0.9" stop-color="#251d25"/><stop offset="0.92" stop-color="#3b2e3b"/><stop offset="0.94" stop-color="#574457"/><stop offset="0.96" stop-color="#775d77"/><stop offset="0.97" stop-color="#9d7a9d"/><stop offset="0.99" stop-color="#c89cc8"/><stop offset="1" stop-color="#f6c0f6"/><stop offset="1" stop-color="#ffc7ff"/></radialGradient><linearGradient id="Áåçûìÿííûé_ãðàäèåíò_279" x1="26.59" y1="18.13" x2="26.59" y2="9.57" gradientUnits="userSpaceOnUse"><stop offset="0.02" stop-color="#879fb8"/><stop offset="0.97" stop-color="#858be2"/></linearGradient></defs><g class="cls-1"><g id="Layer_2" data-name="Layer 2"><g id="layer1"><path class="cls-2" d="M35.62,18.8a9.13,9.13,0,0,0,.92-2.92c0-1.32-2.46-3.39-2.84-3.61s4.56-9.18-2.28-10.33-9,6.89-9,6.89a8.51,8.51,0,0,0-3,.55c-.66.41-1.49,3.71-1.76,4.89a21.81,21.81,0,1,0,18,4.53Z"/><path class="cls-3" d="M35.62,17a9.13,9.13,0,0,0,.92-2.92c0-1.33-2.46-3.39-2.84-3.61S38.26,1.26,31.42.11s-9,6.89-9,6.89a8.51,8.51,0,0,0-3,.55c-.66.41-1.49,3.71-1.76,4.89a21.81,21.81,0,1,0,18,4.53Z"/><circle class="cls-4" cx="21.81" cy="33.84" r="18.46" transform="translate(-17.54 25.33) rotate(-45)"/><circle class="cls-5" cx="21.81" cy="33.84" r="18.46" transform="translate(-17.54 25.33) rotate(-45)"/><path class="cls-6" d="M8.84,21.54s4.21-.64,8.71,3.51S24.48,37,29,39.71s10.46-.53,10.46-.53S41.66,22,28.58,17A17.7,17.7,0,0,0,8.84,21.54Z"/><path class="cls-3" d="M30.63,23.75A22.57,22.57,0,0,1,32.91,32l6.23.62a18.87,18.87,0,0,0-3.79-9.87Z"/><path class="cls-3" d="M30.18,23.67H27.94s1.5,5.29,1.12,8.46h3.08S32.39,26.73,30.18,23.67Z"/><path class="cls-7" d="M4.51,33.84a17.12,17.12,0,0,0,5.12,12.5c6.11,6.17,16.24,5.24,17,4.66C26.59,51,7.44,52.71,4.51,33.84Z"/><path class="cls-8" d="M32.57,47.89a15.73,15.73,0,0,0,7-11.19A28,28,0,0,1,32.57,47.89Z"/><path class="cls-9" d="M4.49,32.13S4.89,19.58,17,16.42C17,16.42,7.66,19.51,4.49,32.13Z"/><path class="cls-10" d="M11.27,18.69s16.78-.16,22.46,1.06c0,0-2.33-3-8.56-4.37S11.27,18.69,11.27,18.69Z"/><path class="cls-11" d="M20.28,15.38l1.53-5.74s6.27-.81,11.1,3.21L31.2,18S25,19.16,20.28,15.38Z"/><path class="cls-12" d="M21.81,9.64a18.8,18.8,0,0,0,11.1,3.21S29.72,9.16,21.81,9.64Z"/><path class="cls-13" d="M30.24,12.35l-.78-.63c1-1.27,3.52-5,2.81-6.88a2,2,0,0,0-1.75-1.18,3.49,3.49,0,0,0-3.16.69c-2,1.77-1.67,5.94-1.67,6l-1,.07c0-.19-.33-4.71,2-6.81a4.48,4.48,0,0,1,4-.92,3,3,0,0,1,2.51,1.81C34.24,7.26,30.65,11.83,30.24,12.35Z"/></g></g></g></svg>