<svg xmlns="http://www.w3.org/2000/svg" viewBox="0 0 100.85 115.16"><defs><style>.cls-1{fill:#a5af22;}.cls-2{fill:#f97a23;}.cls-3{fill:#f42c61;}.cls-4{fill:#ffc300;}.cls-5{fill:#edf1f4;}.cls-6{fill:#ce114b;}.cls-7{fill:#ffa100;}.cls-8{fill:#f94823;}.cls-9{fill:#c3dae5;}.cls-10{fill:#90930f;}.cls-11{fill:#fc5186;}.cls-12{fill:#ffd252;}.cls-13{fill:#3a1c03;}</style></defs><g id="Layer_2" data-name="Layer 2"><g id="OBJECTS"><path class="cls-1" d="M30.06,46.43a.24.24,0,0,1-.15-.13l-.24-.48c-.42-.84-.83-1.67-1.2-2.49-3-6.67-4.57-12.83-4.7-18.32a9.85,9.85,0,0,1,.09-1.57.22.22,0,0,1,.11-.18,18,18,0,0,1,5.41-2.34l.69-.22a12.49,12.49,0,0,0,3-1.62A13.11,13.11,0,0,1,36,17.49h.08a.27.27,0,0,1,.12,0,.26.26,0,0,1,.13.16,9.78,9.78,0,0,0,2.25,4.21,6.81,6.81,0,0,0,2.92,1.89.26.26,0,0,1,.17.18.24.24,0,0,1-.06.23A22.77,22.77,0,0,0,35.65,37a.36.36,0,0,0,.09.27.22.22,0,0,0,.17.09.16.16,0,0,0,.14-.08,27.23,27.23,0,0,1,7.13-5.57.27.27,0,0,1,.12,0,.2.2,0,0,1,.13,0,.24.24,0,0,1,.12.21,24,24,0,0,0,.71,5.17.27.27,0,0,1,0,.21.26.26,0,0,1-.19.1c-2.49,0-5.09,1.66-7.17,3l-.62.39a6.59,6.59,0,0,0-2.16,1.89,8.16,8.16,0,0,0-.49.93c-.11.22-.22.45-.34.67a5.26,5.26,0,0,1-2.13,1.67c-.29.16-.59.32-.84.49a.25.25,0,0,1-.14,0Z"/><path class="cls-1" d="M61.79,39.05h-.08c-.72-.27-1.4-.58-2.05-.88a12.69,12.69,0,0,0-4.43-1.39c-.78-.06-1.55-.1-2.33-.14-1-.06-2-.11-3-.2h-.13a9.29,9.29,0,0,0-.94-.06,3,3,0,0,0-.72.07h-.06a.22.22,0,0,1-.18-.08.26.26,0,0,1-.06-.24c2-6.51,4.87-11.49,8.62-14.8a.31.31,0,0,1,.18-.07.15.15,0,0,1,.09,0c.24.1.49.19.76.28a6.85,6.85,0,0,0,1.41.25.28.28,0,0,1,.2.13c2.37,4.4,3.36,10.09,3,16.9a.21.21,0,0,1-.11.19A.23.23,0,0,1,61.79,39.05Z"/><path class="cls-2" d="M57,107.55a3,3,0,0,1-1.44-.94h0c-.54-.54-.94-.93-1.45-.93a1.44,1.44,0,0,0-.57.14,10.58,10.58,0,0,1-2.31.64h0a.46.46,0,0,1-.4-.17.33.33,0,0,1,0-.35c.17-.35.36-.68.55-1s.28-.49.41-.74c.39-.72,0-1.23-.57-2l-.23-.3c-.42-.55-.54-.89-.41-1.15a.64.64,0,0,1,.6-.27,5.79,5.79,0,0,1,.83.1,7,7,0,0,0,1,.11,1,1,0,0,0,.44-.08,2.13,2.13,0,0,0,.77-.9l.09-.16c.36-.61.78-1.25,1.24-1.25.18,0,.44.1.59.59s.19.7.27,1l.07.31c.2,1,.68,1.15,1.81,1.35.43.08.93.21,1,.6s-.45.86-1.08,1.34c-.39.28-.88.64-1,.88a2,2,0,0,0,0,1.09l.21,1.25a.75.75,0,0,1-.1.64A.42.42,0,0,1,57,107.55Z"/><path class="cls-2" d="M92,65.1c-.45,0-1.17-.65-1.45-.93-.54-.53-.94-.92-1.45-.92a1.33,1.33,0,0,0-.58.14,10.75,10.75,0,0,1-2.31.64.45.45,0,0,1-.4-.18.37.37,0,0,1,0-.35c.17-.34.36-.67.55-1l.42-.74c.4-.77,0-1.34-.57-2l-.24-.3c-.41-.55-.53-.89-.4-1.14S86,58,86.13,58a5.75,5.75,0,0,1,.84.1,6.9,6.9,0,0,0,1,.11,1,1,0,0,0,.45-.08,2.06,2.06,0,0,0,.76-.9l.1-.16c.36-.61.77-1.25,1.23-1.25.19,0,.45.11.6.6.1.34.18.7.26,1l.07.3c.21,1,.69,1.15,1.82,1.35.42.08.92.22,1,.6s-.44.87-1.08,1.34a3.52,3.52,0,0,0-1,.88,2.16,2.16,0,0,0,0,1.1l.21,1.25a.8.8,0,0,1-.1.63.42.42,0,0,1-.34.15Z"/><path class="cls-2" d="M17.1,83.43a3,3,0,0,1-1.44-.94h0c-.54-.54-.94-.93-1.45-.93a1.44,1.44,0,0,0-.57.14,10.58,10.58,0,0,1-2.31.64.46.46,0,0,1-.4-.17.33.33,0,0,1,0-.35c.17-.35.36-.69.55-1s.28-.49.41-.74c.41-.76,0-1.33-.57-2l-.23-.3c-.42-.55-.54-.89-.41-1.14a.64.64,0,0,1,.6-.28,6,6,0,0,1,.83.1,7,7,0,0,0,1,.11,1,1,0,0,0,.44-.08,2.11,2.11,0,0,0,.76-.9l.1-.16c.36-.61.78-1.25,1.24-1.25.19,0,.44.1.59.59s.19.7.27,1l.07.31c.2,1,.68,1.15,1.81,1.35.43.08.93.21,1,.6s-.45.86-1.08,1.34c-.39.28-.88.64-1,.88a2.05,2.05,0,0,0,0,1.1l.21,1.24a.75.75,0,0,1-.1.64.42.42,0,0,1-.34.15Z"/><path class="cls-3" d="M90.43,33.87a.24.24,0,0,1-.18-.07c-.54-.54-1.14-1-1.71-1.54l-.23-.19a.26.26,0,0,1-.06-.31c1-2.7,1.08-4.85.32-6.78-1-2.54-3.65-3.82-5.56-4.57a.24.24,0,0,1-.15-.28,16.46,16.46,0,0,0,.29-2.06.27.27,0,0,1,.25-.24h.07c3.25.9,5.42,2.28,6.82,4.35,2.36,3.46,1.74,8.23.37,11.53a.25.25,0,0,1-.18.15Z"/><path class="cls-3" d="M77.43,27.72a.23.23,0,0,1-.2-.1.24.24,0,0,1,0-.31c1.34-1.55,1.25-3.83-.22-5.82-1.82-2.45-5.52-4-9.43-4a12.39,12.39,0,0,0-3.47.47h-.07a.25.25,0,0,1-.16-.06.23.23,0,0,1-.08-.22,4.42,4.42,0,0,0-1-3.73.24.24,0,0,1,0-.35c2.61-2.76,6.74-6,11.6-6a11,11,0,0,1,3.34.53c5.5,1.8,5.37,9,4.43,12.92-.76,3.2-2.4,5.58-4.61,6.7A.2.2,0,0,1,77.43,27.72Z"/><path class="cls-3" d="M62.4,43.15a.18.18,0,0,1-.1,0,.24.24,0,0,1-.14-.26c1.07-8.47.26-15.45-2.41-20.73a.24.24,0,0,1,0-.23.26.26,0,0,1,.2-.13,4.55,4.55,0,0,0,1.19-.27h.1a.25.25,0,0,1,.21.12A21.72,21.72,0,0,0,71,28.39a.25.25,0,0,1,.14.13A22.35,22.35,0,0,1,73,42a.25.25,0,0,1-.21.21h0a.24.24,0,0,1-.22-.14,28.73,28.73,0,0,0-4.77-7,.18.18,0,0,0-.15-.07.31.31,0,0,0-.27.2,22.46,22.46,0,0,1-4.73,7.89A.24.24,0,0,1,62.4,43.15Z"/><path class="cls-3" d="M44.38,23.63l-.67,0a5.11,5.11,0,0,1-4.15-3.14,4,4,0,0,1,.13-3.32A5.47,5.47,0,0,1,43,14.42a9.45,9.45,0,0,1,2.63-.35,13.93,13.93,0,0,1,8.14,2.74.25.25,0,0,1,.09.2,4.32,4.32,0,0,0,.71,2.59.26.26,0,0,1,0,.19.21.21,0,0,1-.11.16c-3.9,2.44-7.31,3.68-10.14,3.68Z"/><path class="cls-3" d="M46,40.27a.24.24,0,0,1-.23-.15A22.57,22.57,0,0,1,44,31.05a.19.19,0,0,0-.07-.16.24.24,0,0,0-.19-.08.31.31,0,0,0-.13,0,28.28,28.28,0,0,0-6.83,4.93.26.26,0,0,1-.17.07l-.12,0a.25.25,0,0,1-.13-.27,21.63,21.63,0,0,1,6-11.43.23.23,0,0,1,.17-.07h0a8.61,8.61,0,0,0,1.55.13c3.83,0,8-2.11,10.8-3.88a.33.33,0,0,1,.13,0,.26.26,0,0,1,.17.07,4.8,4.8,0,0,0,.6.47.27.27,0,0,1,.11.19.3.3,0,0,1-.08.2c-4.45,4-7.67,10.39-9.58,18.9a.26.26,0,0,1-.23.19Z"/><path class="cls-3" d="M74.26,28.45a9.61,9.61,0,0,1-2.54-.36,21.08,21.08,0,0,1-9.79-6.66.25.25,0,0,1,0-.19.22.22,0,0,1,.1-.18,4.14,4.14,0,0,0,1.56-2.21,4.43,4.43,0,0,0,.13-.49l0-.14a.23.23,0,0,1,.17-.18,11.36,11.36,0,0,1,3.54-.54,14.9,14.9,0,0,1,7.1,1.88,6.8,6.8,0,0,1,3.63,5.49,3.71,3.71,0,0,1-2,3.34,7.24,7.24,0,0,1-1.88.24Z"/><path class="cls-3" d="M59.45,21.3a7.21,7.21,0,0,1-1.85-.25,4.06,4.06,0,0,1-2.78-2,5.39,5.39,0,0,1,.1-4.43,2.9,2.9,0,0,1,3-1.86,11.46,11.46,0,0,1,3,.53c2.15.59,2.89,2.42,2.2,5.42a3.32,3.32,0,0,1-3.61,2.58Z"/><path class="cls-3" d="M40.3,22.51a.28.28,0,0,1-.13,0,8,8,0,0,1-1.26-.95c-3.08-2.91-2.83-8-2.09-11.79.8-4.09,2.66-8.95,7-8.95a6.24,6.24,0,0,1,1.13.1c5.58,1,9,7,11,11.39a.25.25,0,0,1-.1.32,3.89,3.89,0,0,0-1.4,2,7.36,7.36,0,0,0-.48,1.87.26.26,0,0,1-.15.2l-.1,0a.27.27,0,0,1-.15-.05,13.86,13.86,0,0,0-7.83-2.53,8.21,8.21,0,0,0-4.57,1.22c-1.86,1.24-2.11,3.84-1.4,5.65a3.64,3.64,0,0,0,.74,1.16.25.25,0,0,1-.18.42Z"/><path class="cls-3" d="M23.24,66.44l-.11,0a.25.25,0,0,1-.14-.2s-.07-.53-.08-.67a8.92,8.92,0,0,1,0-1.79.28.28,0,0,1,.12-.19c3.33-2.51,6.38-5.42,6.33-9.75a13.39,13.39,0,0,0-1.87-5.68c-.21-.43-.42-.85-.62-1.27a81.32,81.32,0,0,1-3.8-9.59C21,30.83,20.5,25.69,21.59,21.11c1.48-6.21,6.78-9.95,14.17-10h0a.21.21,0,0,1,.18.09.23.23,0,0,1,.06.2c-.08.66-.14,1.32-.16,2a.23.23,0,0,1-.08.17.23.23,0,0,1-.17.07h0c-.35,0-.7,0-1,0a11.43,11.43,0,0,0-10.24,6.28c-1.94,3.72-.86,8.71-.06,12.35a60,60,0,0,0,3.06,9.61c.53,1.32,1.18,2.63,1.81,3.89a37,37,0,0,1,2.45,5.71c2.08,6.88-3.67,11.85-8.17,15A.23.23,0,0,1,23.24,66.44Z"/><path class="cls-3" d="M12,104.1a13.91,13.91,0,0,1-5.84-1.22C-1.32,99.49,0,89.11,3.38,81.26a.25.25,0,0,1,.23-.15h0a.23.23,0,0,1,.22.17,13.72,13.72,0,0,0,.89,2.16.26.26,0,0,1,0,.24c-1.8,4.36-3.48,12.63,1.51,16A10,10,0,0,0,12,101.35a25.66,25.66,0,0,0,8.14-1.67c5.42-1.88,9.81-5,14.46-8.31,1.15-.83,2.31-1.65,3.49-2.46,3-2.08,7.1-4.47,11.55-4.47h.46c4.2.15,7.28,3.33,9.75,6.42a.26.26,0,0,1,0,.21.23.23,0,0,1-.13.17,11.62,11.62,0,0,1-1.54.64,6.73,6.73,0,0,1-1.07.23h0a.26.26,0,0,1-.21-.11c-1.81-2-3.86-3.89-6.69-4.41a5.83,5.83,0,0,0-1.12-.1,13.89,13.89,0,0,0-6,1.87A117.13,117.13,0,0,0,33,95.32c-2.61,1.65-5.31,3.35-8,4.85-4.78,2.6-9.14,3.93-13,3.93Z"/><path class="cls-3" d="M81.05,112.4a18.67,18.67,0,0,1-9.26-2.71.23.23,0,0,1-.13-.21.25.25,0,0,1,.12-.22l.94-.59A12.3,12.3,0,0,1,74,108a.27.27,0,0,1,.12,0,.2.2,0,0,1,.11,0,13.86,13.86,0,0,0,6.26,1.58,12.46,12.46,0,0,0,9.9-5.16c3.84-4.86,3.93-11.64.24-17.69-2.35-3.85-5.86-6.93-9.25-9.91A67.87,67.87,0,0,1,74.7,70.4C71.43,66.62,69.85,62.79,70,59c.11-2.68,1.35-5.39,3.9-8.52a.27.27,0,0,1,.19-.1h0a.27.27,0,0,1,.18.08l.63.63a4.78,4.78,0,0,1,.84,1.24.25.25,0,0,1,0,.25c-1.44,2.18-3,5.13-2.61,8.6.32,2.59,2.2,5,4,7.05,2.06,2.35,4.38,4.53,6.62,6.64A67.4,67.4,0,0,1,93.3,85.23c4.74,6.83,4.12,15.29-1.61,22.07a13.59,13.59,0,0,1-10.64,5.1Z"/><path class="cls-4" d="M16,54.11a5.2,5.2,0,0,1-1.58-.25,4,4,0,0,1-2.64-2.41,5.49,5.49,0,0,1,.36-4.6,4.18,4.18,0,0,1,3.78-2.15,5.34,5.34,0,0,1,1.63.26,4.27,4.27,0,0,1,2.76,2.51,5.28,5.28,0,0,1-.4,4.45A4.65,4.65,0,0,1,16,54.11Z"/><path class="cls-4" d="M76,97.08a5.27,5.27,0,0,1-1.59-.25,4,4,0,0,1-2.64-2.42,5.5,5.5,0,0,1,.36-4.59,4.19,4.19,0,0,1,3.79-2.15,5.44,5.44,0,0,1,1.63.26,4.23,4.23,0,0,1,2.75,2.51,5.25,5.25,0,0,1-.39,4.45A4.67,4.67,0,0,1,76,97.08Z"/><path class="cls-1" d="M51.86,114.49c-.56,0-1.13,0-1.71-.07-1.13-.1-2.28-.16-3.43-.23a47.17,47.17,0,0,1-8.62-1,17.18,17.18,0,0,1-5.21-2.59A22.11,22.11,0,0,0,29,108.44c-.47-.18-.93-.34-1.4-.5a18.27,18.27,0,0,1-3.37-1.44,15.61,15.61,0,0,1-3.63-3.39.23.23,0,0,1-.06-.22.27.27,0,0,1,.15-.18,68.59,68.59,0,0,0,10.9-5.8l1.89-1.15c1-.64,2.09-1.29,3.13-1.94,1.46-.92,3-1.86,4.48-2.74a.24.24,0,0,1,.12,0,.27.27,0,0,1,.12,0,12.16,12.16,0,0,0,6.27,1.47c.85,0,1.71,0,2.62-.09l1.93-.08h.19a13.23,13.23,0,0,1,2.07.22,12.73,12.73,0,0,0,2,.22,4.49,4.49,0,0,0,.73-.06,12.93,12.93,0,0,0,4.37-1.88l.5-.28a13.29,13.29,0,0,1,2.45-1,10.35,10.35,0,0,0,2.88-1.33,3.58,3.58,0,0,0,.78-1l.13-.19a14.51,14.51,0,0,1,2.81-3.18l.47-.4A13.69,13.69,0,0,0,74.83,80a27.19,27.19,0,0,0,2.49-5.51.28.28,0,0,1,.18-.17h.06a.27.27,0,0,1,.17.06c1.1,1,2.21,2,3.29,3l1.24,1.1c4.08,3.64,8.2,7.61,9.85,12.72a.23.23,0,0,1,0,.21l-.78,1a32.43,32.43,0,0,1-6.41,7.13,21.52,21.52,0,0,0-2.66,2.57c-1.43,1.54-2.9,3.13-5,3.87a24.92,24.92,0,0,0-3.13,1.39.41.41,0,0,0-.15.07c-1.2.64-2.32,1.3-3.51,2l-.28.17a19.72,19.72,0,0,1-5.83,2,31.51,31.51,0,0,0-3.75,1,24.45,24.45,0,0,1-8.77,1.86ZM54,106.34a1.82,1.82,0,0,1,1.28.63c.49.5,1.52,1.54,2.2,1.54.18,0,.44-.07.61-.67a3.4,3.4,0,0,0-.13-1.28c-.2-.86-.42-1.83.33-2.37a7.32,7.32,0,0,1,.67-.41c.66-.38,1.4-.81,1.57-1.4a.72.72,0,0,0,0-.57c-.21-.35-.9-.49-1.56-.62-.87-.17-1.78-.35-1.94-1.1l-.08-.38c-.16-.81-.45-2.32-1.25-2.32l-.22,0c-.55.15-1,.93-1.31,1.5-.07.14-.15.27-.21.38a1.43,1.43,0,0,1-1.25.8,3.13,3.13,0,0,1-.9-.18,3.07,3.07,0,0,0-.88-.18,1.23,1.23,0,0,0-.47.09.91.91,0,0,0-.59.54c-.15.61.6,1.56,1.1,2.18l.25.32c.58.76,0,1.61-.46,2.35s-.85,1.4-.39,1.86a.86.86,0,0,0,.66.29,3,3,0,0,0,.7-.13,5.53,5.53,0,0,0,1-.45A2.82,2.82,0,0,1,54,106.34Zm-14-5.28a2.52,2.52,0,0,0-2.06,1.17,2.29,2.29,0,0,0-.34,1.82,2.56,2.56,0,0,0,1.2,1.65,2.22,2.22,0,0,0,1.12.31A2.64,2.64,0,0,0,42,104.82a2.42,2.42,0,0,0-.9-3.45A2.29,2.29,0,0,0,39.93,101.06ZM76.06,87.13a5.32,5.32,0,0,0-4.35,2.45A5,5,0,0,0,71,93.49,5.42,5.42,0,0,0,73.53,97a4.59,4.59,0,0,0,2.37.66,5.56,5.56,0,0,0,4.47-2.5,5.14,5.14,0,0,0-1.9-7.34A4.75,4.75,0,0,0,76.06,87.13Z"/><path class="cls-5" d="M39.91,105.49a2.35,2.35,0,0,1-.68-.11,1.67,1.67,0,0,1-1.08-1,2.28,2.28,0,0,1,.15-1.92,1.72,1.72,0,0,1,1.56-.89,2.43,2.43,0,0,1,.7.11,1.76,1.76,0,0,1,1.13,1,2.2,2.2,0,0,1-.17,1.86,1.92,1.92,0,0,1-1.61.91Z"/><path class="cls-1" d="M17.69,100a.25.25,0,0,1-.18-.08.08.08,0,0,0,0,0c-.38-.29-.8-.59-1.21-.89a29.79,29.79,0,0,1-2.86-2.23,19.29,19.29,0,0,1-1.93-2.26c-.37-.5-.76-1-1.16-1.46a12.69,12.69,0,0,1-2.38-4.72l-.24-.73A13.87,13.87,0,0,0,5.83,84.3l-.33-.49A10.59,10.59,0,0,1,4,79.15C3.83,78.09,3.56,77,3.31,76c-.15-.61-.3-1.23-.43-1.85a37.88,37.88,0,0,1-.61-5.74l0-.54A27.47,27.47,0,0,0,1.86,65a25.32,25.32,0,0,1-.39-3.06,19.13,19.13,0,0,1,.61-4.7c.13-.58.25-1.16.35-1.72L2.52,55A18.83,18.83,0,0,1,3.9,49.91c.36-.75.78-1.48,1.19-2.18s.7-1.2,1-1.82c.23-.45.43-.9.64-1.35a12.9,12.9,0,0,1,2.18-3.63l.49-.54a17.91,17.91,0,0,0,3.81-5.34c1.44-3.46,4.19-6.15,6.9-8.61a.24.24,0,0,1,.16-.07l.1,0a.25.25,0,0,1,.15.23A31.93,31.93,0,0,0,20.8,30a59.21,59.21,0,0,0,4.56,14.76c.35.8.76,1.62,1.16,2.42s.72,1.45,1.05,2.19a.25.25,0,0,1-.06.28,13.76,13.76,0,0,0-2.11,4.56,29.32,29.32,0,0,1-1.8,5.28l-.19.46c-1.8,4.39-.69,8.8.38,13.07l.23.94a17.37,17.37,0,0,0,1.67,4.84A13.61,13.61,0,0,0,28,81.47c.41.41.82.82,1.19,1.24.55.62,1,1.28,1.52,1.93A19.06,19.06,0,0,0,32.58,87a8.48,8.48,0,0,0,3.87,1.89.28.28,0,0,1,.18.2.29.29,0,0,1-.1.25c-.85.62-1.7,1.25-2.54,1.89a70,70,0,0,1-5.77,4.07A41.25,41.25,0,0,1,17.76,100ZM14,82.23a1.8,1.8,0,0,1,1.28.62c.5.51,1.52,1.54,2.2,1.54.18,0,.44-.07.61-.66A3.43,3.43,0,0,0,18,82.44c-.2-.86-.42-1.84.33-2.37a7.14,7.14,0,0,1,.66-.4c.66-.38,1.41-.82,1.58-1.41a.72.72,0,0,0,0-.57c-.21-.35-.89-.49-1.56-.62-.87-.17-1.78-.35-1.94-1.1l-.08-.38c-.16-.81-.45-2.32-1.25-2.32l-.22,0c-.55.15-1,.93-1.31,1.5-.07.14-.15.27-.21.38a1.43,1.43,0,0,1-1.25.8,3.13,3.13,0,0,1-.9-.18,3.07,3.07,0,0,0-.88-.18,1.23,1.23,0,0,0-.47.09.9.9,0,0,0-.59.55c-.15.6.6,1.55,1.1,2.17l.25.32c.58.76,0,1.61-.46,2.35s-.85,1.4-.39,1.86a.86.86,0,0,0,.66.29,3,3,0,0,0,.7-.13,5.53,5.53,0,0,0,1-.45A2.8,2.8,0,0,1,14,82.23Zm-.74-19.5a2.52,2.52,0,0,0-2.06,1.17,2.33,2.33,0,0,0-.34,1.82,2.56,2.56,0,0,0,1.2,1.65,2.22,2.22,0,0,0,1.12.31,2.64,2.64,0,0,0,2.11-1.19,2.42,2.42,0,0,0-.9-3.45A2.26,2.26,0,0,0,13.28,62.73Zm2.78-18.57a5.3,5.3,0,0,0-4.35,2.45A5,5,0,0,0,11,50.52,5.49,5.49,0,0,0,13.52,54a4.6,4.6,0,0,0,2.38.66,5.55,5.55,0,0,0,4.46-2.5,5.14,5.14,0,0,0-1.9-7.34A4.69,4.69,0,0,0,16.06,44.16Z"/><path class="cls-5" d="M13.26,67.16a2.35,2.35,0,0,1-.68-.11,1.67,1.67,0,0,1-1.08-1,2.28,2.28,0,0,1,.15-1.92,1.73,1.73,0,0,1,1.56-.89,2.38,2.38,0,0,1,.7.11,1.76,1.76,0,0,1,1.13,1,2.16,2.16,0,0,1-.17,1.86,1.92,1.92,0,0,1-1.61.91Z"/><path class="cls-5" d="M92.85,75a2.29,2.29,0,0,1-.67-.11,1.64,1.64,0,0,1-1.08-1A2.28,2.28,0,0,1,91.25,72a1.73,1.73,0,0,1,1.56-.89,2.49,2.49,0,0,1,.7.11,1.78,1.78,0,0,1,1.13,1,2.23,2.23,0,0,1-.17,1.86,1.93,1.93,0,0,1-1.62.91Z"/><path class="cls-1" d="M94.8,86.54a.25.25,0,0,1-.22-.13C92.36,82.5,88.89,79,85.83,76l-.44-.44c-1-1-2.11-2-3.15-3-1.42-1.33-2.89-2.7-4.25-4.14a.28.28,0,0,1-.06-.25l.11-.31c.88-2.62,1.52-4.51.48-7.21l-.39-1a16.56,16.56,0,0,1-1-3.12c-.1-.5-.17-1-.24-1.48a13.21,13.21,0,0,0-.67-3,5.88,5.88,0,0,0-1.55-2l-.33-.32a9.57,9.57,0,0,1-1.75-2.72c-.24-.46-.47-.93-.74-1.38a6.85,6.85,0,0,0-2.07-1.83l-.38-.26c-.66-.46-1.3-1-1.92-1.47s-1.29-1-2-1.52a.25.25,0,0,1-.07-.34A23.85,23.85,0,0,0,67.5,36.1a.23.23,0,0,1,.19-.15h0a.25.25,0,0,1,.19.09,26.86,26.86,0,0,1,4.78,7.59.34.34,0,0,0,.31.2c.1,0,.15,0,.17-.16A23.7,23.7,0,0,0,72,29.07a.28.28,0,0,1,0-.26.25.25,0,0,1,.19-.09h.06c.42.1.84.18,1.27.24a8.68,8.68,0,0,0,1.12.08A7,7,0,0,0,80.4,26a.26.26,0,0,1,.2-.1l.1,0c1.79.68,3,1.12,4.07,2.82l.23.36a12.91,12.91,0,0,0,1.55,2.06,18.28,18.28,0,0,0,1.7,1.47c.43.34.85.68,1.25,1a10.6,10.6,0,0,1,2.62,4.16,30.91,30.91,0,0,0,3.1,6.07,18.75,18.75,0,0,1,3.09,8.91A44.81,44.81,0,0,0,99.41,58c.2.78.39,1.55.57,2.33a16.33,16.33,0,0,1-.23,6.18,25.81,25.81,0,0,0-.43,4c0,.37,0,.74,0,1.09,0,2.55.09,4.76-1.32,7.34a36.22,36.22,0,0,0-2.1,5c-.29.8-.58,1.6-.89,2.39a.27.27,0,0,1-.22.16Zm-1.92-16a2.54,2.54,0,0,0-2.07,1.17,2.28,2.28,0,0,0-.33,1.82,2.58,2.58,0,0,0,1.19,1.65,2.15,2.15,0,0,0,1.12.31,2.65,2.65,0,0,0,2.12-1.19,2.43,2.43,0,0,0-.9-3.45A2.32,2.32,0,0,0,92.88,70.54Zm-4-6.64a1.76,1.76,0,0,1,1.27.63c.5.5,1.52,1.53,2.21,1.53.18,0,.44-.06.6-.66a3,3,0,0,0-.13-1.28c-.19-.87-.41-1.84.34-2.37a7.05,7.05,0,0,1,.66-.41c.66-.38,1.41-.81,1.57-1.41a.68.68,0,0,0,0-.57c-.22-.35-.9-.48-1.56-.61-.88-.18-1.78-.35-1.94-1.11l-.08-.37c-.16-.82-.46-2.33-1.25-2.33l-.23,0c-.55.16-1,.94-1.3,1.51l-.22.37a1.4,1.4,0,0,1-1.24.8,3.49,3.49,0,0,1-.9-.17,3.2,3.2,0,0,0-.89-.18,1.14,1.14,0,0,0-.46.09.85.85,0,0,0-.59.54c-.16.61.59,1.55,1.09,2.17l.26.33c.57.75,0,1.6-.46,2.35s-.86,1.4-.4,1.86a.92.92,0,0,0,.67.28,2.53,2.53,0,0,0,.7-.13,5.16,5.16,0,0,0,1-.45A2.88,2.88,0,0,1,88.89,63.9ZM84.12,38.07a5.32,5.32,0,0,0-4.35,2.45A5,5,0,0,0,79,44.43a5.42,5.42,0,0,0,2.54,3.49,4.59,4.59,0,0,0,2.37.66,5.56,5.56,0,0,0,4.47-2.5,5.15,5.15,0,0,0-1.9-7.35A4.85,4.85,0,0,0,84.12,38.07Z"/><path class="cls-4" d="M84.07,48a5.16,5.16,0,0,1-1.58-.25,4,4,0,0,1-2.64-2.42,5.5,5.5,0,0,1,.35-4.59A4.19,4.19,0,0,1,84,38.62a5.39,5.39,0,0,1,1.63.26,4.24,4.24,0,0,1,2.75,2.5A5.26,5.26,0,0,1,88,45.84,4.67,4.67,0,0,1,84.07,48Z"/><path class="cls-6" d="M35.58,13.62h0a.23.23,0,0,0,.17-.07.23.23,0,0,0,.08-.17c0-.34.06-.69.09-1a10.46,10.46,0,0,0-5.14.8,14.09,14.09,0,0,0-6.14,4C21,21.7,22.33,28.91,23.66,34a60.62,60.62,0,0,0,3.12,8.74c1.5,3.44,3.4,6.82,3.84,10.61a9.41,9.41,0,0,1-.89,5.16c-.83,1.82-3.46,6-6,4.5-.24.19-.48.38-.73.56a.28.28,0,0,0-.12.19,8.92,8.92,0,0,0,0,1.79c0,.14.08.67.08.67a.25.25,0,0,0,.14.2l.11,0a.23.23,0,0,0,.14,0c4.5-3.14,10.25-8.11,8.17-15A37,37,0,0,0,29.1,45.7c-.63-1.26-1.28-2.57-1.81-3.89a60,60,0,0,1-3.06-9.61c-.8-3.64-1.88-8.63.06-12.35a11.43,11.43,0,0,1,10.24-6.28C34.88,13.57,35.23,13.59,35.58,13.62Z"/><path class="cls-6" d="M87,109.1a14,14,0,0,0,6.75-8.5A17.94,17.94,0,0,0,91.34,85C87.42,79.41,81,75.88,76.46,70.75c-2.85-3.25-5-7.25-5-11.65,0-.18,0-.36,0-.54.18-3.42,2-6.51,4-5.61l.24-.37a.25.25,0,0,0,0-.25,4.78,4.78,0,0,0-.84-1.24l-.63-.63a.27.27,0,0,0-.18-.08h0a.27.27,0,0,0-.19.1C71.35,53.61,70.11,56.32,70,59c-.15,3.79,1.43,7.62,4.7,11.4a67.87,67.87,0,0,0,6.65,6.37c3.39,3,6.9,6.06,9.25,9.91,3.69,6,3.6,12.83-.24,17.69a12.46,12.46,0,0,1-9.9,5.16A13.86,13.86,0,0,1,74.2,108a.2.2,0,0,0-.11,0,.27.27,0,0,0-.12,0,12.3,12.3,0,0,0-1.25.72l-.94.59a.25.25,0,0,0-.12.22.23.23,0,0,0,.13.21C75.28,111.72,83.32,111,87,109.1Z"/><path class="cls-6" d="M83,20.41c1.91.75,4.57,2,5.56,4.57.76,1.93.67,4.08-.32,6.78a.26.26,0,0,0,.06.31l.23.19.31.27a10.68,10.68,0,0,0,.87-6.93c-.6-2.93-3.62-6-6.74-6.2,0,.24-.07.48-.12.73A.24.24,0,0,0,83,20.41Z"/><path class="cls-6" d="M55.82,20.79a4.8,4.8,0,0,1-.6-.47.26.26,0,0,0-.17-.07.33.33,0,0,0-.13,0c-2.81,1.77-7,3.88-10.8,3.88A8.61,8.61,0,0,1,42.57,24h0a.23.23,0,0,0-.17.07q-.45.45-.87.93c2.37,1.39,6.63.12,8.71-.7a21.07,21.07,0,0,0,5.69-3.24.26.26,0,0,0,0-.12A.27.27,0,0,0,55.82,20.79Z"/><path class="cls-6" d="M63.83,17.12c0,.18,0,.35,0,.54a.25.25,0,0,0,0,.17,2.43,2.43,0,0,0,.19-.47A.2.2,0,0,0,63.83,17.12Z"/><path class="cls-6" d="M40.3,22.51a.25.25,0,0,0,.18-.42c-.07-.07-.12-.16-.19-.24a2.58,2.58,0,0,0-.18.58l.06.05A.28.28,0,0,0,40.3,22.51Z"/><path class="cls-6" d="M67,28.44a11.73,11.73,0,0,0,4.85,1.45c-.19-.46-.39-.92-.62-1.37a.25.25,0,0,0-.14-.13,21.72,21.72,0,0,1-9.59-6.77.25.25,0,0,0-.21-.12h-.1a4.55,4.55,0,0,1-1.19.27.26.26,0,0,0-.2.13.24.24,0,0,0,0,.23C61.25,25.11,62.77,26.17,67,28.44Z"/><path class="cls-6" d="M39.11,89.2c3.8-2.54,8.34-4.33,12.78-3.12,4,1.09,5.08,3,5.49,6a7.34,7.34,0,0,0,.84-.18,11.62,11.62,0,0,0,1.54-.64.23.23,0,0,0,.13-.17.26.26,0,0,0,0-.21c-2.47-3.09-5.55-6.27-9.75-6.42h-.46c-4.45,0-8.51,2.39-11.55,4.47-1.18.81-2.34,1.63-3.49,2.46-4.65,3.3-9,6.43-14.46,8.31A25.66,25.66,0,0,1,12,101.35a10,10,0,0,1-5.76-1.62c-5-3.42-3.31-11.69-1.51-16a.26.26,0,0,0,0-.24c-.16-.3-.3-.62-.44-1A18.31,18.31,0,0,0,2.81,97.3c2.23,6,9,5.13,14.15,4.13C25.45,99.76,32.1,93.9,39.11,89.2Z"/><path class="cls-6" d="M59.68,19.05a3.71,3.71,0,0,1-4.36-2,17.1,17.1,0,0,1-.56-2,5.18,5.18,0,0,0,.06,4,4.06,4.06,0,0,0,2.78,2,7.21,7.21,0,0,0,1.85.25h0a3.32,3.32,0,0,0,3.61-2.58,7.06,7.06,0,0,0,.16-2.94A4.88,4.88,0,0,1,59.68,19.05Z"/><path class="cls-6" d="M53.89,17a.25.25,0,0,0-.09-.2c-1.07-.84-4.91-2.9-8.14-2.74-4,.2-5.27,1.68-5.95,3a5.54,5.54,0,0,0,.73,4.77,3.58,3.58,0,0,0,.26.29,4.73,4.73,0,0,1,1.8-4.93c1.58-1.22,4.18-.77,6-.46a14.38,14.38,0,0,1,6.16,3,.32.32,0,0,0,0-.17A4.32,4.32,0,0,1,53.89,17Z"/><path class="cls-6" d="M77.9,23.39a7.27,7.27,0,0,0-3.39-4,14.9,14.9,0,0,0-7.1-1.88,11.36,11.36,0,0,0-3.54.54.23.23,0,0,0-.17.18l0,.14a4.43,4.43,0,0,1-.13.49,4.7,4.7,0,0,1-.35.82c4.52-1.35,10.43-.12,12.89,4a5.11,5.11,0,0,1,.56,4.23A3.85,3.85,0,0,0,77.9,23.39Z"/><path class="cls-7" d="M11.79,51.45a4,4,0,0,0,2.64,2.41,5.2,5.2,0,0,0,1.58.25,4.65,4.65,0,0,0,3.91-2.19,5.28,5.28,0,0,0,.4-4.45.41.41,0,0,1-.05-.09A6.41,6.41,0,0,1,18.83,50a4.13,4.13,0,0,1-5.14.64,4,4,0,0,1-2-2.74A5.36,5.36,0,0,0,11.79,51.45Z"/><path class="cls-7" d="M88.66,42.51a8,8,0,0,1-1.55,2.13c-1.82,1.81-5.37,1.84-6.94-.25a4.83,4.83,0,0,1-.65-1.26,4.93,4.93,0,0,0,.33,2.23,4,4,0,0,0,2.64,2.42,5.16,5.16,0,0,0,1.58.25A4.67,4.67,0,0,0,88,45.84,5.59,5.59,0,0,0,88.66,42.51Z"/><path class="cls-7" d="M78.12,93.75c-3,2.21-5.58-.1-6.39-3a5.38,5.38,0,0,0,.06,3.61,4,4,0,0,0,2.64,2.42,5.27,5.27,0,0,0,1.59.25,4.67,4.67,0,0,0,3.91-2.19,5.29,5.29,0,0,0,.4-4.42A5.21,5.21,0,0,1,78.12,93.75Z"/><path class="cls-8" d="M11.32,82.35a10.58,10.58,0,0,0,2.31-.64,1.44,1.44,0,0,1,.57-.14c.51,0,.91.39,1.45.93h0a3,3,0,0,0,1.44.94.42.42,0,0,0,.34-.15.75.75,0,0,0,.1-.64l-.21-1.24a2.05,2.05,0,0,1,0-1.1c.08-.24.57-.6,1-.88.63-.48,1.19-.88,1.08-1.34s-.59-.52-1-.6l-.47-.09a7.32,7.32,0,0,1-6.28,3.19l-.13.23c-.19.33-.38.67-.55,1a.33.33,0,0,0,0,.35A.46.46,0,0,0,11.32,82.35Z"/><path class="cls-8" d="M54.13,105.69c.51,0,.91.39,1.45.93h0a3,3,0,0,0,1.44.94.42.42,0,0,0,.34-.15.75.75,0,0,0,.1-.64l-.21-1.25a2,2,0,0,1,0-1.09c.08-.24.57-.6,1-.88,0,0,0,0,.05-.05a14.87,14.87,0,0,1-3.61.43,7.42,7.42,0,0,1-2.73-.58,1.1,1.1,0,0,1-.12.85c-.13.25-.27.5-.41.74s-.38.67-.55,1a.33.33,0,0,0,0,.35.46.46,0,0,0,.4.17,10.58,10.58,0,0,0,2.31-.64A1.44,1.44,0,0,1,54.13,105.69Z"/><path class="cls-8" d="M89.07,63.25c.51,0,.91.39,1.45.92.28.28,1,.93,1.45.93a.42.42,0,0,0,.34-.15.8.8,0,0,0,.1-.63l-.21-1.25a2.16,2.16,0,0,1,0-1.1,2.53,2.53,0,0,1,.74-.72,9.11,9.11,0,0,1-6-.25,1.24,1.24,0,0,1-.14.75l-.42.74c-.19.34-.38.67-.55,1a.37.37,0,0,0,0,.35.45.45,0,0,0,.4.18,10.75,10.75,0,0,0,2.31-.64A1.33,1.33,0,0,1,89.07,63.25Z"/><path class="cls-9" d="M41.52,104.58a2.24,2.24,0,0,0,.29-1.22c-1.38,1-2.83.93-3.76-.12a2.22,2.22,0,0,0,.1,1.15,1.67,1.67,0,0,0,1.08,1,2.35,2.35,0,0,0,.68.11A1.92,1.92,0,0,0,41.52,104.58Z"/><path class="cls-9" d="M92.69,73.31a2.4,2.4,0,0,1-1.42-1.39s0,0,0,0a2.28,2.28,0,0,0-.15,1.92,1.64,1.64,0,0,0,1.08,1,2.29,2.29,0,0,0,.67.11,1.93,1.93,0,0,0,1.62-.91,2.23,2.23,0,0,0,.17-1.86,2.37,2.37,0,0,0-.19-.35,7.5,7.5,0,0,1-.42.74C93.7,73.12,93.31,73.48,92.69,73.31Z"/><path class="cls-9" d="M13.86,65a1.74,1.74,0,0,1-2.41-.41,2.28,2.28,0,0,0,.05,1.44,1.67,1.67,0,0,0,1.08,1,2.35,2.35,0,0,0,.68.11,1.92,1.92,0,0,0,1.61-.91A2.16,2.16,0,0,0,15,64.39a1.19,1.19,0,0,0-.13-.25A2.77,2.77,0,0,1,13.86,65Z"/><path class="cls-10" d="M80.6,25.85a.26.26,0,0,0-.2.1,7,7,0,0,1-5.76,3.1A8.68,8.68,0,0,1,73.52,29c-.43-.06-.85-.14-1.27-.24h-.06a.25.25,0,0,0-.19.09.28.28,0,0,0,0,.26c.15.34.27.68.4,1,3.23.7,7.24-1.08,8.35-4.21h0Z"/><path class="cls-10" d="M41.35,91.08a.27.27,0,0,0-.12,0,.24.24,0,0,0-.12,0c-1.52.88-3,1.82-4.48,2.74-1,.65-2.08,1.3-3.13,1.94l-1.89,1.15a68.59,68.59,0,0,1-10.9,5.8.27.27,0,0,0-.15.18.23.23,0,0,0,.06.22c.35.41.71.82,1.08,1.22,3.29-.86,6.62-3.13,9.21-4.62C35,97.34,38.8,93.84,43.19,91.9A12.58,12.58,0,0,1,41.35,91.08Z"/><path class="cls-10" d="M41.65,24a.26.26,0,0,0-.17-.18,6.81,6.81,0,0,1-2.92-1.89,9.41,9.41,0,0,1-1.69-2.63c-.37,2.59.93,5.53,3.5,6.33.38-.48.79-.95,1.22-1.4A.24.24,0,0,0,41.65,24Z"/><path class="cls-10" d="M82.26,78.46,81,77.36c-1.08-1-2.19-1.94-3.29-3a.27.27,0,0,0-.17-.06H77.5a.28.28,0,0,0-.18.17c-.07.23-.17.48-.25.72,2.63,2.65,5.25,5.3,7.8,8a22.14,22.14,0,0,1,4.8,7.61,9.93,9.93,0,0,1,.54,3.08c.37-.49.73-1,1.1-1.49l.78-1a.23.23,0,0,0,0-.21C90.46,86.07,86.34,82.1,82.26,78.46Z"/><path class="cls-10" d="M29.67,45.82l.24.48a.24.24,0,0,0,.15.13h.07a.25.25,0,0,0,.14,0c.25-.17.55-.33.84-.49l.45-.25c-.84-2.93-2-5.76-3.1-8.6a38.74,38.74,0,0,1-2.57-10.25,21.49,21.49,0,0,1-.06-4.62A11.71,11.71,0,0,0,24,23.26a.22.22,0,0,0-.11.18A9.85,9.85,0,0,0,23.77,25c.13,5.49,1.71,11.65,4.7,18.32C28.84,44.15,29.25,45,29.67,45.82Z"/><path class="cls-10" d="M67.73,35.94h0a.23.23,0,0,0-.19.15c-.09.22-.19.42-.28.63A27.52,27.52,0,0,1,71,43.2a.52.52,0,0,0,.77.31,3.09,3.09,0,0,0,.63-.62A27,27,0,0,0,67.92,36,.25.25,0,0,0,67.73,35.94Z"/><path class="cls-10" d="M37.81,37.3a66.39,66.39,0,0,0,5.57-3.7l.26-.19c0-.51-.07-1-.09-1.51a.24.24,0,0,0-.12-.21.2.2,0,0,0-.13,0,.27.27,0,0,0-.12,0,28.44,28.44,0,0,0-6,4.43,7.66,7.66,0,0,0,0,.83A.43.43,0,0,0,37.81,37.3Z"/><path class="cls-10" d="M47.82,36.11a.26.26,0,0,0,.06.24.22.22,0,0,0,.18.08h.06a3,3,0,0,1,.72-.07,9.29,9.29,0,0,1,.94.06h.12a44.37,44.37,0,0,1,3.89-8.77,28,28,0,0,1,3.79-4.73,26.24,26.24,0,0,1,2,4.57,22.81,22.81,0,0,1,.72,7.13,28.3,28.3,0,0,1-.34,3.66c.57.26,1.16.52,1.78.75h.08a.23.23,0,0,0,.14,0,.21.21,0,0,0,.11-.19c.4-6.81-.59-12.5-3-16.9a.28.28,0,0,0-.2-.13,6.85,6.85,0,0,1-1.41-.25c-.27-.09-.52-.18-.76-.28a.15.15,0,0,0-.09,0,.31.31,0,0,0-.18.07C52.69,24.62,49.79,29.6,47.82,36.11Z"/><path class="cls-10" d="M11.91,68.41c1.57,1.46,3.63.5,4.55-1.18a2.56,2.56,0,0,0-1.28-3.54,2.44,2.44,0,0,1,.13,2.8,2.64,2.64,0,0,1-2.11,1.19,2.22,2.22,0,0,1-1.12-.31,2.56,2.56,0,0,1-1.2-1.65.28.28,0,0,1,0-.09,2.55,2.55,0,0,0-.06.54A3.3,3.3,0,0,0,11.91,68.41Z"/><path class="cls-10" d="M12,92.48C10.13,90,9.3,86.6,7.84,83.84A36,36,0,0,1,4.46,72.67,96,96,0,0,1,3.58,61.3C3.39,57.17,4.86,53.77,6.18,50,6.77,48.26,7.26,46.5,8,44.83a14.57,14.57,0,0,1,3.21-4.08A13.47,13.47,0,0,0,15,33.19c.12-.59.24-1.17.38-1.75a16.49,16.49,0,0,0-2.11,3.61,17.91,17.91,0,0,1-3.81,5.34l-.49.54a12.9,12.9,0,0,0-2.18,3.63c-.21.45-.41.9-.64,1.35-.31.62-.66,1.22-1,1.82s-.83,1.43-1.19,2.18A18.83,18.83,0,0,0,2.52,55l-.09.54c-.1.56-.22,1.14-.35,1.72a19.13,19.13,0,0,0-.61,4.7A25.32,25.32,0,0,0,1.86,65a27.47,27.47,0,0,1,.38,2.87l0,.54a37.88,37.88,0,0,0,.61,5.74c.13.62.28,1.24.43,1.85.25,1,.52,2.1.67,3.16A10.59,10.59,0,0,0,5.5,83.81l.33.49a13.87,13.87,0,0,1,1.86,3.29l.24.73A12.69,12.69,0,0,0,10.31,93c.4.45.79,1,1.16,1.46a19.29,19.29,0,0,0,1.93,2.26A29.79,29.79,0,0,0,16.26,99c.41.3.83.6,1.21.89a.08.08,0,0,1,0,0,.25.25,0,0,0,.18.08h.07c.42-.12.84-.24,1.27-.38A60.47,60.47,0,0,1,12,92.48Z"/><path class="cls-10" d="M38.81,107.3a2.73,2.73,0,0,0,3.27-.85,3,3,0,0,0,.49-3.41,2.83,2.83,0,0,0-.61-.82,2.46,2.46,0,0,1,0,2.6A2.64,2.64,0,0,1,39.85,106a2.22,2.22,0,0,1-1.12-.31,2.56,2.56,0,0,1-1.2-1.65,3.47,3.47,0,0,1-.06-.45,3,3,0,0,0-.19,1A3.15,3.15,0,0,0,38.81,107.3Z"/><path class="cls-10" d="M99.34,71.67c0-.35,0-.72,0-1.09a25.81,25.81,0,0,1,.43-4,16.33,16.33,0,0,0,.23-6.18c-.18-.78-.37-1.55-.57-2.33a44.81,44.81,0,0,1-1.1-5.27,18.75,18.75,0,0,0-3.09-8.91c-.46-.68-.87-1.37-1.27-2.1.81,3.53,2.37,6.82,2.8,10.45.39,3.34,1.67,6.6,1.86,10,.11,1.86-.59,3.72-.87,5.54-.32,2.17.09,4.37-.24,6.56-.53,3.57-2.26,6.56-3.93,9.69l-.26.49c.45.65.88,1.31,1.27,2a.25.25,0,0,0,.22.13h0a.27.27,0,0,0,.22-.16c.31-.79.6-1.59.89-2.39A36.22,36.22,0,0,1,98,79C99.43,76.43,99.39,74.22,99.34,71.67Z"/><path class="cls-10" d="M69.22,108.68a53.17,53.17,0,0,1-10.95,3.38,36.1,36.1,0,0,1-8.76.88,38.32,38.32,0,0,1-11-1.57c-3.6-1-6.85-3.17-10.23-4.73a27,27,0,0,1-6.43-4.4c-.38.16-.76.33-1.15.47a.27.27,0,0,0-.15.18.23.23,0,0,0,.06.22,15.61,15.61,0,0,0,3.63,3.39,18.27,18.27,0,0,0,3.37,1.44c.47.16.93.32,1.4.5a22.11,22.11,0,0,1,3.87,2.15,17.18,17.18,0,0,0,5.21,2.59,47.17,47.17,0,0,0,8.62,1c1.15.07,2.3.13,3.43.23.58,0,1.15.07,1.71.07h0a24.45,24.45,0,0,0,8.77-1.86,31.51,31.51,0,0,1,3.75-1,19.72,19.72,0,0,0,5.83-2l.28-.17c1.19-.7,2.31-1.36,3.51-2a.41.41,0,0,1,.15-.07A24.92,24.92,0,0,1,77.28,106c2.06-.74,3.53-2.33,5-3.87a21.52,21.52,0,0,1,2.66-2.57,32.43,32.43,0,0,0,6.41-7.13l.78-1a.23.23,0,0,0,0-.21A15.8,15.8,0,0,0,91,88.6c-.88,1.55-1.8,3.07-2.81,4.54C84.16,99,75.63,105.62,69.22,108.68Z"/><path class="cls-10" d="M88.42,46.08A5.56,5.56,0,0,1,84,48.58a4.59,4.59,0,0,1-2.37-.66A5.42,5.42,0,0,1,79,44.43c0-.12,0-.25-.05-.38a5,5,0,0,0,1,4.64c2.22,2.29,5.55,2,7.85,0a4.55,4.55,0,0,0,1.38-5.25A6,6,0,0,1,88.42,46.08Z"/><path class="cls-10" d="M95.32,75A2.78,2.78,0,0,0,95.1,72L95,71.84a2.49,2.49,0,0,1-.08,2.46,2.65,2.65,0,0,1-2.12,1.19,2.15,2.15,0,0,1-1.12-.31,2.58,2.58,0,0,1-1.19-1.65,2.39,2.39,0,0,1,.07-1.3,3.83,3.83,0,0,0-.36,1.1,2.44,2.44,0,0,0,1.6,2.85A3.23,3.23,0,0,0,95.32,75Z"/><path class="cls-10" d="M20.36,52.16a5.55,5.55,0,0,1-4.46,2.5A4.6,4.6,0,0,1,13.52,54,5.49,5.49,0,0,1,11,50.52a4.78,4.78,0,0,1-.09-.76,6.67,6.67,0,0,0-.1,1.68A5.22,5.22,0,0,0,13,55.33c2.2,1.51,5.27.31,7-1.33a4.41,4.41,0,0,0,1.08-5.39A5.69,5.69,0,0,1,20.36,52.16Z"/><path class="cls-10" d="M78.2,98.17a5,5,0,0,0,3-6.4l-.09-.17a5.69,5.69,0,0,1-.74,3.53,5.56,5.56,0,0,1-4.47,2.5A4.59,4.59,0,0,1,73.53,97,5.42,5.42,0,0,1,71,93.49,5,5,0,0,1,71.08,91a6.31,6.31,0,0,0,.23,5.9C72.83,99.23,75.9,99.15,78.2,98.17Z"/><path class="cls-10" d="M86,62.14a1.49,1.49,0,0,0,.07-1.71l-.26-.33a6.47,6.47,0,0,1-1-1.58,1.6,1.6,0,0,0-.23.74A3.43,3.43,0,0,0,86,62.14Z"/><path class="cls-10" d="M90.51,65.74c.69.72,2.12,2.12,3,.78a3.77,3.77,0,0,0,.57-2.59c-.16-.81-.48-1.48.19-2.14A3.28,3.28,0,0,0,95,60.53v0a5.88,5.88,0,0,1-1.19.84,7.05,7.05,0,0,0-.66.41c-.75.53-.53,1.5-.34,2.37A3,3,0,0,1,93,65.4c-.16.6-.42.66-.6.66-.69,0-1.71-1-2.21-1.53a1.76,1.76,0,0,0-1.27-.63,2.88,2.88,0,0,0-1.3.44,5.16,5.16,0,0,1-1,.45,2.53,2.53,0,0,1-.7.13h-.07a1,1,0,0,0,.5.58c.5.26,1.19-.07,1.65-.27C89.23,64.64,89.54,64.73,90.51,65.74Z"/><path class="cls-10" d="M55.81,108.63c.89.72,2.33,1.57,2.82-.1a8.28,8.28,0,0,0,.25-1.3c.07-.6-.33-1.7.19-2a2.81,2.81,0,0,0,1.22-2.33,1.1,1.1,0,0,0,0-.18,4.49,4.49,0,0,1-1.36,1,7.32,7.32,0,0,0-.67.41c-.75.54-.53,1.51-.33,2.37a3.4,3.4,0,0,1,.13,1.28c-.17.6-.43.67-.61.67-.68,0-1.71-1-2.2-1.54a1.82,1.82,0,0,0-1.28-.63,2.82,2.82,0,0,0-1.29.45,5.53,5.53,0,0,1-1,.45,3,3,0,0,1-.7.13.86.86,0,0,1-.66-.29.64.64,0,0,1-.1-.13,1.13,1.13,0,0,0,.66,1.55c.56.24,1.46-.24,2-.42A2.67,2.67,0,0,1,55.81,108.63Z"/><path class="cls-10" d="M50.9,104.86c.4-.65.71-1.35.23-2l-.25-.32a8.27,8.27,0,0,1-.87-1.24,1.89,1.89,0,0,0-.28,1.44A4,4,0,0,0,50.9,104.86Z"/><path class="cls-10" d="M11,80.72c.4-.64.7-1.34.22-2L11,78.43A7.81,7.81,0,0,1,10,77.07c-1,.93-.25,2.57.64,3.38Z"/><path class="cls-10" d="M19,84.12a8.28,8.28,0,0,0-.07-1.86c-.05-.81,1.05-1.62,1.52-2.23a1.86,1.86,0,0,0,.16-1.9.62.62,0,0,1,0,.13c-.17.59-.92,1-1.58,1.41a7.14,7.14,0,0,0-.66.4c-.75.53-.53,1.51-.33,2.37a3.43,3.43,0,0,1,.13,1.29c-.17.59-.43.66-.61.66-.68,0-1.7-1-2.2-1.54A1.8,1.8,0,0,0,14,82.23a2.8,2.8,0,0,0-1.29.44,5.53,5.53,0,0,1-1,.45,3,3,0,0,1-.7.13.79.79,0,0,1-.22,0c-.1.83.28,1.4,1.55,1.08.71-.17,1.48-.54,2.19-.19s1.17,1.13,1.89,1.5A1.8,1.8,0,0,0,19,84.12Z"/><path class="cls-11" d="M52.05,9.15c-1.43-2.81-4.18-5.32-7.1-5.9-2.62-.52-4.58,2.4-5.27,5.15-1,4,1,3.88,3.5,3a10.09,10.09,0,0,1,6.29,0C51.81,12.16,53.29,11.59,52.05,9.15Z"/><path class="cls-11" d="M78.62,10.79c-2.85-2.29-6.78-1.21-9.69.71-2,1.35-2.81,2.93.8,3.37a12.9,12.9,0,0,1,4.6,1.27,8,8,0,0,1,2.45,2.35c2.57,3.35,3.4,1.56,3.87-.62C81.19,15.33,80.55,12.34,78.62,10.79Z"/><path class="cls-12" d="M82.53,41.22a1.64,1.64,0,0,0,.8,2.6l.14.06a1.73,1.73,0,0,0,2.18-1.65V42.1C85.63,40.52,83.32,39.72,82.53,41.22Z"/><path class="cls-12" d="M75.75,89.51a1.73,1.73,0,0,0-.87.52,1.45,1.45,0,0,0,.29,2.25A1.65,1.65,0,0,0,77.69,91,1.55,1.55,0,0,0,75.75,89.51Z"/><path class="cls-12" d="M15,48.9a1.83,1.83,0,0,0,2.57-1,1.35,1.35,0,0,0-.92-1.63,1.92,1.92,0,0,0-2.22,1.28A1.32,1.32,0,0,0,15,48.9Z"/><path class="cls-13" d="M57.19,100c-.2-.82-.46-3.25-1.87-2.86-.79.21-1.29,1.38-1.67,2-.93,1.54-2.1-.09-3.37.43-1.75.71-.05,2.51.65,3.42,1,1.28-2.06,3-.83,4.24a1.46,1.46,0,0,0,1.61.22c1.36-.4,2.11-1.57,3.34-.33.65.66,2.67,2.78,3.23.76.26-1-.9-2.8.1-3.51.7-.5,2.08-1,2.34-2C61.25,100.5,57.47,101.37,57.19,100ZM57,104.33a2.78,2.78,0,0,0,0,1.43c.06.35.12.69.17,1,.22,1.31-1.49-.38-1.46-.36-.72-.7-1.28-1.29-2.3-.84-.17.08-2.66,1-2.39.46s.65-1.16,1-1.75c.55-1-.22-1.77-.82-2.56-1.47-1.94,1.44-.41,2.35-.92a2.68,2.68,0,0,0,1-1.16c.29-.49,1-1.78,1.37-.7.13.44.23.89.33,1.34.25,1.16.92,1.34,2,1.54C60.54,102.25,57.33,103.47,57,104.33Z"/><path class="cls-13" d="M92.12,57.59c-.19-.82-.45-3.24-1.86-2.86-.79.22-1.3,1.38-1.67,2-.94,1.54-2.1-.08-3.38.44-1.74.71,0,2.5.66,3.42,1,1.27-2.07,3-.83,4.23a1.45,1.45,0,0,0,1.61.22c1.36-.39,2.1-1.57,3.33-.33.66.66,2.68,2.78,3.23.77.27-1-.89-2.8.11-3.52.69-.49,2.08-1,2.33-2C96.19,58.05,92.4,58.93,92.12,57.59ZM92,61.89a2.64,2.64,0,0,0,0,1.42l.18,1c.21,1.3-1.49-.39-1.47-.37-.71-.7-1.28-1.28-2.3-.83-.16.07-2.65,1-2.38.45s.65-1.16,1-1.75c.55-1-.22-1.76-.83-2.56-1.46-1.94,1.44-.41,2.36-.92a2.63,2.63,0,0,0,1-1.15c.29-.49,1-1.79,1.38-.71.13.44.22.89.33,1.34.24,1.16.92,1.35,2,1.54C95.47,59.81,92.27,61,92,61.89Z"/><path class="cls-13" d="M10.17,83.14a1.46,1.46,0,0,0,1.61.22c1.36-.4,2.11-1.57,3.34-.33.65.65,2.67,2.78,3.23.76.26-1-.9-2.8.1-3.51.7-.5,2.08-1,2.34-2,.53-2-3.25-1.08-3.53-2.41-.19-.82-.46-3.25-1.87-2.86-.79.22-1.29,1.37-1.67,2-.93,1.54-2.1-.09-3.37.43-1.75.71,0,2.51.65,3.42C12,80.18,8.94,81.9,10.17,83.14Zm3.46-6.43a2.68,2.68,0,0,0,1-1.16c.29-.49,1.05-1.78,1.37-.7.13.44.23.89.33,1.33.25,1.17.92,1.35,2,1.55,2.3.41-.91,1.62-1.22,2.48a2.78,2.78,0,0,0,0,1.43c.06.35.12.7.17,1,.22,1.31-1.49-.38-1.46-.36-.72-.7-1.28-1.29-2.3-.84-.17.08-2.66,1-2.39.46s.65-1.16,1-1.75c.55-1-.22-1.77-.82-2.56C9.81,75.69,12.72,77.22,13.63,76.71Z"/><path class="cls-13" d="M100.84,61.13c-.17-3.41-1.67-6.75-2-10.19a14.77,14.77,0,0,0-2.6-6.86,54.37,54.37,0,0,1-4-7.91,7.35,7.35,0,0,0-1.1-1.74,14.27,14.27,0,0,0,.32-11.64c-1.41-3.25-4.79-4.87-8-5.73,0-3.81-1.32-7.67-4.91-9.46C72.69,4.69,66.08,9,62.18,13.12a4.67,4.67,0,0,0-1.12-.55,11.37,11.37,0,0,0-4.41-.5C54.34,7.11,50.4.57,44.3,0,39.21-.42,37.24,4.84,36.22,9c-.11.46-.21.92-.29,1.4-4.67,0-9.63,1.25-12.52,5.19a17.13,17.13,0,0,0-3.12,9.73l-.06,0c-2.61,2.36-5.51,5-7.14,8.16-.9,1.73-1.43,3.37-2.74,4.89-.93,1.07-2.07,2-2.91,3.13a33.14,33.14,0,0,0-2.33,4.7c-.7,1.39-1.63,2.66-2.22,4.11a29.05,29.05,0,0,0-1.35,5.92,30.13,30.13,0,0,0-.78,6.54c.09,2,.66,3.94.77,5.94a44.8,44.8,0,0,0,.63,5.65c.33,1.73.59,3.65,1,5.5C.42,85.69-1.5,93.55,1.57,99.61c2.83,5.6,10.14,5.74,15.42,4.53a25.45,25.45,0,0,0,2.83-.83l0,.07a16.24,16.24,0,0,0,6.71,5A27.21,27.21,0,0,1,32,111a22.52,22.52,0,0,0,4.26,2.38c3.65,1.36,7.46,1.27,11.3,1.56,4.27.33,7.66.56,11.74-1a29.6,29.6,0,0,1,5.43-1.66,16.64,16.64,0,0,0,4.21-1.15c.69-.32,1.36-.68,2-1.06,5.22,3.19,12.09,4.67,17.54,1.2a19.64,19.64,0,0,0,8.73-17.59,17.21,17.21,0,0,0-1.81-6.26c1.24-2.9,2.13-6,3.65-8.74,1.28-2.34,1.19-4.71,1-7.3C99.92,67.92,101,64.58,100.84,61.13ZM90.09,22.33c2.21,3.26,1.78,7.82.34,11.29-.62-.61-1.29-1.17-2-1.74,0,0,0,0,0-.07a9.67,9.67,0,0,0,.28-6.92c-1-2.44-3.38-3.81-5.7-4.71a15.85,15.85,0,0,0,.3-2.1C86.05,18.82,88.49,20,90.09,22.33Zm-7.22-1.17c2.2.86,4.24,2.12,5.14,4.42a8.29,8.29,0,0,1-.33,5.59,10.8,10.8,0,0,1-1.51-1.65A22.75,22.75,0,0,0,84,26.58a6.78,6.78,0,0,0-2.86-1.33A16.06,16.06,0,0,0,82.87,21.16ZM77.64,8.31c5.09,1.66,5.28,8.36,4.27,12.62-.73,3.05-2.25,5.41-4.48,6.54,1.39-1.61,1.36-4-.21-6.13-2.71-3.65-8.85-4.92-13.17-3.65A4.61,4.61,0,0,0,63,13.75C66.72,9.78,72,6.47,77.64,8.31ZM72.73,41.94a28.73,28.73,0,0,0-4.81-7.06.5.5,0,0,0-.83.22,22.41,22.41,0,0,1-4.69,7.8C63.28,36,63.14,28.3,60,22a5.32,5.32,0,0,0,1.27-.28l0,.07A22.19,22.19,0,0,0,71,28.63,22.09,22.09,0,0,1,72.73,41.94Zm-7.65-.69a60.91,60.91,0,0,1,5.65,4.34c1,.91,1.37,2.46,2.11,3.57.18.26.37.5.57.74-3,3.66-4.83,7.77-3.87,12.57.89,4.42,3.89,8.1,7.22,11.34a18.59,18.59,0,0,1-6.21,9.56A15.07,15.07,0,0,0,68,86.15a5.72,5.72,0,0,1-2.65,2.38c-.72.27-1.47.39-2.19.7-.89.39-1.73.88-2.59,1.33-3.71-4.69-8.16-7.89-14.36-6.46a25.48,25.48,0,0,0-8.76,4.26A10.22,10.22,0,0,1,32.65,86a43.9,43.9,0,0,1-3-3.8c-1.06-1.32-2.36-2.38-3.35-3.78-1.24-1.75-1.54-4.45-2.06-6.51a44.49,44.49,0,0,1-.91-4.57c3.68-2.52,7.38-5.41,8.9-9.77,1.27-3.64-.1-7.14-1.7-10.45,1.85-1.39,3-1.87,4.16-4.08.68-1.29,2.83-2.22,4.06-2.91,1.67-.94,3.51-2.06,5.49-2a21.34,21.34,0,0,0,1.49,3.73.5.5,0,0,0,.91-.11c.29-1.43.63-2.88,1-4.33a.46.46,0,0,0,.21-.08c1-.7,2.65.07,3.72.14s2.4,0,3.61.06c2.4,0,4.3,1.52,6.47,2.31-.11,1.49-.28,2.94-.49,4.36a.5.5,0,0,0,.83.48,21.71,21.71,0,0,0,3-3.45ZM28.5,55.54c-.44,2.87-2.86,5.07-5.09,6.81a20.46,20.46,0,0,1,1.35-3.62A15.1,15.1,0,0,0,26,55.1a13.74,13.74,0,0,1,1.82-4.54A9.74,9.74,0,0,1,28.5,55.54Zm7.1-41.17a15.73,15.73,0,0,0,.24,2.38c-2.18.75-3.78,2.44-6,3.23a30.08,30.08,0,0,0-5.52,2.14A10.53,10.53,0,0,1,35.6,14.37Zm-11.5,9.1,0,0a20.32,20.32,0,0,1,6-2.51c2.22-.69,3.78-2.45,5.92-3.21a10.15,10.15,0,0,0,2.31,4.32,7.17,7.17,0,0,0,3,2,23.05,23.05,0,0,0-6,12.92c-.06.45.47.91.84.49A27,27,0,0,1,43.3,31.9,24,24,0,0,0,44,37.13c-2.8,0-5.64,2-7.91,3.4a6.73,6.73,0,0,0-2.23,2c-.33.5-.56,1.09-.85,1.61-.52.93-1.94,1.46-2.89,2.08-.5-1-1-2-1.43-3C26.17,37.58,24.17,31.24,24,25A11,11,0,0,1,24.1,23.47Zm15.69-3.09c-1-2.61.94-5,3.31-5.72,3.26-1,7.83.2,10.54,2.35a4.61,4.61,0,0,0,.75,2.73c-3,1.88-7,3.87-10.66,3.62A4.88,4.88,0,0,1,39.79,20.38ZM58.86,22c2.68,5,3.27,11,2.93,16.76-2.25-.83-4-2.09-6.54-2.28-1.78-.14-3.54-.17-5.32-.34a6.17,6.17,0,0,0-1.87,0c1.67-5.52,4.29-10.93,8.54-14.68h0c.25.1.51.2.78.28A7.14,7.14,0,0,0,58.86,22ZM46,40a22.33,22.33,0,0,1-1.73-9,.51.51,0,0,0-.75-.43,28.47,28.47,0,0,0-6.89,5,21.5,21.5,0,0,1,5.87-11.3c4.2.73,9.21-1.7,12.53-3.79a4.47,4.47,0,0,0,.63.5C50.4,25.79,47.57,33.14,46,40ZM71.78,27.85a20.94,20.94,0,0,1-9.66-6.58,4.44,4.44,0,0,0,1.66-2.34c.07-.22.11-.44.16-.66A13.61,13.61,0,0,1,74.39,19.6c3.36,1.84,5,6.48,1.62,8.39A8.3,8.3,0,0,1,71.78,27.85Zm-11-14.31c2.45.68,2.52,3,2,5.12-.58,2.49-3.11,2.67-5.16,2.15-3.12-.8-3.55-3.38-2.51-6.09C56.12,12.35,58.75,13,60.79,13.54ZM44.87,1.14c5.37,1,8.69,6.67,10.83,11.24a4.12,4.12,0,0,0-1.52,2.07,8.24,8.24,0,0,0-.49,1.94c-3.38-2.48-9.18-3.65-12.69-1.31-1.9,1.27-2.27,4-1.49,5.94a3.87,3.87,0,0,0,.79,1.24,7.37,7.37,0,0,1-1.22-.92c-3-2.81-2.74-7.9-2-11.56C37.85,5.76,39.84.21,44.87,1.14Zm-23,20c1.6-6.73,7.43-9.76,13.93-9.8a19,19,0,0,0-.17,2,11.71,11.71,0,0,0-11.53,6.37c-2,3.74-.93,8.63-.09,12.52a61.44,61.44,0,0,0,3.08,9.64c1.3,3.24,3.24,6.24,4.25,9.58,2,6.57-3.2,11.32-8.07,14.71,0-.22-.06-.44-.08-.67a9.09,9.09,0,0,1,0-1.73s0,0,.05,0c3.32-2.52,6.45-5.49,6.4-9.94,0-2.52-1.48-4.85-2.51-7a82.61,82.61,0,0,1-3.79-9.56C21.63,32.06,20.56,26.53,21.84,21.17ZM2.49,67.84c-.12-2-.67-3.92-.77-5.93s.6-4.32,1-6.36A20.68,20.68,0,0,1,4.12,50c.66-1.37,1.52-2.64,2.2-4,.89-1.77,1.41-3.43,2.78-4.93,1.77-1.94,3.33-3.5,4.35-6,1.4-3.38,4.14-6.07,6.83-8.52A29.79,29.79,0,0,0,20.56,30a58.92,58.92,0,0,0,4.57,14.82c.65,1.52,1.51,3,2.21,4.61l-.09.09a14.08,14.08,0,0,0-2.09,4.6,32,32,0,0,1-2,5.69c-1.8,4.39-.75,8.79.37,13.24a22,22,0,0,0,1.92,5.84,27.11,27.11,0,0,0,3.52,4c1.22,1.36,2.11,3,3.42,4.27a8.77,8.77,0,0,0,4,1.95c-2.78,2-5.46,4.24-8.29,6a41.49,41.49,0,0,1-10.4,4.69l-.05-.06c-1.37-1-2.8-2-4.07-3.11a48,48,0,0,1-3.07-3.71c-1.44-1.63-1.89-3.38-2.58-5.36A16,16,0,0,0,5.7,83.67a10.49,10.49,0,0,1-1.48-4.56c-.24-1.69-.74-3.35-1.09-5A41,41,0,0,1,2.49,67.84ZM5.14,84.66A18.47,18.47,0,0,1,7.45,89.3,9.71,9.71,0,0,0,9.26,93c1.19,1.44,2.34,3,3.61,4.31a21.48,21.48,0,0,0,3.56,2.77,20.49,20.49,0,0,1-5.56.48C2.65,100,3,90.6,5.14,84.66Zm1.08,18c-7.76-3.54-5.4-14.83-2.61-21.3a13.35,13.35,0,0,0,.9,2.2l0,0C2.56,88.28,1.08,96.49,6.1,99.94c4.13,2.83,9.77,1.5,14.13,0,6.82-2.37,12.14-6.78,18-10.8,3.5-2.4,7.51-4.58,11.86-4.42,4.1.15,7.16,3.31,9.56,6.32a11.73,11.73,0,0,1-1.51.63,5.32,5.32,0,0,1-1,.22.25.25,0,0,0,0-.07c-1.9-2.07-4-3.92-6.81-4.45-2.51-.46-5.06.71-7.24,1.79C36.73,92.28,31,96.57,24.8,100,19.34,102.92,12.24,105.4,6.22,102.66ZM55.83,91.92c-.75,0-1.51-.14-2.3-.21a31.11,31.11,0,0,0-5.28.28,11.29,11.29,0,0,1-6-1.27c.68-.38,1.36-.75,2.05-1.1a10.09,10.09,0,0,1,6.31-1.19C52.7,88.81,54.4,90.39,55.83,91.92Zm4.72,20.48c-3.57,1.3-6.53,2.1-10.38,1.77s-8.13-.28-12-1.23c-3.42-.84-5.84-3.49-9-4.73a30,30,0,0,1-4.74-1.93A15.87,15.87,0,0,1,20.8,103c4.53-1.75,8.75-4.51,12.83-7,2.54-1.53,5-3.18,7.6-4.67,3.69,2,6.84,1.45,11,1.33,1.65,0,3.41.62,5,.37a15,15,0,0,0,5-2.2c1.75-1,3.72-1.17,5.36-2.37a4.79,4.79,0,0,0,1-1.22,14.2,14.2,0,0,1,2.76-3.13A15.55,15.55,0,0,0,75,80.14a28.56,28.56,0,0,0,2.52-5.56c1.53,1.43,3.09,2.78,4.53,4.06,4,3.6,8.15,7.56,9.79,12.61h0c-2.25,3-4.1,5.79-7.12,8.11-2.63,2-4.36,5.26-7.55,6.4A26,26,0,0,0,74,107.18a.51.51,0,0,0-.21.1c-1.25.66-2.46,1.38-3.75,2.14C67.13,111.17,63.71,111.24,60.55,112.4ZM92.61,96.58A14.07,14.07,0,0,1,86.52,107c-3.5,2.48-7.56,2.29-11.27.62,1.18-.51,2.38-.92,3.61-1.44a8.14,8.14,0,0,0,2.82-2.43,25.23,25.23,0,0,1,4.16-4c2.73-2.1,4.41-4.61,6.38-7.32A14.88,14.88,0,0,1,92.61,96.58ZM91.5,107.14c-5.27,6.25-12.94,6.2-19.59,2.34l.94-.6a14.08,14.08,0,0,1,1.24-.71c6,3,12.22,1.73,16.46-3.64s3.67-12.4.26-18c-4-6.48-11-10.64-15.92-16.32-2.71-3.13-4.81-7-4.64-11.22.13-3.15,1.91-6,3.85-8.38l.63.64a4.23,4.23,0,0,1,.79,1.17c-1.77,2.68-3.06,5.5-2.65,8.78.34,2.71,2.3,5.19,4,7.18,5.18,5.88,11.65,10.47,16.17,17C98,92.4,96.85,100.8,91.5,107.14Zm-14.39-40a12.83,12.83,0,0,1-3.34-6.69c-.3-2.42.91-4.8,2.19-6.81.55,1.92.57,4.24,1.27,5.93a13,13,0,0,1,1.22,3.85,9.54,9.54,0,0,1-1,4ZM97.8,78.89a64.34,64.34,0,0,0-3,7.4c-2.34-4.13-6-7.66-9.23-10.91-2.43-2.42-5-4.67-7.4-7.15,1-2.84,1.7-4.8.58-7.69a24.43,24.43,0,0,1-1.42-4.06A23.6,23.6,0,0,0,76.41,52a7.44,7.44,0,0,0-1.93-2.4c-1.16-1.15-1.63-2.68-2.46-4.05a8.7,8.7,0,0,0-2.51-2.16c-1.35-1-2.55-2.06-3.91-3a23.75,23.75,0,0,0,2.13-4.21,26.5,26.5,0,0,1,4.73,7.53c.17.41.85.53,1,0A24,24,0,0,0,72.19,29c.43.1.86.19,1.3.25A7.2,7.2,0,0,0,80.6,26.1h0c1.73.66,2.85,1.08,3.94,2.72a15.58,15.58,0,0,0,1.81,2.46c.9.92,2,1.65,3,2.51a10.25,10.25,0,0,1,2.56,4.06A31.5,31.5,0,0,0,95,44a18.4,18.4,0,0,1,3,8.8c.32,2.58,1.1,5.09,1.67,7.62.74,3.26-.69,6.86-.66,10.18C99.1,73.69,99.37,76,97.8,78.89Z"/><path class="cls-13" d="M13.4,54.22a5.47,5.47,0,0,0,5.19-9.62,5.29,5.29,0,0,0-7.09,1.87A5.49,5.49,0,0,0,13.4,54.22Zm-1-7.25a4.21,4.21,0,0,1,5.12-1.77c2.93.93,3.59,4.14,2.22,6.6a4.43,4.43,0,0,1-5.21,1.83C11.6,52.72,11.05,49.34,12.37,47Z"/><path class="cls-13" d="M80.57,95.27a5.39,5.39,0,0,0-2-7.7,5.28,5.28,0,0,0-7.08,1.87,5.48,5.48,0,0,0,1.89,7.75A5.39,5.39,0,0,0,80.57,95.27Zm-8.2-5.33a4.2,4.2,0,0,1,5.12-1.77c2.93.93,3.59,4.14,2.22,6.6a4.4,4.4,0,0,1-5.2,1.82C71.61,95.69,71.06,92.31,72.37,89.94Z"/><path class="cls-13" d="M41.19,101.16a2.63,2.63,0,0,0-3.53.93,2.72,2.72,0,0,0,.94,3.82,2.71,2.71,0,0,0,2.59-4.75Zm-1.88,4a1.72,1.72,0,0,1-.79-2.55,1.58,1.58,0,0,1,2-.66,1.71,1.71,0,0,1-1.17,3.21Z"/><path class="cls-13" d="M12,67.58a2.71,2.71,0,0,0,2.59-4.75,2.63,2.63,0,0,0-3.53.93A2.72,2.72,0,0,0,12,67.58Zm-.08-3.32a1.6,1.6,0,0,1,2-.66,1.71,1.71,0,0,1-1.18,3.21A1.72,1.72,0,0,1,11.87,64.26Z"/><path class="cls-13" d="M94.13,70.64a2.63,2.63,0,0,0-3.53.93,2.71,2.71,0,0,0,1,3.82,2.7,2.7,0,0,0,2.58-4.75Zm-1.88,4a1.71,1.71,0,0,1-.78-2.55,1.59,1.59,0,0,1,2-.66,1.71,1.71,0,0,1-1.18,3.21Z"/><path class="cls-13" d="M88.62,46.22a5.38,5.38,0,0,0-2-7.7,5.28,5.28,0,0,0-7.08,1.86,5.5,5.5,0,0,0,1.89,7.76A5.39,5.39,0,0,0,88.62,46.22Zm-6.06,1.32c-2.9-.9-3.45-4.28-2.14-6.65a4.2,4.2,0,0,1,5.12-1.78c2.94.94,3.59,4.15,2.22,6.6A4.4,4.4,0,0,1,82.56,47.54Z"/><path class="cls-13" d="M79.64,102.64a13.22,13.22,0,0,0-2,1,13.9,13.9,0,0,1-2.38.81s0,.06,0,.08a4.27,4.27,0,0,0,4.47-1.69A.11.11,0,0,0,79.64,102.64Z"/><path class="cls-13" d="M19.87,67.47c.05.08.2,0,.19,0a31.49,31.49,0,0,1-.15-4.34,12.51,12.51,0,0,1,1.68-4.65.05.05,0,0,0-.07-.07C18.57,59.8,18.5,65,19.87,67.47Z"/><path class="cls-13" d="M95,52c0,.12.15.12.19,0a7,7,0,0,0-1.46-6.86s-.15,0-.13.07A16.42,16.42,0,0,1,95,52Z"/><path class="cls-13" d="M80.32,101.93c0,.06,0,.19.08.15a2,2,0,0,0,1.29-1.3c0-.07-.06-.13-.12-.09A6.67,6.67,0,0,0,80.32,101.93Z"/><path class="cls-13" d="M33.31,21c0-.11-.1-.17-.18-.1-1.8,1.62-4.16,1.95-6.27,3,0,0,0,.08,0,.07C29.08,23.61,32.38,23.41,33.31,21Z"/><path class="cls-13" d="M38.08,110c-1.22-.37-2.38-.91-3.59-1.33-.05,0-.09.06-.05.09a10,10,0,0,0,7.3,2.51.11.11,0,0,0,0-.21C40.57,110.61,39.31,110.39,38.08,110Z"/><path class="cls-13" d="M29.4,87c.06.07.15,0,.14-.08a8.38,8.38,0,0,0-3.94-4.94s-.06,0,0,0c.56.77,1.2,1.48,1.82,2.21S28.68,86.06,29.4,87Z"/><path class="cls-13" d="M5.87,80a75.36,75.36,0,0,1-1.5-12.62,0,0,0,0,0-.07,0,21.46,21.46,0,0,0,1.42,12.7C5.76,80.16,5.89,80.09,5.87,80Z"/><path class="cls-13" d="M6.78,82.5a.07.07,0,0,0,.11-.07A1.89,1.89,0,0,0,6,80.9S6,80.92,6,81C6.24,81.48,6.25,82.15,6.78,82.5Z"/><path class="cls-13" d="M52.4,34.46s0,.07,0,.08c2.27.27,4.28,1.16,6.48,1.66.06,0,.13-.08.07-.13A8.88,8.88,0,0,0,52.4,34.46Z"/><path class="cls-13" d="M60.57,37.19s.1,0,.1-.09c-.06-.52-.77-.79-1.23-.73,0,0-.06.05,0,.08C59.77,36.68,60.14,37.14,60.57,37.19Z"/></g></g></svg>