<svg xmlns="http://www.w3.org/2000/svg" xmlns:xlink="http://www.w3.org/1999/xlink" viewBox="0 0 34.98 77.99"><defs><style>.cls-1{isolation:isolate;}.cls-12,.cls-2{fill:#fff;}.cls-10,.cls-3,.cls-8,.cls-9{fill-rule:evenodd;}.cls-3{fill:url(#Áåçûìÿííûé_ãðàäèåíò_242);}.cls-4{fill:url(#Áåçûìÿííûé_ãðàäèåíò_162);}.cls-5{fill:url(#Áåçûìÿííûé_ãðàäèåíò_162-2);}.cls-6{fill:url(#Áåçûìÿííûé_ãðàäèåíò_162-3);}.cls-7{fill:url(#Áåçûìÿííûé_ãðàäèåíò_162-4);}.cls-8{fill:url(#Áåçûìÿííûé_ãðàäèåíò_162-5);}.cls-9{fill:url(#Áåçûìÿííûé_ãðàäèåíò_162-6);}.cls-10{fill:url(#Áåçûìÿííûé_ãðàäèåíò_162-7);}.cls-11,.cls-13,.cls-14,.cls-15{opacity:0.58;mix-blend-mode:multiply;}.cls-11{fill:url(#Áåçûìÿííûé_ãðàäèåíò_231);}.cls-12{mix-blend-mode:soft-light;}.cls-13{fill:url(#Áåçûìÿííûé_ãðàäèåíò_232);}.cls-14{fill:#ab4263;}.cls-15{fill:url(#Áåçûìÿííûé_ãðàäèåíò_231-2);}</style><linearGradient id="Áåçûìÿííûé_ãðàäèåíò_242" x1="17.29" y1="74.44" x2="17.29" y2="2.76" gradientUnits="userSpaceOnUse"><stop offset="0" stop-color="#ffc79f"/><stop offset="1" stop-color="#ffecc7"/></linearGradient><radialGradient id="Áåçûìÿííûé_ãðàäèåíò_162" cx="19.99" cy="55.98" r="6.84" gradientUnits="userSpaceOnUse"><stop offset="0" stop-color="#ff3143"/><stop offset="1" stop-color="#e30a47"/></radialGradient><radialGradient id="Áåçûìÿííûé_ãðàäèåíò_162-2" cx="14.4" cy="43.67" r="7.88" xlink:href="#Áåçûìÿííûé_ãðàäèåíò_162"/><radialGradient id="Áåçûìÿííûé_ãðàäèåíò_162-3" cx="9.52" cy="32.34" r="6.35" xlink:href="#Áåçûìÿííûé_ãðàäèåíò_162"/><radialGradient id="Áåçûìÿííûé_ãðàäèåíò_162-4" cx="7.96" cy="21.07" r="4.63" xlink:href="#Áåçûìÿííûé_ãðàäèåíò_162"/><radialGradient id="Áåçûìÿííûé_ãðàäèåíò_162-5" cx="11.98" cy="11.33" r="4.83" xlink:href="#Áåçûìÿííûé_ãðàäèåíò_162"/><radialGradient id="Áåçûìÿííûé_ãðàäèåíò_162-6" cx="21.46" cy="11.09" r="5.4" xlink:href="#Áåçûìÿííûé_ãðàäèåíò_162"/><radialGradient id="Áåçûìÿííûé_ãðàäèåíò_162-7" cx="24.46" cy="69.16" r="4.08" xlink:href="#Áåçûìÿííûé_ãðàäèåíò_162"/><linearGradient id="Áåçûìÿííûé_ãðàäèåíò_231" x1="17.21" y1="69.06" x2="17.21" y2="12.78" gradientUnits="userSpaceOnUse"><stop offset="0" stop-color="#ffeadb"/><stop offset="0.99" stop-color="#c775ba"/></linearGradient><linearGradient id="Áåçûìÿííûé_ãðàäèåíò_232" x1="27.2" y1="22.64" x2="27.2" y2="13.66" gradientUnits="userSpaceOnUse"><stop offset="0.01" stop-color="#c775ba"/><stop offset="1" stop-color="#ffeadb"/></linearGradient><linearGradient id="Áåçûìÿííûé_ãðàäèåíò_231-2" x1="3.96" y1="52.37" x2="28.46" y2="52.37" xlink:href="#Áåçûìÿííûé_ãðàäèåíò_231"/></defs><g class="cls-1"><g id="Layer_2" data-name="Layer 2"><g id="layer1"><path class="cls-2" d="M16.8,0C6.79,0-.37,11.82,0,26.14S16.74,73.85,21.08,76.91s10-.86,10.32-5.45S12.89,30.27,15.27,22.64c1.33-4.25,4-2.65,6.19,1.37s12.18-1.68,13.42-7.77S25.54,0,16.8,0Z"/><path class="cls-3" d="M12.65,31.3C13.5,34.39,16.71,42,20,49.74a.11.11,0,0,0,0,0l1.64,3.85h0c0,.1.41.93.93,2.18,2.45,5.73,4.61,10.81,5.45,13.24h0a6.45,6.45,0,0,1,.38,1.3c.28,2.69-2.66,4.27-5.2,4S7.32,45.93,4,30.3H4a29,29,0,0,1-.78-6.1c.13-12.5,7.94-20.73,13.87-21.4S31.4,12.16,31.4,16.08s-4.88,7.09-7.17,6.51a4.36,4.36,0,0,1-1.87-1.48L22.31,21c-1.92-2.22-4.1-5.9-6.5-5C12.55,17.14,10.74,24.41,12.65,31.3Z"/><path class="cls-4" d="M18.57,67.83S17.43,62,22.8,56.28l-2-4.69s-4,4.26-3.51,13.78Z"/><path class="cls-5" d="M13.51,57.37s0-9.79,4-13.62L15.35,38.6s-4.23,4-3.92,13.93Z"/><path class="cls-6" d="M7.79,43.14s.4-7.42,5.1-11l-.83-3.75S7.78,30.76,6.25,38.6Z"/><path class="cls-7" d="M3.47,27.69s2.78-8.2,8.5-4.15c0,0,.22-1.63.35-2.17s.57-1.89.57-1.89-7.22-3.82-9.71,4.7A29.36,29.36,0,0,0,3.47,27.69Z"/><path class="cls-8" d="M7.71,9.23a9,9,0,0,1,7,7.44l1.56-.78S14.61,7.76,10.7,6A9.41,9.41,0,0,0,7.71,9.23Z"/><path class="cls-9" d="M18.47,16.67S17.29,9.2,22,4.13a16.08,16.08,0,0,1,1.5,1c.27.2,1.12.88,1.12.88a28.44,28.44,0,0,0-4.71,12.06Z"/><path class="cls-10" d="M23.24,74.43s-1.54-5.64,3.6-8.56l-.81-2a10,10,0,0,0-3.8,9.76S22.86,74.45,23.24,74.43Z"/><path class="cls-11" d="M28.06,69.06c-.86-1.3-12.84-8.55-19.14-24.92C2.3,26.92,10.05,12.85,14.8,12.78c2.92,0,3.54,3,7.56,8.33-1.92-2.21-4.13-6-6.55-5.12-3.26,1.15-5.07,8.42-3.16,15.31C14.39,37.57,25.82,62.63,28.06,69.06Z"/><path class="cls-2" d="M4.27,28.34S4.41,17,7.4,11.75a22.42,22.42,0,0,1,6.73-7.62,20.45,20.45,0,0,0-8.54,9.23C2.77,19.72,4.27,28.34,4.27,28.34Z"/><path class="cls-2" d="M16.24,4.13a3.63,3.63,0,0,1,3.18-.6C21.33,4,25,7.81,25,7.81S19.35,3.54,16.24,4.13Z"/><path class="cls-12" d="M11.74,29.81a74.9,74.9,0,0,0,3,11.39c1.8,4.54,8.06,16.69,8.06,16.69S13.23,34.79,11.74,29.81Z"/><path class="cls-13" d="M24.85,22.64c-4.22-.37.69-8.61,3.21-9s3.37,1.93,3.09,3.91S27.5,22.66,24.85,22.64Z"/><path class="cls-12" d="M23.36,58.75s1.07,6.74,3.48,7.94Z"/><path class="cls-12" d="M25.06,22.09a10.16,10.16,0,0,0,5.06-4S29.15,22.18,25.06,22.09Z"/><path class="cls-14" d="M12.65,31.3C13.5,34.39,16.71,42,20,49.74c-.45-.91-7.52-15.69-8.6-23.59C10.29,18,14.92,15,16.58,15.24c2,.35,5.28,5.08,5.73,5.8-1.92-2.22-4.1-5.9-6.5-5C12.55,17.14,10.74,24.41,12.65,31.3Z"/><path class="cls-15" d="M23.24,74.42C20.55,74.19,7.32,45.93,4,30.3c.35,1,7.45,25,15.14,37.53,4.6,7.5,7.59,5.47,8.48,3.4.68-1.58-3.14-11.06-5-15.41,2.45,5.73,4.61,10.81,5.45,13.24h0a6.45,6.45,0,0,1,.38,1.3C28.72,73.06,25.78,74.64,23.24,74.42Z"/></g></g></g></svg>