<svg xmlns="http://www.w3.org/2000/svg" xmlns:xlink="http://www.w3.org/1999/xlink" viewBox="0 0 113.18 115.71"><defs><style>.cls-1{isolation:isolate;}.cls-2{fill:#fff;}.cls-3{fill:#2e452f;}.cls-10,.cls-100,.cls-101,.cls-102,.cls-103,.cls-104,.cls-105,.cls-106,.cls-107,.cls-108,.cls-11,.cls-12,.cls-13,.cls-14,.cls-15,.cls-16,.cls-17,.cls-18,.cls-19,.cls-20,.cls-21,.cls-22,.cls-23,.cls-24,.cls-25,.cls-26,.cls-27,.cls-28,.cls-29,.cls-3,.cls-30,.cls-31,.cls-32,.cls-33,.cls-34,.cls-35,.cls-36,.cls-37,.cls-38,.cls-39,.cls-4,.cls-40,.cls-41,.cls-42,.cls-43,.cls-44,.cls-45,.cls-46,.cls-47,.cls-48,.cls-49,.cls-5,.cls-50,.cls-51,.cls-52,.cls-53,.cls-54,.cls-55,.cls-56,.cls-57,.cls-58,.cls-59,.cls-6,.cls-60,.cls-61,.cls-62,.cls-63,.cls-64,.cls-65,.cls-66,.cls-67,.cls-68,.cls-69,.cls-7,.cls-70,.cls-71,.cls-72,.cls-73,.cls-74,.cls-75,.cls-76,.cls-77,.cls-78,.cls-79,.cls-8,.cls-80,.cls-81,.cls-82,.cls-83,.cls-84,.cls-85,.cls-86,.cls-87,.cls-88,.cls-89,.cls-9,.cls-90,.cls-91,.cls-92,.cls-93,.cls-94,.cls-95,.cls-96,.cls-97,.cls-98,.cls-99{fill-rule:evenodd;}.cls-4{fill:url(#Áåçûìÿííûé_ãðàäèåíò_244);}.cls-5{fill:url(#Áåçûìÿííûé_ãðàäèåíò_298);}.cls-6{fill:url(#Áåçûìÿííûé_ãðàäèåíò_298-2);}.cls-7{fill:url(#Áåçûìÿííûé_ãðàäèåíò_298-3);}.cls-8{fill:url(#Áåçûìÿííûé_ãðàäèåíò_298-4);}.cls-9{fill:url(#Áåçûìÿííûé_ãðàäèåíò_298-5);}.cls-10{fill:url(#Áåçûìÿííûé_ãðàäèåíò_298-6);}.cls-11{fill:url(#Áåçûìÿííûé_ãðàäèåíò_298-7);}.cls-12{fill:url(#Áåçûìÿííûé_ãðàäèåíò_298-8);}.cls-13{fill:url(#Áåçûìÿííûé_ãðàäèåíò_298-9);}.cls-14{fill:url(#Áåçûìÿííûé_ãðàäèåíò_298-10);}.cls-15{fill:url(#Áåçûìÿííûé_ãðàäèåíò_314);}.cls-16{fill:url(#Áåçûìÿííûé_ãðàäèåíò_298-11);}.cls-17{fill:url(#Áåçûìÿííûé_ãðàäèåíò_298-12);}.cls-18{fill:url(#Áåçûìÿííûé_ãðàäèåíò_298-13);}.cls-19{fill:url(#Áåçûìÿííûé_ãðàäèåíò_298-14);}.cls-20{fill:url(#Áåçûìÿííûé_ãðàäèåíò_298-15);}.cls-21{fill:url(#Áåçûìÿííûé_ãðàäèåíò_298-16);}.cls-22{fill:url(#Áåçûìÿííûé_ãðàäèåíò_298-17);}.cls-23{fill:url(#Áåçûìÿííûé_ãðàäèåíò_298-18);}.cls-24{fill:url(#Áåçûìÿííûé_ãðàäèåíò_298-19);}.cls-25{fill:url(#Áåçûìÿííûé_ãðàäèåíò_298-20);}.cls-26{fill:url(#Áåçûìÿííûé_ãðàäèåíò_298-21);}.cls-27{fill:url(#Áåçûìÿííûé_ãðàäèåíò_298-22);}.cls-28{fill:url(#Áåçûìÿííûé_ãðàäèåíò_298-23);}.cls-29{fill:url(#Áåçûìÿííûé_ãðàäèåíò_298-24);}.cls-30{fill:url(#Áåçûìÿííûé_ãðàäèåíò_298-25);}.cls-31{fill:url(#Áåçûìÿííûé_ãðàäèåíò_298-26);}.cls-32{fill:url(#Áåçûìÿííûé_ãðàäèåíò_298-27);}.cls-33{fill:url(#Áåçûìÿííûé_ãðàäèåíò_298-28);}.cls-34{fill:url(#Áåçûìÿííûé_ãðàäèåíò_298-29);}.cls-35{fill:url(#Áåçûìÿííûé_ãðàäèåíò_314-2);}.cls-36{fill:url(#Áåçûìÿííûé_ãðàäèåíò_298-30);}.cls-37{fill:url(#Áåçûìÿííûé_ãðàäèåíò_298-31);}.cls-38{fill:url(#Áåçûìÿííûé_ãðàäèåíò_298-32);}.cls-39{fill:url(#Áåçûìÿííûé_ãðàäèåíò_298-33);}.cls-40{fill:url(#Áåçûìÿííûé_ãðàäèåíò_298-34);}.cls-41{fill:url(#Áåçûìÿííûé_ãðàäèåíò_298-35);}.cls-42{fill:url(#Áåçûìÿííûé_ãðàäèåíò_298-36);}.cls-43{fill:url(#Áåçûìÿííûé_ãðàäèåíò_298-37);}.cls-44{fill:url(#Áåçûìÿííûé_ãðàäèåíò_298-38);}.cls-45{fill:url(#Áåçûìÿííûé_ãðàäèåíò_298-39);}.cls-46{fill:url(#Áåçûìÿííûé_ãðàäèåíò_298-40);}.cls-47{fill:url(#Áåçûìÿííûé_ãðàäèåíò_298-41);}.cls-48{fill:url(#Áåçûìÿííûé_ãðàäèåíò_298-42);}.cls-49{fill:url(#Áåçûìÿííûé_ãðàäèåíò_298-43);}.cls-50{fill:url(#Áåçûìÿííûé_ãðàäèåíò_298-44);}.cls-51{fill:url(#Áåçûìÿííûé_ãðàäèåíò_298-45);}.cls-52{fill:url(#Áåçûìÿííûé_ãðàäèåíò_312);}.cls-53{fill:url(#Áåçûìÿííûé_ãðàäèåíò_298-46);}.cls-54{fill:url(#Áåçûìÿííûé_ãðàäèåíò_298-47);}.cls-55{fill:url(#Áåçûìÿííûé_ãðàäèåíò_298-48);}.cls-56{fill:url(#Áåçûìÿííûé_ãðàäèåíò_298-49);}.cls-57{fill:url(#Áåçûìÿííûé_ãðàäèåíò_298-50);}.cls-58{fill:url(#Áåçûìÿííûé_ãðàäèåíò_298-51);}.cls-59{fill:url(#Áåçûìÿííûé_ãðàäèåíò_298-52);}.cls-60{fill:url(#Áåçûìÿííûé_ãðàäèåíò_298-53);}.cls-61{fill:url(#Áåçûìÿííûé_ãðàäèåíò_298-54);}.cls-62{fill:url(#Áåçûìÿííûé_ãðàäèåíò_298-55);}.cls-63{fill:url(#Áåçûìÿííûé_ãðàäèåíò_298-56);}.cls-64{fill:url(#Áåçûìÿííûé_ãðàäèåíò_298-57);}.cls-65{fill:url(#Áåçûìÿííûé_ãðàäèåíò_298-58);}.cls-66{fill:url(#Áåçûìÿííûé_ãðàäèåíò_314-3);}.cls-67{fill:url(#Áåçûìÿííûé_ãðàäèåíò_298-59);}.cls-68{fill:url(#Áåçûìÿííûé_ãðàäèåíò_298-60);}.cls-69{fill:url(#Áåçûìÿííûé_ãðàäèåíò_298-61);}.cls-70{fill:url(#Áåçûìÿííûé_ãðàäèåíò_298-62);}.cls-71{fill:url(#Áåçûìÿííûé_ãðàäèåíò_298-63);}.cls-72{fill:url(#Áåçûìÿííûé_ãðàäèåíò_298-64);}.cls-73{fill:url(#Áåçûìÿííûé_ãðàäèåíò_298-65);}.cls-74{fill:url(#Áåçûìÿííûé_ãðàäèåíò_298-66);}.cls-75{fill:url(#Áåçûìÿííûé_ãðàäèåíò_298-67);}.cls-76{fill:url(#Áåçûìÿííûé_ãðàäèåíò_298-68);}.cls-77{fill:url(#Áåçûìÿííûé_ãðàäèåíò_298-69);}.cls-78{fill:url(#Áåçûìÿííûé_ãðàäèåíò_298-70);}.cls-79{fill:url(#Áåçûìÿííûé_ãðàäèåíò_298-71);}.cls-80{fill:url(#Áåçûìÿííûé_ãðàäèåíò_298-72);}.cls-81{fill:url(#Áåçûìÿííûé_ãðàäèåíò_298-73);}.cls-82{fill:url(#Áåçûìÿííûé_ãðàäèåíò_298-74);}.cls-83{fill:url(#Áåçûìÿííûé_ãðàäèåíò_314-4);}.cls-84{fill:url(#Áåçûìÿííûé_ãðàäèåíò_298-75);}.cls-85{fill:url(#Áåçûìÿííûé_ãðàäèåíò_298-76);}.cls-86{fill:url(#Áåçûìÿííûé_ãðàäèåíò_298-77);}.cls-87{fill:url(#Áåçûìÿííûé_ãðàäèåíò_298-78);}.cls-88{fill:url(#Áåçûìÿííûé_ãðàäèåíò_314-5);}.cls-89{fill:url(#Áåçûìÿííûé_ãðàäèåíò_298-79);}.cls-90{fill:url(#Áåçûìÿííûé_ãðàäèåíò_298-80);}.cls-91{fill:url(#Áåçûìÿííûé_ãðàäèåíò_314-6);}.cls-92{fill:url(#Áåçûìÿííûé_ãðàäèåíò_314-7);}.cls-93{fill:url(#Áåçûìÿííûé_ãðàäèåíò_314-8);}.cls-94{fill:url(#Áåçûìÿííûé_ãðàäèåíò_314-9);}.cls-95{fill:#810742;}.cls-96{fill:url(#Áåçûìÿííûé_ãðàäèåíò_88);}.cls-97{fill:url(#Áåçûìÿííûé_ãðàäèåíò_88-2);}.cls-108,.cls-98,.cls-99{opacity:0.58;mix-blend-mode:multiply;}.cls-98{fill:url(#Áåçûìÿííûé_ãðàäèåíò_29);}.cls-99{fill:url(#Áåçûìÿííûé_ãðàäèåíò_29-2);}.cls-100{fill:url(#Áåçûìÿííûé_ãðàäèåíò_321);}.cls-101{fill:url(#Áåçûìÿííûé_ãðàäèåíò_321-2);}.cls-102{fill:url(#Áåçûìÿííûé_ãðàäèåíò_321-3);}.cls-103{fill:url(#Áåçûìÿííûé_ãðàäèåíò_321-4);}.cls-104{fill:url(#Áåçûìÿííûé_ãðàäèåíò_321-5);}.cls-105{fill:url(#Áåçûìÿííûé_ãðàäèåíò_321-6);}.cls-106{fill:url(#Áåçûìÿííûé_ãðàäèåíò_321-7);}.cls-107{fill:url(#Áåçûìÿííûé_ãðàäèåíò_321-8);}.cls-108{fill:url(#Áåçûìÿííûé_ãðàäèåíò_29-3);}</style><linearGradient id="Áåçûìÿííûé_ãðàäèåíò_244" x1="42.07" y1="109.75" x2="42.07" y2="34.24" gradientUnits="userSpaceOnUse"><stop offset="0" stop-color="#93364f"/><stop offset="0.99" stop-color="#651d4f"/></linearGradient><linearGradient id="Áåçûìÿííûé_ãðàäèåíò_298" x1="40.38" y1="78.23" x2="40.38" y2="69.71" gradientUnits="userSpaceOnUse"><stop offset="0.01" stop-color="#3b5e18"/><stop offset="1" stop-color="#255e36"/></linearGradient><linearGradient id="Áåçûìÿííûé_ãðàäèåíò_298-2" x1="40.15" y1="51.82" x2="40.15" y2="43.3" gradientTransform="matrix(1, 0.05, -0.05, 1, 0.95, 26.88)" xlink:href="#Áåçûìÿííûé_ãðàäèåíò_298"/><linearGradient id="Áåçûìÿííûé_ãðàäèåíò_298-3" x1="36.82" y1="-2.99" x2="36.82" y2="-11.51" gradientTransform="matrix(0.99, 0.14, -0.14, 0.99, -0.49, 81.48)" xlink:href="#Áåçûìÿííûé_ãðàäèåíò_298"/><linearGradient id="Áåçûìÿííûé_ãðàäèåíò_298-4" x1="37.26" y1="0.13" x2="37.26" y2="-8.4" gradientTransform="matrix(0.99, 0.14, -0.14, 0.99, -0.49, 81.48)" xlink:href="#Áåçûìÿííûé_ãðàäèåíò_298"/><linearGradient id="Áåçûìÿííûé_ãðàäèåíò_298-5" x1="36.12" y1="1.67" x2="36.12" y2="-6.86" gradientTransform="matrix(0.99, 0.14, -0.14, 0.99, -0.49, 81.48)" xlink:href="#Áåçûìÿííûé_ãðàäèåíò_298"/><linearGradient id="Áåçûìÿííûé_ãðàäèåíò_298-6" x1="28.59" y1="-47.53" x2="28.59" y2="-56.05" gradientTransform="translate(-5.47 130.87) rotate(12.85)" xlink:href="#Áåçûìÿííûé_ãðàäèåíò_298"/><linearGradient id="Áåçûìÿííûé_ãðàäèåíò_298-7" x1="28.81" y1="-44.77" x2="28.81" y2="-53.3" gradientTransform="translate(-5.47 130.87) rotate(12.85)" xlink:href="#Áåçûìÿííûé_ãðàäèåíò_298"/><linearGradient id="Áåçûìÿííûé_ãðàäèåíò_298-8" x1="28.14" y1="-43.57" x2="28.14" y2="-52.1" gradientTransform="translate(-5.47 130.87) rotate(12.85)" xlink:href="#Áåçûìÿííûé_ãðàäèåíò_298"/><linearGradient id="Áåçûìÿííûé_ãðàäèåíò_298-9" x1="41.18" y1="78.23" x2="41.18" y2="69.71" xlink:href="#Áåçûìÿííûé_ãðàäèåíò_298"/><linearGradient id="Áåçûìÿííûé_ãðàäèåíò_298-10" x1="40.96" y1="51.79" x2="40.96" y2="43.26" gradientTransform="matrix(1, 0.05, -0.05, 1, 0.95, 26.88)" xlink:href="#Áåçûìÿííûé_ãðàäèåíò_298"/><linearGradient id="Áåçûìÿííûé_ãðàäèåíò_314" x1="38.06" y1="0.02" x2="38.06" y2="-8.51" gradientTransform="matrix(0.99, 0.14, -0.14, 0.99, -0.49, 81.48)" gradientUnits="userSpaceOnUse"><stop offset="0.01" stop-color="#527218"/><stop offset="1" stop-color="#377f2c"/></linearGradient><linearGradient id="Áåçûìÿííûé_ãðàäèåíò_298-11" x1="36.92" y1="1.55" x2="36.92" y2="-6.98" gradientTransform="matrix(0.99, 0.14, -0.14, 0.99, -0.49, 81.48)" xlink:href="#Áåçûìÿííûé_ãðàäèåíò_298"/><linearGradient id="Áåçûìÿííûé_ãðàäèåíò_298-12" x1="29.38" y1="-47.71" x2="29.38" y2="-56.23" gradientTransform="translate(-5.47 130.87) rotate(12.85)" xlink:href="#Áåçûìÿííûé_ãðàäèåíò_298"/><linearGradient id="Áåçûìÿííûé_ãðàäèåíò_298-13" x1="29.6" y1="-44.95" x2="29.6" y2="-53.48" gradientTransform="translate(-5.47 130.87) rotate(12.85)" xlink:href="#Áåçûìÿííûé_ãðàäèåíò_298"/><linearGradient id="Áåçûìÿííûé_ãðàäèåíò_298-14" x1="28.93" y1="-43.75" x2="28.93" y2="-52.28" gradientTransform="translate(-5.47 130.87) rotate(12.85)" xlink:href="#Áåçûìÿííûé_ãðàäèåíò_298"/><linearGradient id="Áåçûìÿííûé_ãðàäèåíò_298-15" x1="-654.73" y1="639.66" x2="-654.73" y2="631.13" gradientTransform="translate(-636.15 -566.46) rotate(-91.99)" xlink:href="#Áåçûìÿííûé_ãðàäèåíò_298"/><linearGradient id="Áåçûìÿííûé_ãðàäèåíò_298-16" x1="-656.56" y1="638.25" x2="-656.56" y2="629.72" gradientTransform="translate(-636.15 -566.46) rotate(-91.99)" xlink:href="#Áåçûìÿííûé_ãðàäèåíò_298"/><linearGradient id="Áåçûìÿííûé_ãðàäèåíò_298-17" x1="-613.02" y1="635.62" x2="-613.02" y2="627.09" gradientTransform="translate(-586.74 -569.79) rotate(-87.17)" xlink:href="#Áåçûìÿííûé_ãðàäèåíò_298"/><linearGradient id="Áåçûìÿííûé_ãðàäèåíò_298-18" x1="-612.8" y1="638.38" x2="-612.8" y2="629.85" gradientTransform="translate(-586.74 -569.79) rotate(-87.17)" xlink:href="#Áåçûìÿííûé_ãðàäèåíò_298"/><linearGradient id="Áåçûìÿííûé_ãðàäèåíò_298-19" x1="-613.47" y1="639.57" x2="-613.47" y2="631.04" gradientTransform="translate(-586.74 -569.79) rotate(-87.17)" xlink:href="#Áåçûìÿííûé_ãðàäèåíò_298"/><linearGradient id="Áåçûìÿííûé_ãðàäèåíò_298-20" x1="-659.37" y1="635.8" x2="-659.37" y2="627.27" gradientTransform="translate(-636.15 -566.46) rotate(-91.99)" xlink:href="#Áåçûìÿííûé_ãðàäèåíò_298"/><linearGradient id="Áåçûìÿííûé_ãðàäèåíò_298-21" x1="-670.13" y1="630.23" x2="-670.13" y2="621.7" gradientTransform="translate(-636.15 -566.46) rotate(-91.99)" xlink:href="#Áåçûìÿííûé_ãðàäèåíò_298"/><linearGradient id="Áåçûìÿííûé_ãðàäèåíò_298-22" x1="-617.76" y1="637" x2="-617.76" y2="628.48" gradientTransform="translate(-586.74 -569.79) rotate(-87.17)" xlink:href="#Áåçûìÿííûé_ãðàäèåíò_298"/><linearGradient id="Áåçûìÿííûé_ãðàäèåíò_298-23" x1="-615.17" y1="638.89" x2="-615.17" y2="630.36" gradientTransform="translate(-586.74 -569.79) rotate(-87.17)" xlink:href="#Áåçûìÿííûé_ãðàäèåíò_298"/><linearGradient id="Áåçûìÿííûé_ãðàäèåíò_298-24" x1="-612.69" y1="639.39" x2="-612.69" y2="630.86" gradientTransform="translate(-586.74 -569.79) rotate(-87.17)" xlink:href="#Áåçûìÿííûé_ãðàäèåíò_298"/><linearGradient id="Áåçûìÿííûé_ãðàäèåíò_298-25" x1="-644.42" y1="647.53" x2="-644.42" y2="639" gradientTransform="translate(-636.15 -566.46) rotate(-91.99)" xlink:href="#Áåçûìÿííûé_ãðàäèåíò_298"/><linearGradient id="Áåçûìÿííûé_ãðàäèåíò_298-26" x1="-646.25" y1="646.12" x2="-646.25" y2="637.59" gradientTransform="translate(-636.15 -566.46) rotate(-91.99)" xlink:href="#Áåçûìÿííûé_ãðàäèåíò_298"/><linearGradient id="Áåçûìÿííûé_ãðàäèåíò_298-27" x1="-603.16" y1="645.01" x2="-603.16" y2="636.48" gradientTransform="translate(-586.74 -569.79) rotate(-87.17)" xlink:href="#Áåçûìÿííûé_ãðàäèåíò_298"/><linearGradient id="Áåçûìÿííûé_ãðàäèåíò_298-28" x1="-600.54" y1="645.5" x2="-600.54" y2="636.97" gradientTransform="translate(-586.74 -569.79) rotate(-87.17)" xlink:href="#Áåçûìÿííûé_ãðàäèåíò_298"/><linearGradient id="Áåçûìÿííûé_ãðàäèåíò_298-29" x1="-601.21" y1="646.69" x2="-601.21" y2="638.17" gradientTransform="translate(-586.74 -569.79) rotate(-87.17)" xlink:href="#Áåçûìÿííûé_ãðàäèåíò_298"/><linearGradient id="Áåçûìÿííûé_ãðàäèåíò_314-2" x1="-647.75" y1="643.97" x2="-647.75" y2="635.44" gradientTransform="translate(-636.15 -566.46) rotate(-91.99)" xlink:href="#Áåçûìÿííûé_ãðàäèåíò_314"/><linearGradient id="Áåçûìÿííûé_ãðàäèåíò_298-30" x1="-600.42" y1="646.51" x2="-600.42" y2="637.99" gradientTransform="translate(-586.74 -569.79) rotate(-87.17)" xlink:href="#Áåçûìÿííûé_ãðàäèåíò_298"/><linearGradient id="Áåçûìÿííûé_ãðàäèåíò_298-31" x1="-586.06" y1="654.27" x2="-586.06" y2="645.74" gradientTransform="translate(-584.17 -568.47) rotate(-86.71)" xlink:href="#Áåçûìÿííûé_ãðàäèåíò_298"/><linearGradient id="Áåçûìÿííûé_ãðàäèåíò_298-32" x1="-576.45" y1="661.93" x2="-576.45" y2="653.4" gradientTransform="translate(-584.17 -568.47) rotate(-86.71)" xlink:href="#Áåçûìÿííûé_ãðàäèåíò_298"/><linearGradient id="Áåçûìÿííûé_ãðàäèåíò_298-33" x1="-578.75" y1="659.86" x2="-578.75" y2="651.33" gradientTransform="translate(-584.17 -568.47) rotate(-86.71)" xlink:href="#Áåçûìÿííûé_ãðàäèåíò_298"/><linearGradient id="Áåçûìÿííûé_ãðàäèåíò_298-34" x1="-533.8" y1="653.35" x2="-533.8" y2="644.82" gradientTransform="translate(-534.19 -567.49) rotate(-81.89)" xlink:href="#Áåçûìÿííûé_ãðàäèåíò_298"/><linearGradient id="Áåçûìÿííûé_ãðàäèåíò_298-35" x1="-532.71" y1="654.06" x2="-532.71" y2="645.53" gradientTransform="translate(-534.19 -567.49) rotate(-81.89)" xlink:href="#Áåçûìÿííûé_ãðàäèåíò_298"/><linearGradient id="Áåçûìÿííûé_ãðàäèåíò_298-36" x1="-531.85" y1="655.03" x2="-531.85" y2="646.5" gradientTransform="translate(-534.19 -567.49) rotate(-81.89)" xlink:href="#Áåçûìÿííûé_ãðàäèåíò_298"/><linearGradient id="Áåçûìÿííûé_ãðàäèåíò_298-37" x1="-580.97" y1="658.44" x2="-580.97" y2="649.91" gradientTransform="translate(-584.17 -568.47) rotate(-86.71)" xlink:href="#Áåçûìÿííûé_ãðàäèåíò_298"/><linearGradient id="Áåçûìÿííûé_ãðàäèåíò_298-38" x1="-470.25" y1="664.61" x2="-470.25" y2="656.09" gradientTransform="translate(-494.36 -563.59) rotate(-77.63)" xlink:href="#Áåçûìÿííûé_ãðàäèåíò_298"/><linearGradient id="Áåçûìÿííûé_ãðàäèåíò_298-39" x1="-362.81" y1="647.64" x2="-362.81" y2="639.11" gradientTransform="matrix(0.37, -0.93, 0.93, 0.37, -404.56, -543.78)" xlink:href="#Áåçûìÿííûé_ãðàäèåíò_298"/><linearGradient id="Áåçûìÿííûé_ãðàäèåíò_298-40" x1="-472.55" y1="662.54" x2="-472.55" y2="654.02" gradientTransform="translate(-494.36 -563.59) rotate(-77.63)" xlink:href="#Áåçûìÿííûé_ãðàäèåíò_298"/><linearGradient id="Áåçûìÿííûé_ãðàäèåíò_298-41" x1="-427.03" y1="648.1" x2="-427.03" y2="639.57" gradientTransform="translate(-446.28 -554.27) rotate(-72.81)" xlink:href="#Áåçûìÿííûé_ãðàäèåíò_298"/><linearGradient id="Áåçûìÿííûé_ãðàäèåíò_298-42" x1="-425.94" y1="648.81" x2="-425.94" y2="640.28" gradientTransform="translate(-446.28 -554.27) rotate(-72.81)" xlink:href="#Áåçûìÿííûé_ãðàäèåíò_298"/><linearGradient id="Áåçûìÿííûé_ãðàäèåíò_298-43" x1="-425.08" y1="649.78" x2="-425.08" y2="641.26" gradientTransform="translate(-446.28 -554.27) rotate(-72.81)" xlink:href="#Áåçûìÿííûé_ãðàäèåíò_298"/><linearGradient id="Áåçûìÿííûé_ãðàäèåíò_298-44" x1="-474.76" y1="661.13" x2="-474.76" y2="652.6" gradientTransform="translate(-494.36 -563.59) rotate(-77.63)" xlink:href="#Áåçûìÿííûé_ãðàäèåíò_298"/><linearGradient id="Áåçûìÿííûé_ãðàäèåíò_298-45" x1="-424.29" y1="649.6" x2="-424.29" y2="641.08" gradientTransform="translate(-446.28 -554.27) rotate(-72.81)" xlink:href="#Áåçûìÿííûé_ãðàäèåíò_298"/><linearGradient id="Áåçûìÿííûé_ãðàäèåíò_312" x1="-382.26" y1="659.56" x2="-382.26" y2="651.03" gradientTransform="matrix(0.34, -0.94, 0.94, 0.34, -423.96, -553.96)" gradientUnits="userSpaceOnUse"><stop offset="0.01" stop-color="#525e18"/><stop offset="1" stop-color="#377f2c"/></linearGradient><linearGradient id="Áåçûìÿííûé_ãðàäèåíò_298-46" x1="-276.29" y1="630.65" x2="-276.29" y2="622.12" gradientTransform="matrix(0.49, -0.87, 0.87, 0.49, -339.62, -522.63)" xlink:href="#Áåçûìÿííûé_ãðàäèåíò_298"/><linearGradient id="Áåçûìÿííûé_ãðàäèåíò_298-47" x1="-182.35" y1="578.96" x2="-182.35" y2="570.43" gradientTransform="matrix(0.62, -0.78, 0.78, 0.62, -258.81, -477.79)" xlink:href="#Áåçûìÿííûé_ãðàäèåíò_298"/><linearGradient id="Áåçûìÿííûé_ãðàäèåíò_298-48" x1="-177.46" y1="581.89" x2="-177.46" y2="573.36" gradientTransform="matrix(0.62, -0.78, 0.78, 0.62, -258.81, -477.79)" xlink:href="#Áåçûìÿííûé_ãðàäèåíò_298"/><linearGradient id="Áåçûìÿííûé_ãðàäèåíò_298-49" x1="-9.36" y1="416.55" x2="-9.36" y2="408.02" gradientTransform="translate(-106.82 -341.24) rotate(-29.21)" xlink:href="#Áåçûìÿííûé_ãðàäèåíò_298"/><linearGradient id="Áåçûìÿííûé_ãðàäèåíò_298-50" x1="-278.59" y1="628.58" x2="-278.59" y2="620.05" gradientTransform="matrix(0.49, -0.87, 0.87, 0.49, -339.62, -522.63)" xlink:href="#Áåçûìÿííûé_ãðàäèåíò_298"/><linearGradient id="Áåçûìÿííûé_ãðàäèåíò_298-51" x1="-239.61" y1="598.73" x2="-239.61" y2="590.2" gradientTransform="translate(-295.49 -500.68) rotate(-55.99)" xlink:href="#Áåçûìÿííûé_ãðàäèåíò_298"/><linearGradient id="Áåçûìÿííûé_ãðàäèåíò_298-52" x1="-237.66" y1="600.41" x2="-237.66" y2="591.88" gradientTransform="translate(-295.49 -500.68) rotate(-55.99)" xlink:href="#Áåçûìÿííûé_ãðàäèåíò_298"/><linearGradient id="Áåçûìÿííûé_ãðàäèåíò_298-53" x1="-281.45" y1="627.32" x2="-281.45" y2="618.79" gradientTransform="matrix(0.49, -0.87, 0.87, 0.49, -339.62, -522.63)" xlink:href="#Áåçûìÿííûé_ãðàäèåíò_298"/><linearGradient id="Áåçûìÿííûé_ãðàäèåíò_298-54" x1="-236.5" y1="600.02" x2="-236.5" y2="591.49" gradientTransform="translate(-295.49 -500.68) rotate(-55.99)" xlink:href="#Áåçûìÿííûé_ãðàäèåíò_298"/><linearGradient id="Áåçûìÿííûé_ãðàäèåíò_298-55" x1="38.13" y1="-111.19" x2="38.13" y2="-119.72" gradientTransform="translate(-17.06 162.21) rotate(16.34)" xlink:href="#Áåçûìÿííûé_ãðàäèåíò_298"/><linearGradient id="Áåçûìÿííûé_ãðàäèåíò_298-56" x1="28.54" y1="-137.11" x2="28.54" y2="-145.64" gradientTransform="translate(-23.11 188.71) rotate(19.01)" xlink:href="#Áåçûìÿííûé_ãðàäèåíò_298"/><linearGradient id="Áåçûìÿííûé_ãðàäèåíò_298-57" x1="41.05" y1="-114.15" x2="41.05" y2="-122.68" gradientTransform="translate(-17.06 162.21) rotate(16.34)" xlink:href="#Áåçûìÿííûé_ãðàäèåíò_298"/><linearGradient id="Áåçûìÿííûé_ãðàäèåíò_298-58" x1="31.31" y1="-140.2" x2="31.31" y2="-148.73" gradientTransform="translate(-23.11 188.71) rotate(19.01)" xlink:href="#Áåçûìÿííûé_ãðàäèåíò_298"/><linearGradient id="Áåçûìÿííûé_ãðàäèåíò_314-3" x1="39.89" y1="-115.25" x2="39.89" y2="-123.78" gradientTransform="translate(-17.06 162.21) rotate(16.34)" xlink:href="#Áåçûìÿííûé_ãðàäèåíò_314"/><linearGradient id="Áåçûìÿííûé_ãðàäèåíò_298-59" x1="30.1" y1="-141.24" x2="30.1" y2="-149.77" gradientTransform="translate(-23.11 188.71) rotate(19.01)" xlink:href="#Áåçûìÿííûé_ãðàäèåíò_298"/><linearGradient id="Áåçûìÿííûé_ãðàäèåíò_298-60" x1="39.73" y1="-115.79" x2="39.73" y2="-124.32" gradientTransform="translate(-17.06 162.21) rotate(16.34)" xlink:href="#Áåçûìÿííûé_ãðàäèåíò_298"/><linearGradient id="Áåçûìÿííûé_ãðàäèåíò_298-61" x1="29.92" y1="-141.78" x2="29.92" y2="-150.31" gradientTransform="translate(-23.11 188.71) rotate(19.01)" xlink:href="#Áåçûìÿííûé_ãðàäèåíò_298"/><linearGradient id="Áåçûìÿííûé_ãðàäèåíò_298-62" x1="42.71" y1="-121.18" x2="42.71" y2="-129.71" gradientTransform="translate(-17.06 162.21) rotate(16.34)" xlink:href="#Áåçûìÿííûé_ãðàäèåíò_298"/><linearGradient id="Áåçûìÿííûé_ãðàäèåíò_298-63" x1="32.65" y1="-147.3" x2="32.65" y2="-155.83" gradientTransform="translate(-23.11 188.71) rotate(19.01)" xlink:href="#Áåçûìÿííûé_ãðàäèåíò_298"/><linearGradient id="Áåçûìÿííûé_ãðàäèåíò_298-64" x1="10.37" y1="-189.73" x2="10.37" y2="-198.26" gradientTransform="translate(-40.43 240.25) rotate(24.37)" xlink:href="#Áåçûìÿííûé_ãðàäèåíò_298"/><linearGradient id="Áåçûìÿííûé_ãðàäèåíò_298-65" x1="17.32" y1="-223.51" x2="17.32" y2="-232.04" gradientTransform="matrix(0.9, 0.44, -0.44, 0.9, -50.51, 248.65)" xlink:href="#Áåçûìÿííûé_ãðàäèåíò_298"/><linearGradient id="Áåçûìÿííûé_ãðàäèåíò_298-66" x1="3.59" y1="-248.32" x2="3.59" y2="-256.85" gradientTransform="translate(-61.77 273.25) rotate(28.48)" xlink:href="#Áåçûìÿííûé_ãðàäèåíò_298"/><linearGradient id="Áåçûìÿííûé_ãðàäèåíò_298-67" x1="20.23" y1="-226.47" x2="20.23" y2="-235" gradientTransform="matrix(0.9, 0.44, -0.44, 0.9, -50.51, 248.65)" xlink:href="#Áåçûìÿííûé_ãðàäèåíò_298"/><linearGradient id="Áåçûìÿííûé_ãðàäèåíò_298-68" x1="6.37" y1="-251.41" x2="6.37" y2="-259.95" gradientTransform="translate(-61.77 273.25) rotate(28.48)" xlink:href="#Áåçûìÿííûé_ãðàäèåíò_298"/><linearGradient id="Áåçûìÿííûé_ãðàäèåíò_298-69" x1="19.42" y1="-227.07" x2="19.42" y2="-235.6" gradientTransform="matrix(0.9, 0.44, -0.44, 0.9, -50.51, 248.65)" xlink:href="#Áåçûìÿííûé_ãðàäèåíò_298"/><linearGradient id="Áåçûìÿííûé_ãðàäèåíò_298-70" x1="6" y1="-252.62" x2="6" y2="-261.16" gradientTransform="translate(-61.77 273.25) rotate(28.48)" xlink:href="#Áåçûìÿííûé_ãðàäèåíò_298"/><linearGradient id="Áåçûìÿííûé_ãðàäèåíò_298-71" x1="26.52" y1="-240.25" x2="26.52" y2="-248.78" gradientTransform="matrix(0.9, 0.44, -0.44, 0.9, -50.51, 248.65)" xlink:href="#Áåçûìÿííûé_ãðàäèåíò_298"/><linearGradient id="Áåçûìÿííûé_ãðàäèåíò_298-72" x1="65.99" y1="-101.91" x2="65.99" y2="-110.44" gradientTransform="translate(-3.82 125.21) rotate(12.04)" xlink:href="#Áåçûìÿííûé_ãðàäèåíò_298"/><linearGradient id="Áåçûìÿííûé_ãðàäèåíò_298-73" x1="76.56" y1="-12.74" x2="76.56" y2="-21.27" gradientTransform="translate(9.98 43.24) rotate(3.33)" xlink:href="#Áåçûìÿííûé_ãðàäèåíò_298"/><linearGradient id="Áåçûìÿííûé_ãðàäèåíò_298-74" x1="11.93" y1="-264.86" x2="11.93" y2="-273.39" gradientTransform="translate(-61.77 273.25) rotate(28.48)" xlink:href="#Áåçûìÿííûé_ãðàäèåíò_298"/><linearGradient id="Áåçûìÿííûé_ãðàäèåíò_314-4" x1="50.56" y1="-154.37" x2="50.56" y2="-162.9" gradientTransform="matrix(0.95, 0.31, -0.31, 0.95, -22.43, 177.36)" xlink:href="#Áåçûìÿííûé_ãðàäèåíò_314"/><linearGradient id="Áåçûìÿííûé_ãðàäèåíò_298-75" x1="9.09" y1="-258.66" x2="9.09" y2="-267.19" gradientTransform="translate(-61.77 273.25) rotate(28.48)" xlink:href="#Áåçûìÿííûé_ãðàäèåíò_298"/><linearGradient id="Áåçûìÿííûé_ãðàäèåíò_298-76" x1="-26.24" y1="-298.03" x2="-26.24" y2="-306.56" gradientTransform="matrix(0.83, 0.56, -0.56, 0.83, -86.12, 321.97)" xlink:href="#Áåçûìÿííûé_ãðàäèåíò_298"/><linearGradient id="Áåçûìÿííûé_ãðàäèåíò_298-77" x1="9.73" y1="-187.2" x2="9.73" y2="-195.73" gradientTransform="translate(-40.43 240.25) rotate(24.37)" xlink:href="#Áåçûìÿííûé_ãðàäèåíò_298"/><linearGradient id="Áåçûìÿííûé_ãðàäèåíò_298-78" x1="8.37" y1="-184.4" x2="8.37" y2="-192.93" gradientTransform="translate(-40.43 240.25) rotate(24.37)" xlink:href="#Áåçûìÿííûé_ãðàäèåíò_298"/><linearGradient id="Áåçûìÿííûé_ãðàäèåíò_314-5" x1="-12.92" y1="-231.18" x2="-12.92" y2="-239.71" gradientTransform="matrix(0.87, 0.49, -0.49, 0.87, -59.64, 285.96)" xlink:href="#Áåçûìÿííûé_ãðàäèåíò_314"/><linearGradient id="Áåçûìÿííûé_ãðàäèåíò_298-79" x1="-12.23" y1="-229.32" x2="-12.23" y2="-237.85" gradientTransform="matrix(0.87, 0.49, -0.49, 0.87, -59.64, 285.96)" xlink:href="#Áåçûìÿííûé_ãðàäèåíò_298"/><linearGradient id="Áåçûìÿííûé_ãðàäèåíò_298-80" x1="-12.91" y1="-228.13" x2="-12.91" y2="-236.66" gradientTransform="matrix(0.87, 0.49, -0.49, 0.87, -59.64, 285.96)" xlink:href="#Áåçûìÿííûé_ãðàäèåíò_298"/><linearGradient id="Áåçûìÿííûé_ãðàäèåíò_314-6" x1="37.62" y1="-3.1" x2="37.62" y2="-11.63" xlink:href="#Áåçûìÿííûé_ãðàäèåíò_314"/><linearGradient id="Áåçûìÿííûé_ãðàäèåíò_314-7" x1="-531.06" y1="654.85" x2="-531.06" y2="646.32" gradientTransform="translate(-534.19 -567.49) rotate(-81.89)" xlink:href="#Áåçûìÿííûé_ãðàäèåíò_314"/><linearGradient id="Áåçûìÿííûé_ãðàäèåíò_314-8" x1="-367.68" y1="644.75" x2="-367.68" y2="636.23" gradientTransform="matrix(0.37, -0.93, 0.93, 0.37, -404.56, -543.78)" xlink:href="#Áåçûìÿííûé_ãðàäèåíò_314"/><linearGradient id="Áåçûìÿííûé_ãðàäèåíò_314-9" x1="-238.5" y1="599.47" x2="-238.5" y2="590.94" gradientTransform="translate(-295.49 -500.68) rotate(-55.99)" xlink:href="#Áåçûìÿííûé_ãðàäèåíò_314"/><linearGradient id="Áåçûìÿííûé_ãðàäèåíò_88" x1="41.14" y1="76.32" x2="41.14" y2="11.5" gradientUnits="userSpaceOnUse"><stop offset="0.02" stop-color="#b5c4ec"/><stop offset="0.97" stop-color="#e1dbff"/></linearGradient><linearGradient id="Áåçûìÿííûé_ãðàäèåíò_88-2" x1="55.63" y1="73.82" x2="55.63" y2="45.03" xlink:href="#Áåçûìÿííûé_ãðàäèåíò_88"/><linearGradient id="Áåçûìÿííûé_ãðàäèåíò_29" x1="41.14" y1="76.32" x2="41.14" y2="11.74" gradientUnits="userSpaceOnUse"><stop offset="0.01" stop-color="#9775ba"/><stop offset="1" stop-color="#ffeadb"/></linearGradient><linearGradient id="Áåçûìÿííûé_ãðàäèåíò_29-2" x1="55.63" y1="73.82" x2="55.63" y2="45.07" xlink:href="#Áåçûìÿííûé_ãðàäèåíò_29"/><linearGradient id="Áåçûìÿííûé_ãðàäèåíò_321" x1="37.1" y1="80.13" x2="37.1" y2="76.79" gradientUnits="userSpaceOnUse"><stop offset="0.02" stop-color="#ced8f2"/><stop offset="0.97" stop-color="#fff1ff"/></linearGradient><linearGradient id="Áåçûìÿííûé_ãðàäèåíò_321-2" x1="65.23" y1="38.89" x2="65.23" y2="35.55" xlink:href="#Áåçûìÿííûé_ãðàäèåíò_321"/><linearGradient id="Áåçûìÿííûé_ãðàäèåíò_321-3" x1="66.85" y1="-597.39" x2="66.85" y2="-600.73" gradientTransform="matrix(0.44, 0.53, -0.59, 0.49, -313.01, 285.62)" xlink:href="#Áåçûìÿííûé_ãðàäèåíò_321"/><linearGradient id="Áåçûìÿííûé_ãðàäèåíò_321-4" x1="32.52" y1="77.11" x2="32.52" y2="75.44" xlink:href="#Áåçûìÿííûé_ãðàäèåíò_321"/><linearGradient id="Áåçûìÿííûé_ãðàäèåíò_321-5" x1="47.74" y1="50.17" x2="47.74" y2="42.41" xlink:href="#Áåçûìÿííûé_ãðàäèåíò_321"/><linearGradient id="Áåçûìÿííûé_ãðàäèåíò_321-6" x1="78.3" y1="43.55" x2="78.3" y2="39.14" xlink:href="#Áåçûìÿííûé_ãðàäèåíò_321"/><linearGradient id="Áåçûìÿííûé_ãðàäèåíò_321-7" x1="70.47" y1="25.5" x2="70.47" y2="21.7" xlink:href="#Áåçûìÿííûé_ãðàäèåíò_321"/><linearGradient id="Áåçûìÿííûé_ãðàäèåíò_321-8" x1="18.1" y1="78.75" x2="18.1" y2="73.1" xlink:href="#Áåçûìÿííûé_ãðàäèåíò_321"/><linearGradient id="Áåçûìÿííûé_ãðàäèåíò_29-3" x1="52.46" y1="27.99" x2="72.14" y2="27.99" xlink:href="#Áåçûìÿííûé_ãðàäèåíò_29"/></defs><g class="cls-1"><g id="Layer_2" data-name="Layer 2"><g id="layer1"><path class="cls-2" d="M10,90.89c.35,2.56-6.68,13.71-6.3,18.86s10.93,7.29,13.59,5.13c3.53-2.86,4-15.16,6.23-17.27S45.7,97,54.4,91.88,70,70.89,81.55,59.12s26.12-19,30.33-29S110,3.6,95,.74,76.47,4.17,63.74,5.65,42.73,3.92,35.54,8,25.32,24.4,16.8,35.13,4.07,50.24.62,62.86,9.32,85.86,10,90.89Z"/><path class="cls-3" d="M36.33,72.33a114.88,114.88,0,0,1,24.61-8A113.56,113.56,0,0,1,36,72.83Z"/><path class="cls-3" d="M36.33,72.33l24.61-8A97.52,97.52,0,0,0,36.33,72.33Z"/><path class="cls-3" d="M34.63,74.05a114.83,114.83,0,0,1,25-6.87,114.17,114.17,0,0,1-25.3,7.36Z"/><path class="cls-3" d="M34.63,74.05l25-6.87A97.32,97.32,0,0,0,34.63,74.05Z"/><path class="cls-3" d="M32.52,76.08A115,115,0,0,1,58,71.57a114,114,0,0,1-25.88,5Z"/><path class="cls-3" d="M32.52,76.08,58,71.57A97.2,97.2,0,0,0,32.52,76.08Z"/><path class="cls-3" d="M32.52,79.23A115,115,0,0,1,58,74.72a114,114,0,0,1-25.88,5Z"/><path class="cls-3" d="M32.52,79.23,58,74.72A97.2,97.2,0,0,0,32.52,79.23Z"/><path class="cls-3" d="M31.19,80.59a114.84,114.84,0,0,1,25.49-4.51A114,114,0,0,1,30.8,81Z"/><path class="cls-3" d="M31.19,80.59l25.49-4.51A97.1,97.1,0,0,0,31.19,80.59Z"/><path class="cls-3" d="M29.34,82.3A114.62,114.62,0,0,1,55.12,80a113.74,113.74,0,0,1-26.2,2.77Z"/><path class="cls-3" d="M29.34,82.3,55.12,80A97.32,97.32,0,0,0,29.34,82.3Z"/><path class="cls-3" d="M28.94,85a114.66,114.66,0,0,1,25.79-2.35,113.78,113.78,0,0,1-26.21,2.77Z"/><path class="cls-3" d="M28.94,85l25.79-2.35A97.39,97.39,0,0,0,28.94,85Z"/><path class="cls-3" d="M28,86.05A115.33,115.33,0,0,1,53.81,83.7,113.78,113.78,0,0,1,27.6,86.47Z"/><path class="cls-3" d="M28,86.05,53.81,83.7A97.9,97.9,0,0,0,28,86.05Z"/><path class="cls-3" d="M37.14,72.33a114.88,114.88,0,0,1,24.61-8,113.56,113.56,0,0,1-24.93,8.52Z"/><path class="cls-3" d="M37.14,72.33l24.61-8A97.52,97.52,0,0,0,37.14,72.33Z"/><path class="cls-3" d="M35.44,74.05a114.83,114.83,0,0,1,25-6.87,114.17,114.17,0,0,1-25.3,7.36Z"/><path class="cls-3" d="M35.44,74.05l25-6.87A97.32,97.32,0,0,0,35.44,74.05Z"/><path class="cls-3" d="M33.33,76.08a114.85,114.85,0,0,1,25.5-4.51,114,114,0,0,1-25.88,5Z"/><path class="cls-3" d="M33.33,76.08l25.5-4.51A97.2,97.2,0,0,0,33.33,76.08Z"/><path class="cls-3" d="M33.33,79.23a114.85,114.85,0,0,1,25.5-4.51,114,114,0,0,1-25.88,5Z"/><path class="cls-3" d="M33.33,79.23l25.5-4.51A97.2,97.2,0,0,0,33.33,79.23Z"/><path class="cls-3" d="M32,80.59a115,115,0,0,1,25.5-4.51,114,114,0,0,1-25.88,5Z"/><path class="cls-3" d="M32,80.59l25.5-4.51A97.2,97.2,0,0,0,32,80.59Z"/><path class="cls-3" d="M30.15,82.3A114.62,114.62,0,0,1,55.93,80a113.78,113.78,0,0,1-26.21,2.77Z"/><path class="cls-3" d="M30.15,82.3,55.93,80A97.32,97.32,0,0,0,30.15,82.3Z"/><path class="cls-3" d="M29.75,85a114.66,114.66,0,0,1,25.79-2.35,113.78,113.78,0,0,1-26.21,2.77Z"/><path class="cls-3" d="M29.75,85l25.79-2.35A97.39,97.39,0,0,0,29.75,85Z"/><path class="cls-3" d="M28.83,86.05A115.29,115.29,0,0,1,54.61,83.7a113.64,113.64,0,0,1-26.2,2.77Z"/><path class="cls-3" d="M28.83,86.05,54.61,83.7A97.84,97.84,0,0,0,28.83,86.05Z"/><path class="cls-3" d="M33.93,72.37a115,115,0,0,1-8.88-24.32,113.77,113.77,0,0,1,9.4,24.62Z"/><path class="cls-3" d="M33.93,72.37,25.05,48.05A97.61,97.61,0,0,0,33.93,72.37Z"/><path class="cls-3" d="M32.59,74.25a115,115,0,0,1-8.88-24.32A113.42,113.42,0,0,1,33.1,74.56Z"/><path class="cls-3" d="M32.59,74.25,23.71,49.93A97.46,97.46,0,0,0,32.59,74.25Z"/><path class="cls-3" d="M24.9,80.55a114.61,114.61,0,0,1-6.8-25,114,114,0,0,1,7.28,25.33Z"/><path class="cls-3" d="M24.9,80.55l-6.8-25A97.44,97.44,0,0,0,24.9,80.55Z"/><path class="cls-3" d="M27.67,80.46a115,115,0,0,1-6.81-25A113.43,113.43,0,0,1,28.15,80.8Z"/><path class="cls-3" d="M27.67,80.46l-6.81-25A97.23,97.23,0,0,0,27.67,80.46Z"/><path class="cls-3" d="M28.83,81.19a115,115,0,0,1-6.81-25,113.43,113.43,0,0,1,7.29,25.32Z"/><path class="cls-3" d="M28.83,81.19,22,56.21A97.73,97.73,0,0,0,28.83,81.19Z"/><path class="cls-3" d="M30.23,77.15a114.9,114.9,0,0,1-8.87-24.33,114,114,0,0,1,9.39,24.63Z"/><path class="cls-3" d="M30.23,77.15,21.36,52.82A97.29,97.29,0,0,0,30.23,77.15Z"/><path class="cls-3" d="M25.05,88.09a115,115,0,0,1-8.88-24.32,114.07,114.07,0,0,1,9.39,24.62Z"/><path class="cls-3" d="M25.05,88.09,16.17,63.77A97.12,97.12,0,0,0,25.05,88.09Z"/><path class="cls-3" d="M26.05,85.34a115.07,115.07,0,0,1-6.8-25,114.26,114.26,0,0,1,7.29,25.33Z"/><path class="cls-3" d="M26.05,85.34l-6.8-25A97.32,97.32,0,0,0,26.05,85.34Z"/><path class="cls-3" d="M28.06,82.85a115,115,0,0,1-6.81-25,113.63,113.63,0,0,1,7.29,25.33Z"/><path class="cls-3" d="M28.06,82.85l-6.81-25A97.74,97.74,0,0,0,28.06,82.85Z"/><path class="cls-3" d="M28.69,80.39a114.78,114.78,0,0,1-6.81-25,113.63,113.63,0,0,1,7.29,25.33Z"/><path class="cls-3" d="M28.69,80.39l-6.81-25A97.12,97.12,0,0,0,28.69,80.39Z"/><path class="cls-3" d="M41.44,61.79a115,115,0,0,1-8.88-24.32A114.07,114.07,0,0,1,42,62.09Z"/><path class="cls-3" d="M41.44,61.79,32.56,37.47A97.61,97.61,0,0,0,41.44,61.79Z"/><path class="cls-3" d="M40.09,63.67a114.69,114.69,0,0,1-8.87-24.32A114.07,114.07,0,0,1,40.61,64Z"/><path class="cls-3" d="M40.09,63.67,31.22,39.35A97.31,97.31,0,0,0,40.09,63.67Z"/><path class="cls-3" d="M34.77,71.16a115,115,0,0,1-6.81-25A113.43,113.43,0,0,1,35.25,71.5Z"/><path class="cls-3" d="M34.77,71.16,28,46.18A97.73,97.73,0,0,0,34.77,71.16Z"/><path class="cls-3" d="M35.38,68.56a115.07,115.07,0,0,1-6.8-25,113.63,113.63,0,0,1,7.29,25.33Z"/><path class="cls-3" d="M35.38,68.56l-6.8-25A97.42,97.42,0,0,0,35.38,68.56Z"/><path class="cls-3" d="M36.54,69.29a115.07,115.07,0,0,1-6.8-25A113.63,113.63,0,0,1,37,69.64Z"/><path class="cls-3" d="M36.54,69.29l-6.8-25A97.32,97.32,0,0,0,36.54,69.29Z"/><path class="cls-3" d="M38,65.25a115,115,0,0,1-8.88-24.32,113.46,113.46,0,0,1,9.39,24.62Z"/><path class="cls-3" d="M38,65.25,29.07,40.93A97.61,97.61,0,0,0,38,65.25Z"/><path class="cls-3" d="M36.4,68.5a115.27,115.27,0,0,1-6.8-25,113.43,113.43,0,0,1,7.29,25.32Z"/><path class="cls-3" d="M36.4,68.5l-6.8-25A97.42,97.42,0,0,0,36.4,68.5Z"/><path class="cls-3" d="M42.25,60.85a115.28,115.28,0,0,1-6.6-25,113.53,113.53,0,0,1,7.08,25.38Z"/><path class="cls-3" d="M42.25,60.85l-6.6-25A97.45,97.45,0,0,0,42.25,60.85Z"/><path class="cls-3" d="M50.45,51.7a114.64,114.64,0,0,1-6.6-25A114,114,0,0,1,50.93,52Z"/><path class="cls-3" d="M50.45,51.7l-6.6-25A97.45,97.45,0,0,0,50.45,51.7Z"/><path class="cls-3" d="M48.25,53.87a114.46,114.46,0,0,1-6.6-25,114,114,0,0,1,7.08,25.38Z"/><path class="cls-3" d="M48.25,53.87l-6.6-25A97.33,97.33,0,0,0,48.25,53.87Z"/><path class="cls-3" d="M43.19,59.72a115.56,115.56,0,0,1-4.47-25.51A113.9,113.9,0,0,1,43.65,60.1Z"/><path class="cls-3" d="M43.19,59.72,38.72,34.21A97.62,97.62,0,0,0,43.19,59.72Z"/><path class="cls-3" d="M44.05,58.73a115.1,115.1,0,0,1-4.48-25.5A113.9,113.9,0,0,1,44.5,59.12Z"/><path class="cls-3" d="M44.05,58.73l-4.48-25.5A97.31,97.31,0,0,0,44.05,58.73Z"/><path class="cls-3" d="M45.14,58a115.24,115.24,0,0,1-4.48-25.5,113.75,113.75,0,0,1,4.93,25.89Z"/><path class="cls-3" d="M45.14,58l-4.48-25.5A97.31,97.31,0,0,0,45.14,58Z"/><path class="cls-3" d="M46.7,56a115.28,115.28,0,0,1-6.6-25,113.63,113.63,0,0,1,7.09,25.38Z"/><path class="cls-3" d="M46.7,56,40.1,31A98,98,0,0,0,46.7,56Z"/><path class="cls-3" d="M45.07,57.22a115.26,115.26,0,0,1-4.48-25.51A113.9,113.9,0,0,1,45.52,57.6Z"/><path class="cls-3" d="M45.07,57.22,40.59,31.71A97.41,97.41,0,0,0,45.07,57.22Z"/><path class="cls-3" d="M59.12,44.47a115.47,115.47,0,0,1-2.57-25.76,113.61,113.61,0,0,1,3,26.18Z"/><path class="cls-3" d="M59.12,44.47,56.55,18.71A97.56,97.56,0,0,0,59.12,44.47Z"/><path class="cls-3" d="M60.52,42.79A114.92,114.92,0,0,1,62.21,17a113.75,113.75,0,0,1-1.34,26.32Z"/><path class="cls-3" d="M60.52,42.79,62.21,17A97.38,97.38,0,0,0,60.52,42.79Z"/><path class="cls-3" d="M65.06,39.34A114.92,114.92,0,0,1,66.75,13.5,113.46,113.46,0,0,1,65.4,39.82Z"/><path class="cls-3" d="M65.06,39.34,66.75,13.5A97.32,97.32,0,0,0,65.06,39.34Z"/><path class="cls-3" d="M56.6,46.27A115,115,0,0,1,54,20.51a113.61,113.61,0,0,1,3,26.18Z"/><path class="cls-3" d="M56.6,46.27,54,20.51A97.26,97.26,0,0,0,56.6,46.27Z"/><path class="cls-3" d="M50.69,51.24a115.1,115.1,0,0,1-.39-25.88,114,114,0,0,1,.78,26.34Z"/><path class="cls-3" d="M50.69,51.24,50.3,25.36A97.52,97.52,0,0,0,50.69,51.24Z"/><path class="cls-3" d="M51.69,50.41a115.17,115.17,0,0,1-.39-25.89,113.75,113.75,0,0,1,.77,26.34Z"/><path class="cls-3" d="M51.69,50.41,51.3,24.52A97.1,97.1,0,0,0,51.69,50.41Z"/><path class="cls-3" d="M52.88,49.88A114.88,114.88,0,0,1,52.48,24a113.4,113.4,0,0,1,.78,26.34Z"/><path class="cls-3" d="M52.88,49.88,52.48,24A97.37,97.37,0,0,0,52.88,49.88Z"/><path class="cls-3" d="M54.74,48.14a115.15,115.15,0,0,1-2.56-25.77,113.61,113.61,0,0,1,3,26.18Z"/><path class="cls-3" d="M54.74,48.14,52.18,22.37A97.34,97.34,0,0,0,54.74,48.14Z"/><path class="cls-3" d="M52.94,49.07a114.84,114.84,0,0,1-.4-25.89,113.4,113.4,0,0,1,.78,26.34Z"/><path class="cls-3" d="M52.94,49.07l-.4-25.89A97.39,97.39,0,0,0,52.94,49.07Z"/><path class="cls-3" d="M67.36,37.58a114.85,114.85,0,0,1,.92-25.88,113.52,113.52,0,0,1-.56,26.35Z"/><path class="cls-3" d="M67.36,37.58l.92-25.88A97.57,97.57,0,0,0,67.36,37.58Z"/><path class="cls-3" d="M77.93,31.09a114.73,114.73,0,0,1,5-25.4,113.76,113.76,0,0,1-4.72,25.93Z"/><path class="cls-3" d="M77.93,31.09l5-25.4A97.46,97.46,0,0,0,77.93,31.09Z"/><path class="cls-3" d="M79.76,29.89A115.33,115.33,0,0,1,88.85,5.65,113.59,113.59,0,0,1,80,30.45Z"/><path class="cls-3" d="M79.76,29.89,88.85,5.65A97.47,97.47,0,0,0,79.76,29.89Z"/><path class="cls-3" d="M82.85,28.79A115,115,0,0,1,92,4.55,113.94,113.94,0,0,1,83,29.36Z"/><path class="cls-3" d="M82.85,28.79,92,4.55A97.44,97.44,0,0,0,82.85,28.79Z"/><path class="cls-3" d="M84.61,28.6a114.88,114.88,0,0,1,17.57-19A113.34,113.34,0,0,1,84.57,29.19Z"/><path class="cls-3" d="M84.61,28.6l17.57-19A97.35,97.35,0,0,0,84.61,28.6Z"/><path class="cls-3" d="M75,32.09a114.73,114.73,0,0,1,5-25.4,113.63,113.63,0,0,1-4.72,25.92Z"/><path class="cls-3" d="M75,32.09l5-25.4A97.34,97.34,0,0,0,75,32.09Z"/><path class="cls-3" d="M67.72,37.22a115,115,0,0,1,7.12-24.9A113.54,113.54,0,0,1,68,37.76Z"/><path class="cls-3" d="M67.72,37.22l7.12-24.9A97.44,97.44,0,0,0,67.72,37.22Z"/><path class="cls-3" d="M68.92,36.71A115.52,115.52,0,0,1,76,11.81a113.81,113.81,0,0,1-6.87,25.44Z"/><path class="cls-3" d="M68.92,36.71,76,11.81A97.69,97.69,0,0,0,68.92,36.71Z"/><path class="cls-3" d="M70.21,36.54a115.52,115.52,0,0,1,7.11-24.9,113.67,113.67,0,0,1-6.87,25.44Z"/><path class="cls-3" d="M70.21,36.54l7.11-24.9A97.69,97.69,0,0,0,70.21,36.54Z"/><path class="cls-3" d="M72.5,34a115.43,115.43,0,0,1,5-25.41A113.76,113.76,0,0,1,72.78,34.5Z"/><path class="cls-3" d="M72.5,34l5-25.41A97.48,97.48,0,0,0,72.5,34Z"/><path class="cls-3" d="M70.54,35.36a115.52,115.52,0,0,1,7.11-24.9A113.81,113.81,0,0,1,70.78,35.9Z"/><path class="cls-3" d="M70.54,35.36l7.11-24.9A97.69,97.69,0,0,0,70.54,35.36Z"/><path class="cls-3" d="M47.39,56.93a115.17,115.17,0,0,1,25.88-.78,113.49,113.49,0,0,1-26.33,1.18Z"/><path class="cls-3" d="M47.39,56.93l25.88-.78A97.74,97.74,0,0,0,47.39,56.93Z"/><path class="cls-3" d="M45.31,58.53A115,115,0,0,1,71.2,59a113.39,113.39,0,0,1-26.36-.06Z"/><path class="cls-3" d="M45.31,58.53,71.2,59A97.63,97.63,0,0,0,45.31,58.53Z"/><path class="cls-3" d="M51,54.91a114.82,114.82,0,0,1,25.88-.77,113.79,113.79,0,0,1-26.33,1.17Z"/><path class="cls-3" d="M51,54.91l25.88-.77A97.44,97.44,0,0,0,51,54.91Z"/><path class="cls-3" d="M48.94,56.51a115,115,0,0,1,25.89.43,113.32,113.32,0,0,1-26.35-.06Z"/><path class="cls-3" d="M48.94,56.51l25.89.43A97.63,97.63,0,0,0,48.94,56.51Z"/><path class="cls-3" d="M50.22,53.54a115.17,115.17,0,0,1,25.88-.78,113.85,113.85,0,0,1-26.33,1.17Z"/><path class="cls-3" d="M50.22,53.54l25.88-.78A97.22,97.22,0,0,0,50.22,53.54Z"/><path class="cls-3" d="M48.14,55.14A115.38,115.38,0,0,1,74,55.56a113.69,113.69,0,0,1-26.36-.05Z"/><path class="cls-3" d="M48.14,55.14,74,55.56A97.41,97.41,0,0,0,48.14,55.14Z"/><path class="cls-3" d="M50.22,53a115.17,115.17,0,0,1,25.88-.78,113.85,113.85,0,0,1-26.33,1.17Z"/><path class="cls-3" d="M50.22,53l25.88-.78A97.22,97.22,0,0,0,50.22,53Z"/><path class="cls-3" d="M48.14,54.57A115.38,115.38,0,0,1,74,55a113.69,113.69,0,0,1-26.36-.05Z"/><path class="cls-3" d="M48.14,54.57,74,55A97.41,97.41,0,0,0,48.14,54.57Z"/><path class="cls-3" d="M54.59,48.64a115.22,115.22,0,0,1,25.88-.78A113.73,113.73,0,0,1,54.15,49Z"/><path class="cls-3" d="M54.59,48.64l25.88-.78A97.22,97.22,0,0,0,54.59,48.64Z"/><path class="cls-3" d="M52.51,50.24a115.39,115.39,0,0,1,25.89.42,113.59,113.59,0,0,1-26.35,0Z"/><path class="cls-3" d="M52.51,50.24l25.89.42A97.37,97.37,0,0,0,52.51,50.24Z"/><path class="cls-3" d="M44.54,60.84a115,115,0,0,1,25.74,2.84,113.61,113.61,0,0,1-26.23-2.52Z"/><path class="cls-3" d="M44.54,60.84l25.74,2.84A97.57,97.57,0,0,0,44.54,60.84Z"/><path class="cls-3" d="M59.76,43.82a115,115,0,0,1,25.66,3.49,114,114,0,0,1-26.16-3.18Z"/><path class="cls-3" d="M59.76,43.82l25.66,3.49A97.68,97.68,0,0,0,59.76,43.82Z"/><path class="cls-3" d="M57.45,45.06a114.63,114.63,0,0,1,25.46,4.68,113.57,113.57,0,0,1-26-4.4Z"/><path class="cls-3" d="M57.45,45.06l25.46,4.68A97.23,97.23,0,0,0,57.45,45.06Z"/><path class="cls-3" d="M63.68,42.43a115.29,115.29,0,0,1,25.65,3.48,113.63,113.63,0,0,1-26.16-3.17Z"/><path class="cls-3" d="M63.68,42.43l25.65,3.48A97.32,97.32,0,0,0,63.68,42.43Z"/><path class="cls-3" d="M61.36,43.66a115.34,115.34,0,0,1,25.47,4.68,114,114,0,0,1-26-4.39Z"/><path class="cls-3" d="M61.36,43.66l25.47,4.68A97.38,97.38,0,0,0,61.36,43.66Z"/><path class="cls-3" d="M63.2,41.53A115,115,0,0,1,88.86,45,114,114,0,0,1,62.7,41.84Z"/><path class="cls-3" d="M63.2,41.53,88.86,45A97.07,97.07,0,0,0,63.2,41.53Z"/><path class="cls-3" d="M61.62,42.43a114.67,114.67,0,0,1,25.47,4.68,113.69,113.69,0,0,1-26-4.4Z"/><path class="cls-3" d="M61.62,42.43l25.47,4.68A97.38,97.38,0,0,0,61.62,42.43Z"/><path class="cls-3" d="M75.33,32.76A115.35,115.35,0,0,1,101,36.24a113.63,113.63,0,0,1-26.16-3.17Z"/><path class="cls-3" d="M75.33,32.76,101,36.24A97.35,97.35,0,0,0,75.33,32.76Z"/><path class="cls-3" d="M78.31,30.89a115.22,115.22,0,0,1,25.75-2.72,113.52,113.52,0,0,1-26.17,3.14Z"/><path class="cls-3" d="M78.31,30.89l25.75-2.72A97.32,97.32,0,0,0,78.31,30.89Z"/><path class="cls-3" d="M80.33,30a114.93,114.93,0,0,1,25-6.59A113.84,113.84,0,0,1,80,30.47Z"/><path class="cls-3" d="M80.33,30l25-6.59A97.64,97.64,0,0,0,80.33,30Z"/><path class="cls-3" d="M72.67,34.5a115.3,115.3,0,0,1,25.46,4.68,113.86,113.86,0,0,1-26-4.39Z"/><path class="cls-3" d="M72.67,34.5l25.46,4.68A97.23,97.23,0,0,0,72.67,34.5Z"/><path class="cls-3" d="M69.86,36.41a114.84,114.84,0,0,1,25.89-.07,113.42,113.42,0,0,1-26.35.45Z"/><path class="cls-3" d="M69.86,36.41l25.89-.07A97.41,97.41,0,0,0,69.86,36.41Z"/><path class="cls-3" d="M67.21,38.59a115.34,115.34,0,0,1,25.47,4.68,113.32,113.32,0,0,1-26-4.39Z"/><path class="cls-3" d="M67.21,38.59l25.47,4.68A97.88,97.88,0,0,0,67.21,38.59Z"/><path class="cls-3" d="M56.32,47.2a115.27,115.27,0,0,1,24.91,7,113.44,113.44,0,0,1-25.46-6.8Z"/><path class="cls-3" d="M56.32,47.2l24.91,7A97.71,97.71,0,0,0,56.32,47.2Z"/><path class="cls-3" d="M42.92,62.87a114.6,114.6,0,0,1,25.73,2.85A114.28,114.28,0,0,1,42.42,63.2Z"/><path class="cls-3" d="M42.92,62.87l25.73,2.85A97.16,97.16,0,0,0,42.92,62.87Z"/><path class="cls-3" d="M40.53,64.87a114.94,114.94,0,0,1,25.73,2.84A113.61,113.61,0,0,1,40,65.19Z"/><path class="cls-3" d="M40.53,64.87l25.73,2.84A97.44,97.44,0,0,0,40.53,64.87Z"/><path class="cls-3" d="M39.52,66.07a115.4,115.4,0,0,1,25.4,5A113.63,113.63,0,0,1,39,66.35Z"/><path class="cls-3" d="M39.52,66.07l25.4,5A97.46,97.46,0,0,0,39.52,66.07Z"/><path class="cls-3" d="M39.26,68a114.73,114.73,0,0,1,25.4,5,113.76,113.76,0,0,1-25.93-4.72Z"/><path class="cls-3" d="M39.26,68l25.4,5A97.46,97.46,0,0,0,39.26,68Z"/><path class="cls-3" d="M38.09,68.74a115.4,115.4,0,0,1,25.4,5A114,114,0,0,1,37.56,69Z"/><path class="cls-3" d="M38.09,68.74l25.4,5A97.46,97.46,0,0,0,38.09,68.74Z"/><path class="cls-4" d="M9.16,107.41a2.38,2.38,0,0,0,3.44,2.12S30.36,57.44,75,34.24C75,34.24,32.69,51.24,9.16,107.41Z"/><path class="cls-5" d="M28.23,77.73a114.88,114.88,0,0,1,24.61-8,113.56,113.56,0,0,1-24.93,8.52Z"/><path class="cls-6" d="M26.53,79.45a114.83,114.83,0,0,1,25-6.87,114.17,114.17,0,0,1-25.3,7.36Z"/><path class="cls-7" d="M24.42,81.48A115,115,0,0,1,49.92,77a114,114,0,0,1-25.88,5Z"/><path class="cls-8" d="M24.42,84.63a115,115,0,0,1,25.5-4.51,114,114,0,0,1-25.88,5Z"/><path class="cls-9" d="M23.08,86a115,115,0,0,1,25.5-4.51,114,114,0,0,1-25.88,5Z"/><path class="cls-10" d="M21.24,87.7A114.62,114.62,0,0,1,47,85.35a113.78,113.78,0,0,1-26.21,2.77Z"/><path class="cls-11" d="M20.84,90.44a114.66,114.66,0,0,1,25.79-2.35,113.78,113.78,0,0,1-26.21,2.77Z"/><path class="cls-12" d="M19.92,91.45A115.29,115.29,0,0,1,45.7,89.1a113.64,113.64,0,0,1-26.2,2.77Z"/><path class="cls-13" d="M29,77.73a114.64,114.64,0,0,1,24.61-8,113.8,113.8,0,0,1-24.93,8.52Z"/><path class="cls-14" d="M27.34,79.45a114.83,114.83,0,0,1,25-6.87A114.17,114.17,0,0,1,27,79.94Z"/><path class="cls-15" d="M25.23,84.63a114.85,114.85,0,0,1,25.5-4.51,114,114,0,0,1-25.88,5Z"/><path class="cls-16" d="M23.89,86a114.85,114.85,0,0,1,25.5-4.51,114,114,0,0,1-25.88,5Z"/><path class="cls-17" d="M22,87.7a114.75,114.75,0,0,1,25.79-2.35,113.78,113.78,0,0,1-26.21,2.77Z"/><path class="cls-18" d="M21.65,90.44a114.62,114.62,0,0,1,25.78-2.35,113.64,113.64,0,0,1-26.2,2.77Z"/><path class="cls-19" d="M20.73,91.45A115.29,115.29,0,0,1,46.51,89.1a113.64,113.64,0,0,1-26.2,2.77Z"/><path class="cls-20" d="M25.83,77.77A115,115,0,0,1,17,53.45a113.46,113.46,0,0,1,9.39,24.62Z"/><path class="cls-21" d="M24.49,79.65a115,115,0,0,1-8.88-24.32A113.42,113.42,0,0,1,25,80Z"/><path class="cls-22" d="M16.8,86A115,115,0,0,1,10,61a113.63,113.63,0,0,1,7.29,25.33Z"/><path class="cls-23" d="M19.56,85.86a115.27,115.27,0,0,1-6.8-25A113.43,113.43,0,0,1,20.05,86.2Z"/><path class="cls-24" d="M20.73,86.59a115,115,0,0,1-6.81-25,113.43,113.43,0,0,1,7.29,25.32Z"/><path class="cls-25" d="M22.13,82.55a115.25,115.25,0,0,1-8.88-24.33,113.42,113.42,0,0,1,9.39,24.63Z"/><path class="cls-26" d="M16.94,93.49A114.69,114.69,0,0,1,8.07,69.17a114.07,114.07,0,0,1,9.39,24.62Z"/><path class="cls-27" d="M18,90.74a115.07,115.07,0,0,1-6.8-25,114,114,0,0,1,7.28,25.33Z"/><path class="cls-28" d="M20,88.25a115,115,0,0,1-6.81-25,113.63,113.63,0,0,1,7.29,25.33Z"/><path class="cls-29" d="M20.58,85.79a115.07,115.07,0,0,1-6.8-25,113.63,113.63,0,0,1,7.29,25.33Z"/><path class="cls-30" d="M33.34,67.19a115,115,0,0,1-8.88-24.32,114.07,114.07,0,0,1,9.39,24.62Z"/><path class="cls-31" d="M32,69.07a115,115,0,0,1-8.88-24.32A113.46,113.46,0,0,1,32.5,69.37Z"/><path class="cls-32" d="M26.67,76.56a115,115,0,0,1-6.81-25A113.43,113.43,0,0,1,27.15,76.9Z"/><path class="cls-33" d="M27.28,74a115.07,115.07,0,0,1-6.8-25,113.63,113.63,0,0,1,7.29,25.33Z"/><path class="cls-34" d="M28.44,74.69a115.07,115.07,0,0,1-6.8-25A113.63,113.63,0,0,1,28.93,75Z"/><path class="cls-35" d="M29.89,70.65A114.69,114.69,0,0,1,21,46.33,114.07,114.07,0,0,1,30.41,71Z"/><path class="cls-36" d="M28.3,73.9a115.25,115.25,0,0,1-6.8-25,113.63,113.63,0,0,1,7.29,25.33Z"/><path class="cls-37" d="M34.15,66.25a115.28,115.28,0,0,1-6.6-25,113.53,113.53,0,0,1,7.08,25.38Z"/><path class="cls-38" d="M42.35,57.1a115,115,0,0,1-6.61-25,113.63,113.63,0,0,1,7.09,25.38Z"/><path class="cls-39" d="M40.15,59.27a114.46,114.46,0,0,1-6.6-25,114,114,0,0,1,7.08,25.38Z"/><path class="cls-40" d="M35.09,65.12a114.9,114.9,0,0,1-4.47-25.51A113.59,113.59,0,0,1,35.54,65.5Z"/><path class="cls-41" d="M36,64.13a115.1,115.1,0,0,1-4.48-25.5A113.9,113.9,0,0,1,36.4,64.52Z"/><path class="cls-42" d="M37,63.42a115.55,115.55,0,0,1-4.47-25.5,113.75,113.75,0,0,1,4.93,25.89Z"/><path class="cls-43" d="M38.6,61.41a115.28,115.28,0,0,1-6.6-25,113.63,113.63,0,0,1,7.09,25.38Z"/><path class="cls-44" d="M51,49.87a114.8,114.8,0,0,1-2.57-25.76,113.61,113.61,0,0,1,3,26.18Z"/><path class="cls-45" d="M57,44.74A114.92,114.92,0,0,1,58.65,18.9,113.46,113.46,0,0,1,57.3,45.22Z"/><path class="cls-46" d="M48.5,51.67a115,115,0,0,1-2.56-25.76,114,114,0,0,1,3,26.18Z"/><path class="cls-47" d="M42.59,56.64a115.17,115.17,0,0,1-.39-25.89A114.12,114.12,0,0,1,43,57.1Z"/><path class="cls-48" d="M43.59,55.81a114.84,114.84,0,0,1-.4-25.89A113.4,113.4,0,0,1,44,56.26Z"/><path class="cls-49" d="M44.78,55.28a114.88,114.88,0,0,1-.4-25.89,113.4,113.4,0,0,1,.78,26.34Z"/><path class="cls-50" d="M46.64,53.54a115.15,115.15,0,0,1-2.56-25.77,114,114,0,0,1,3,26.18Z"/><path class="cls-51" d="M44.84,54.47a114.84,114.84,0,0,1-.4-25.89,113.4,113.4,0,0,1,.78,26.34Z"/><path class="cls-52" d="M59.3,43a115.18,115.18,0,0,1,.93-25.88,113.88,113.88,0,0,1-.57,26.35Z"/><path class="cls-53" d="M69.83,36.49a114.73,114.73,0,0,1,5-25.4A113.76,113.76,0,0,1,70.11,37Z"/><path class="cls-54" d="M71.66,35.29a115.33,115.33,0,0,1,9.09-24.24,113.59,113.59,0,0,1-8.9,24.8Z"/><path class="cls-55" d="M77,33.3A115.12,115.12,0,0,1,86.09,9.06a113.59,113.59,0,0,1-8.9,24.8Z"/><path class="cls-56" d="M77.44,32.38A114.88,114.88,0,0,1,95,13.36,113.6,113.6,0,0,1,77.4,33Z"/><path class="cls-57" d="M66.9,37.49a114.73,114.73,0,0,1,5-25.4A113.63,113.63,0,0,1,67.18,38Z"/><path class="cls-58" d="M59.62,42.62a115,115,0,0,1,7.12-24.9,113.54,113.54,0,0,1-6.88,25.44Z"/><path class="cls-59" d="M62.11,41.94A115.52,115.52,0,0,1,69.22,17a113.67,113.67,0,0,1-6.87,25.44Z"/><path class="cls-60" d="M64.4,39.38A114.76,114.76,0,0,1,69.4,14,113.76,113.76,0,0,1,64.68,39.9Z"/><path class="cls-61" d="M62.44,40.76a114.86,114.86,0,0,1,7.11-24.9A113.81,113.81,0,0,1,62.68,41.3Z"/><path class="cls-62" d="M39.29,62.33a115.17,115.17,0,0,1,25.88-.78,113.19,113.19,0,0,1-26.33,1.17Z"/><path class="cls-63" d="M37.21,63.93a115,115,0,0,1,25.89.43,113.39,113.39,0,0,1-26.36-.06Z"/><path class="cls-64" d="M42.92,60.31a114.82,114.82,0,0,1,25.88-.77,113.85,113.85,0,0,1-26.33,1.17Z"/><path class="cls-65" d="M40.84,61.91a115,115,0,0,1,25.89.43,113.32,113.32,0,0,1-26.35-.06Z"/><path class="cls-66" d="M42.12,58.94A115.17,115.17,0,0,1,68,58.16a113.85,113.85,0,0,1-26.33,1.17Z"/><path class="cls-67" d="M40,60.54A115.38,115.38,0,0,1,65.93,61a113.69,113.69,0,0,1-26.36-.05Z"/><path class="cls-68" d="M42.12,58.37A115.17,115.17,0,0,1,68,57.59a113.85,113.85,0,0,1-26.33,1.17Z"/><path class="cls-69" d="M40,60a115.38,115.38,0,0,1,25.89.42,113.69,113.69,0,0,1-26.36,0Z"/><path class="cls-70" d="M46.49,54a115.17,115.17,0,0,1,25.88-.78A113.79,113.79,0,0,1,46,54.43Z"/><path class="cls-71" d="M44.41,55.64a115.39,115.39,0,0,1,25.89.42A113.62,113.62,0,0,1,44,56Z"/><path class="cls-72" d="M36.44,66.24a115,115,0,0,1,25.74,2.84A113.61,113.61,0,0,1,36,66.56Z"/><path class="cls-73" d="M51.66,49.22a115,115,0,0,1,25.66,3.49,114,114,0,0,1-26.16-3.18Z"/><path class="cls-74" d="M49.35,50.46a114.63,114.63,0,0,1,25.46,4.68,113.57,113.57,0,0,1-26-4.4Z"/><path class="cls-75" d="M55.58,47.83a115.29,115.29,0,0,1,25.65,3.48,113.63,113.63,0,0,1-26.16-3.17Z"/><path class="cls-76" d="M53.26,49.06a115.34,115.34,0,0,1,25.47,4.68,114,114,0,0,1-26-4.39Z"/><path class="cls-77" d="M55.1,46.93a115,115,0,0,1,25.66,3.49A114,114,0,0,1,54.6,47.24Z"/><path class="cls-78" d="M53.52,47.83A114.67,114.67,0,0,1,79,52.51a113.69,113.69,0,0,1-26-4.4Z"/><path class="cls-79" d="M67.23,38.16a114.68,114.68,0,0,1,25.66,3.48,113.63,113.63,0,0,1-26.16-3.17Z"/><path class="cls-80" d="M70.21,36.29A115.22,115.22,0,0,1,96,33.57a113.52,113.52,0,0,1-26.17,3.14Z"/><path class="cls-81" d="M75.05,33.76a114.93,114.93,0,0,1,25-6.59A113.84,113.84,0,0,1,74.7,34.24Z"/><path class="cls-82" d="M64.57,39.9A115.3,115.3,0,0,1,90,44.58a113.86,113.86,0,0,1-26-4.39Z"/><path class="cls-83" d="M61.76,41.81c13.37-1.73,13.37-1.72,25.89-.07a113.42,113.42,0,0,1-26.35.45Z"/><path class="cls-84" d="M59.11,44a115.3,115.3,0,0,1,25.46,4.68,113.28,113.28,0,0,1-26-4.39Z"/><path class="cls-85" d="M48.21,52.6a115.28,115.28,0,0,1,24.92,7,113.44,113.44,0,0,1-25.46-6.8Z"/><path class="cls-86" d="M34.82,68.27a114.6,114.6,0,0,1,25.73,2.85A114.28,114.28,0,0,1,34.32,68.6Z"/><path class="cls-87" d="M32.42,70.27a115,115,0,0,1,25.74,2.84,113.61,113.61,0,0,1-26.23-2.52Z"/><path class="cls-88" d="M31.46,71.47a115.43,115.43,0,0,1,25.41,5,113.67,113.67,0,0,1-25.93-4.72Z"/><path class="cls-89" d="M31.16,73.43a114.73,114.73,0,0,1,25.4,5,113.76,113.76,0,0,1-25.93-4.72Z"/><path class="cls-90" d="M30,74.14a115.4,115.4,0,0,1,25.4,5,114,114,0,0,1-25.93-4.71Z"/><path class="cls-91" d="M25.23,81.48c12.87-4,12.88-4,25.5-4.51a114,114,0,0,1-25.88,5Z"/><path class="cls-92" d="M37,62.62c-4-12.83-4-12.84-4.48-25.51A113.9,113.9,0,0,1,37.42,63Z"/><path class="cls-93" d="M52.46,48.19a115.25,115.25,0,0,1,1.7-25.84,114.12,114.12,0,0,1-1.35,26.32Z"/><path class="cls-94" d="M60.86,42.11A115.2,115.2,0,0,1,68,17.21,114.19,114.19,0,0,1,61.1,42.65Z"/><path class="cls-95" d="M9.16,107.41s2.87-.27,3.44,2.12C12.6,109.53,9.61,111.31,9.16,107.41Z"/><path class="cls-96" d="M74.83,13.5c0,.31-1.06,1.56-2.68,3.29h0C67.37,21.9,57.8,31.17,56.51,32.52c-1.64,1.71-1,3.08-4,6.66-.17.2-.35.42-.56.64-3.64,4.07-16,12.51-23.32,18.59S13.88,77.34,12.76,76.26,7.44,68.79,7.44,65.14c0-.53,0-1.08.06-1.64C7.79,60.27,9.33,56.33,17,48,25.89,38.21,35,18.46,40,16.06s17.14-1.8,23.06-3.74a16.85,16.85,0,0,1,8-.58C73.35,12.12,74.83,12.91,74.83,13.5Z"/><path class="cls-97" d="M71.37,52.12c-1.89,3.7-5.75,8.94-13.5,15.56S40.19,74.5,39.11,73.16c-.79-1-.23-2.69,1.1-4.66,2.38-3.53,7.25-7.93,11.4-10.62,6.47-4.19,14.4-12.29,17.85-12.8a3.44,3.44,0,0,1,1.06,0C73,45.43,73.06,48.85,71.37,52.12Z"/><path class="cls-98" d="M74.84,13.5c0,1.18-16.6,17.21-18.33,19s-.95,3.23-4.61,7.3-16,12.51-23.32,18.58S13.88,77.34,12.76,76.26,7.44,68.78,7.44,65.14c0-.54,0-1.08.06-1.65.2,2.11,1,5.78,4.11,5.25C16,68,23.62,50,25.67,48.91s.74,4.82,2.35,5.37S49.1,43.08,52,39s-1.82-11.49.48-15,19-10.35,18.72-11.9a3,3,0,0,0-.08-.35C73.35,12.12,74.84,12.91,74.84,13.5Z"/><path class="cls-99" d="M71.37,52.12c-1.89,3.7-5.75,8.94-13.5,15.56S40.19,74.5,39.11,73.16c-.79-1-.23-2.69,1.1-4.66a11.93,11.93,0,0,0,12.63,1.21c7.74-3.48,13.38-12.41,15.82-17.2,2.23-4.42,1.92-7,1.86-7.44C73,45.43,73.06,48.85,71.37,52.12Z"/><path class="cls-100" d="M36,77c-.94,1-.83,3,0,3.15s3-1.57,2.83-2.33S36.46,76.49,36,77Z"/><path class="cls-101" d="M64.14,35.73c-.94,1-.83,3,0,3.14s3-1.57,2.83-2.32S64.59,35.25,64.14,35.73Z"/><path class="cls-102" d="M69.11,27.42c-1,0-2.11,1-1.85,1.54s2.24.81,2.61.36S69.59,27.42,69.11,27.42Z"/><path class="cls-103" d="M31.82,77c-.61-.5.35-1.64.77-1.57s1,.86.77,1.21A1.58,1.58,0,0,1,31.82,77Z"/><path class="cls-104" d="M42.62,49.78c-1-1.8,6.54-7,8.82-7.35s1.55,3.8.56,5.62S43.12,50.73,42.62,49.78Z"/><path class="cls-105" d="M72.15,41.3c.42-3.2,10.73-2.28,12.15-.79s-7.17,3.42-9.47,3S72,42.25,72.15,41.3Z"/><path class="cls-106" d="M70.54,21.77c-1.19.56-2.51,2.48-2,3.29s3.84.45,3.9-.8S71.49,21.33,70.54,21.77Z"/><path class="cls-107" d="M15.52,78c-.81-1.49,2-4.45,3.39-4.82s2.11,3.34,1.85,4.66S16.07,79,15.52,78Z"/><path class="cls-108" d="M72.14,16.8C67.37,21.9,57.8,31.17,56.51,32.52c-1.64,1.71-1,3.08-4,6.66a14.47,14.47,0,0,0,1.12-5.64c0-3.53,1.39-7,7.52-9.9A62.5,62.5,0,0,0,72.14,16.8Z"/></g></g></g></svg>