<svg id="object" xmlns="http://www.w3.org/2000/svg" viewBox="0 0 626.25 721.58"><defs><style>.cls-1{fill:#eac324;}.cls-2{fill:none;}.cls-3{fill:#fff;}.cls-4{fill:#13193e;}.cls-5{fill:#256338;}.cls-6{fill:#1e512c;}.cls-7{fill:#d64b34;}</style></defs><polygon class="cls-1" points="626.25 325.43 10.55 277.88 0 721.58 557 721.58 626.25 325.43"/><path class="cls-2" d="M793.59,486l16.53-94.54L687.49,382q-33.63,19.34-67.27,38.68Q402.87,545.89,186.61,672.22l-2.75,115.36h114q46.74-28.59,93.5-57.16Q592.09,607.86,793.59,486Z" transform="translate(-183.86 -66)"/><path class="cls-2" d="M675.09,381,467.94,365q-25.77,14.7-51.23,29.7-85.45,50.4-167.32,104.17c-19.82,13-39.5,26.25-59.59,39.08l-3,126q32.1-18.75,64.19-37.49Q462.52,503.24,675.09,381Z" transform="translate(-183.86 -66)"/><path class="cls-2" d="M455.55,364.05,321.78,353.72Q255.65,394.15,192.2,437l-2.2,92.4c51.27-32.87,101.36-66.72,153.5-98.82Q398.75,396.57,455.55,364.05Z" transform="translate(-183.86 -66)"/><path class="cls-2" d="M194.42,343.88l-2,84.33Q250,389.53,309.77,352.79Z" transform="translate(-183.86 -66)"/><path class="cls-2" d="M602.81,787.58H740.87L757,695.21Q681.83,743.21,602.81,787.58Z" transform="translate(-183.86 -66)"/><path class="cls-2" d="M792,495.19q-40.11,24.27-80.19,48.54Q511.21,665.32,311.36,787.58H588.51q87.38-48.69,170.16-101.87Z" transform="translate(-183.86 -66)"/><path class="cls-3" d="M309.77,352.79Q250,389.51,192.41,428.21l-.21,8.8q63.45-42.83,129.58-83.29Z" transform="translate(-183.86 -66)"/><path class="cls-3" d="M416.71,394.7q25.46-15,51.23-29.7l-12.39-.95q-56.78,32.54-112,66.54c-52.14,32.1-102.23,66-153.5,98.82l-.2,8.54c20.09-12.83,39.77-26.06,59.59-39.08Q331.22,445.13,416.71,394.7Z" transform="translate(-183.86 -66)"/><path class="cls-3" d="M687.49,382l-12.4-1Q462.55,503.27,251,626.51,218.88,645.23,186.8,664l-.19,8.22Q402.9,545.92,620.22,420.64,653.84,401.28,687.49,382Z" transform="translate(-183.86 -66)"/><path class="cls-3" d="M792,495.19l1.61-9.22Q592.11,607.86,391.33,730.42q-46.79,28.56-93.5,57.16h13.53Q511.24,665.33,711.79,543.73,751.86,519.44,792,495.19Z" transform="translate(-183.86 -66)"/><path class="cls-3" d="M758.67,685.71q-82.74,53.14-170.16,101.87h14.3q79-44.36,154.2-92.37Z" transform="translate(-183.86 -66)"/><path class="cls-2" d="M492.91,579.05q-151.83-6.28-304-4.32l-5.07,212.85H451.44q5.71-36.33,12.4-72.57Q476.53,646.8,492.91,579.05Z" transform="translate(-183.86 -66)"/><path class="cls-2" d="M292.43,567.83q101.08.55,202,4.81,24.69-101.2,57.45-201.15L194.42,343.88l-5.34,224.36Q240.76,567.56,292.43,567.83Z" transform="translate(-183.86 -66)"/><path class="cls-2" d="M503,573q136.41,5.93,272.13,18.51l35-200.09L560.46,372.15q-8.73,26.6-16.91,53.28Q521.1,498.87,503,573Z" transform="translate(-183.86 -66)"/><path class="cls-2" d="M658.77,588.4q-78.53-5.62-157.3-9Q476.47,683,460,787.58H740.87L774,597.89Q716.49,592.57,658.77,588.4Z" transform="translate(-183.86 -66)"/><path class="cls-4" d="M658.77,588.4q57.72,4.13,115.25,9.49l1.12-6.37Q639.5,579,503,573q18.09-74.11,40.54-147.58,8.16-26.68,16.91-53.28l-8.55-.66q-32.71,99.9-57.45,201.15-100.9-4.23-202-4.81-51.67-.29-103.35.41l-.15,6.49q152-2,304,4.32-16.35,67.74-29.07,136-6.73,36.24-12.4,72.57H460Q476.49,683,501.47,579.4,580.22,582.79,658.77,588.4Z" transform="translate(-183.86 -66)"/><path class="cls-5" d="M535.16,336.9a103.92,103.92,0,0,1-.23-23.32,56.44,56.44,0,0,1,2.28-10.85,41.45,41.45,0,0,1,1.95-4.91c.37-.78.77-1.54,1.2-2.29s.69-1.59,1.21-2.34a33.6,33.6,0,0,1,4.21-4.86,34.89,34.89,0,0,1,10.3-6.78,34.47,34.47,0,0,1,5.87-1.93c2-.45,4.08-.42,6-.85-1.13-.14-2.52-1.35-3.48-2-1.15-.74-2.27-1.51-3.37-2.31a59.47,59.47,0,0,1-16.42-18A50.26,50.26,0,0,1,537.89,233c-.77-23.28,11.31-40.31,28.62-51.52-.51-.54-1-1.08-1.56-1.67-5.43-6.21-10.78-9.85-14.2-17.76a47.06,47.06,0,0,1,2.76-43.14c-14.27-6.69-27-18-35.47-29.3A82.41,82.41,0,0,1,505.5,66c-.51,13.59-5.12,27.46-11.16,38.51-6.7,12.25-16,24.87-27.49,33.87C483,148.91,494,166.1,489.69,187.09c-3.68,17.83-15.34,30-29.87,38.34,10.25,9.64,15.78,21.79,16.49,34.22a63.81,63.81,0,0,1-6,43c26.37,4.11,50.2,23.8,66.75,47.1C536.27,345.5,535.62,341.21,535.16,336.9Z" transform="translate(-183.86 -66)"/><path class="cls-5" d="M496.21,376.19a64.07,64.07,0,0,1-9.22-8.74,46.39,46.39,0,0,1-3.63-4.85c-.54-.83-1.05-1.68-1.52-2.55s-1.15-1.63-1.56-2.59a37.54,37.54,0,0,1-2.22-7,40.18,40.18,0,0,1,1.19-21c.75-2.21,2-4.24,2.79-6.39-.82,1-2.84,1.65-4,2.22-1.41.68-2.83,1.31-4.28,1.91a68.15,68.15,0,0,1-27.44,5.23,57.44,57.44,0,0,1-27-7.42c-23.22-13.22-32.61-35.24-33.18-58.89-.83.18-1.69.38-2.57.53-9.33,1.57-16.09,4.62-25.88,3.22a54.07,54.07,0,0,1-39-25.82c-11.55,11.54-26.77,19.46-42.91,21.07A67.66,67.66,0,0,1,240,258.77a105.19,105.19,0,0,1,27.6,31.61c7.95,13.9,14.7,30.56,16.6,47.19,20-9.5,43.39-9.92,61.31,6.92,15.21,14.29,20.12,33,19.54,52.2,15.57-4.24,30.76-2.35,43.33,4.42a72.57,72.57,0,0,1,33,23.89c7.94-15.45,21.37-28,38.49-33.68a77.22,77.22,0,0,1,37.58-2.23A117.32,117.32,0,0,1,496.21,376.19Z" transform="translate(-183.86 -66)"/><path class="cls-6" d="M502.78,109.3c-2.19,34.6-.54,69.21,1.46,103.78,1.88,32.45,3.65,65.08,13.32,96.33,1.17,3.78,7.05,2,5.88-1.76-9.89-32-11.39-65.39-13.28-98.56s-3.36-66.66-1.24-100c.25-4-5.89-3.7-6.14.21Z" transform="translate(-183.86 -66)"/><path class="cls-6" d="M277.72,284.66c27.17,21.9,59.45,37.94,90.58,53.39A995.28,995.28,0,0,0,471.1,382c3.71,1.35,5.71-4.46,2-5.81A991.14,991.14,0,0,1,373.87,334C342,318.35,308.93,302,281.18,279.59c-3.08-2.48-6.52,2.61-3.46,5.07Z" transform="translate(-183.86 -66)"/><path class="cls-7" d="M504.59,357.59c14.62,8.91,36.46,4.58,45-10.93s4.75-35.43-10.92-45c-14.62-8.91-36.46-4.58-45,10.92s-4.75,35.44,10.92,45Z" transform="translate(-183.86 -66)"/><path class="cls-7" d="M478.81,422.9c14.62,8.9,36.46,4.58,45-10.93s4.75-35.43-10.92-45c-14.62-8.91-36.46-4.59-45,10.92s-4.75,35.44,10.92,45Z" transform="translate(-183.86 -66)"/><path class="cls-7" d="M548,412.24c14.62,8.91,36.46,4.59,45-10.92s4.75-35.44-10.92-45c-14.63-8.9-36.47-4.58-45,10.93s-4.74,35.44,10.93,45Z" transform="translate(-183.86 -66)"/><path class="cls-4" d="M644.17,636.29A789.1,789.1,0,0,1,522.8,586.78c25.66-1.71,51.35-7.91,72.19-23.28,19.14-14.11,30.16-43.72,6.23-59.39-22.07-14.46-53.26-.89-72.25,12.95s-30.3,33.47-33.73,56a3.64,3.64,0,0,0-.57,1.41h-.14c-31.06-.1-66.89.59-90.32,24.22-17.13,17.28-23.44,44.83-7.39,65.12,16.7,21.11,46.7,16.35,64.58-.65,18.32-17.43,27.39-45.08,34.3-69.91q4.77,75.66,7.79,151.42c.23,5.8,9.31,6.36,9.08.51q-3.11-78.93-8.19-157.77a799.78,799.78,0,0,0,137,57.54C646.93,646.68,649.76,638,644.17,636.29ZM527.05,530.34c14.75-13.55,41.31-28.14,61.81-22,14.59,4.4,20.68,18.25,14.48,32.05-4.94,11-16,18.12-26.38,23.45-21.73,11.15-46.32,14.37-70.5,14.34l-2.58-1.38C506,559,513.54,542.75,527.05,530.34ZM467.24,640.62c-11.5,20-41.32,41.57-61.78,19.34-17.68-19.21-6.69-46.92,12-60.59,20.4-15,47-15.87,71.51-15.86C483.57,602.94,477.23,623.25,467.24,640.62Z" transform="translate(-183.86 -66)"/></svg>