<svg id="object" xmlns="http://www.w3.org/2000/svg" xmlns:xlink="http://www.w3.org/1999/xlink" viewBox="0 0 734.53 725.29"><defs><style>.cls-1{fill:#d64b34;}.cls-2{clip-path:url(#clip-path);}.cls-3{fill:#225631;}.cls-4{fill:#eac324;}.cls-5{fill:#e5e2da;}.cls-6{fill:#619e71;}.cls-7{fill:#fff;}.cls-8{fill:#ba3f2b;}</style><clipPath id="clip-path" transform="translate(-435.78 -45.78)"><path class="cls-1" d="M1075.8,217.85c2.83-22.87,9.62-49.52-5.24-69.82-19.27-26.33-61.64-25.73-90.69-29.36q-59.68-7.44-119.74-11.39c-19.43-1.27-38.88-2.32-58.34-3-13.82-.5-27.66.27-38,10.66-11.44,11.49-17.31,29.35-22.86,44.19a435.14,435.14,0,0,0-15.77,52.29c-8.72,36.81-13.34,74.43-18,111.92-4.66,37.67-9.27,75.45-17.88,112.47-7.09,30.46-16.63,66.26-43.66,85.31-13.76,9.7-30.4,13.93-46.53,17.86-17.42,4.25-34.69,8.76-51.64,14.7-29.41,10.3-62.61,22.77-84.07,46.43-20.82,23-22.38,54-7.67,80.67C471.87,710,503,724.82,533.56,734.59c68.35,21.87,141.55,31.07,213.19,29.35a635.48,635.48,0,0,0,106.19-11.45c32.07-6.25,68-12,89.24-39.32,9.86-12.68,16.31-27.47,22.28-42.26A1684.2,1684.2,0,0,0,1035.89,449C1054.69,372.68,1066.18,295.75,1075.8,217.85Z"/></clipPath></defs><path class="cls-1" d="M1075.8,217.85c2.83-22.87,9.62-49.52-5.24-69.82-19.27-26.33-61.64-25.73-90.69-29.36q-59.68-7.44-119.74-11.39c-19.43-1.27-38.88-2.32-58.34-3-13.82-.5-27.66.27-38,10.66-11.44,11.49-17.31,29.35-22.86,44.19a435.14,435.14,0,0,0-15.77,52.29c-8.72,36.81-13.34,74.43-18,111.92-4.66,37.67-9.27,75.45-17.88,112.47-7.09,30.46-16.63,66.26-43.66,85.31-13.76,9.7-30.4,13.93-46.53,17.86-17.42,4.25-34.69,8.76-51.64,14.7-29.41,10.3-62.61,22.77-84.07,46.43-20.82,23-22.38,54-7.67,80.67C471.87,710,503,724.82,533.56,734.59c68.35,21.87,141.55,31.07,213.19,29.35a635.48,635.48,0,0,0,106.19-11.45c32.07-6.25,68-12,89.24-39.32,9.86-12.68,16.31-27.47,22.28-42.26A1684.2,1684.2,0,0,0,1035.89,449C1054.69,372.68,1066.18,295.75,1075.8,217.85Z" transform="translate(-435.78 -45.78)"/><g class="cls-2"><path class="cls-3" d="M989.75,640.07c-42.75-22.54-96.91-20.18-139.52,2.38s-73.61,63.7-87.49,109.3c-1.12,3.69-2.13,7.69-.8,11.31,2.77,7.6,13.2,8.57,21.37,7.78,33.72-3.25,66.26-13.46,98.51-23.61,25.93-8.16,52.4-16.59,74.15-32.68s38.26-41.53,36.09-68.24Z" transform="translate(-435.78 -45.78)"/><path class="cls-3" d="M539.41,568.59c-14.81-15.27-35.35-28.13-56.24-24.09-14.56,2.82-26.65,13.65-33.93,26.57s-10.29,27.78-12,42.5c-1.84,15.69-2.33,31.71,1,47.15,7.15,33.24,31.75,60.95,61.35,77.69s63.82,23.58,97.72,26.24l4.43-3.17C598,692.48,587.51,618.2,539.41,568.59Z" transform="translate(-435.78 -45.78)"/><path class="cls-4" d="M675.28,289.24c159.28,46,325.83,31.05,483,11.29,19.33-2.43,13.94-24.92-5.6-22.46-151.13,19-313,35.07-466.4-9.23-19.14-5.52-30.15,14.85-11,20.4Z" transform="translate(-435.78 -45.78)"/><path class="cls-4" d="M666.29,396c138.25,37.52,284.25,42.86,421.26,16.62,19.29-3.7,8-29.11-11.24-25.43-131.79,25.24-272.26,18.85-405-17.19-19.46-5.28-24.33,20.75-5,26Z" transform="translate(-435.78 -45.78)"/><path class="cls-5" d="M701.45,445.7c9.91,1.9,12.88-13.5,3-15.4s-12.89,13.5-3,15.4Z" transform="translate(-435.78 -45.78)"/><path class="cls-5" d="M761.86,448.85l.09-.45c.77-4-2-8.57-6.22-9.18a8,8,0,0,0-9.18,6.22l-.09.45c-.77,4,2,8.57,6.22,9.18a8,8,0,0,0,9.18-6.22Z" transform="translate(-435.78 -45.78)"/><path class="cls-5" d="M812.85,461.5c9.92,1.9,12.89-13.5,3-15.4s-12.88,13.5-3,15.4Z" transform="translate(-435.78 -45.78)"/><path class="cls-5" d="M868.69,463.85l.45.08c4,.78,8.57-2,9.18-6.22a8,8,0,0,0-6.22-9.18l-.45-.09c-4-.77-8.57,2-9.18,6.23a8,8,0,0,0,6.22,9.18Z" transform="translate(-435.78 -45.78)"/><path class="cls-5" d="M935.88,462.79c9.92,1.9,12.89-13.5,3-15.41s-12.88,13.5-3,15.41Z" transform="translate(-435.78 -45.78)"/><path class="cls-5" d="M1001.78,456.36l.45.09c4,.77,8.57-2,9.18-6.23a8,8,0,0,0-6.23-9.18l-.44-.08c-4-.78-8.57,2-9.19,6.22a8,8,0,0,0,6.23,9.18Z" transform="translate(-435.78 -45.78)"/><path class="cls-6" d="M743.7,359.35c-2.63-2.19-5.17-4.46-7.65-6.78,3,.23,6,.42,9,.54,3.36.13,2.92-5.09-.41-5.22s-6.64-.36-9.94-.65l9.94-9.61c2.42-2.35-1.54-5.77-3.94-3.45l-9.17,8.87c.14-3.48.32-7,.59-10.45.26-3.32-4.87-4.34-5.13-1-.29,3.68-.49,7.36-.64,11-2.9-3.2-5.72-6.47-8.38-9.91-2.05-2.66-6.39.26-4.32,2.93,2.7,3.49,5.56,6.83,8.49,10.09-2-.3-8-1.2-10-1.56-3.31-.58-4.31,4.55-1,5.14,2.67.47,9.27,1.47,11.94,1.84L714,360c-2.42,2.34,1.54,5.76,3.94,3.44l8.21-7.94c0,4.41.08,8.82.3,13.23.16,3.36,5.37,2.95,5.21-.41-.21-4.37-.29-8.73-.31-13.09,2.89,2.76,5.84,5.46,8.93,8C742.85,365.43,746.29,361.5,743.7,359.35Z" transform="translate(-435.78 -45.78)"/><path class="cls-6" d="M789.07,372.2c2.65-2.16,5.37-4.22,8.12-6.21-.8,2.9-1.56,5.81-2.25,8.74-.77,3.27,4.43,3.84,5.19.59s1.63-6.44,2.55-9.63l7.53,11.6c1.84,2.82,5.95-.4,4.13-3.21l-7-10.7c3.4.81,6.78,1.65,10.15,2.59,3.2.88,5.19-4,2-4.86-3.56-1-7.14-1.88-10.72-2.73,3.7-2.24,7.45-4.38,11.33-6.33,3-1.5,1-6.32-2.05-4.81-3.94,2-7.76,4.15-11.53,6.41.68-1.93,2.71-7.59,3.45-9.5,1.2-3.14-3.65-5.1-4.86-1.95-1,2.53-3.22,8.81-4.09,11.37q-3.46-5.34-6.92-10.67c-1.84-2.83-6,.4-4.14,3.21q3.12,4.78,6.22,9.57c-4.33-.83-8.67-1.6-13-2.24-3.33-.48-3.93,4.72-.59,5.2,4.33.63,8.62,1.38,12.9,2.2-3.26,2.31-6.47,4.69-9.58,7.23C783.26,370.2,786.46,374.33,789.07,372.2Z" transform="translate(-435.78 -45.78)"/><path class="cls-6" d="M860.72,364.92c3.4.36,6.77.84,10.13,1.39-2.63,1.47-5.23,3-7.8,4.56-2.86,1.75.4,5.85,3.24,4.1s5.72-3.38,8.63-5q-1.45,6.76-2.92,13.52c-.72,3.29,4.48,3.94,5.18.67l2.7-12.47c1.82,3,3.61,6,5.32,9s6.46.9,4.81-2c-1.81-3.22-3.69-6.39-5.61-9.54,4.19,1,8.36,2.21,12.48,3.59,3.18,1.07,5.16-3.77,2-4.84-4.19-1.41-8.42-2.59-12.67-3.67,1.85-.88,7.29-3.43,9.16-4.25,3.08-1.36,1.06-6.18-2-4.82-2.48,1.09-8.52,3.92-10.95,5.1q1.35-6.21,2.69-12.42c.71-3.3-4.48-3.94-5.19-.68q-1.2,5.58-2.41,11.16c-2.46-3.66-5-7.28-7.6-10.83-2-2.7-6.11.53-4.11,3.24,2.61,3.51,5.1,7.09,7.53,10.71-3.93-.69-7.88-1.29-11.88-1.71C858,359.39,857.37,364.57,860.72,364.92Z" transform="translate(-435.78 -45.78)"/><path class="cls-6" d="M958.38,381.41c.78-3.33,1.68-6.62,2.65-9.87,1.13,2.78,2.3,5.56,3.54,8.31,1.38,3.06,5.85.34,4.48-2.7s-2.63-6.1-3.85-9.19l13,4.61c3.18,1.13,4.48-3.94,1.32-5.06l-12-4.25c3.18-1.43,6.38-2.82,9.62-4.13,3.08-1.25,1.71-6.3-1.41-5-3.43,1.39-6.81,2.85-10.17,4.36,1.57-4,3.24-8,5.14-11.92,1.46-3-3.09-5.6-4.56-2.56-1.92,4-3.63,8-5.25,12.1-.63-1.95-2.47-7.67-3-9.63-1-3.23-6-1.83-5,1.4.77,2.6,2.81,9,3.67,11.51l-12-4.24c-3.18-1.12-4.48,3.94-1.33,5.06L954,364c-3.94,2-7.85,4-11.7,6.16-2.94,1.65-.25,6.13,2.69,4.49,3.82-2.14,7.68-4.16,11.58-6.11-1.18,3.81-2.28,7.66-3.2,11.56C952.55,383.36,957.6,384.69,958.38,381.41Z" transform="translate(-435.78 -45.78)"/><path class="cls-6" d="M1037.41,375.18c.79-3.33,1.69-6.61,2.66-9.87,1.13,2.79,2.29,5.56,3.53,8.31,1.38,3.06,5.86.34,4.49-2.7s-2.64-6.1-3.85-9.19l13,4.61c3.17,1.13,4.47-3.94,1.32-5.06l-12-4.25c3.18-1.43,6.38-2.82,9.62-4.13,3.09-1.25,1.72-6.3-1.4-5-3.43,1.39-6.81,2.85-10.17,4.36,1.57-4,3.24-8,5.13-11.92,1.46-3-3.08-5.6-4.55-2.56-1.92,4-3.63,8-5.25,12.1-.63-1.95-2.47-7.67-3-9.63-1-3.23-6-1.83-5,1.4.77,2.61,2.82,8.95,3.68,11.51l-12-4.24c-3.17-1.12-4.47,3.95-1.32,5.06l10.76,3.81c-3.94,2-7.85,4-11.71,6.17-2.93,1.64-.24,6.13,2.7,4.48,3.81-2.14,7.68-4.16,11.58-6.11-1.19,3.81-2.28,7.66-3.2,11.56C1031.58,377.13,1036.64,378.46,1037.41,375.18Z" transform="translate(-435.78 -45.78)"/></g><path class="cls-7" d="M852.4,688.08c8.26,1.59,10.74-11.25,2.47-12.84s-10.74,11.25-2.47,12.84Z" transform="translate(-435.78 -45.78)"/><path class="cls-7" d="M891.78,667.11c8.26,1.58,10.74-11.25,2.47-12.84s-10.74,11.25-2.47,12.84Z" transform="translate(-435.78 -45.78)"/><path class="cls-8" d="M872.18,679.64l-.12.6c-.64,3.35,1.69,7.14,5.19,7.65a6.65,6.65,0,0,0,7.65-5.19c0-.2.08-.4.11-.6.65-3.35-1.69-7.14-5.18-7.65a6.65,6.65,0,0,0-7.65,5.19Z" transform="translate(-435.78 -45.78)"/><path d="M921.74,680.57a9,9,0,0,1-8.65-7.18c-.72-4-7.06-3.53-6.33.5a16.21,16.21,0,0,0,2.15,5.64,3.15,3.15,0,0,0-.71.74c-3.63,5.44-7.89,11.87-15.22,11.51-4.07-.2-3.54,6.14.5,6.34,9,.44,15-6.89,19.51-13.66.08-.13.13-.25.19-.37a15.76,15.76,0,0,0,9.06,2.82C926.33,686.91,925.82,680.57,921.74,680.57Z" transform="translate(-435.78 -45.78)"/><path class="cls-7" d="M1117.52,51.57c-35-20.84-67.25,19-76,49.83C980.74,88.55,917.57,83.21,855.8,84q-27,.33-53.93,2.39c-16.49,1.26-35.74,1-50.91,8.49-27.91,13.73-29.88,54.71-35.94,81.24-3.29,14.41-8.22,28.61-9.17,43.45-.4,6.18-1,13.86,3,18.9,4.39,5.54,11.42,8.75,17.88,11.12,16.8,6.18,34.68,8.82,52.48,10.65,31.56,3.26,63.3,4.11,95,5,47,1.27,94,2.53,141,2.46,18.19,0,37.31,2.1,55.15-2.2,7.54-1.81,10.15-6,11.61-13.59q5.63-29.22,11.27-58.46c2.47-12.85,5-25.7,6.78-38.66,1-7,1.79-14.13,1-21.16a24.74,24.74,0,0,0-1.49-6.15C1122.45,107.33,1153.34,72.89,1117.52,51.57Zm-34.45,61a59.11,59.11,0,0,0-10.84-4c-3-.77-6-1.5-9-2.23,4.78-16.16,21.28-46,41.16-36.72C1123,78.32,1096.53,101.66,1083.07,112.56Z" transform="translate(-435.78 -45.78)"/></svg>