<svg id="object" xmlns="http://www.w3.org/2000/svg" viewBox="0 0 642.32 723.21"><defs><style>.cls-1{fill:#603129;}.cls-2{fill:#eac324;}.cls-3{fill:#256338;}.cls-4{fill:#1e512c;}.cls-5{fill:#d64b34;}</style></defs><path class="cls-1" d="M634.8,606.53q-.34,38.72-.7,77.41c-.15,15.45,34.74,10.87,34.88-4.48q.35-38.72.7-77.41c.15-15.45-34.74-10.87-34.88,4.48Z" transform="translate(-316.7 -31.29)"/><path class="cls-2" d="M953.69,429.29c-18-33.41-57.05-19.55-85.52-31.86-26.38-14.54-28.75-54.82-33.34-80.85-6.3-35.73-16.67-69.77-33-102.28-26.5-52.87-71-94-128-111.72a207.16,207.16,0,0,0-166.5,19.12c-53.62,31.28-87.45,83-101.59,142.86-7.64,32.34-9.27,65.7-8.33,98.83,1,35.08,7.41,69.72,8.81,104.7.62,15.6-2.7,28.4-16.25,37.33-11.9,7.84-25.89,12.15-38.29,19.17-25,14.17-37.27,40.24-18.4,65.63,17.66,23.79,51.4,30.62,78.74,36,32.75,6.42,66.19,8.18,99.51,7.34,69.95-1.76,139.84-15.31,208.1-29.89C793.15,588,869.19,564.32,924.61,511,945.61,490.77,970,459.62,953.69,429.29Z" transform="translate(-316.7 -31.29)"/><path class="cls-3" d="M574.18,137c7.17-15.82,19.4-32.61,35.08-42.44a3.77,3.77,0,0,0-3.68-1.23l-5,.75a.66.66,0,0,0-.14,0c-2.18.7-4.41,1.35-6.69,1.93A57.77,57.77,0,0,1,582,98.22c-21.89,3.07-45.38-.27-59.28-13.91a5,5,0,0,0-1.39,2.3,54.5,54.5,0,0,1-40,38.17c-9.73,2.35-16.85-.08-26.4-.78-.91-.06-1.79-.19-2.65-.28,1.68,23.89-5.69,47-27.84,62.54a58.3,58.3,0,0,1-26.54,10.05,68.86,68.86,0,0,1-28.17-2.67c-1.52-.46-3-1-4.5-1.52-1.24-.46-3.33-.91-4.25-1.85,1,2.1,2.45,4,3.41,6.18a39.8,39.8,0,0,1,2.32,6.8,40.68,40.68,0,0,1,.89,14.29,37.84,37.84,0,0,1-1.57,7.3,29.23,29.23,0,0,1-1.33,2.76c-.39.93-.82,1.83-1.28,2.72a48.11,48.11,0,0,1-3.2,5.23,66.25,66.25,0,0,1-8.47,9.7A121.8,121.8,0,0,1,330,261.32c-4.32,2.58-8.76,5-13.26,7.24,33.18-.91,68.1,7.46,90.33,29.07A74.08,74.08,0,0,1,442.77,262c12-8,27.16-11.36,43.27-8.58-2.41-19.3.76-38.63,14.73-54.49,16.46-18.69,40.08-20.49,61.17-12.81C562.27,169.16,567.49,151.72,574.18,137Z" transform="translate(-316.7 -31.29)"/><path class="cls-4" d="M465.16,193.85c48.86-31.88,96.07-66.21,144-99.46a3.8,3.8,0,0,0-3.58-1.11l-.65.1c-45.41,31.57-90.22,64-136.44,94.42-24.63,16.19-49.67,31.79-75.36,46.26-21.83,12.3-46.11,27.79-71.6,32q-2.46,1.31-4.83,2.5c3-.09,5.92-.06,8.89,0C347.37,264,368,251.68,387,241.2,413.66,226.48,439.63,210.51,465.16,193.85Z" transform="translate(-316.7 -31.29)"/><path class="cls-3" d="M630.43,134.07c-7.42-15.7-19.91-32.29-35.75-41.88a3.78,3.78,0,0,1,3.67-1.28l5,.66h.14c2.19.66,4.43,1.28,6.72,1.81A57.07,57.07,0,0,0,622,95.48c21.93,2.72,45.37-1,59-14.84a4.86,4.86,0,0,1,1.43,2.27,54.51,54.51,0,0,0,40.6,37.54c9.77,2.19,16.84-.35,26.38-1.2.91-.08,1.79-.21,2.65-.33-1.3,23.93,6.43,46.91,28.82,62.1a58.29,58.29,0,0,0,26.7,9.64,69.1,69.1,0,0,0,28.12-3.12q2.26-.72,4.47-1.59c1.23-.48,3.32-1,4.23-1.92-.93,2.12-2.4,4.06-3.32,6.24a40,40,0,0,0-2.21,6.83,40.75,40.75,0,0,0-.67,14.31,38.56,38.56,0,0,0,1.69,7.27c.34,1,1,1.79,1.37,2.74s.85,1.81,1.33,2.69a45.81,45.81,0,0,0,3.28,5.19,66.27,66.27,0,0,0,8.62,9.56,121.56,121.56,0,0,0,22.07,15.73c4.36,2.51,8.83,4.83,13.37,7-33.19-.38-68,8.54-89.86,30.5a74.05,74.05,0,0,0-36.29-35.06c-12.16-7.83-27.34-10.94-43.4-7.9,2.1-19.35-1.37-38.62-15.59-54.26-16.76-18.42-40.4-19.86-61.37-11.84C642.85,166.1,637.35,148.74,630.43,134.07Z" transform="translate(-316.7 -31.29)"/><path class="cls-4" d="M740.34,189.25C691,158.14,643.23,124.57,594.79,92.07a3.78,3.78,0,0,1,3.56-1.16L599,91c45.91,30.85,91.21,62.61,137.91,92.26,24.88,15.81,50.17,31,76.08,45.07,22,12,46.54,27.06,72.09,30.87,1.65.85,3.28,1.65,4.87,2.42-3,0-5.92,0-8.88.15-21.85-4.24-42.65-16.22-61.8-26.39C792.35,221.07,766.12,205.5,740.34,189.25Z" transform="translate(-316.7 -31.29)"/><path class="cls-5" d="M711.56,207q-28.95-32.74-59.63-63.76c21.63,5.93,44.12,9.09,65,5.56,28.79-4.87,44.77-32,34.11-59.55-12-31.12-50.3-42.7-80.86-40.16-28.61,2.38-53.14,16-71.65,37-20.27-25-48.37-41.17-79.42-51.08-29.47-9.4-68.44-1.82-81.37,30.9-11.52,29.16,18.82,53,42.47,62.55,16.73,6.73,33.76,8.31,50.61,6.73q-32.07,25.24-62.8,52.17c-15.79,13.9,7,37.21,22.7,23.39Q539.36,168,591.58,129.71q50.42,48,96.59,100C702.1,245.5,725.41,222.72,711.56,207Zm-1.5-117.69L720.22,99.4q2.07,19.78-13.74,17.76c-7.93,2-21.62-1.18-28.9-2.3a227.09,227.09,0,0,1-48.82-13.6C650.08,81.92,685.17,72.6,710.06,89.35ZM473.41,71.88c15.91-26,61.94,1.05,87.73,23.19-15.37,5.9-31.48,9.61-48.16,8C499.87,101.8,461,92.16,473.41,71.88Z" transform="translate(-316.7 -31.29)"/><path class="cls-5" d="M661.61,754.11c24.8-3.19,45.75-28.05,41.32-53.51S676,655.87,649.42,659.28c-24.8,3.19-45.75,28.05-41.32,53.51s26.93,44.73,53.51,41.32Z" transform="translate(-316.7 -31.29)"/></svg>