<svg xmlns="http://www.w3.org/2000/svg" xmlns:xlink="http://www.w3.org/1999/xlink" viewBox="0 0 83.17 93.06"><defs><style>.cls-1{isolation:isolate;}.cls-2{fill:#fff;}.cls-3{fill-rule:evenodd;fill:url(#Áåçûìÿííûé_ãðàäèåíò_244);}.cls-4{fill:#709c3e;}.cls-5{fill:#ffb64a;}.cls-6{fill:#ea0059;}.cls-7{fill:#d87290;}.cls-7,.cls-8{opacity:0.5;}.cls-10,.cls-11,.cls-7,.cls-8,.cls-9{mix-blend-mode:multiply;}.cls-8{fill:#937290;}.cls-10,.cls-11,.cls-9{opacity:0.58;}.cls-9{fill:url(#Áåçûìÿííûé_ãðàäèåíò_243);}.cls-10{fill:url(#Áåçûìÿííûé_ãðàäèåíò_243-2);}.cls-11{fill:url(#Áåçûìÿííûé_ãðàäèåíò_243-3);}</style><linearGradient id="Áåçûìÿííûé_ãðàäèåíò_244" x1="40.38" y1="52.17" x2="40.38" y2="5.08" gradientUnits="userSpaceOnUse"><stop offset="0" stop-color="#93364f"/><stop offset="0.99" stop-color="#651d4f"/></linearGradient><linearGradient id="Áåçûìÿííûé_ãðàäèåíò_243" x1="7.64" y1="48.58" x2="20.33" y2="48.58" gradientUnits="userSpaceOnUse"><stop offset="0" stop-color="#ffeadb"/><stop offset="0.99" stop-color="#9775ba"/></linearGradient><linearGradient id="Áåçûìÿííûé_ãðàäèåíò_243-2" x1="23.58" y1="47.9" x2="43.89" y2="47.9" xlink:href="#Áåçûìÿííûé_ãðàäèåíò_243"/><linearGradient id="Áåçûìÿííûé_ãðàäèåíò_243-3" x1="46.41" y1="30.44" x2="68.09" y2="30.44" xlink:href="#Áåçûìÿííûé_ãðàäèåíò_243"/></defs><g class="cls-1"><g id="Layer_2" data-name="Layer 2"><g id="layer1"><path class="cls-2" d="M4.58,28.62C1.36,28.39-.16,32.07,0,35.29s3.7,7.37,3.79,9.29S0,76.18,4,78.85c3.66,2.47,13.67-12.4,15.25-12.49S26.1,91.21,36.4,93C45,94.54,47.16,55,48.79,54.15c3.35-1.73,17.86,18.05,23.4,15.19C78.39,66.13,74,19.45,74,17.54s8.5-9.22,9.1-11.66C84,2,77.82-1.59,73.23.74c-2.77,1.4-22.7,39.77-43.95,44.55C12.08,49.16,8.46,28.91,4.58,28.62Z"/><path class="cls-3" d="M3.83,31.76a2.09,2.09,0,0,0-.89,1.55S5.84,52.16,25,52.17c20.76,0,52.8-46,52.8-46s-.18-1.61-3.31-.89c0,0-26.11,43.75-49.32,45.58C8.49,52.18,3.83,31.76,3.83,31.76Z"/><path class="cls-4" d="M21.16,50.74v0c-.1.15-.84,1.44-1.94,3.32h0c-1.18,2-2.77,4.69-4.44,7.42-.68,1.12-1.38,2.23-2.07,3.32-3.11,4.92-6,9.08-6.47,8.35-.33-.52-.32-3.54-.15-7.47h0c0-.84.07-1.73.13-2.64h0c.09-1.81.23-3.72.36-5.61h0c.06-1.06.15-2.1.22-3.11.14-1.86.28-3.63.41-5.15,0-.66.11-1.28.15-1.84.17-2.08.3-3.39.3-3.39a1.26,1.26,0,0,1,1.17-1.31,25.36,25.36,0,0,0,3.09,2.72c.74.57,1.52,1.1,2.28,1.6A51.49,51.49,0,0,0,21.16,50.74Z"/><path class="cls-5" d="M43.89,43.58c-.15.75-.3,1.51-.44,2.29h0v0c-.59,3.24-1.15,6.58-1.67,9.88-.5,3.12-1,6.21-1.4,9.18-.41,2.77-.79,5.42-1.16,7.88h0c-.29,2-.57,3.83-.84,5.51h0c-.7,4.4-1.32,7.62-1.9,8.89-.17.36-.77,0-1.63-.86-2.73-2.83-8.06-11.33-10.34-21.57a44.5,44.5,0,0,1-1.06-8.48,36.57,36.57,0,0,1,.14-4.18,1.26,1.26,0,0,1,0-1.26,33.24,33.24,0,0,0,7.12-1.6,41.36,41.36,0,0,0,7.59-3.44,37.59,37.59,0,0,0,5.28-3.59A2.86,2.86,0,0,0,43.89,43.58Z"/><path class="cls-6" d="M70.43,63.38c-1.06.2-4-2.11-7.53-5.28-.71-.64-1.45-1.33-2.2-2-1.29-1.22-2.61-2.51-3.9-3.8l-.08-.07,0,0L54.43,49.9c-.76-.76-1.47-1.49-2.16-2.2-3.39-3.48-5.86-6.15-5.86-6.15-1.11-.47-.58-1.15-.58-1.15C55.19,32,65.89,18,65.89,18a3.28,3.28,0,0,0,1.84,1.31s.14,1,.35,2.67a.45.45,0,0,0,0,.08c.29,2.22.71,5.58,1.16,9.45.13,1,.24,2.06.36,3.14.4,3.62.81,7.51,1.12,11.21.13,1.53.24,3,.35,4.48C71.56,57.54,71.57,63.17,70.43,63.38Z"/><path class="cls-7" d="M14.76,61.5c-.68,1.12-1.38,2.23-2.07,3.32a32.39,32.39,0,0,0-6.62.88h0c0-.84.07-1.73.13-2.64h0A40.62,40.62,0,0,1,14.76,61.5Z"/><path class="cls-7" d="M21.16,50.74v0c-.1.15-.84,1.44-1.94,3.32A63.79,63.79,0,0,0,6.56,57.42c.06-1.06.15-2.1.22-3.11A123,123,0,0,1,21.16,50.74Z"/><path class="cls-7" d="M14.18,46.94a26.69,26.69,0,0,0-7,2.22c0-.66.11-1.28.15-1.84a22.74,22.74,0,0,1,4.56-2C12.64,45.91,13.42,46.44,14.18,46.94Z"/><path class="cls-8" d="M69.61,34.68a2.87,2.87,0,0,0-1.75-.11c-.66.41-1.73,10.62-2.63,11.63S57.11,45,56.1,45.6c-.67.44-1.31,2.77-1.67,4.3-.76-.76-1.47-1.49-2.16-2.2.34-2,.93-5,1.51-5.42.9-.73,8.65.4,9.48-.5s1.86-9,2.87-10c.61-.58,2.07-.46,3.12-.28C69.38,32.55,69.49,33.6,69.61,34.68Z"/><path class="cls-8" d="M71.08,50.37H71c-.47.12-1.44,5.25-2.45,6.39S64.4,55,63.62,55.57c-.47.33-.66,1.59-.72,2.53-.71-.64-1.45-1.33-2.2-2,.09-1.38.29-2.81.79-3.25,1.06-1,5,.18,6.13,0s2.15-5.86,3.11-6.93C70.86,47.42,71,48.94,71.08,50.37Z"/><path class="cls-7" d="M41.77,55.78c-.5,3.12-1,6.21-1.4,9.18a4.65,4.65,0,0,1,.68-9.25A3.38,3.38,0,0,1,41.77,55.78Z"/><path class="cls-7" d="M30.46,60.36a4.65,4.65,0,0,1-6,4.47,44.5,44.5,0,0,1-1.06-8.48,4.71,4.71,0,0,1,2.36-.64A4.66,4.66,0,0,1,30.46,60.36Z"/><path class="cls-7" d="M39.21,72.84s0,0,0,0c-.29,2-.57,3.83-.84,5.51h0a4.66,4.66,0,1,1,.84-5.53Z"/><path class="cls-7" d="M38.29,45.87a4.62,4.62,0,0,1-4.64,4.5,4.57,4.57,0,0,1-2.95-1.06A41.36,41.36,0,0,0,38.29,45.87Z"/><path class="cls-9" d="M7.64,43.93s5.55,6.74,12.69,8.24l-.63,1.07S11.32,50.84,7.64,43.93Z"/><path class="cls-10" d="M23.58,52.17s12.33.36,20.31-8.59l-.43,2.29A28.13,28.13,0,0,1,23.58,52.17Z"/><path class="cls-11" d="M67.73,19.34s-11,15-21.32,22.21c0,0,9.34-5.21,21.68-19.54Z"/><path class="cls-7" d="M43.44,45.9c-.59,3.24-1.15,6.58-1.67,9.88-.5,3.12-1,6.21-1.4,9.18-.41,2.77-.79,5.42-1.16,7.88h0c-.29,2-.57,3.83-.84,5.51h0c-.7,4.4-1.32,7.62-1.9,8.89-.17.36-.77,0-1.63-.86,0,0,1.95-1.18,3.76-14.43C40.35,59.15,43.26,46.67,43.44,45.9Z"/><path class="cls-7" d="M19.2,54.08c-1.18,2-2.77,4.69-4.44,7.42-.68,1.12-1.38,2.23-2.07,3.32-3.11,4.92-6,9.08-6.47,8.35,0,0,3.16-2.9,6.86-9.78C16.67,56.74,19.06,54.24,19.2,54.08Z"/><path class="cls-8" d="M70.43,63.38c-1.06.2-4-2.11-7.53-5.28-.71-.64-1.45-1.33-2.2-2-1.29-1.22-2.61-2.51-3.9-3.8,1.3,1.15,12.6,11.56,13.86,8.09,1.44-3.94-2.4-36.39-2.57-38.27.29,2.22.71,5.58,1.16,9.45.13,1,.24,2.06.36,3.14.4,3.62.81,7.51,1.12,11.21.13,1.53.24,3,.35,4.48C71.56,57.54,71.57,63.17,70.43,63.38Z"/></g></g></g></svg>