<svg xmlns="http://www.w3.org/2000/svg" xmlns:xlink="http://www.w3.org/1999/xlink" viewBox="0 0 102.16 80.47"><defs><style>.cls-1{isolation:isolate;}.cls-2{fill:#fff;}.cls-3{fill:#db384a;}.cls-4{fill:url(#Áåçûìÿííûé_ãðàäèåíò_213);}.cls-5{fill:#ffb64a;}.cls-6{fill:#dd4556;}.cls-7{fill:#ffcf56;}.cls-8{fill:#ff575b;}.cls-9{fill:#ffffc7;}.cls-12,.cls-13,.cls-17,.cls-9{mix-blend-mode:soft-light;}.cls-10{fill:#ab2a92;opacity:0.5;mix-blend-mode:multiply;}.cls-11{fill:#e20e43;}.cls-12,.cls-17{fill:#eaffff;}.cls-12{fill-rule:evenodd;}.cls-13{fill:#f5ffff;}.cls-14{fill:#81013b;}.cls-15{fill:#810742;}.cls-16{fill:#ff0e43;}</style><linearGradient id="Áåçûìÿííûé_ãðàäèåíò_213" x1="30.24" y1="74.87" x2="30.24" y2="22.99" gradientUnits="userSpaceOnUse"><stop offset="0" stop-color="#ff8757"/><stop offset="0.98" stop-color="#ffb34c"/></linearGradient></defs><g class="cls-1"><g id="Layer_2" data-name="Layer 2"><g id="layer1"><path class="cls-2" d="M52.25,11.73c-9.21,0-12.2-8.17-16.79-10.46S13.33.63,8.64,4.2s.74,11.48,0,13.14-5.78.6-8.2,4.17S6.33,61.94,9.31,65.74c4,5.12,40.14,14.73,44.92,14.73,8.45,0,32.44-12.07,36.88-17.57C94.29,59,103.31,21.7,102,19.45s-6.13-1.89-5.85-3.59,3.56-6.56,1-11.53S71.11-1.28,65.91,2.16,58.54,11.73,52.25,11.73Z"/><path class="cls-3" d="M92.5,22.85s0,17-6.31,39.2c0,0-18.56,9.57-33.1,12.82,0,0,0-18.94.38-45.53Z"/><path class="cls-4" d="M53.47,29.34l-.38,45.53c-9.57-2.25-19.39-5.29-26.9-7.8C24.53,66.52,23,66,21.57,65.5c-5.19-1.81-8.47-3.06-8.47-3.06C8.12,45.79,7,23,7,23Z"/><path class="cls-5" d="M5.45,22.07a66.76,66.76,0,0,0,1,17.6l46.1,9.19s-1.24-12.16,0-21.72Z"/><path class="cls-6" d="M52.51,48.86,93.36,38.23A61.26,61.26,0,0,0,95.75,21L52.51,27.14S51.18,39.87,52.51,48.86Z"/><polygon class="cls-7" points="5.45 22.07 48.37 19.45 95.75 21.02 52.52 27.14 5.45 22.07"/><polygon class="cls-8" points="24.02 24.07 67.12 20.07 75.29 20.34 34 25.14 24.02 24.07"/><polygon class="cls-8" points="71.73 24.42 26.68 20.77 36.94 20.07 81.82 22.99 71.73 24.42"/><polygon class="cls-9" points="45.01 53.44 46.06 58.4 49.45 58.4 46.71 61.47 47.76 66.43 45.01 63.36 42.27 66.43 43.32 61.47 40.57 58.4 43.96 58.4 45.01 53.44"/><polygon class="cls-9" points="61.47 28.45 62.52 33.41 65.91 33.41 63.16 36.47 64.21 41.43 61.47 38.36 58.72 41.43 59.77 36.47 57.03 33.41 60.42 33.41 61.47 28.45"/><polygon class="cls-9" points="67.12 50.82 68.17 55.78 71.56 55.78 68.82 58.84 69.86 63.8 67.12 60.74 64.37 63.8 65.42 58.84 62.68 55.78 66.07 55.78 67.12 50.82"/><polygon class="cls-9" points="88.06 25.14 89.11 30.1 92.5 30.1 89.75 33.17 90.8 38.13 88.06 35.06 85.31 38.13 86.36 33.17 83.62 30.1 87.01 30.1 88.06 25.14"/><polygon class="cls-9" points="15.33 42.8 16.38 47.75 19.77 47.75 17.03 50.82 18.07 55.78 15.33 52.71 12.59 55.78 13.63 50.82 10.89 47.75 14.28 47.75 15.33 42.8"/><polygon class="cls-9" points="47.48 29.81 48.53 34.77 51.92 34.77 49.17 37.84 50.22 42.8 47.48 39.73 44.73 42.8 45.78 37.84 43.04 34.77 46.43 34.77 47.48 29.81"/><polygon class="cls-9" points="23.16 27.14 24.21 32.1 27.6 32.1 24.86 35.16 25.9 40.12 23.16 37.05 20.41 40.12 21.46 35.16 18.72 32.1 22.11 32.1 23.16 27.14"/><path class="cls-9" d="M27.6,65.5l-1.41,1.57C24.53,66.52,23,66,21.57,65.5h.54l1.05-5,1.05,5Z"/><path class="cls-10" d="M8.64,40.12l.18,1.31,26,5.31.65,22.39,1.45,1.36,1.25.37L36.94,47.28,53.3,49.86l-.06-1.19-.73.19L35.75,45.52s-1-14.9.12-20.18l17.22-2.49L31,25.14V44.56Z"/><path class="cls-11" d="M28.88,68S22.88,36.4,24,24.07l10,1.07s.3,24.33,2.94,45.35Z"/><polygon class="cls-10" points="53.24 48.67 53.3 49.86 90.86 40.55 91.11 38.82 53.24 48.67"/><path class="cls-12" d="M24,24.07l8.49.91,6-.62s-4.3,0-7.57-.07a13.89,13.89,0,0,1-4.29-.47Z"/><path class="cls-13" d="M5.77,22.61s-.61,12,1.24,16.6l16.87,3.58S10.19,39.37,8.19,37.62,5.77,22.61,5.77,22.61Z"/><path class="cls-13" d="M33.37,25.41s1.16,29.24,2.92,43.89C36.29,69.3,31.45,42.79,33.37,25.41Z"/><path class="cls-13" d="M9.31,42.23s2,14.15,4.5,19.89L27.6,67.07S16.67,62.38,14.78,61,9.31,42.23,9.31,42.23Z"/><path class="cls-13" d="M89.92,41.83s-1.85,12.94-4.08,19.26l-9.38,4.65s5.42-3.12,7.91-6.69S89.92,41.83,89.92,41.83Z"/><path class="cls-13" d="M52.51,51.71V74.1A155.19,155.19,0,0,0,52.51,51.71Z"/><path class="cls-14" d="M71.73,24.42s-1.42,30.66-4.61,46.07l7.93-3.23A314.26,314.26,0,0,0,81.82,23Z"/><path class="cls-13" d="M72.18,25S72.79,50.82,68,70.13C68,70.13,72,36.29,72.18,25Z"/><path class="cls-13" d="M51.92,27.54s-.9,12.62,0,20.66C51.92,48.2,49.12,36,51.92,27.54Z"/><path class="cls-15" d="M57.38,19.43s13.79-1.71,18-3.48,5.31-8.59,5.31-8.59S91.8,6.52,93.33,8.63c0,0-4.28,11-9.18,13.21S55,21.35,55,21.35L54.23,20Z"/><path class="cls-11" d="M52.4,18.21s6.7-2.1,9.91-4.42,4.54-5,6.59-6.26,20.26-2.16,23.69,0S87.5,20.43,84.18,22.2s-29.45,0-29.45,0l-.17-.88s25.41,2.52,29.12.33,9.89-11.58,8.47-13.18S85.56,8,79.81,11.9,62.75,20.48,54.06,21Z"/><path class="cls-15" d="M46.79,19.43S33,17.72,28.8,16s-5.31-8.59-5.31-8.59S12.37,6.52,10.84,8.63c0,0,4.29,11,9.19,13.21s29.18-.49,29.18-.49L50,20Z"/><path class="cls-11" d="M51.78,18.21s-6.7-2.1-9.91-4.42-4.54-5-6.59-6.26S15,5.37,11.58,7.53,16.68,20.43,20,22.2s29.45,0,29.45,0l.17-.88s-25.41,2.52-29.12.33S10.61,10.07,12,8.47,18.61,8,24.37,11.9,41.42,20.48,50.11,21Z"/><path class="cls-16" d="M47.48,22.24l9.55.1s-.83-3.43-2.78-4.76l-5-.24A9.13,9.13,0,0,0,47.48,22.24Z"/><path class="cls-17" d="M68,8.2s8.31-.74,11.51,0,3.26,1.07,3.26,1.07,4.11-2.57,7.6-2.07C90.38,7.2,75.59,5.4,68,8.2Z"/><path class="cls-17" d="M16.39,7.2a42.13,42.13,0,0,1,10.84,4.53,12.31,12.31,0,0,1,9.06-3,23.71,23.71,0,0,0-2-1.31C33.45,7,23.34,6.14,16.39,7.2Z"/></g></g></g></svg>