<svg xmlns="http://www.w3.org/2000/svg" viewBox="0 0 81.57 100"><defs><style>.cls-1{isolation:isolate;}.cls-16,.cls-19,.cls-2,.cls-22,.cls-25,.cls-27,.cls-33,.cls-36,.cls-40{mix-blend-mode:multiply;}.cls-3,.cls-46{fill:#fff;}.cls-4{fill:#f1f1f1;}.cls-5{fill:#e2e2e2;}.cls-6{fill:#d4d4d4;}.cls-7{fill:#c5c5c5;}.cls-8{fill:#b7b7b7;}.cls-9{fill:#a8a8a8;}.cls-10{fill:#9a9a9a;}.cls-11{fill:#8b8b8b;}.cls-12{fill:#7d7d7d;}.cls-13{fill:#6e6e6e;}.cls-14{fill:#606060;}.cls-15{fill:#fe0000;}.cls-16{fill:#c2171c;}.cls-17{fill:#f9b4a9;}.cls-17,.cls-31{opacity:0.4;}.cls-18,.cls-19{fill:#444142;}.cls-19{opacity:0.5;}.cls-20{fill:#cdcfd0;opacity:0.8;mix-blend-mode:color-dodge;}.cls-21,.cls-23{fill:#eff2ee;}.cls-22{fill:#dfe2df;}.cls-23,.cls-28,.cls-29,.cls-42,.cls-43,.cls-46,.cls-47{mix-blend-mode:screen;}.cls-24,.cls-25,.cls-29{fill:#562b01;}.cls-26,.cls-27,.cls-28{fill:#fdb944;}.cls-30{fill:#fff8ef;}.cls-31{fill:#909494;}.cls-32{fill:#bec0c2;}.cls-33{fill:#cc191e;}.cls-34{fill:#d3d3d3;}.cls-35,.cls-36,.cls-42,.cls-43{fill:#fed1b4;}.cls-37{fill:#613021;}.cls-38{fill:#3c1504;}.cls-39{fill:#fffeee;}.cls-40{fill:#dcddde;}.cls-41{fill:#d17e58;}.cls-42{opacity:0.9;}.cls-44{fill:#b7203d;}.cls-45{fill:#f17163;}.cls-47{fill:#de9695;}</style></defs><g class="cls-1"><g id="Layer_2" data-name="Layer 2"><g id="Layer_1-2" data-name="Layer 1"><g class="cls-2"><path class="cls-3" d="M22.61,25.94a13.66,13.66,0,0,0,3.49,6l0,.15-.09.17-.09.17-.2-.15a6.21,6.21,0,0,0-1.27-1.64,19.27,19.27,0,0,1-1.29-1.44c0-.07-.09-.13-.14-.21l0-.05a3.55,3.55,0,0,0-.84-.8A4.16,4.16,0,0,0,22.61,25.94Zm-1.75-2.87a3.79,3.79,0,0,0-2.75-.33,5.69,5.69,0,0,0-2.84-3.38,3.5,3.5,0,0,0-2.82.07,4.36,4.36,0,0,0-.81.49,3.61,3.61,0,0,0-2,.06,3.85,3.85,0,0,0-2.19,1.68,4.32,4.32,0,0,0-1.73,1,4.06,4.06,0,0,0-.9,4.66,4.27,4.27,0,0,0-.49,3.6,5.22,5.22,0,0,0,2.11,2.54c.08.06.18.12.22.16a12.92,12.92,0,0,0,1.79,1.18v0l0,0-.08.17-.08.18a1.08,1.08,0,0,0-.07.18l0,0-.09.27,0,.09a3.33,3.33,0,0,0-.1.58,1.55,1.55,0,0,0,0,.22,3.48,3.48,0,0,0,.1,1,18,18,0,0,0,3.77,6.25,2.82,2.82,0,0,0,.36.33l0,0a3.06,3.06,0,0,0,.29.21l.13.08.14.08,0,0A27.12,27.12,0,0,0,23,51.18l-.09.47a3.09,3.09,0,0,0-.33.94c-.28,1.52-.51,3-.69,4.51a2.86,2.86,0,0,0,.05,1c-.13,1.22-.23,2.43-.28,3.62A4.36,4.36,0,0,0,21,64.09a4.79,4.79,0,0,0,1.12,3.26,3.24,3.24,0,0,0,.94.74l.37.17v.14a58,58,0,0,0,1,8.31,4.47,4.47,0,0,0-.3,1.46c-.08,2.66.63,4.66,2,5.69a.57.57,0,0,0,0,.13l-2.38,2.13a8,8,0,0,0-2.28,4.75c0,.12-.05.25-.07.38v0c0,.13,0,.25-.05.36v0q-.09.8-.12,1.59v1.47c0,.11,0,.22,0,.31l0,.23,0,.2s0,.07,0,.1v.07a1.91,1.91,0,0,0,0,.21v.06l0,.1c0,.06,0,.13.05.2l0,.16c0,.08.05.16.07.21s0,.08.05.14l0,.06c.05.14.11.27.17.4a3.12,3.12,0,0,0,1.55,1.51,14.61,14.61,0,0,0,9.31.67c3.36-1,5.61-3.79,7-5.84a2.71,2.71,0,0,0,.21-.37,2.18,2.18,0,0,0,.26-.34c.13-.21.32-.47.52-.75.38-.53.8-1.13,1.17-1.77a3.19,3.19,0,0,0,.4-1.66c0-.08,0-.72-.05-1.65s-.06-2.32-.08-3.75a4.47,4.47,0,0,0,.94-1.47s1.11-3,.24-5.18l.08-.66,1,3.33c-.49,2.35,1.1,5,1.11,5.07a4.78,4.78,0,0,0,1.17,1.3c.39,2.45.72,4.8.78,5.26l0,.11a3.2,3.2,0,0,0,.67,1.53,20,20,0,0,0,1.46,1.55l.64.65c.09.1.2.2.31.3a2.69,2.69,0,0,0,.27.32c1.72,1.78,4.41,4.19,7.89,4.57a11.61,11.61,0,0,0,1.33.07,15.06,15.06,0,0,0,7.73-2.31,3.2,3.2,0,0,0,1.28-1.76c0-.14.07-.28.09-.41l0-.09a.43.43,0,0,1,0-.12,1.68,1.68,0,0,0,0-.2l0-.2c0-.06,0-.13,0-.21v-1l0-.33v-.08a1.5,1.5,0,0,0,0-.2l0-.17,0-.21v-.07c0-.09,0-.18,0-.28l0-.08c0-.1,0-.21-.06-.32v0c-.1-.52-.23-1-.38-1.55v0L68.51,90v0c0-.12-.08-.25-.13-.38a8,8,0,0,0-3.05-4.27c-1.13-.7-2.07-1.28-2.71-1.69v-.14c1.19-1.25,1.54-3.34,1-5.94a4.24,4.24,0,0,0-.54-1.39,59.33,59.33,0,0,0-.4-8.44l-.06-.5a3,3,0,0,0,.4-.58,4.92,4.92,0,0,0,.32-3.52,4.49,4.49,0,0,0-.79-1.61c-.07-.59-.16-1.28-.27-2a3.18,3.18,0,0,0,0-1.15l-.1-.69c-.19-1.28-.39-2.61-.68-4.23a3,3,0,0,0-.44-1.13c0-.18-.06-.35-.1-.52a27.87,27.87,0,0,0,11.87-7.19l0,0L73,44.5l.17-.1.29-.2.05,0c.12-.1.23-.21.34-.32a18.19,18.19,0,0,0,3.77-6.25,3.41,3.41,0,0,0,.1-1,2.36,2.36,0,0,0,0-.25,4.65,4.65,0,0,0-.1-.56l0-.16a.64.64,0,0,0-.06-.18l0-.06c0-.07-.05-.13-.07-.19l-.08-.17c0-.06-.06-.11-.08-.16l0,0v0A12.2,12.2,0,0,0,79,33.64l.23-.16a5.21,5.21,0,0,0,2.1-2.54,4.3,4.3,0,0,0-.48-3.6,4.06,4.06,0,0,0-.9-4.66,4.35,4.35,0,0,0-1.74-1A3.83,3.83,0,0,0,76.07,20a3.65,3.65,0,0,0-2-.06,3.77,3.77,0,0,0-.8-.48,3.49,3.49,0,0,0-2.83-.08,5.71,5.71,0,0,0-2.83,3.38,3.79,3.79,0,0,0-2.75.33,3.4,3.4,0,0,0-1.45,1.57h0L63,23.1h0v0c-.08-.29-.15-.58-.24-.88-.35-1.29-.71-2.63-1.19-4v0l-.18-.53,0,0v0c-.21-.58-.43-1.15-.66-1.68l0-.07c-.07-.17-.14-.33-.22-.5l0-.07A18.88,18.88,0,0,0,50.27,5.47C41.66,1.82,33.46,6.88,33.11,7.1c-7.06,4.47-9.18,9.33-9.7,12.66-.05.09-.09.19-.14.3l-.05.12-.13.3-.05.16c0,.09-.07.18-.11.28l-.06.17c0,.09-.05.18-.08.27a1.45,1.45,0,0,0-.06.19l-.06.24a1.91,1.91,0,0,0-.06.21v0c0,.07,0,.13-.05.19s0,.14,0,.21v.06l0,.16a2.36,2.36,0,0,0,0,.28l0,.15c0,.15,0,.29,0,.43a7.26,7.26,0,0,0,.05,1.4A3.43,3.43,0,0,0,20.86,23.07Z"/><path class="cls-4" d="M22.23,25.56a13.7,13.7,0,0,0,3.49,6s0,.09,0,.14l-.09.17-.08.17-.21-.14a6,6,0,0,0-1.27-1.65c-.3-.29-.86-.92-1.29-1.43l-.14-.22,0,0a3.71,3.71,0,0,0-.83-.8A4.26,4.26,0,0,0,22.23,25.56Zm-1.75-2.87a3.82,3.82,0,0,0-2.74-.33A5.74,5.74,0,0,0,14.9,19a3.48,3.48,0,0,0-2.83.07,3.77,3.77,0,0,0-.8.48,3.71,3.71,0,0,0-2,.06A3.83,3.83,0,0,0,7.1,21.29a4.13,4.13,0,0,0-1.74,1A4,4,0,0,0,4.46,27,4.3,4.3,0,0,0,4,30.56a5.16,5.16,0,0,0,2.1,2.54l.22.16a12.92,12.92,0,0,0,1.79,1.18v0l0,0c0,.06-.07.12-.09.17l-.08.18L7.84,35l0,0a2.76,2.76,0,0,0-.08.27l0,.09a5.4,5.4,0,0,0-.1.58c0,.07,0,.14,0,.22a3.48,3.48,0,0,0,.1,1,18.19,18.19,0,0,0,3.77,6.25,2.82,2.82,0,0,0,.36.33l0,0a1.94,1.94,0,0,0,.29.21l.13.08.14.08.05,0a27.19,27.19,0,0,0,10.16,6.59c0,.15-.07.31-.1.46a3.09,3.09,0,0,0-.33.94c-.28,1.52-.51,3-.69,4.51a3.1,3.1,0,0,0,.05,1.05c-.13,1.22-.22,2.44-.28,3.62a4.38,4.38,0,0,0-.71,2.32A4.7,4.7,0,0,0,21.69,67a3.21,3.21,0,0,0,.94.74l.37.18V68a61,61,0,0,0,1,8.31,4.47,4.47,0,0,0-.3,1.46c-.08,2.66.63,4.66,2,5.69,0,0,0,.09,0,.13-.56.52-1.38,1.26-2.38,2.13a8.05,8.05,0,0,0-2.28,4.75l-.06.38v0c0,.13,0,.25-.05.36v0a14.18,14.18,0,0,0-.12,1.59v1.19c0,.07,0,.14,0,.2v.09c0,.1,0,.21,0,.3l0,.23a1.23,1.23,0,0,0,0,.2l0,.1v.07c0,.07,0,.14,0,.22v.06l0,.09a1.42,1.42,0,0,0,0,.2l.05.17c0,.07,0,.15.06.2s0,.09.05.14l0,.06a3,3,0,0,0,.17.4A3.12,3.12,0,0,0,23,98.33a14.61,14.61,0,0,0,9.31.67c3.37-1,5.61-3.79,7-5.84.08-.12.15-.24.22-.36s.17-.23.25-.35.32-.47.53-.75c.37-.53.8-1.13,1.16-1.77a3.19,3.19,0,0,0,.4-1.66c0-.08,0-.71,0-1.65s-.05-2.31-.07-3.74a4.79,4.79,0,0,0,.93-1.48s1.11-3,.24-5.18l.08-.65,1,3.33c-.49,2.34,1.1,5,1.12,5.06a4.6,4.6,0,0,0,1.16,1.3c.4,2.45.72,4.8.79,5.26v.11a3.12,3.12,0,0,0,.68,1.53,18.22,18.22,0,0,0,1.45,1.55l.64.65a2.91,2.91,0,0,0,.31.3,4.15,4.15,0,0,0,.27.32c1.72,1.78,4.42,4.19,7.89,4.57a11.73,11.73,0,0,0,1.33.07,15,15,0,0,0,7.73-2.31,3.16,3.16,0,0,0,1.28-1.76,3.38,3.38,0,0,0,.09-.41l0-.08s0-.09,0-.13l0-.2v-.2c0-.06,0-.13,0-.21v-.17a1.34,1.34,0,0,0,0-.21V93.8c0-.08,0-.16,0-.23v-.2l0-.32V93a1.37,1.37,0,0,0,0-.19l0-.18a.81.81,0,0,0,0-.2v-.07a2.89,2.89,0,0,0,0-.29l0-.08c0-.1,0-.21,0-.32v0c-.11-.52-.24-1-.39-1.54v0c0-.12-.08-.24-.11-.36l0,0L68,89.23a8,8,0,0,0-3-4.27c-1.13-.69-2.06-1.28-2.7-1.69l0-.13c1.19-1.25,1.55-3.35,1-6a4.11,4.11,0,0,0-.54-1.39,58,58,0,0,0-.4-8.44l-.06-.49a2.92,2.92,0,0,0,.4-.59A4.9,4.9,0,0,0,63,62.77a4.54,4.54,0,0,0-.79-1.62c-.07-.59-.16-1.27-.27-2a3,3,0,0,0,0-1.15l-.1-.68c-.19-1.29-.38-2.62-.68-4.24a3,3,0,0,0-.44-1.13l-.09-.52a28,28,0,0,0,11.86-7.18l0,0,.12-.06.18-.11.28-.2,0,0a3.47,3.47,0,0,0,.34-.32,17.8,17.8,0,0,0,3.77-6.25,3.41,3.41,0,0,0,.1-1,2.36,2.36,0,0,0,0-.25,5,5,0,0,0-.1-.56l0-.16-.06-.18,0-.05c0-.07-.06-.14-.08-.2s0-.12-.08-.17a1.19,1.19,0,0,0-.08-.16l0-.05v0a12.92,12.92,0,0,0,1.79-1.18l.22-.16A5.22,5.22,0,0,0,81,30.56a4.27,4.27,0,0,0-.49-3.6,4,4,0,0,0-.9-4.65,4.1,4.1,0,0,0-1.73-1,3.87,3.87,0,0,0-2.19-1.69,3.71,3.71,0,0,0-2-.06,3.77,3.77,0,0,0-.8-.48A3.48,3.48,0,0,0,70.08,19a5.67,5.67,0,0,0-2.84,3.37,3.84,3.84,0,0,0-2.75.33A3.44,3.44,0,0,0,63,24.26h0l-.47-1.54h0v0l-.24-.87c-.36-1.3-.72-2.64-1.19-4l0,0-.18-.53v-.06c-.22-.58-.44-1.15-.67-1.68l0-.07c-.07-.17-.15-.33-.23-.5l0-.07A18.79,18.79,0,0,0,49.89,5.1C41.28,1.45,33.08,6.5,32.74,6.72c-7.07,4.47-9.19,9.33-9.71,12.66l-.14.3-.05.12-.12.3-.06.16c0,.09-.07.19-.11.29l-.05.17-.09.26c0,.06,0,.11-.05.19a2.17,2.17,0,0,0-.07.24c0,.06,0,.13-.05.22v0c0,.07,0,.13-.05.19a1.55,1.55,0,0,1,0,.21v.06l0,.17a1.93,1.93,0,0,0,0,.27.88.88,0,0,0,0,.16,3,3,0,0,0,0,.43,6.58,6.58,0,0,0,0,1.4A3.38,3.38,0,0,0,20.48,22.69Z"/><path class="cls-5" d="M21.86,25.18a13.69,13.69,0,0,0,3.48,6,.77.77,0,0,1,0,.15l-.09.17a1.19,1.19,0,0,0-.08.16L25,31.5a6.43,6.43,0,0,0-1.27-1.64c-.31-.29-.87-.93-1.3-1.44l-.14-.21,0-.05a3.55,3.55,0,0,0-.83-.81A4.34,4.34,0,0,0,21.86,25.18Zm-1.75-2.87A3.85,3.85,0,0,0,17.36,22a5.74,5.74,0,0,0-2.84-3.37,3.5,3.5,0,0,0-2.82.07,3.61,3.61,0,0,0-.81.48,3.71,3.71,0,0,0-2,.06,3.88,3.88,0,0,0-2.19,1.69,4.13,4.13,0,0,0-1.74,1,4,4,0,0,0-.9,4.65,4.3,4.3,0,0,0-.48,3.6,5.16,5.16,0,0,0,2.1,2.54l.23.16a12.2,12.2,0,0,0,1.78,1.18v0l0,0-.09.16-.08.18c0,.07,0,.14-.07.18v0a1.43,1.43,0,0,0-.09.27.29.29,0,0,0,0,.09,2.8,2.8,0,0,0-.1.59,1.25,1.25,0,0,0,0,.21,4,4,0,0,0,.1,1,18.06,18.06,0,0,0,3.77,6.24,3.7,3.7,0,0,0,.36.33l0,0,.3.2.12.08.14.08,0,0a27.19,27.19,0,0,0,10.16,6.59l-.09.46a3,3,0,0,0-.34.94c-.28,1.53-.51,3.05-.69,4.51a3.36,3.36,0,0,0,.05,1c-.13,1.22-.22,2.44-.28,3.62a4.4,4.4,0,0,0-.71,2.32,4.75,4.75,0,0,0,1.11,3.27,3.18,3.18,0,0,0,.94.73l.37.18v.13a57.81,57.81,0,0,0,1,8.31,4,4,0,0,0-.3,1.46c-.09,2.66.62,4.66,2,5.7,0,0,0,.08,0,.13-.56.51-1.38,1.25-2.38,2.13a8,8,0,0,0-2.28,4.74l-.06.38v0c0,.12,0,.25,0,.36v0a14.36,14.36,0,0,0-.12,1.59v0c0,.11,0,.22,0,.32V93c0,.1,0,.21,0,.32v.43c0,.06,0,.13,0,.19V94q0,.16,0,.3l0,.23,0,.2s0,.08,0,.1v.07a1.43,1.43,0,0,1,0,.22v.06l0,.09a1.46,1.46,0,0,0,.05.2l0,.17c0,.08.05.15.06.21s0,.08,0,.13l0,.06c.06.15.11.28.17.41A3.18,3.18,0,0,0,22.65,98a14.74,14.74,0,0,0,9.31.67c3.36-1,5.6-3.8,7-5.85a2.67,2.67,0,0,0,.22-.36,2.7,2.7,0,0,0,.25-.34c.14-.22.33-.48.53-.76a20.13,20.13,0,0,0,1.16-1.77,3.08,3.08,0,0,0,.41-1.66c0-.08,0-.71-.05-1.65s-.06-2.31-.08-3.74A4.79,4.79,0,0,0,42.32,81s1.12-3,.24-5.18l.09-.65,1,3.33c-.48,2.34,1.1,5,1.12,5.06A4.35,4.35,0,0,0,46,84.88c.39,2.46.71,4.8.78,5.26v.11a3.12,3.12,0,0,0,.68,1.54c.47.57,1,1.08,1.45,1.54l.64.65a2.91,2.91,0,0,0,.31.3,2.79,2.79,0,0,0,.28.32c1.72,1.79,4.41,4.2,7.88,4.57a11.85,11.85,0,0,0,1.33.07,14.91,14.91,0,0,0,7.73-2.31,3.16,3.16,0,0,0,1.28-1.76c0-.13.07-.27.1-.41v-.08a.59.59,0,0,0,0-.13l0-.2,0-.19c0-.07,0-.14,0-.22v-.52c0-.08,0-.15,0-.23V93c0-.11,0-.22,0-.32v-.08a1.36,1.36,0,0,1,0-.2l0-.17,0-.21v-.07c0-.1,0-.19-.05-.28v-.09l-.06-.31v-.05a13.89,13.89,0,0,0-.39-1.54v0c0-.12-.07-.24-.11-.35l0,0-.13-.38a8,8,0,0,0-3-4.27c-1.13-.69-2.06-1.28-2.7-1.69v-.13c1.18-1.25,1.54-3.35,1-6a4.19,4.19,0,0,0-.54-1.39,58,58,0,0,0-.4-8.44c0-.16,0-.32,0-.49a3.35,3.35,0,0,0,.39-.59,4.9,4.9,0,0,0,.32-3.51,4.52,4.52,0,0,0-.78-1.62c-.08-.59-.17-1.27-.27-2a3.16,3.16,0,0,0,0-1.15l-.1-.68c-.19-1.29-.38-2.61-.67-4.24a3.33,3.33,0,0,0-.44-1.13c0-.17-.07-.35-.1-.52a27.91,27.91,0,0,0,11.86-7.18l0,0,.12-.07.17-.11a2,2,0,0,0,.28-.2l0,0a2.58,2.58,0,0,0,.34-.32,17.88,17.88,0,0,0,3.78-6.25,3.79,3.79,0,0,0,.1-.95c0-.08,0-.16,0-.26a3.45,3.45,0,0,0-.1-.56l0-.15-.06-.18,0-.06-.08-.19a1.47,1.47,0,0,0-.07-.17l-.09-.17,0,0v0a13.9,13.9,0,0,0,1.79-1.17l.22-.17a5.17,5.17,0,0,0,2.11-2.54,4.28,4.28,0,0,0-.49-3.6,4,4,0,0,0-.9-4.65,4.1,4.1,0,0,0-1.73-1,3.88,3.88,0,0,0-2.19-1.69,3.71,3.71,0,0,0-2-.06,3.77,3.77,0,0,0-.8-.48,3.52,3.52,0,0,0-2.83-.07A5.7,5.7,0,0,0,66.86,22a3.85,3.85,0,0,0-2.75.33,3.42,3.42,0,0,0-1.45,1.58h0l-.46-1.54h0L62,21.44c-.35-1.3-.72-2.64-1.19-4v0c-.06-.17-.13-.35-.19-.53v-.06c-.21-.58-.44-1.15-.67-1.68l0-.07-.23-.5,0-.07A18.76,18.76,0,0,0,49.51,4.72c-8.6-3.65-16.81,1.4-17.15,1.62C25.3,10.81,23.18,15.68,22.65,19c0,.1-.09.2-.13.3l-.06.12-.12.31-.06.15-.11.29-.05.17L22,20.6a1.8,1.8,0,0,1-.05.19,2.17,2.17,0,0,0-.07.24c0,.07,0,.13-.05.22v0a1.49,1.49,0,0,0,0,.18c0,.07,0,.14,0,.21v.06l0,.17c0,.09,0,.17,0,.27a1,1,0,0,0,0,.16c0,.15,0,.29,0,.43a6.58,6.58,0,0,0,0,1.4A3.4,3.4,0,0,0,20.11,22.31Z"/><path class="cls-6" d="M21.48,24.81a13.65,13.65,0,0,0,3.48,6l0,.15a1,1,0,0,0-.1.17s-.05.11-.08.16l-.2-.14a6.43,6.43,0,0,0-1.27-1.64c-.31-.29-.87-.93-1.3-1.44a1.28,1.28,0,0,0-.14-.21l0,0A4,4,0,0,0,21,27,4.22,4.22,0,0,0,21.48,24.81Zm-1.75-2.88A3.85,3.85,0,0,0,17,21.6a5.7,5.7,0,0,0-2.84-3.37,3.5,3.5,0,0,0-2.82.07,3.61,3.61,0,0,0-.81.48,3.61,3.61,0,0,0-2,.07,3.82,3.82,0,0,0-2.19,1.68,4.35,4.35,0,0,0-1.74,1,4,4,0,0,0-.89,4.66,4.25,4.25,0,0,0-.49,3.59,5.17,5.17,0,0,0,2.11,2.54l.22.17a14.46,14.46,0,0,0,1.78,1.18l0,0,0,0-.08.16a1,1,0,0,0-.08.19l-.08.17v0L7,34.59a.37.37,0,0,0,0,.09,3.63,3.63,0,0,0-.1.59c0,.07,0,.14,0,.21a3.51,3.51,0,0,0,.11,1,18,18,0,0,0,3.76,6.25c.12.11.24.23.37.33l0,0,.3.21.13.08.13.07.06,0a27.12,27.12,0,0,0,10.15,6.59l-.09.46a3.6,3.6,0,0,0-.34,1c-.28,1.52-.51,3-.69,4.51a3.3,3.3,0,0,0,0,1c-.12,1.22-.22,2.44-.28,3.63A4.44,4.44,0,0,0,19.82,63a4.74,4.74,0,0,0,1.12,3.26,3.14,3.14,0,0,0,.93.73l.37.18v.13a58.13,58.13,0,0,0,1,8.32A4.13,4.13,0,0,0,23,77c-.09,2.65.62,4.66,2,5.69a.57.57,0,0,1,0,.13L22.63,85a8.06,8.06,0,0,0-2.29,4.74l-.06.38v0c0,.12,0,.25-.05.36v0c-.06.52-.11,1.06-.12,1.59v0c0,.12,0,.23,0,.32v.08c0,.11,0,.21,0,.32v.43a1.41,1.41,0,0,0,0,.2v.08q0,.16,0,.3l0,.23q0,.12,0,.21a.3.3,0,0,0,0,.1v.07c0,.06,0,.13,0,.21v.06l0,.1a1.8,1.8,0,0,0,.05.19l0,.17c0,.08.05.15.07.21a.93.93,0,0,0,0,.13l0,.06c.06.15.11.28.17.41a3.18,3.18,0,0,0,1.56,1.51,14.69,14.69,0,0,0,9.31.67c3.36-1,5.6-3.8,7-5.85a2.12,2.12,0,0,0,.21-.36A2.7,2.7,0,0,0,39,91.7l.53-.76c.38-.53.8-1.12,1.17-1.76a3.23,3.23,0,0,0,.4-1.67c0-.08,0-.71,0-1.65S41,83.55,41,82.12a4.5,4.5,0,0,0,.93-1.48s1.12-3,.24-5.18l.09-.65,1,3.33c-.48,2.34,1.11,5,1.12,5.07a4.58,4.58,0,0,0,1.17,1.29c.39,2.46.72,4.81.78,5.26l0,.11a3.1,3.1,0,0,0,.67,1.54c.47.57,1,1.08,1.45,1.55.25.24.48.46.64.65s.2.2.31.29a3,3,0,0,0,.28.33c1.72,1.78,4.41,4.19,7.89,4.57.43,0,.88.07,1.33.07a15,15,0,0,0,7.73-2.32A3.12,3.12,0,0,0,68,94.8c0-.14.07-.28.1-.41V94.3a.6.6,0,0,0,0-.12q0-.12,0-.21l0-.19c0-.07,0-.13,0-.22V93a1.62,1.62,0,0,0,0-.22v-.2a3.25,3.25,0,0,0,0-.33v-.08c0-.06,0-.13,0-.2l0-.17q0-.09,0-.21v-.07c0-.09,0-.19,0-.28V91.2l-.06-.32v0a14.47,14.47,0,0,0-.39-1.54v0a3.58,3.58,0,0,0-.11-.35v-.05c0-.12-.09-.24-.14-.37a7.94,7.94,0,0,0-3-4.27c-1.14-.7-2.07-1.29-2.71-1.7v-.13c1.18-1.25,1.54-3.35,1-5.95A4.44,4.44,0,0,0,61.93,75a59.12,59.12,0,0,0-.39-8.43l-.06-.5a3.27,3.27,0,0,0,.39-.58A4.87,4.87,0,0,0,62.19,62a4.39,4.39,0,0,0-.78-1.61l-.27-2a3,3,0,0,0,0-1.16l-.1-.68c-.18-1.28-.38-2.61-.67-4.23A3.11,3.11,0,0,0,60,51.16c0-.17-.07-.34-.1-.51a28,28,0,0,0,11.87-7.19l0,0,.12-.07.17-.1.28-.2.05,0c.12-.1.24-.2.35-.31a18.14,18.14,0,0,0,3.77-6.26,3.74,3.74,0,0,0,.1-1c0-.08,0-.16,0-.26a3.45,3.45,0,0,0-.1-.56l0-.15-.06-.18,0-.06a1.82,1.82,0,0,0-.08-.19c0-.06,0-.12-.07-.17l-.09-.17,0,0v0a13.07,13.07,0,0,0,1.78-1.18,2,2,0,0,1,.23-.17,5.18,5.18,0,0,0,2.1-2.53,4.27,4.27,0,0,0-.49-3.6,4,4,0,0,0-.89-4.66,4.35,4.35,0,0,0-1.74-1,3.82,3.82,0,0,0-2.19-1.68,3.61,3.61,0,0,0-2-.07,3.77,3.77,0,0,0-.8-.48,3.52,3.52,0,0,0-2.83-.07,5.74,5.74,0,0,0-2.84,3.37,3.85,3.85,0,0,0-2.75.33,3.44,3.44,0,0,0-1.44,1.58h0L61.82,22h0v0l-.24-.88c-.35-1.3-.71-2.63-1.19-4v0c-.06-.17-.12-.35-.19-.52v-.06c-.21-.59-.44-1.15-.67-1.69l0-.07c-.07-.16-.14-.33-.22-.49l0-.08A18.83,18.83,0,0,0,49.13,4.34C40.53.69,32.33,5.75,32,6c-7.06,4.47-9.18,9.33-9.71,12.65l-.13.3-.05.12-.13.31-.06.15c0,.1-.07.19-.1.29l-.06.17c0,.09-.06.18-.08.26l-.06.19c0,.08-.05.16-.07.24s0,.13-.05.22v0c0,.06,0,.13,0,.18a1.55,1.55,0,0,0,0,.21v.07a.94.94,0,0,0,0,.16c0,.09,0,.17,0,.28a.77.77,0,0,1,0,.15c0,.15,0,.29,0,.43a8.19,8.19,0,0,0,0,1.4A3.36,3.36,0,0,0,19.73,21.93Z"/><path class="cls-7" d="M21.1,24.43a13.66,13.66,0,0,0,3.49,6,.77.77,0,0,0,0,.15l-.1.17a.8.8,0,0,1-.08.16l-.2-.14A6.21,6.21,0,0,0,23,29.1c-.3-.29-.86-.92-1.29-1.44l-.14-.21,0-.05a3.55,3.55,0,0,0-.84-.8A4.26,4.26,0,0,0,21.1,24.43Zm-1.75-2.87a3.79,3.79,0,0,0-2.75-.33,5.69,5.69,0,0,0-2.84-3.38,3.54,3.54,0,0,0-2.82.07,4.94,4.94,0,0,0-.81.48,3.62,3.62,0,0,0-2,.07A3.82,3.82,0,0,0,6,20.15a4.32,4.32,0,0,0-1.73,1,4,4,0,0,0-.9,4.66,4.27,4.27,0,0,0-.49,3.6A5.22,5.22,0,0,0,5,32c.08.06.18.12.22.16A12.92,12.92,0,0,0,7,33.31v0l0,.05a1.3,1.3,0,0,0-.08.17,1.42,1.42,0,0,0-.08.18,1.08,1.08,0,0,0-.07.18l0,0-.09.26s0,.07,0,.1a3.33,3.33,0,0,0-.1.58,1.55,1.55,0,0,0,0,.22,3.48,3.48,0,0,0,.1,1,17.89,17.89,0,0,0,3.77,6.25,2.82,2.82,0,0,0,.36.33l0,0,.29.21.13.08.14.08,0,0A27.12,27.12,0,0,0,21.5,49.67l-.09.47a3.09,3.09,0,0,0-.33.94c-.28,1.52-.51,3-.69,4.51a2.86,2.86,0,0,0,.05,1c-.13,1.22-.23,2.43-.28,3.62a4.36,4.36,0,0,0-.72,2.32,4.73,4.73,0,0,0,1.12,3.26,2.91,2.91,0,0,0,.94.73,2.12,2.12,0,0,0,.37.18v.13a58,58,0,0,0,1,8.32,4.42,4.42,0,0,0-.3,1.46c-.08,2.66.63,4.66,2,5.69a.53.53,0,0,0,0,.13l-2.38,2.13A8,8,0,0,0,20,89.35c0,.13,0,.26-.07.38v0c0,.13,0,.25,0,.36v.05q-.09.79-.12,1.59v.82c0,.06,0,.13,0,.19V93c0,.07,0,.13,0,.2v.08c0,.11,0,.22,0,.31l0,.23,0,.2s0,.07,0,.1v.07a1.91,1.91,0,0,0,0,.21v.06l0,.1c0,.06,0,.13,0,.2l0,.16c0,.08,0,.16.07.21a1.27,1.27,0,0,1,0,.14l0,.06c0,.14.11.27.17.4a3.12,3.12,0,0,0,1.55,1.51,14.69,14.69,0,0,0,9.31.67c3.36-1,5.61-3.8,7-5.84a2.71,2.71,0,0,0,.21-.37c.09-.11.18-.22.26-.34s.32-.47.52-.75c.38-.53.8-1.13,1.17-1.77a3.21,3.21,0,0,0,.4-1.66c0-.08,0-.72,0-1.66s-.06-2.31-.08-3.74a4.52,4.52,0,0,0,.94-1.48s1.11-3,.24-5.18l.08-.65,1,3.33c-.49,2.35,1.1,5,1.11,5.07a4.93,4.93,0,0,0,1.17,1.3c.39,2.45.72,4.8.78,5.26l0,.11A3.11,3.11,0,0,0,46.67,91a20,20,0,0,0,1.46,1.55l.64.65a2.87,2.87,0,0,0,.31.29,2.16,2.16,0,0,0,.27.33c1.72,1.78,4.41,4.19,7.89,4.57a11.61,11.61,0,0,0,1.33.07,15,15,0,0,0,7.73-2.32,3.15,3.15,0,0,0,1.28-1.75c0-.14.07-.28.09-.41l0-.09a.43.43,0,0,1,0-.12,1.65,1.65,0,0,0,0-.21l0-.19a1.41,1.41,0,0,0,0-.21v-.75l0-.2c0-.11,0-.23,0-.33v-.08a1.5,1.5,0,0,0,0-.2l0-.17q0-.09,0-.21v-.07c0-.09,0-.19,0-.28l0-.08-.06-.32v0c-.1-.52-.23-1-.38-1.55v0L67,88.52v0c0-.13-.08-.25-.13-.38a8,8,0,0,0-3-4.27c-1.14-.7-2.07-1.29-2.71-1.7V82c1.18-1.25,1.54-3.34,1-6a4.21,4.21,0,0,0-.55-1.39,57.75,57.75,0,0,0-.39-8.43l-.06-.5a3,3,0,0,0,.4-.58,4.92,4.92,0,0,0,.32-3.52A4.41,4.41,0,0,0,61,60c-.07-.59-.16-1.28-.27-2a3.23,3.23,0,0,0,.05-1.16l-.1-.68c-.19-1.28-.39-2.61-.68-4.23a3.11,3.11,0,0,0-.44-1.14c0-.17-.06-.34-.1-.51a27.87,27.87,0,0,0,11.87-7.19l0,0,.12-.07.17-.1.28-.2.06,0c.12-.1.23-.21.34-.32a18.14,18.14,0,0,0,3.77-6.26,3.3,3.3,0,0,0,.1-1c0-.07,0-.15,0-.25a3.39,3.39,0,0,0-.09-.57l0-.15A.64.64,0,0,0,76,34l0-.06c0-.07,0-.13-.07-.19l-.08-.17-.09-.17,0-.05v0a12.2,12.2,0,0,0,1.78-1.18l.23-.16a5.21,5.21,0,0,0,2.1-2.54,4.3,4.3,0,0,0-.48-3.6,4.06,4.06,0,0,0-.9-4.66,4.35,4.35,0,0,0-1.74-1,3.82,3.82,0,0,0-2.19-1.68,3.61,3.61,0,0,0-2-.07,4.21,4.21,0,0,0-.8-.47,3.53,3.53,0,0,0-2.83-.08,5.76,5.76,0,0,0-2.84,3.38,3.77,3.77,0,0,0-2.74.33,3.34,3.34,0,0,0-1.45,1.57h0l-.46-1.54h0v0l-.24-.88c-.35-1.29-.71-2.63-1.19-4v0l-.18-.53,0,0v0q-.31-.88-.66-1.68l0-.07c-.07-.17-.14-.33-.22-.5l0-.07A18.88,18.88,0,0,0,48.76,4C40.15.32,32,5.37,31.6,5.59c-7.06,4.47-9.18,9.33-9.7,12.65,0,.1-.09.2-.14.31l-.05.12c-.05.1-.09.2-.13.3l-.06.16-.1.28-.06.17c0,.09-.06.18-.08.26s0,.12-.06.2l-.06.23c0,.07,0,.13-.06.22v0c0,.07,0,.13,0,.19s0,.14,0,.2V21l0,.16a2.36,2.36,0,0,0,0,.28l0,.15c0,.15,0,.29,0,.43a7.26,7.26,0,0,0,.05,1.4A3.4,3.4,0,0,0,19.35,21.56Z"/><path class="cls-8" d="M20.72,24.05a13.76,13.76,0,0,0,3.49,6l0,.14-.09.17-.08.17-.21-.14a5.9,5.9,0,0,0-1.27-1.65c-.3-.29-.86-.92-1.29-1.44l-.14-.21,0-.05a3.5,3.5,0,0,0-.83-.8A4.26,4.26,0,0,0,20.72,24.05ZM19,21.18a3.84,3.84,0,0,0-2.75-.33,5.69,5.69,0,0,0-2.83-3.37,3.48,3.48,0,0,0-2.83.07,4.12,4.12,0,0,0-.81.48,3.71,3.71,0,0,0-2,.06,3.87,3.87,0,0,0-2.19,1.69,4.1,4.1,0,0,0-1.73,1A4,4,0,0,0,3,25.45a4.3,4.3,0,0,0-.48,3.6,5.21,5.21,0,0,0,2.1,2.54l.22.16a12.92,12.92,0,0,0,1.79,1.18v0l0,0a1.4,1.4,0,0,0-.09.17l-.08.18a1.08,1.08,0,0,0-.07.18l0,0a2.13,2.13,0,0,0-.08.27l0,.09a5.4,5.4,0,0,0-.1.58,1.55,1.55,0,0,0,0,.22,3.48,3.48,0,0,0,.1,1A18.1,18.1,0,0,0,10,42a2.82,2.82,0,0,0,.36.33l0,0a1.61,1.61,0,0,0,.3.21l.12.08.14.08.05,0A27.24,27.24,0,0,0,21.12,49.3l-.09.46a3.09,3.09,0,0,0-.33.94c-.28,1.53-.51,3-.69,4.51a3.1,3.1,0,0,0,0,1c-.13,1.22-.22,2.44-.28,3.62a4.38,4.38,0,0,0-.71,2.32,4.7,4.7,0,0,0,1.11,3.26,3.08,3.08,0,0,0,.94.74l.37.18v.13a61,61,0,0,0,1,8.31,4.47,4.47,0,0,0-.3,1.46c-.08,2.66.63,4.66,2,5.69,0,0,0,.09,0,.13-.57.52-1.38,1.26-2.38,2.13A8.05,8.05,0,0,0,19.59,89l-.06.38v0c0,.13,0,.26-.05.36v0q-.09.8-.12,1.59v.82a1.28,1.28,0,0,1,0,.19v.18c0,.07,0,.13,0,.2v.09c0,.1,0,.21,0,.3l0,.23,0,.2s0,.07,0,.1v.07a1.55,1.55,0,0,0,0,.21V94l0,.1c0,.07,0,.13.05.2l.05.16a1.91,1.91,0,0,0,.06.21,1.21,1.21,0,0,0,.05.14l0,.06a3.7,3.7,0,0,0,.17.4,3.12,3.12,0,0,0,1.55,1.51,14.61,14.61,0,0,0,9.31.67c3.37-1,5.61-3.79,7-5.84.08-.12.15-.24.22-.37a3,3,0,0,0,.25-.34l.52-.75A19.4,19.4,0,0,0,40,88.42a3.19,3.19,0,0,0,.4-1.66c0-.08,0-.72-.05-1.65s-.06-2.31-.07-3.74a4.79,4.79,0,0,0,.93-1.48s1.11-3,.24-5.18l.08-.66,1,3.34c-.49,2.34,1.1,5,1.12,5.06a4.48,4.48,0,0,0,1.17,1.3c.38,2.45.71,4.8.77,5.26l0,.11a3.12,3.12,0,0,0,.68,1.53,16.82,16.82,0,0,0,1.45,1.55l.64.65a2.91,2.91,0,0,0,.31.3,2.69,2.69,0,0,0,.27.32c1.72,1.78,4.41,4.19,7.89,4.57a11.73,11.73,0,0,0,1.33.07,15.06,15.06,0,0,0,7.73-2.31A3.16,3.16,0,0,0,67.2,94a3.38,3.38,0,0,0,.09-.41l0-.08s0-.09,0-.13l0-.2V93c0-.06,0-.13,0-.21v-.17a1.34,1.34,0,0,0,0-.21v-.14a1.85,1.85,0,0,1,0-.23v-.2l0-.32v-.09a1.5,1.5,0,0,0,0-.2l0-.17a2,2,0,0,0,0-.2v-.07a2.89,2.89,0,0,0,0-.29l0-.08c0-.1,0-.21,0-.32v0c-.11-.52-.24-1-.39-1.54v0l-.12-.36v0l-.13-.38a8,8,0,0,0-3.05-4.27l-2.71-1.69a.53.53,0,0,0,0-.13c1.19-1.26,1.55-3.35,1-5.95a4.11,4.11,0,0,0-.54-1.39,59.4,59.4,0,0,0-.4-8.44l-.06-.49a2.92,2.92,0,0,0,.4-.59,4.92,4.92,0,0,0,.32-3.52,4.64,4.64,0,0,0-.78-1.61c-.08-.59-.17-1.27-.28-2a3,3,0,0,0,0-1.15l-.1-.68c-.19-1.29-.38-2.62-.68-4.24a3,3,0,0,0-.44-1.13l-.09-.52A28,28,0,0,0,71,42.71l0,0,.12-.06.17-.11.29-.2.05,0c.12-.1.23-.21.34-.32a18,18,0,0,0,3.77-6.25,3.41,3.41,0,0,0,.1-1,2.36,2.36,0,0,0,0-.25,5,5,0,0,0-.1-.56l0-.16-.06-.18,0-.05c0-.07-.05-.14-.07-.2s0-.12-.08-.17a1.19,1.19,0,0,0-.08-.16l0,0v0a12.92,12.92,0,0,0,1.79-1.18l.22-.16a5.22,5.22,0,0,0,2.11-2.54,4.31,4.31,0,0,0-.49-3.6,4,4,0,0,0-.9-4.65,4.1,4.1,0,0,0-1.73-1,3.87,3.87,0,0,0-2.19-1.69,3.71,3.71,0,0,0-2-.06,4.12,4.12,0,0,0-.81-.48,3.45,3.45,0,0,0-2.82-.07,5.67,5.67,0,0,0-2.84,3.37,3.84,3.84,0,0,0-2.75.33,3.44,3.44,0,0,0-1.45,1.57h0l-.46-1.54h0v0c-.07-.28-.15-.58-.23-.88-.36-1.29-.72-2.63-1.19-4l0,0-.18-.53v-.06c-.22-.58-.44-1.15-.67-1.68l0-.07-.23-.5,0-.07A18.85,18.85,0,0,0,48.38,3.58C39.77-.06,31.57,5,31.22,5.21c-7.06,4.47-9.18,9.33-9.7,12.66l-.14.3-.05.12-.12.3-.06.16c0,.09-.07.19-.11.29l-.06.17c0,.08-.05.17-.08.26s0,.11-.06.19l-.06.24c0,.06,0,.13-.06.22v0c0,.07,0,.13,0,.19a1.55,1.55,0,0,1,0,.21v.06l0,.16a2.36,2.36,0,0,0,0,.28.88.88,0,0,0,0,.16c0,.14,0,.28-.05.43A7.19,7.19,0,0,0,20.53,23,3.39,3.39,0,0,0,19,21.18Z"/><path class="cls-9" d="M20.34,23.67a13.8,13.8,0,0,0,3.49,6,.77.77,0,0,1,0,.15l-.09.17a1.19,1.19,0,0,0-.08.16l-.2-.14a6.26,6.26,0,0,0-1.27-1.64c-.31-.29-.87-.93-1.3-1.44,0-.07-.09-.14-.14-.21l0-.05a3.76,3.76,0,0,0-.83-.81A4.26,4.26,0,0,0,20.34,23.67ZM18.6,20.8a3.85,3.85,0,0,0-2.75-.33A5.74,5.74,0,0,0,13,17.1a3.48,3.48,0,0,0-2.83.07,3.77,3.77,0,0,0-.8.48,3.71,3.71,0,0,0-2,.06A3.83,3.83,0,0,0,5.21,19.4a4.13,4.13,0,0,0-1.74,1,4,4,0,0,0-.89,4.65,4.27,4.27,0,0,0-.49,3.6,5.16,5.16,0,0,0,2.1,2.54l.22.16A12.92,12.92,0,0,0,6.2,32.55v0l0,0-.09.17L6,33c0,.07,0,.14-.07.18v0a1.43,1.43,0,0,0-.09.27.29.29,0,0,0,0,.09,3.71,3.71,0,0,0-.11.58c0,.07,0,.14,0,.22a3.48,3.48,0,0,0,.1,1,18,18,0,0,0,3.77,6.25,3.7,3.7,0,0,0,.36.33l0,0a3.3,3.3,0,0,0,.3.22l.13.07.13.08.05,0a27.07,27.07,0,0,0,10.16,6.59l-.09.46a3.11,3.11,0,0,0-.34.94c-.28,1.53-.51,3-.69,4.51a3.36,3.36,0,0,0,.05,1.05c-.13,1.22-.22,2.44-.28,3.62a4.4,4.4,0,0,0-.71,2.32,4.75,4.75,0,0,0,1.11,3.27,3.18,3.18,0,0,0,.94.73l.37.18v.13a57.81,57.81,0,0,0,1,8.31,4,4,0,0,0-.3,1.46c-.09,2.66.62,4.66,2,5.69,0,0,0,.09,0,.14-.56.51-1.38,1.25-2.38,2.13a8,8,0,0,0-2.28,4.74l-.06.38v0c0,.12,0,.25-.05.36v0A14.18,14.18,0,0,0,19,91v0c0,.11,0,.22,0,.32v.08c0,.1,0,.2,0,.32v.43c0,.06,0,.13,0,.19v.09q0,.17,0,.3l0,.23a1.49,1.49,0,0,1,0,.21l0,.09v.07c0,.07,0,.14,0,.22v.06l0,.09c0,.07,0,.13,0,.2l.05.17c0,.08,0,.15.06.2l.05.14,0,.06a3,3,0,0,0,.17.4,3.16,3.16,0,0,0,1.56,1.52,14.74,14.74,0,0,0,9.31.67c3.36-1,5.6-3.8,7-5.85.08-.11.15-.24.22-.36s.17-.23.25-.34.33-.48.53-.76A20.13,20.13,0,0,0,39.6,88,3.08,3.08,0,0,0,40,86.38c0-.08,0-.71,0-1.65s-.06-2.31-.08-3.74a4.79,4.79,0,0,0,.93-1.48s1.12-3,.24-5.18l.08-.65,1,3.33c-.48,2.34,1.1,5,1.12,5.06a4.35,4.35,0,0,0,1.17,1.3c.39,2.46.71,4.8.78,5.26v.11a3.25,3.25,0,0,0,.68,1.54,19.78,19.78,0,0,0,1.45,1.54c.24.24.47.47.64.66s.2.2.31.29l.27.32c1.73,1.78,4.42,4.2,7.89,4.57a11.85,11.85,0,0,0,1.33.07,14.91,14.91,0,0,0,7.73-2.31,3.16,3.16,0,0,0,1.28-1.76c0-.13.07-.27.1-.41v-.08A.59.59,0,0,0,67,93l0-.2,0-.19c0-.07,0-.14,0-.22v-.52c0-.08,0-.16,0-.23v-.2l0-.32v-.09a1.11,1.11,0,0,1,0-.19l0-.17a1.65,1.65,0,0,0,0-.21v-.07c0-.1,0-.19,0-.28v-.09c0-.1,0-.2-.06-.32v0a13.35,13.35,0,0,0-.39-1.54v0c0-.12-.07-.24-.11-.35l0,0-.13-.38a8,8,0,0,0-3-4.27c-1.13-.69-2.06-1.28-2.7-1.69l0-.13c1.19-1.25,1.55-3.35,1-6a4.11,4.11,0,0,0-.54-1.39,57.76,57.76,0,0,0-.4-8.43c0-.17,0-.33-.06-.5a2.92,2.92,0,0,0,.4-.59,4.9,4.9,0,0,0,.32-3.51,4.69,4.69,0,0,0-.78-1.62c-.08-.59-.17-1.27-.27-2a3.16,3.16,0,0,0,0-1.15L60,55.4c-.19-1.29-.38-2.62-.67-4.24A3.15,3.15,0,0,0,58.83,50l-.09-.52A27.91,27.91,0,0,0,70.6,42.33l0,0,.13-.07.17-.11a2.83,2.83,0,0,0,.28-.2l0,0a3.47,3.47,0,0,0,.34-.32,17.71,17.71,0,0,0,3.77-6.25,3.38,3.38,0,0,0,.11-1c0-.08,0-.16,0-.26a3.45,3.45,0,0,0-.1-.56l0-.15a1.89,1.89,0,0,0-.06-.18l0-.06L75.17,33a1,1,0,0,0-.08-.18,1.19,1.19,0,0,0-.08-.16l0-.05,0,0a14.47,14.47,0,0,0,1.78-1.17l.22-.17a5.17,5.17,0,0,0,2.11-2.54,4.27,4.27,0,0,0-.49-3.6,4,4,0,0,0-.9-4.65,4.1,4.1,0,0,0-1.73-1,3.83,3.83,0,0,0-2.19-1.69,3.71,3.71,0,0,0-2-.06,3.77,3.77,0,0,0-.8-.48,3.48,3.48,0,0,0-2.83-.07,5.7,5.7,0,0,0-2.84,3.37,3.84,3.84,0,0,0-2.75.33,3.35,3.35,0,0,0-1.44,1.58h0l-.47-1.54h0v0l-.24-.87c-.35-1.3-.72-2.64-1.19-4v0c-.06-.17-.13-.35-.19-.53v-.06c-.21-.58-.44-1.15-.67-1.68l0-.07L58.1,13l0-.07A18.79,18.79,0,0,0,48,3.21C39.4-.44,31.19,4.61,30.85,4.83c-7.06,4.47-9.18,9.33-9.71,12.66-.05.1-.09.2-.13.3l-.06.12-.12.31-.06.15-.11.29-.05.17-.09.26c0,.06,0,.12-.05.19a2.17,2.17,0,0,0-.07.24c0,.06,0,.13,0,.22v0a1.49,1.49,0,0,0,0,.18c0,.07,0,.14-.05.21v.06l0,.17c0,.09,0,.17,0,.27a1,1,0,0,0,0,.16c0,.14,0,.29,0,.43a7.31,7.31,0,0,0,0,1.4A3.4,3.4,0,0,0,18.6,20.8Z"/><path class="cls-10" d="M20,23.29a13.63,13.63,0,0,0,3.48,6l0,.15a1,1,0,0,0-.1.17l-.08.16-.2-.14A6.43,6.43,0,0,0,21.83,28c-.31-.29-.87-.93-1.3-1.44a1.28,1.28,0,0,0-.14-.21l0-.05a4,4,0,0,0-.84-.81A4.24,4.24,0,0,0,20,23.29Zm-1.75-2.87a3.85,3.85,0,0,0-2.75-.33,5.74,5.74,0,0,0-2.84-3.37,3.5,3.5,0,0,0-2.82.07,3.61,3.61,0,0,0-.81.48,3.71,3.71,0,0,0-2,.06A3.88,3.88,0,0,0,4.83,19a4.35,4.35,0,0,0-1.74,1A4,4,0,0,0,2.2,24.7a4.25,4.25,0,0,0-.49,3.59,5.17,5.17,0,0,0,2.11,2.54L4,31a12.78,12.78,0,0,0,1.78,1.17v0l0,0-.08.16c0,.07-.06.13-.09.19a1.47,1.47,0,0,1-.07.17v0l-.09.27a.37.37,0,0,0,0,.09,3.63,3.63,0,0,0-.1.59c0,.07,0,.14,0,.22a4,4,0,0,0,.1,1A18.19,18.19,0,0,0,9.2,41.2l.36.33,0,0,.3.21.13.08.13.07.06,0a27.12,27.12,0,0,0,10.15,6.59l-.09.46a3.17,3.17,0,0,0-.34,1c-.28,1.52-.51,3-.69,4.5a3.34,3.34,0,0,0,.05,1c-.13,1.22-.22,2.44-.28,3.62a4.4,4.4,0,0,0-.71,2.32,4.79,4.79,0,0,0,1.11,3.27,3.18,3.18,0,0,0,.94.73l.37.18v.13a58.13,58.13,0,0,0,1,8.32,3.92,3.92,0,0,0-.3,1.46c-.09,2.65.62,4.66,2,5.69a.57.57,0,0,1,0,.13c-.56.51-1.38,1.25-2.38,2.13a8.05,8.05,0,0,0-2.28,4.74l-.06.38v0c0,.12,0,.25-.05.36v0a14,14,0,0,0-.12,1.59v0c0,.12,0,.22,0,.32v.08c0,.11,0,.21,0,.32v.06a1.28,1.28,0,0,0,0,.19v.18c0,.07,0,.13,0,.19v.09q0,.17,0,.3l0,.23c0,.07,0,.15,0,.21s0,.07,0,.1l0,.06a2.07,2.07,0,0,0,0,.22v.06l0,.1a1.8,1.8,0,0,0,.05.19l0,.17c0,.08.05.15.07.21a.93.93,0,0,0,0,.13l0,.06c.06.15.11.28.17.41a3.22,3.22,0,0,0,1.56,1.51,14.67,14.67,0,0,0,9.31.67c3.36-1,5.6-3.8,7-5.84a3.47,3.47,0,0,0,.21-.37,2.7,2.7,0,0,0,.25-.34l.53-.76a20.13,20.13,0,0,0,1.16-1.77A3.08,3.08,0,0,0,39.63,86c0-.08,0-.71-.05-1.65s-.06-2.31-.08-3.74a4.5,4.5,0,0,0,.93-1.48s1.12-2.95.24-5.18l.09-.65,1,3.33c-.48,2.35,1.1,5,1.12,5.07A4.58,4.58,0,0,0,44.07,83c.39,2.46.72,4.8.78,5.26v.11a3.21,3.21,0,0,0,.68,1.54c.47.57,1,1.08,1.46,1.55.24.24.46.46.63.65s.2.2.31.29l.28.33c1.72,1.78,4.41,4.19,7.89,4.57.43,0,.88.07,1.32.07A15,15,0,0,0,65.17,95a3.11,3.11,0,0,0,1.27-1.76c0-.13.07-.27.1-.4v-.09a.59.59,0,0,0,0-.13l0-.2,0-.19c0-.07,0-.14,0-.22v-.52a1.62,1.62,0,0,0,0-.22V91.1c0-.11,0-.22,0-.32V90.7c0-.07,0-.13,0-.2l0-.17,0-.21v-.07c0-.09,0-.19-.05-.28v-.09l-.06-.31v-.05A14.47,14.47,0,0,0,66,87.78v0a3.58,3.58,0,0,0-.11-.35l0,0c0-.12-.08-.24-.13-.37a8,8,0,0,0-3-4.28C61.54,82,60.61,81.41,60,81c0,0,0-.09,0-.13,1.18-1.25,1.54-3.35,1-6a4.44,4.44,0,0,0-.55-1.39A59.12,59.12,0,0,0,60,65.1L60,64.6a3.27,3.27,0,0,0,.39-.58,4.87,4.87,0,0,0,.32-3.52,4.39,4.39,0,0,0-.78-1.61l-.27-2a3.23,3.23,0,0,0,0-1.16l-.1-.68c-.18-1.29-.38-2.61-.67-4.23a3.11,3.11,0,0,0-.44-1.14c0-.17-.07-.34-.1-.52A27.81,27.81,0,0,0,70.22,42l0,0,.12-.07.17-.1.28-.21,0,0c.12-.1.24-.2.35-.31A18.14,18.14,0,0,0,75,34.94a3.69,3.69,0,0,0,.1-.95c0-.08,0-.16,0-.26a3.45,3.45,0,0,0-.1-.56L75,33l-.06-.18,0-.06a1.82,1.82,0,0,0-.08-.19c0-.06-.05-.12-.07-.17l-.09-.17,0,0v0A12.78,12.78,0,0,0,76.4,31l.22-.17a5.17,5.17,0,0,0,2.11-2.54,4.25,4.25,0,0,0-.49-3.59A4,4,0,0,0,77.35,20a4.35,4.35,0,0,0-1.74-1,3.88,3.88,0,0,0-2.19-1.69,3.71,3.71,0,0,0-2-.06,3.77,3.77,0,0,0-.8-.48,3.52,3.52,0,0,0-2.83-.07A5.7,5.7,0,0,0,65,20.09a3.85,3.85,0,0,0-2.75.33A3.4,3.4,0,0,0,60.78,22h0l-.46-1.54h0v0l-.24-.88c-.35-1.3-.72-2.64-1.19-4v0L58.67,15v-.06c-.21-.59-.44-1.15-.67-1.68l0-.08c-.07-.16-.15-.33-.22-.5l0-.07A18.83,18.83,0,0,0,47.62,2.83C39-.82,30.82,4.23,30.47,4.45c-7.06,4.47-9.18,9.34-9.71,12.66l-.13.3-.05.12-.13.31-.06.15c0,.1-.07.19-.1.29l-.06.17c0,.09-.06.18-.08.26l-.06.19c0,.08-.05.17-.07.24s0,.13-.05.22v0c0,.06,0,.13,0,.18a1.91,1.91,0,0,0,0,.21l0,.06,0,.17c0,.09,0,.17,0,.27s0,.11,0,.16,0,.29,0,.43a7.31,7.31,0,0,0,0,1.4A3.36,3.36,0,0,0,18.22,20.42Z"/><path class="cls-11" d="M19.59,22.92a13.66,13.66,0,0,0,3.49,6l0,.15-.1.17a.8.8,0,0,1-.08.16l-.2-.14a6.21,6.21,0,0,0-1.27-1.64,19.06,19.06,0,0,1-1.29-1.44c-.05-.07-.09-.14-.15-.21l0-.05a3.55,3.55,0,0,0-.84-.8A4.26,4.26,0,0,0,19.59,22.92Zm-1.75-2.87a3.79,3.79,0,0,0-2.75-.33,5.72,5.72,0,0,0-2.84-3.38,3.54,3.54,0,0,0-2.82.07,4.06,4.06,0,0,0-.81.49,3.52,3.52,0,0,0-2,.06,3.82,3.82,0,0,0-2.19,1.68,4.32,4.32,0,0,0-1.73,1,4,4,0,0,0-.9,4.66,4.27,4.27,0,0,0-.49,3.6,5.22,5.22,0,0,0,2.11,2.54c.08.06.18.12.22.16A12.92,12.92,0,0,0,5.45,31.8v0l0,.05c0,.05-.06.12-.08.16s-.06.13-.08.19a1.08,1.08,0,0,0-.07.18l0,0-.09.26,0,.1a3.33,3.33,0,0,0-.1.58,1.55,1.55,0,0,0,0,.22,3.14,3.14,0,0,0,.1,1,17.89,17.89,0,0,0,3.77,6.25,3.81,3.81,0,0,0,.36.33l0,0,.29.21.13.08.14.08.05,0A27.12,27.12,0,0,0,20,48.16l-.09.47a3.09,3.09,0,0,0-.33.94c-.28,1.52-.52,3-.69,4.51a3.09,3.09,0,0,0,0,1.05c-.12,1.22-.22,2.43-.28,3.62a4.44,4.44,0,0,0-.71,2.32,4.73,4.73,0,0,0,1.12,3.26,3.24,3.24,0,0,0,.94.74l.36.17v.13a58,58,0,0,0,1,8.32,4.47,4.47,0,0,0-.3,1.46c-.08,2.66.63,4.66,2,5.69a.57.57,0,0,0,0,.13c-.57.51-1.39,1.26-2.38,2.13a8,8,0,0,0-2.28,4.74c0,.13-.05.26-.07.39v0c0,.13,0,.25-.05.36v0q-.09.8-.12,1.59v.82c0,.07,0,.13,0,.19v.18c0,.07,0,.13,0,.2v.08a2.85,2.85,0,0,0,0,.31l0,.22q0,.12,0,.21a.3.3,0,0,0,0,.1v.07a1.91,1.91,0,0,0,0,.21v.06l0,.1c0,.06,0,.13.05.2l0,.16c0,.08.05.16.07.21l0,.14,0,.06a2.83,2.83,0,0,0,.17.4,3.12,3.12,0,0,0,1.55,1.51,14.69,14.69,0,0,0,9.31.67c3.36-1,5.6-3.79,7-5.84a2.71,2.71,0,0,0,.21-.37,2.78,2.78,0,0,0,.26-.34c.13-.21.32-.48.52-.75.38-.53.8-1.13,1.17-1.77a3.23,3.23,0,0,0,.4-1.67c0-.07,0-.71,0-1.64s-.06-2.32-.08-3.75a4.5,4.5,0,0,0,.93-1.48s1.12-3,.24-5.18l.09-.65,1,3.33c-.49,2.35,1.1,5,1.11,5.07a4.93,4.93,0,0,0,1.17,1.3c.39,2.45.72,4.8.78,5.26l0,.11a3.11,3.11,0,0,0,.67,1.53,20,20,0,0,0,1.46,1.55c.24.24.47.46.64.65a2.87,2.87,0,0,0,.31.29,2.16,2.16,0,0,0,.27.33c1.72,1.78,4.41,4.19,7.89,4.57a11.61,11.61,0,0,0,1.33.07,15,15,0,0,0,7.73-2.32,3.18,3.18,0,0,0,1.28-1.75c0-.14.07-.28.09-.41l0-.09a.43.43,0,0,1,0-.12,1.65,1.65,0,0,0,0-.21l0-.19a1.48,1.48,0,0,0,0-.22v-.52a1.62,1.62,0,0,0,0-.22v-.2c0-.11,0-.23,0-.33v-.08c0-.06,0-.13,0-.2l0-.17q0-.09,0-.21v-.07c0-.09,0-.19,0-.28l0-.08L66,89v0c-.1-.51-.23-1-.38-1.54v0q-.06-.2-.12-.36v0c0-.13-.09-.25-.13-.38a8,8,0,0,0-3-4.27c-1.14-.7-2.07-1.29-2.71-1.7,0,0,0-.08,0-.13,1.18-1.25,1.54-3.34,1-5.95A4.21,4.21,0,0,0,60,73.15a59.18,59.18,0,0,0-.39-8.43l-.06-.49a3.4,3.4,0,0,0,.4-.59,5,5,0,0,0,.32-3.52,4.41,4.41,0,0,0-.79-1.61c-.07-.6-.16-1.28-.27-2a3,3,0,0,0,0-1.16l-.09-.68c-.19-1.28-.39-2.61-.68-4.23a3.11,3.11,0,0,0-.44-1.14c0-.17-.07-.34-.1-.51a28,28,0,0,0,11.87-7.19l0,0,.12-.07.17-.1.28-.2.05,0a3.59,3.59,0,0,0,.35-.32,18.19,18.19,0,0,0,3.77-6.25,3.41,3.41,0,0,0,.1-1,2.5,2.5,0,0,0,0-.25,4.85,4.85,0,0,0-.09-.57l-.05-.15a1.27,1.27,0,0,0-.06-.18l0-.06a1.08,1.08,0,0,0-.08-.19c0-.06,0-.12-.07-.17l-.09-.17,0-.05v0A12.2,12.2,0,0,0,76,30.62l.23-.16a5.21,5.21,0,0,0,2.1-2.54,4.3,4.3,0,0,0-.48-3.6,4.06,4.06,0,0,0-.9-4.66,4.35,4.35,0,0,0-1.74-1A3.82,3.82,0,0,0,73,17a3.52,3.52,0,0,0-2-.06,4.28,4.28,0,0,0-.8-.49,3.56,3.56,0,0,0-2.83-.07,5.76,5.76,0,0,0-2.84,3.38,3.76,3.76,0,0,0-2.74.33,3.34,3.34,0,0,0-1.45,1.57h0l-.46-1.54h0v0l-.24-.88c-.35-1.29-.71-2.63-1.19-4v0c-.06-.18-.12-.36-.19-.53v-.06c-.21-.59-.43-1.15-.67-1.68l0-.07c-.07-.17-.14-.33-.22-.5l0-.08A18.9,18.9,0,0,0,47.25,2.45C38.64-1.19,30.44,3.86,30.09,4.08,23,8.55,20.91,13.41,20.38,16.73c0,.1-.08.2-.13.3l-.05.13c-.05.1-.09.2-.13.3l-.06.16c0,.09-.07.18-.1.28l-.06.17c0,.09-.06.18-.08.26l-.06.19c0,.09-.05.17-.06.24s0,.13-.06.22v0c0,.06,0,.13,0,.19s0,.14,0,.2v.07l0,.16c0,.09,0,.18-.05.28a.77.77,0,0,1,0,.15c0,.15,0,.29,0,.43a7.26,7.26,0,0,0,0,1.4A3.4,3.4,0,0,0,17.84,20.05Z"/><path class="cls-12" d="M19.21,22.54a13.66,13.66,0,0,0,3.49,6,.77.77,0,0,0,0,.15l-.09.17-.08.17-.21-.14a5.9,5.9,0,0,0-1.27-1.65c-.3-.29-.86-.92-1.29-1.44l-.14-.21,0,0a3.55,3.55,0,0,0-.84-.8A4.16,4.16,0,0,0,19.21,22.54Zm-1.75-2.87a3.84,3.84,0,0,0-2.75-.33A5.64,5.64,0,0,0,11.87,16,3.49,3.49,0,0,0,9.05,16a4.28,4.28,0,0,0-.8.49,3.74,3.74,0,0,0-2,.06,3.84,3.84,0,0,0-2.18,1.68,4.2,4.2,0,0,0-1.74,1,4,4,0,0,0-.9,4.65A4.31,4.31,0,0,0,1,27.54a5.22,5.22,0,0,0,2.11,2.54l.22.16a12.92,12.92,0,0,0,1.79,1.18v0l0,0a1.4,1.4,0,0,0-.09.17l-.08.18a1.08,1.08,0,0,0-.07.18l0,0a2.58,2.58,0,0,0-.08.26l0,.1a4.65,4.65,0,0,0-.1.58,1.55,1.55,0,0,0,0,.22,3.48,3.48,0,0,0,.1,1,17.86,17.86,0,0,0,3.77,6.25,2.82,2.82,0,0,0,.36.33l0,0a1.94,1.94,0,0,0,.29.21l.13.08.14.08.05,0a27.37,27.37,0,0,0,10.15,6.59l-.09.46a3.09,3.09,0,0,0-.33.94c-.28,1.53-.51,3-.69,4.51a3.1,3.1,0,0,0,.05,1c-.13,1.22-.22,2.44-.28,3.62a4.38,4.38,0,0,0-.71,2.32A4.7,4.7,0,0,0,18.67,64a3.08,3.08,0,0,0,.94.74l.37.18V65a59.45,59.45,0,0,0,1,8.31,4.47,4.47,0,0,0-.3,1.46c-.08,2.66.63,4.66,2,5.69,0,.05,0,.09,0,.13-.57.52-1.38,1.26-2.38,2.13a8.05,8.05,0,0,0-2.28,4.75l-.06.38v0c0,.13,0,.25-.05.36v.05q-.09.79-.12,1.59v.82a1.28,1.28,0,0,1,0,.19v.18c0,.07,0,.13,0,.2v.08c0,.11,0,.22,0,.31l0,.23,0,.2s0,.07,0,.1v.07a2.07,2.07,0,0,0,0,.22v0l0,.1c0,.07,0,.13.05.2l0,.16a1.91,1.91,0,0,0,.06.21,1.21,1.21,0,0,0,.05.14l0,.06c0,.14.11.27.17.4A3.12,3.12,0,0,0,20,95.31a14.61,14.61,0,0,0,9.31.67c3.36-1,5.61-3.79,7-5.84a2.71,2.71,0,0,0,.21-.37,2.18,2.18,0,0,0,.26-.34c.13-.21.32-.47.52-.75a19.4,19.4,0,0,0,1.17-1.77,3.21,3.21,0,0,0,.4-1.66c0-.08,0-.72,0-1.65s-.06-2.31-.07-3.74a4.79,4.79,0,0,0,.93-1.48s1.11-3,.24-5.18l.08-.66,1,3.34c-.49,2.34,1.1,5,1.12,5.06a4.6,4.6,0,0,0,1.16,1.3c.39,2.45.72,4.8.78,5.26l0,.11a3.12,3.12,0,0,0,.68,1.53,18.22,18.22,0,0,0,1.45,1.55l.64.65a2.91,2.91,0,0,0,.31.3,2.69,2.69,0,0,0,.27.32c1.72,1.78,4.41,4.19,7.89,4.57a11.73,11.73,0,0,0,1.33.07,15.06,15.06,0,0,0,7.73-2.31,3.2,3.2,0,0,0,1.28-1.76,3.38,3.38,0,0,0,.09-.41l0-.08c0-.05,0-.09,0-.13a1.68,1.68,0,0,0,0-.2l0-.2c0-.06,0-.13,0-.21v-.17c0-.06,0-.13,0-.21v-.57l0-.32v-.09a1.68,1.68,0,0,0,0-.2l0-.17c0-.06,0-.12,0-.21V89.3c0-.1,0-.19,0-.29l0-.08c0-.1,0-.21-.06-.32v0c-.11-.52-.24-1-.39-1.54v0l-.12-.36v0c0-.12-.08-.25-.13-.38a8,8,0,0,0-3-4.27c-1.13-.7-2.06-1.28-2.71-1.7v-.13c1.19-1.25,1.55-3.34,1-6a4.37,4.37,0,0,0-.54-1.38,59.33,59.33,0,0,0-.4-8.44l-.06-.49a2.92,2.92,0,0,0,.4-.59,4.92,4.92,0,0,0,.32-3.52,4.49,4.49,0,0,0-.79-1.61c-.07-.59-.16-1.27-.27-2A3.18,3.18,0,0,0,58.92,55l-.1-.69c-.19-1.28-.38-2.61-.68-4.23a3,3,0,0,0-.44-1.13c0-.18-.06-.35-.1-.52A27.94,27.94,0,0,0,69.47,41.2l0,0,.12-.06L69.8,41l.29-.2,0,0c.12-.1.23-.21.34-.32a18,18,0,0,0,3.77-6.25,3.41,3.41,0,0,0,.1-1,2.36,2.36,0,0,0,0-.25,4.65,4.65,0,0,0-.1-.56l0-.16-.06-.18,0-.06L74,31.83c0-.06-.05-.12-.08-.17s0-.11-.08-.17l0,0v0a12.92,12.92,0,0,0,1.79-1.18l.22-.16A5.16,5.16,0,0,0,78,27.54a4.3,4.3,0,0,0-.48-3.6,4,4,0,0,0-.9-4.65,4.23,4.23,0,0,0-1.73-1,3.93,3.93,0,0,0-2.19-1.68,3.71,3.71,0,0,0-2-.06,4.12,4.12,0,0,0-.81-.48A3.48,3.48,0,0,0,67.05,16a5.66,5.66,0,0,0-2.83,3.37,3.84,3.84,0,0,0-2.75.33A3.4,3.4,0,0,0,60,21.24h0l-.46-1.54h0v0c-.08-.28-.15-.58-.24-.88-.35-1.29-.71-2.63-1.18-4l0,0-.18-.53v-.06c-.22-.58-.44-1.15-.67-1.68l0-.07L57,11.9l0-.07A18.85,18.85,0,0,0,46.87,2.07C38.26-1.57,30.06,3.48,29.71,3.7,22.65,8.17,20.53,13,20,16.36l-.14.3-.05.12-.12.3-.06.16c0,.09-.07.19-.11.29l-.06.17c0,.08,0,.17-.08.26s0,.11-.06.19l-.06.24q0,.09-.06.21v0c0,.07,0,.13-.05.19s0,.14,0,.21v.06l0,.16a2.36,2.36,0,0,0,0,.28.89.89,0,0,0,0,.15c0,.15,0,.29-.05.44A7.19,7.19,0,0,0,19,21.51,3.39,3.39,0,0,0,17.46,19.67Z"/><path class="cls-13" d="M18.83,22.16a13.8,13.8,0,0,0,3.49,6c0,.05,0,.09,0,.14l-.09.18a1.19,1.19,0,0,0-.08.16L22,28.48a6,6,0,0,0-1.26-1.65c-.31-.29-.87-.92-1.3-1.43,0-.07-.09-.14-.14-.21l0-.05a3.36,3.36,0,0,0-.83-.81A4.26,4.26,0,0,0,18.83,22.16Zm-1.75-2.87A3.82,3.82,0,0,0,14.34,19a5.74,5.74,0,0,0-2.84-3.37,3.48,3.48,0,0,0-2.83.07,3.77,3.77,0,0,0-.8.48,3.71,3.71,0,0,0-2,.06A3.83,3.83,0,0,0,3.7,17.89a4.13,4.13,0,0,0-1.74,1,4,4,0,0,0-.9,4.65,4.3,4.3,0,0,0-.48,3.6,5.16,5.16,0,0,0,2.1,2.54l.23.16A12.2,12.2,0,0,0,4.69,31v0l0,0-.09.17-.08.18c0,.07,0,.14-.07.18l0,0a2.76,2.76,0,0,0-.08.27l0,.09a5.4,5.4,0,0,0-.1.58c0,.07,0,.14,0,.22a3.59,3.59,0,0,0,.1,1,18.06,18.06,0,0,0,3.77,6.24,3.7,3.7,0,0,0,.36.33l0,0a2,2,0,0,0,.3.21l.12.08.14.08.05,0a27.19,27.19,0,0,0,10.16,6.59c0,.15-.07.31-.09.46a2.87,2.87,0,0,0-.34.94c-.28,1.53-.51,3-.69,4.51a3.08,3.08,0,0,0,.05,1C18,55.59,18,56.81,17.89,58a4.4,4.4,0,0,0-.71,2.32,4.7,4.7,0,0,0,1.11,3.26,3.05,3.05,0,0,0,.94.74l.37.18v.13a58,58,0,0,0,1,8.31,4.24,4.24,0,0,0-.31,1.46c-.08,2.66.63,4.66,2,5.69,0,0,0,.09,0,.14-.56.51-1.38,1.25-2.38,2.12a8.05,8.05,0,0,0-2.28,4.75l-.06.38v0c0,.13,0,.26-.05.37v0a14.36,14.36,0,0,0-.12,1.59v0c0,.11,0,.22,0,.32v.83c0,.06,0,.12,0,.19V91l0,.3,0,.23,0,.2s0,.08,0,.1v.07c0,.07,0,.14,0,.22v.05l0,.1c0,.07,0,.13,0,.2l.05.17c0,.08.05.15.06.2l.05.14,0,.06a3.7,3.7,0,0,0,.17.4,3.16,3.16,0,0,0,1.56,1.52,14.74,14.74,0,0,0,9.31.67c3.36-1,5.6-3.8,7-5.85.08-.11.15-.24.22-.36a3.69,3.69,0,0,0,.25-.34c.14-.22.33-.48.53-.76.37-.53.8-1.13,1.16-1.77a3.08,3.08,0,0,0,.41-1.66c0-.08,0-.71,0-1.65s-.06-2.31-.08-3.74A4.79,4.79,0,0,0,39.3,78s1.11-3,.24-5.18l.08-.65,1,3.33c-.49,2.34,1.1,5,1.12,5.06a4.48,4.48,0,0,0,1.17,1.3c.39,2.46.71,4.8.78,5.26v.11a3.2,3.2,0,0,0,.68,1.54,19.78,19.78,0,0,0,1.45,1.54l.64.65a2.91,2.91,0,0,0,.31.3,4.15,4.15,0,0,0,.27.32c1.73,1.78,4.42,4.19,7.89,4.57a11.85,11.85,0,0,0,1.33.07A15,15,0,0,0,64,93.91a3.16,3.16,0,0,0,1.28-1.76c0-.13.07-.27.1-.41v-.08s0-.09,0-.13l0-.2,0-.19c0-.07,0-.14,0-.22v-.17a1.34,1.34,0,0,0,0-.21V90.4a1.85,1.85,0,0,1,0-.23V90l0-.32v-.08a1.36,1.36,0,0,1,0-.2l0-.17a1.65,1.65,0,0,0,0-.21v-.07c0-.1,0-.19,0-.28v-.09l-.06-.32v0a15.77,15.77,0,0,0-.39-1.54v0c0-.12-.08-.24-.11-.36l0,0-.13-.38a8,8,0,0,0-3.05-4.27c-1.13-.69-2.06-1.28-2.7-1.69,0-.05,0-.09,0-.13,1.19-1.26,1.55-3.35,1-5.95a4.11,4.11,0,0,0-.54-1.39,58,58,0,0,0-.4-8.44l-.06-.49a2.92,2.92,0,0,0,.4-.59,4.9,4.9,0,0,0,.32-3.51,4.69,4.69,0,0,0-.78-1.62c-.08-.59-.17-1.27-.27-2a3.17,3.17,0,0,0,0-1.15l-.1-.68c-.19-1.29-.38-2.62-.67-4.24a3.19,3.19,0,0,0-.45-1.13L57.23,48a27.91,27.91,0,0,0,11.86-7.18l0,0,.12-.07.18-.11a2.83,2.83,0,0,0,.28-.2l.05,0a3.47,3.47,0,0,0,.34-.32,17.8,17.8,0,0,0,3.77-6.25,3.38,3.38,0,0,0,.1-1,2.44,2.44,0,0,0,0-.26,3.45,3.45,0,0,0-.1-.56l0-.15-.06-.19,0-.05-.08-.2a1.3,1.3,0,0,0-.08-.17,1.19,1.19,0,0,0-.08-.16l0-.05v0a12.92,12.92,0,0,0,1.79-1.18l.22-.16a5.17,5.17,0,0,0,2.11-2.54,4.27,4.27,0,0,0-.49-3.6,4,4,0,0,0-.9-4.65,4.1,4.1,0,0,0-1.73-1,3.83,3.83,0,0,0-2.19-1.69,3.71,3.71,0,0,0-2-.06,3.77,3.77,0,0,0-.8-.48,3.48,3.48,0,0,0-2.83-.07A5.67,5.67,0,0,0,63.84,19a3.84,3.84,0,0,0-2.75.33,3.44,3.44,0,0,0-1.45,1.57h0l-.46-1.54h0v0q-.12-.42-.24-.87c-.35-1.3-.72-2.64-1.19-4v0c-.07-.18-.13-.35-.19-.53v-.06c-.21-.58-.44-1.15-.67-1.68l0-.07c-.07-.17-.15-.33-.23-.5l0-.07A18.79,18.79,0,0,0,46.49,1.7C37.88-1.95,29.68,3.1,29.34,3.32,22.28,7.79,20.16,12.65,19.63,16c-.05.1-.09.2-.13.3l-.06.12-.12.31-.06.15-.11.29,0,.17-.09.26c0,.06,0,.11-.05.19a2.17,2.17,0,0,0-.07.24c0,.06,0,.13-.05.22v0c0,.07,0,.14,0,.19s0,.14-.05.21v.06l0,.17c0,.09,0,.17,0,.27a.88.88,0,0,0,0,.16c0,.14,0,.29,0,.43a6.58,6.58,0,0,0,0,1.4A3.38,3.38,0,0,0,17.08,19.29Z"/><path class="cls-14" d="M18.46,21.78a13.63,13.63,0,0,0,3.48,6l0,.15a1,1,0,0,0-.1.17,1.19,1.19,0,0,0-.08.16l-.2-.14a6.26,6.26,0,0,0-1.27-1.64c-.31-.29-.87-.93-1.3-1.44,0-.07-.09-.14-.14-.21l0,0A3.76,3.76,0,0,0,18,24,4.34,4.34,0,0,0,18.46,21.78Zm-1.75-2.87A3.85,3.85,0,0,0,14,18.58a5.74,5.74,0,0,0-2.84-3.37,3.5,3.5,0,0,0-2.82.07,3.61,3.61,0,0,0-.81.48,3.71,3.71,0,0,0-2,.06,3.88,3.88,0,0,0-2.19,1.69,4.35,4.35,0,0,0-1.74,1,4,4,0,0,0-.89,4.66A4.25,4.25,0,0,0,.2,26.78a5.17,5.17,0,0,0,2.11,2.54l.22.16a10.77,10.77,0,0,0,1.78,1.18l0,0,0,0-.09.17a1.59,1.59,0,0,1-.08.18c0,.07,0,.14-.07.18v0c0,.09-.06.18-.09.27a.37.37,0,0,0,0,.09,3.7,3.7,0,0,0-.1.58c0,.08,0,.15,0,.22a4,4,0,0,0,.1,1,18.06,18.06,0,0,0,3.77,6.24l.36.33,0,0,.3.21.13.08.13.07.06,0A27,27,0,0,0,18.86,47l-.09.46a3.17,3.17,0,0,0-.34.95c-.28,1.52-.51,3-.69,4.5A3.34,3.34,0,0,0,17.79,54c-.13,1.22-.22,2.44-.28,3.62a4.49,4.49,0,0,0-.71,2.32,4.75,4.75,0,0,0,1.11,3.27,3.31,3.31,0,0,0,.94.73l.37.18v.13a58.13,58.13,0,0,0,1,8.32A3.92,3.92,0,0,0,20,74c-.09,2.65.62,4.66,2,5.69a.53.53,0,0,1,0,.13c-.56.51-1.38,1.25-2.38,2.13a8,8,0,0,0-2.28,4.74l-.06.38v0c0,.12,0,.25-.05.36v0a14.36,14.36,0,0,0-.12,1.59v0c0,.12,0,.23,0,.32v.08c0,.1,0,.21,0,.32v.43l0,.19v.09q0,.16,0,.3l0,.23,0,.21s0,.07,0,.1l0,.06,0,.22v.06l0,.09a1.46,1.46,0,0,0,.05.2l0,.17c0,.08.05.15.06.21s0,.08.05.13l0,.06c.06.15.11.28.17.41a3.22,3.22,0,0,0,1.56,1.51,14.67,14.67,0,0,0,9.31.67c3.36-1,5.6-3.8,7-5.85a3.1,3.1,0,0,0,.21-.36,2.7,2.7,0,0,0,.25-.34l.53-.76a18.74,18.74,0,0,0,1.16-1.77,3.08,3.08,0,0,0,.41-1.66c0-.08,0-.71,0-1.65S38,80.53,38,79.1a4.67,4.67,0,0,0,.93-1.48s1.12-3,.24-5.18l.09-.65,1,3.33c-.48,2.34,1.1,5,1.12,5.07a4.43,4.43,0,0,0,1.17,1.29c.39,2.46.72,4.8.78,5.26v.11A3.21,3.21,0,0,0,44,88.39c.47.57,1,1.08,1.45,1.55.25.23.47.46.64.65s.2.2.31.29l.28.33c1.72,1.77,4.41,4.19,7.88,4.56a11.87,11.87,0,0,0,1.33.08,15,15,0,0,0,7.74-2.32,3.11,3.11,0,0,0,1.27-1.76c0-.13.07-.27.1-.41v-.08a.59.59,0,0,0,0-.13l0-.2,0-.19c0-.07,0-.14,0-.22V90c0-.08,0-.15,0-.22v-.21c0-.11,0-.22,0-.32v-.08c0-.07,0-.13,0-.2l0-.17c0-.07,0-.13,0-.21v-.07c0-.09,0-.19,0-.28v-.09l-.06-.31v0a14.47,14.47,0,0,0-.39-1.54v0a3.58,3.58,0,0,0-.11-.35l0,0c0-.12-.08-.24-.13-.37a8,8,0,0,0-3-4.28c-1.13-.69-2.06-1.28-2.7-1.69v-.13c1.18-1.25,1.54-3.35,1-6A4.44,4.44,0,0,0,58.91,72a57.76,57.76,0,0,0-.4-8.43c0-.17,0-.33,0-.5a3.27,3.27,0,0,0,.39-.58A4.93,4.93,0,0,0,59.17,59a4.52,4.52,0,0,0-.78-1.62l-.27-2a3.23,3.23,0,0,0,0-1.16l-.1-.68c-.19-1.28-.38-2.61-.67-4.24A3.13,3.13,0,0,0,57,48.14c0-.17-.07-.34-.1-.52a27.91,27.91,0,0,0,11.86-7.18l.05,0,.12-.07a1.2,1.2,0,0,0,.17-.11,2,2,0,0,0,.28-.2l0,0a3.49,3.49,0,0,0,.35-.32,18,18,0,0,0,3.77-6.25,3.74,3.74,0,0,0,.1-1c0-.08,0-.16,0-.25a3.39,3.39,0,0,0-.1-.57l0-.15-.06-.18,0-.06a1.82,1.82,0,0,0-.08-.19c0-.06,0-.12-.07-.17l-.09-.17,0,0,0,0a13.08,13.08,0,0,0,1.78-1.17l.22-.17a5.17,5.17,0,0,0,2.11-2.54,4.25,4.25,0,0,0-.49-3.59,4,4,0,0,0-.9-4.66,4.25,4.25,0,0,0-1.73-1,3.88,3.88,0,0,0-2.19-1.69,3.71,3.71,0,0,0-2-.06,3.77,3.77,0,0,0-.8-.48,3.52,3.52,0,0,0-2.83-.07,5.74,5.74,0,0,0-2.84,3.37,3.85,3.85,0,0,0-2.75.33,3.4,3.4,0,0,0-1.44,1.58h0L58.8,19h0v0L58.55,18c-.35-1.3-.72-2.64-1.19-4v0c-.06-.17-.12-.35-.19-.53v0c-.21-.59-.44-1.16-.67-1.69l0-.07-.22-.49,0-.08A18.79,18.79,0,0,0,46.11,1.32C37.51-2.33,29.3,2.73,29,2.94c-7.06,4.47-9.18,9.34-9.71,12.66l-.13.3-.05.12-.13.31-.06.15c0,.1-.07.19-.1.29l-.06.17-.09.26a1.8,1.8,0,0,1-.05.19c0,.08,0,.16-.07.24s0,.13-.05.22v0c0,.06,0,.13,0,.18a1.55,1.55,0,0,0,0,.21l0,.06,0,.17c0,.09,0,.17,0,.27s0,.11,0,.16,0,.29,0,.43a7.31,7.31,0,0,0,0,1.4A3.36,3.36,0,0,0,16.71,18.91Z"/></g><path class="cls-3" d="M16.71,18.91A3.85,3.85,0,0,0,14,18.58a5.74,5.74,0,0,0-2.84-3.37,3.5,3.5,0,0,0-2.82.07,3.61,3.61,0,0,0-.81.48,3.71,3.71,0,0,0-2,.06,3.88,3.88,0,0,0-2.19,1.69,4.35,4.35,0,0,0-1.74,1,4,4,0,0,0-.89,4.66A4.25,4.25,0,0,0,.2,26.78a5.17,5.17,0,0,0,2.11,2.54l.22.16a10.77,10.77,0,0,0,1.78,1.18l0,0,0,0-.09.17a1.59,1.59,0,0,1-.08.18c0,.07,0,.14-.07.18v0c0,.09-.06.18-.09.27a.37.37,0,0,0,0,.09,3.7,3.7,0,0,0-.1.58c0,.08,0,.15,0,.22a4,4,0,0,0,.1,1,18.06,18.06,0,0,0,3.77,6.24l.36.33,0,0,.3.21.13.08.13.07.06,0A27,27,0,0,0,18.86,47l-.09.46a3.17,3.17,0,0,0-.34.95c-.28,1.52-.51,3-.69,4.5A3.34,3.34,0,0,0,17.79,54c-.13,1.22-.22,2.44-.28,3.62a4.49,4.49,0,0,0-.71,2.32,4.75,4.75,0,0,0,1.11,3.27,3.31,3.31,0,0,0,.94.73l.37.18v.13a58.13,58.13,0,0,0,1,8.32A3.92,3.92,0,0,0,20,74c-.09,2.65.62,4.66,2,5.69a.53.53,0,0,1,0,.13c-.56.51-1.38,1.25-2.38,2.13a8,8,0,0,0-2.28,4.74l-.06.38v0c0,.12,0,.25-.05.36v0a14.36,14.36,0,0,0-.12,1.59v0c0,.12,0,.23,0,.32v.08c0,.1,0,.21,0,.32v.43l0,.19v.09q0,.16,0,.3l0,.23,0,.21s0,.07,0,.1l0,.06,0,.22v.06l0,.09a1.46,1.46,0,0,0,.05.2l0,.17c0,.08.05.15.06.21s0,.08.05.13l0,.06c.06.15.11.28.17.41a3.22,3.22,0,0,0,1.56,1.51,14.67,14.67,0,0,0,9.31.67c3.36-1,5.6-3.8,7-5.85a3.1,3.1,0,0,0,.21-.36,2.7,2.7,0,0,0,.25-.34l.53-.76a18.74,18.74,0,0,0,1.16-1.77,3.08,3.08,0,0,0,.41-1.66c0-.08,0-.71,0-1.65S38,80.53,38,79.1a4.67,4.67,0,0,0,.93-1.48s1.12-3,.24-5.18l.09-.65,1,3.33c-.48,2.34,1.1,5,1.12,5.07a4.43,4.43,0,0,0,1.17,1.29c.39,2.46.72,4.8.78,5.26v.11A3.21,3.21,0,0,0,44,88.39c.47.57,1,1.08,1.45,1.55.25.23.47.46.64.65s.2.2.31.29l.28.33c1.72,1.77,4.41,4.19,7.88,4.56a11.87,11.87,0,0,0,1.33.08,15,15,0,0,0,7.74-2.32,3.11,3.11,0,0,0,1.27-1.76c0-.13.07-.27.1-.41v-.08a.59.59,0,0,0,0-.13l0-.2,0-.19c0-.07,0-.14,0-.22V90c0-.08,0-.15,0-.22v-.21c0-.11,0-.22,0-.32v-.08c0-.07,0-.13,0-.2l0-.17c0-.07,0-.13,0-.21v-.07c0-.09,0-.19,0-.28v-.09l-.06-.31v0a14.47,14.47,0,0,0-.39-1.54v0a3.58,3.58,0,0,0-.11-.35l0,0c0-.12-.08-.24-.13-.37a8,8,0,0,0-3-4.28c-1.13-.69-2.06-1.28-2.7-1.69v-.13c1.18-1.25,1.54-3.35,1-6A4.44,4.44,0,0,0,58.91,72a57.76,57.76,0,0,0-.4-8.43c0-.17,0-.33,0-.5a3.27,3.27,0,0,0,.39-.58A4.93,4.93,0,0,0,59.17,59a4.52,4.52,0,0,0-.78-1.62l-.27-2a3.23,3.23,0,0,0,0-1.16l-.1-.68c-.19-1.28-.38-2.61-.67-4.24A3.13,3.13,0,0,0,57,48.14c0-.17-.07-.34-.1-.52a27.91,27.91,0,0,0,11.86-7.18l.05,0,.12-.07a1.2,1.2,0,0,0,.17-.11,2,2,0,0,0,.28-.2l0,0a3.49,3.49,0,0,0,.35-.32,18,18,0,0,0,3.77-6.25,3.74,3.74,0,0,0,.1-1c0-.08,0-.16,0-.25a3.39,3.39,0,0,0-.1-.57l0-.15-.06-.18,0-.06a1.82,1.82,0,0,0-.08-.19c0-.06,0-.12-.07-.17l-.09-.17,0,0,0,0a13.08,13.08,0,0,0,1.78-1.17l.22-.17a5.17,5.17,0,0,0,2.11-2.54,4.25,4.25,0,0,0-.49-3.59,4,4,0,0,0-.9-4.66,4.25,4.25,0,0,0-1.73-1,3.88,3.88,0,0,0-2.19-1.69,3.71,3.71,0,0,0-2-.06,3.77,3.77,0,0,0-.8-.48,3.52,3.52,0,0,0-2.83-.07,5.74,5.74,0,0,0-2.84,3.37,3.85,3.85,0,0,0-2.75.33,3.4,3.4,0,0,0-1.44,1.58h0L58.8,19h0v0L58.55,18c-.35-1.3-.72-2.64-1.19-4v0c-.06-.17-.12-.35-.19-.53v0c-.21-.59-.44-1.16-.67-1.69l0-.07-.22-.49,0-.08A18.79,18.79,0,0,0,46.11,1.32C37.51-2.33,29.3,2.73,29,2.94c-7.06,4.47-9.18,9.34-9.71,12.66l-.13.3-.05.12-.13.31-.06.15c0,.1-.07.19-.1.29l-.06.17-.09.26a1.8,1.8,0,0,1-.05.19c0,.08,0,.16-.07.24s0,.13-.05.22v0c0,.06,0,.13,0,.18a1.55,1.55,0,0,0,0,.21l0,.06,0,.17c0,.09,0,.17,0,.27s0,.11,0,.16,0,.29,0,.43a7.31,7.31,0,0,0,0,1.4A3.36,3.36,0,0,0,16.71,18.91Zm1.75,2.87a13.63,13.63,0,0,0,3.48,6l0,.15a1,1,0,0,0-.1.17,1.19,1.19,0,0,0-.08.16l-.2-.14a6.26,6.26,0,0,0-1.27-1.64c-.31-.29-.87-.93-1.3-1.44,0-.07-.09-.14-.14-.21l0,0A3.76,3.76,0,0,0,18,24,4.34,4.34,0,0,0,18.46,21.78Z"/><path class="cls-15" d="M22.34,56.81s-.67,9.77,1.73,18l11.62-.07,2.15-16.66Z"/><path class="cls-16" d="M22.34,56.81s-.67,9.77,1.73,18l11.62-.07,2.15-16.66ZM29.09,69a10.69,10.69,0,0,0,4.14-.92.09.09,0,0,1,.11.06,4.65,4.65,0,0,1-.07,1.93,6,6,0,0,1-.35,1.69,2.49,2.49,0,0,1-2.23,1.17,8,8,0,0,1-3.4-.38c-1.87-.65-2.46-2.44-2.65-4.34a18.29,18.29,0,0,1-.22-3.38c0-.27,0-.62.29-.75s.68.11.94.18c1.33.34,2.69.63,4,.85a16.79,16.79,0,0,0,4,.25A52.71,52.71,0,0,1,29.09,69Z"/><path class="cls-16" d="M22.34,56.81a64.08,64.08,0,0,0,0,7.25,1.38,1.38,0,0,1,.66-.79,4.53,4.53,0,0,1,2.65.07c1.2.23,2.39.59,3.61.72s2.54.13,3.81.22c.55,0,1.53,0,1.89.5.52.78-.12,1.92-.56,2.71a3.16,3.16,0,0,0,1.1-1.08.1.1,0,0,1,.19,0,17,17,0,0,1-.24,3.42c-.09.62-.2,1.24-.28,1.86a11,11,0,0,1-.2,1.51,4,4,0,0,1-.9,1.54h1.59l2.15-16.66Z"/><path class="cls-17" d="M24.77,64.71a25.53,25.53,0,0,0,1,6.19S25.7,65.28,24.77,64.71Z"/><path class="cls-18" d="M21.68,84.33c2.19-1.93,3.54-3.2,3.54-3.2s-.21-4.44-.71-5.35.16-1.1.16-1.1a20.44,20.44,0,0,0,10.19-.05c-.11,3.46.12,10,.12,10-.47.81-1.15,1.66-1.6,2.36a3.18,3.18,0,0,0-.16-.32c0-.08-.25.65-.27,1-1.62,2.39-3.28,4-5.26,4.59a11.65,11.65,0,0,1-7.16-.53C19.91,90.4,20.17,85.66,21.68,84.33Z"/><path class="cls-19" d="M34.86,74.63a20.44,20.44,0,0,1-10.19.05s-.66.2-.16,1.1.71,5.35.71,5.35-1.35,1.27-3.54,3.2c-1.51,1.33-1.77,6.07-1.15,7.35a11.65,11.65,0,0,0,7.16.53c2-.57,3.64-2.2,5.26-4.59,0-.32.22-1.05.27-1a3.18,3.18,0,0,1,.16.32c.45-.7,1.13-1.55,1.6-2.36C35,84.61,34.75,78.09,34.86,74.63Zm-3.68,8.52s.1.06.07.09c-4.26,5.92-7.07,5.6-7.77,5.62a3,3,0,0,1-1.92-.39,1.64,1.64,0,0,1-.41-1.6,4.31,4.31,0,0,1,.9-2.17,10.75,10.75,0,0,1,1.6-1.49,4.52,4.52,0,0,1,.61-.55,8,8,0,0,1,3.27-1,2.79,2.79,0,0,0-1.64-.43c-.06,0-.13-.06-.1-.13A8.3,8.3,0,0,0,26,78.88a.1.1,0,0,1,.1-.11,15.6,15.6,0,0,0,3.86.07c.25,0,.68-.15.9,0s.21.31.29.6c.14.56.38,1.55,0,2.06s-1.2.46-1.72.85A14.52,14.52,0,0,0,31.18,83.15Z"/><path class="cls-19" d="M34.86,74.63a20.44,20.44,0,0,1-10.19.05s-.66.2-.16,1.1A10.57,10.57,0,0,1,25,78.54a.76.76,0,0,1,.57-.5,3.73,3.73,0,0,1,1,.13c.53.09,1.05.18,1.57.23a14.63,14.63,0,0,0,3-.05c.44,0,1.16-.26,1.56,0,.22.13.2.65.23.84a15.42,15.42,0,0,1,.05,4.6,5.85,5.85,0,0,1-1.67,2.88,12.48,12.48,0,0,1-2.81,2.57,7.25,7.25,0,0,1-3.84,1,5.55,5.55,0,0,1-3.35-.77,2.66,2.66,0,0,1-.93-2.19,9.3,9.3,0,0,0,.11,4.43,11.65,11.65,0,0,0,7.16.53c2-.57,3.64-2.2,5.26-4.59,0-.32.22-1.05.27-1a3.18,3.18,0,0,1,.16.32c.45-.7,1.13-1.55,1.6-2.36C35,84.61,34.75,78.09,34.86,74.63Z"/><path d="M21.08,90a9.76,9.76,0,0,0,2.8.7A8.71,8.71,0,0,0,29,89.8a15,15,0,0,0,3.85-3.74,19.82,19.82,0,0,0,2.05-3.13c0,1,.06,1.68.06,1.68-.47.81-1.15,1.66-1.6,2.36a3.18,3.18,0,0,0-.16-.32c0-.08-.25.65-.27,1-1.62,2.39-3.28,4-5.26,4.59a11.65,11.65,0,0,1-7.16-.53,5.19,5.19,0,0,1-.31-2Z"/><path class="cls-20" d="M23.46,83.71a4.24,4.24,0,0,0-2,3,1.42,1.42,0,0,0,1,1.83A4.64,4.64,0,0,1,23.46,83.71Z"/><path class="cls-21" d="M24.59,73.17s-1.44-.26-1.48,1,.18,3.09,1.07,3.19,7.08,1.32,11.35-.28c0,0,.21.08.48-.59s.74-3.41-.29-3.13A28.76,28.76,0,0,1,24.59,73.17Z"/><path class="cls-22" d="M24.59,73.17s-1.44-.26-1.48,1,.18,3.09,1.07,3.19,7.08,1.32,11.35-.28c0,0,.21.08.48-.59s.74-3.41-.29-3.13A28.76,28.76,0,0,1,24.59,73.17Z"/><path class="cls-21" d="M24.31,73.68a.66.66,0,0,0-.83.69c0,.86.24,2,2.06,2.13s6.09.52,7.4-.48.1-1.79-1.41-1.79A47.7,47.7,0,0,1,24.31,73.68Z"/><path class="cls-23" d="M24.27,74.16a.32.32,0,0,0-.41.34,1,1,0,0,0,1,1.07c.91.06,3,.25,3.69-.25s.05-.89-.71-.89A23.8,23.8,0,0,1,24.27,74.16Z"/><path class="cls-15" d="M54.19,56.85s2.32,9.52,1.37,18.08L44.09,76.84,39.15,60.78Z"/><path class="cls-16" d="M39.15,60.78l4.94,16.06,11.47-1.91c.95-8.56-1.37-18.08-1.37-18.08Zm5.34,6.59a13.17,13.17,0,0,0,3.42-.84c1.13-.42,2.27-.89,3.36-1.42.22-.11.52-.41.79-.32s.32.43.38.68a21.25,21.25,0,0,1,.37,3.28c.15,1.86-.07,3.68-1.58,4.59a6.48,6.48,0,0,1-2.89.87,2.15,2.15,0,0,1-2.12-.8,6.44,6.44,0,0,1-.59-1.57A5.36,5.36,0,0,1,45.25,70s0-.08.09-.07a8.82,8.82,0,0,0,3.74.27A48.56,48.56,0,0,1,44.49,67.37Z"/><path class="cls-16" d="M54.19,56.85A62.82,62.82,0,0,1,55.4,64a1.39,1.39,0,0,0-.79-.67c-.79-.25-1.85.29-2.6.52-8.53,2.62-9.9.46-10.17,1.06-.38.86,1.68,3.81,2.25,4.52a3.17,3.17,0,0,1-1.26-.88.11.11,0,0,0-.19.09A17.35,17.35,0,0,0,43.47,72c.19.6.4,1.19.59,1.79a10.57,10.57,0,0,0,.45,1.45,4.15,4.15,0,0,0,1.15,1.37l-1.57.26L39.15,60.78Z"/><path class="cls-17" d="M52,65.93s.21,3.94.33,4.65S52.8,68.15,52,65.93Z"/><path class="cls-18" d="M59.52,83.87c-2.49-1.53-4-2.56-4-2.56s-.55-4.41-.21-5.39-.34-1-.34-1a20.56,20.56,0,0,1-10.06,1.68c.7,3.39,1.59,9.85,1.59,9.85.59.72,1.4,1.44,2,2.06a3.57,3.57,0,0,1,.1-.35c0-.08.36.6.43.91,2,2.08,3.92,3.41,6,3.63a11.68,11.68,0,0,0,7-1.73C62.29,89.55,61.23,84.92,59.52,83.87Z"/><path class="cls-19" d="M46.47,86.4c.59.72,1.4,1.44,2,2.06a3.57,3.57,0,0,1,.1-.35c0-.08.36.6.43.91,2,2.08,3.92,3.41,6,3.63a11.68,11.68,0,0,0,7-1.73c.38-1.37-.68-6-2.39-7-2.49-1.53-4-2.56-4-2.56s-.55-4.41-.21-5.39-.34-1-.34-1a20.56,20.56,0,0,1-10.06,1.68C45.58,79.94,46.47,86.4,46.47,86.4Zm5.14-3.16c-.58-.29-1.33-.09-1.84-.55s-.41-1.45-.37-2c0-.3,0-.42.18-.64s.63-.17.88-.18a15.93,15.93,0,0,0,3.8-.71.1.1,0,0,1,.12.08,7.87,7.87,0,0,0,.53,2.11.1.1,0,0,1-.07.15,2.73,2.73,0,0,0-1.54.7,7.92,7.92,0,0,1,3.39.47,5.4,5.4,0,0,1,.69.44,10.26,10.26,0,0,1,1.84,1.21,4.23,4.23,0,0,1,1.25,2,1.65,1.65,0,0,1-.12,1.65,3.2,3.2,0,0,1-1.84.71c-.69.1-3.4.89-8.61-4.22,0,0,0-.09.06-.11A13.68,13.68,0,0,0,51.61,83.24Z"/><path class="cls-19" d="M44.88,76.55a20.56,20.56,0,0,0,10.06-1.68s.68.07.34,1a10.24,10.24,0,0,0,0,2.81.77.77,0,0,0-.65-.39,3.43,3.43,0,0,0-1,.31c-.5.17-1,.35-1.51.49a15.16,15.16,0,0,1-2.92.45c-.43,0-1.18-.06-1.54.24-.19.17-.09.68-.08.87a15.13,15.13,0,0,0,.73,4.54,5.86,5.86,0,0,0,2.14,2.56,12.83,12.83,0,0,0,3.2,2,7.38,7.38,0,0,0,3.95.33,5.58,5.58,0,0,0,3.18-1.34,2.63,2.63,0,0,0,.54-2.31,9.47,9.47,0,0,1,.65,4.39,11.68,11.68,0,0,1-7,1.73c-2-.22-4-1.55-6-3.63-.07-.31-.39-1-.43-.91a3.57,3.57,0,0,0-.1.35c-.57-.62-1.38-1.34-2-2.06C46.47,86.4,45.58,79.94,44.88,76.55Z"/><path d="M61.08,89.38a9.76,9.76,0,0,1-2.64,1.17,8.77,8.77,0,0,1-5.22,0,15.29,15.29,0,0,1-4.44-3,20.69,20.69,0,0,1-2.55-2.74c.15,1,.24,1.67.24,1.67.59.72,1.4,1.44,2,2.06a3.57,3.57,0,0,1,.1-.35c0-.08.36.6.43.91,2,2.08,3.92,3.41,6,3.63a11.68,11.68,0,0,0,7-1.73,5.22,5.22,0,0,0,0-2Z"/><path class="cls-20" d="M57.66,83.56a4.26,4.26,0,0,1,2.45,2.58,1.43,1.43,0,0,1-.71,2A4.65,4.65,0,0,0,57.66,83.56Z"/><path class="cls-21" d="M54.75,73.36s1.38-.5,1.63.68.34,3.08-.51,3.33S49.11,79.88,44.63,79c0,0-.19.12-.57-.49s-1.31-3.24-.24-3.13A28.78,28.78,0,0,0,54.75,73.36Z"/><path class="cls-22" d="M54.75,73.36s1.38-.5,1.63.68.34,3.08-.51,3.33S49.11,79.88,44.63,79c0,0-.19.12-.57-.49s-1.31-3.24-.24-3.13A28.78,28.78,0,0,0,54.75,73.36Z"/><path class="cls-21" d="M55.12,73.82a.65.65,0,0,1,.93.54,1.91,1.91,0,0,1-1.67,2.45c-1.77.44-5.91,1.54-7.37.78s-.4-1.74,1.09-2A48.12,48.12,0,0,0,55.12,73.82Z"/><path class="cls-23" d="M55.24,74.28a.33.33,0,0,1,.46.27,1,1,0,0,1-.83,1.22c-.89.23-2.95.77-3.68.39s-.2-.87.54-1A22.81,22.81,0,0,0,55.24,74.28Z"/><path class="cls-15" d="M38.2,60.18a.1.1,0,0,1,.19,0c.47,1,.4,2.29.85,3.32a51.7,51.7,0,0,0,16.37-2.73S53.41,38,47.27,28.09L27.58,29.65s-6.92,14.92-7,30.61a50,50,0,0,0,16.2,3.17A15.86,15.86,0,0,0,38.2,60.18Z"/><path class="cls-16" d="M47.27,28.09,27.58,29.65A86.75,86.75,0,0,0,23,43.2a7.32,7.32,0,0,0,2.45,4.14,14.87,14.87,0,0,0,2.95,2c1,.52,2.15.82,3.15,1.39a.11.11,0,0,1,0,.19,5.41,5.41,0,0,1-1.75,0c-.64,0-1.27-.11-1.91-.2a20.69,20.69,0,0,1-3.1-.6,12.73,12.73,0,0,1-3-1.27c-.27,1.5-.51,3-.7,4.64a3.55,3.55,0,0,0,.53.32,13.84,13.84,0,0,0,2.16.85c1.52.55,3.05,1,4.6,1.45.94.27,1.91.41,2.84.7.58.18,1.38.49,1.31,1.23a2,2,0,0,1-1,1.66c-1.46.75-3.3.39-4.86.25-1.38-.13-2.74-.38-4.11-.56a7.09,7.09,0,0,1-1.84-.34c0,.4,0,.8,0,1.2a50,50,0,0,0,16.2,3.17,15.86,15.86,0,0,0,1.42-3.25.1.1,0,0,1,.19,0c.47,1,.4,2.29.85,3.32a51.7,51.7,0,0,0,16.37-2.73S53.41,38,47.27,28.09Zm-5.74,23c1.07-.88,3.1-.48,6.91-3.37l.54-.48c.31-.29.59-.62.91-.91s.41-.39.66-.39c.64,0,.65,1.08.67,1.52,0,.81-.06,3-5.28,3.94a15.35,15.35,0,0,1-2.43.29C42,51.71,41.49,51.12,41.53,51.09ZM48,60.3c-.48.09-1,.17-1.43.27-1.08.22-2.68.69-3.71.09-.62-.35-1.67-2.23-.34-2.34A44.93,44.93,0,0,0,47,57.76a11.39,11.39,0,0,0,2.31-.61c.7-.28,2.11-1.06,2.81-.41a1.4,1.4,0,0,1,0,1.61,3,3,0,0,1-1.12,1A10,10,0,0,1,48,60.3Z"/><path class="cls-21" d="M35.21,45.88S36,61.1,34,61.41c-1.9.28-11-1.54-13.33-2.39l-.12,0a1,1,0,0,0-.58,1,1.59,1.59,0,0,0,.35,1.11c3.36,1.73,15,3.39,16.42,2.55,0,0,1.34,0,1.39-1.76s.19-16.56.19-16.56Z"/><path class="cls-22" d="M35.21,45.88S36,61.1,34,61.41c-1.9.28-11-1.54-13.33-2.39l-.12,0a1,1,0,0,0-.58,1,1.59,1.59,0,0,0,.35,1.11c3.36,1.73,15,3.39,16.42,2.55,0,0,1.34,0,1.39-1.76s.19-16.56.19-16.56ZM37.1,62.31c-.41,1.83-9.23.2-10.55,0a24.59,24.59,0,0,1-3.8-.86c-.49-.17-1.7-.41-1.67-1.12a.11.11,0,0,1,.11-.11,7.5,7.5,0,0,1,2,.43,21.47,21.47,0,0,0,2.38.52c1.68.29,3.38.49,5.08.64a20.88,20.88,0,0,0,2.5.08c.66,0,1.43,0,1.79-.67.26-.48.3-2.55.53-2.94.36-.58,1.67-.45,1.77,0A24.83,24.83,0,0,1,37.1,62.31Zm.46-10.62c-.23.42-.93.38-1.31.24-.13,0-.3-.13-.3-.28a.38.38,0,0,1,.21-.31,1.17,1.17,0,0,1,1-.14.38.38,0,0,1,.33.07A.35.35,0,0,1,37.56,51.69Z"/><path class="cls-21" d="M56.14,59.81A.94.94,0,0,0,55.5,59c-2.41.86-11.39,2.65-13.28,2.37C40.16,61.1,41,45.73,41,45.73l-3-.31s0,14.7.07,16.5,1.39,1.76,1.39,1.76c1.48.85,13.43-.88,16.57-2.63A1.77,1.77,0,0,0,56.14,59.81Z"/><path class="cls-22" d="M56.14,59.81A.94.94,0,0,0,55.5,59c-2.41.86-11.39,2.65-13.28,2.37C40.16,61.1,41,45.73,41,45.73l-3-.31s0,14.7.07,16.5,1.39,1.76,1.39,1.76c1.48.85,13.43-.88,16.57-2.63A1.77,1.77,0,0,0,56.14,59.81Zm-17-8.73a.88.88,0,0,1,.87.13c.32.36-.16.64-.47.71s-.89.06-1-.36S38.85,51.08,39.13,51.08Zm14.6,9.38a2.71,2.71,0,0,1-1.51,1.27,15.36,15.36,0,0,1-2.38.77,30.48,30.48,0,0,1-9,.79,2.86,2.86,0,0,1-1.57-.43,2.37,2.37,0,0,1-.65-1.74,14.94,14.94,0,0,1,0-2.59.82.82,0,0,1,1.52-.3,2.38,2.38,0,0,1,.22,1.32c0,1,.33,2.06,1.48,2.25a18.89,18.89,0,0,0,6.39-.5c1.08-.18,2.17-.33,3.24-.6a4.58,4.58,0,0,1,2.14-.39A.1.1,0,0,1,53.73,60.46Z"/><path class="cls-24" d="M53.73,50.13A25.08,25.08,0,0,1,46.65,52a48,48,0,0,1-9.19.71c-1.6-.07-8-1-9.58-1.39A38.41,38.41,0,0,1,23.57,50a11.48,11.48,0,0,1-2-1c-.26,1.41-.49,2.85-.66,4.32a8.77,8.77,0,0,0,2.3,1.13c18.73,5.72,28.48,1.62,31.88.2-.22-1.51-.42-3-.76-4.82C54.11,49.94,53.92,50,53.73,50.13Z"/><path class="cls-25" d="M54.29,49.83c-.18.11-.37.2-.56.3A25.08,25.08,0,0,1,46.65,52a48,48,0,0,1-9.19.71c-1.6-.07-8-1-9.58-1.39A38.41,38.41,0,0,1,23.57,50a11.48,11.48,0,0,1-2-1c-.26,1.41-.49,2.85-.66,4.32a8.77,8.77,0,0,0,2.3,1.13c18.73,5.72,28.48,1.62,31.88.2C54.83,53.14,54.63,51.68,54.29,49.83ZM32.83,54.94c-.13.86-1.16.83-1.16.83-2.1.31-9.08-1.79-9.7-2.34s-.55-1.58-.31-2.58,1-.79,1-.79c3.27,1.2,8.05,2.2,9.32,2.54S33,54.08,32.83,54.94Zm5.51.28a1.35,1.35,0,0,1-1.91,1.16c-.41-.16-.65-1.4-.57-2.14a.7.7,0,0,1,.78-.67S38.65,53.67,38.34,55.22Zm11.37.15a16.32,16.32,0,0,1-7.35,1.11c-.33,0-.36-1.52-.31-2.55s1.83-1.06,1.83-1.06,3.43-.52,4.8-.64,1.44,2.19,1.44,2.55S49.71,55.37,49.71,55.37Z"/><path class="cls-26" d="M41.48,53.59a1.2,1.2,0,0,0-1.35-1.34c-1.48.07-3.58.07-3.58.07s-1.79-.45-2,.51a18.25,18.25,0,0,0-.1,3.48,1.47,1.47,0,0,0,1.48,1.27,23.46,23.46,0,0,0,4.53,0,1.34,1.34,0,0,0,1.11-1A15.46,15.46,0,0,0,41.48,53.59ZM40.66,56c0,.6-.25.62-.25.62-1,.64-4.08.28-4.08.28-.74-.14-.83-1.13-.83-1.13a11.46,11.46,0,0,1,0-2.15c.14-.59,1.41-.5,1.41-.5s2,.11,2.67,0a.85.85,0,0,1,.92.53A21.36,21.36,0,0,1,40.66,56Z"/><path class="cls-27" d="M41.48,53.59a1.27,1.27,0,0,0-.63-1.22c0,.21-.1.63-.4.63-1,0-2.17-.1-3.21,0-.53,0-1.34-.13-1.7.33a1.86,1.86,0,0,0-.35,1.14c0,.66.09,1.33.07,2,0,.1-.15.15-.19,0a5.8,5.8,0,0,1-.58-1.91,11.75,11.75,0,0,1,0-1.57,19.54,19.54,0,0,0-.07,3.32,1.47,1.47,0,0,0,1.48,1.27,23.46,23.46,0,0,0,4.53,0,1.34,1.34,0,0,0,1.11-1A15.46,15.46,0,0,0,41.48,53.59ZM40.66,56c0,.6-.25.62-.25.62-1,.64-4.08.28-4.08.28-.74-.14-.83-1.13-.83-1.13a11.46,11.46,0,0,1,0-2.15c.14-.59,1.41-.5,1.41-.5s2,.11,2.67,0a.85.85,0,0,1,.92.53A21.36,21.36,0,0,1,40.66,56Z"/><path class="cls-27" d="M41.48,53.59A1.39,1.39,0,0,0,41.4,53a9.32,9.32,0,0,1,.07,1.38,5.07,5.07,0,0,1-.24,2,2.19,2.19,0,0,1-2.1,1c-.5,0-1,0-1.49,0a9.17,9.17,0,0,1-1.89-.17,2,2,0,0,1-1.34-1v.12a1.47,1.47,0,0,0,1.48,1.27,23.46,23.46,0,0,0,4.53,0,1.34,1.34,0,0,0,1.11-1A15.46,15.46,0,0,0,41.48,53.59Z"/><path class="cls-28" d="M34.61,53.91s-.21-1.39.51-1.53,3.18.21,4.85,0a28.93,28.93,0,0,1-3.73.27C35.09,52.59,34.64,53.21,34.61,53.91Z"/><path class="cls-29" d="M22.41,50.33A56.57,56.57,0,0,0,31.94,53S25.3,52.47,22.41,50.33Z"/><path class="cls-29" d="M42.74,53.43a43.92,43.92,0,0,0,6.4-.93A16.1,16.1,0,0,1,42.74,53.43Z"/><path class="cls-15" d="M16.64,27.53s3.92,5.92,9.9,4.82l-2.27,13s-12.88-2-17.12-13.17Z"/><path class="cls-16" d="M16.64,27.53,7.15,32.14c4.24,11.18,17.12,13.17,17.12,13.17l2.27-13C20.56,33.45,16.64,27.53,16.64,27.53Zm5.16,5.54a17.58,17.58,0,0,0-1.26,2.34,13.57,13.57,0,0,0-.49,4.53c.05,1.88-4.08-.52-4.7-1a2.06,2.06,0,0,1-.8-2.39A9.78,9.78,0,0,1,16.41,34a11.07,11.07,0,0,1,2.13-2.14,1.55,1.55,0,0,1,1.7.18S22,32.73,21.8,33.07Z"/><path class="cls-16" d="M22.92,32.2a6.24,6.24,0,0,0-2.25,4,4.87,4.87,0,0,0,.27,1.69A1.92,1.92,0,0,1,20.88,39a12.27,12.27,0,0,0-.15,3.73.1.1,0,0,1-.15.09c-1-.44-2.06-.75-3-1.25a18,18,0,0,1-1.81-1c-.93-.6-2.4-1.59-2.4-2.86,0-.84.57-1.33,1.13-1.89s1.35-1.47,2-2.2a11.93,11.93,0,0,0,2.65-3.35,13.37,13.37,0,0,1-2.52-2.67L7.15,32.14c4.24,11.18,17.12,13.17,17.12,13.17l2.27-13A8.22,8.22,0,0,1,22.92,32.2Z"/><path class="cls-30" d="M16.4,26.78s-.17-.8-1.83-.07-7.91,4.73-7.6,6a15.55,15.55,0,0,0,3,4.8s.42.61,1.53,0c1.77-1,6.86-5.78,7.41-7.7,0,0,0-.38-.72-1S16.4,26.78,16.4,26.78Z"/><path class="cls-22" d="M18.15,28.74c-.69-.66-1.75-2-1.75-2s-.13-.59-1.24-.29a7.83,7.83,0,0,1-2.49,2.57,24.86,24.86,0,0,1-3.26,2.11c-.47.26-1.5,1-2.11.71-.25.32-.38.59-.33.79a15.55,15.55,0,0,0,3,4.8s.42.61,1.53,0c1.77-1,6.86-5.78,7.41-7.7C18.87,29.77,18.84,29.39,18.15,28.74ZM16,29.84A8.29,8.29,0,0,1,14,33.17a11.18,11.18,0,0,1-2.73,2.35,1.74,1.74,0,0,1-1.34.39A1.68,1.68,0,0,1,9,35.06c-.37-.63-.95-1.43-.31-2.09A17.64,17.64,0,0,1,12,30.81a16.46,16.46,0,0,0,2.59-2.11l.38-.46c.18-.22.38-.54.7-.52C16.36,27.76,16,29.53,16,29.84Z"/><path class="cls-22" d="M18.15,28.74c-.69-.66-1.75-2-1.75-2s-.17-.8-1.83-.07S7.43,31,7,32.41a.24.24,0,0,0,.18.06,1.09,1.09,0,0,0,.4-.07c.38-.15.75-.34,1.11-.52.7-.34,1.4-.7,2.07-1.09a27.94,27.94,0,0,0,3.85-2.73c.27-.23.65-.78,1.05-.78a1,1,0,0,1,.76.49,3.81,3.81,0,0,1,.88,2.51,3.51,3.51,0,0,1-.77,1.63c-.39.54-.79,1.08-1.22,1.59a20.79,20.79,0,0,1-2.82,2.73A6.28,6.28,0,0,1,10,37.54c.15.14.59.41,1.46-.07,1.77-1,6.86-5.78,7.41-7.7C18.87,29.77,18.84,29.39,18.15,28.74Z"/><path class="cls-30" d="M15.31,21.9c0-.57-1.06-.13-1.26,0a2.34,2.34,0,0,0-1,1.15c-.09.21-.15,1.26-.36,1.38-.06-.26-.22-.73-.24-.8a9.21,9.21,0,0,0-.38-1c-.29-.69-.53-1.41-.79-2.1-1.05-2.75-1.57-2.4-1.75-2.32-.64.28-.35,1.77-.25,2.34s.94,3.24,1.1,3.79c-.9-1.74-2.75-5.83-4-5.45-1.58.49.76,4.06,1.11,4.78h0c.06.13.92,1.67,1,1.83-.12-.15-2-3-2.47-3.63s-1.38-1.87-2.27-1c-.73.7.13,1.87.58,2.47s2.29,2.86,2.5,3c0,0,.44.5.44.5a17.71,17.71,0,0,0-3.09-2.34c-.73-.18-1.18.79-1,1.32s.91.9,1.37,1.29a16.73,16.73,0,0,0,1.91,1.19c.45.28.76,1.26,1,1.72a3.51,3.51,0,0,0,.74.84,1.46,1.46,0,0,0,1,.19c.43-.06.46.16.71.37a21.61,21.61,0,0,0,4.3-3.06.94.94,0,0,0-.21-.39l0,0a1,1,0,0,0,.23-.41c.25-1.1,0-2.23.28-3.35a5,5,0,0,1,.66-1.51A1.09,1.09,0,0,0,15.31,21.9Z"/><path class="cls-31" d="M12.75,24.34c-.75,1.49-3.27,2.73-2.12,4.78,0,0,.06,0,0-.05-1.06-2.13,1.5-3.09,2.14-4.74C12.84,24.26,12.77,24.31,12.75,24.34Z"/><path class="cls-31" d="M11.78,23.88c-1.85.51-4,1.6-4.81,3.49,0,.06,0,0,.07,0a8.09,8.09,0,0,1,4.72-3.44S11.81,23.88,11.78,23.88Z"/><path class="cls-22" d="M15.31,21.9c0-.57-1.06-.13-1.26,0a2.34,2.34,0,0,0-1,1.15c-.09.21-.15,1.26-.36,1.38-.06-.26-.22-.73-.24-.8a9.21,9.21,0,0,0-.38-1c-.29-.69-.53-1.41-.79-2.1-1.05-2.75-1.57-2.4-1.75-2.32-.64.28-.35,1.77-.25,2.34s.94,3.24,1.1,3.79c-.9-1.74-2.75-5.83-4-5.45-1.58.49.76,4.06,1.11,4.78h0c.06.13.92,1.67,1,1.83-.12-.15-2-3-2.47-3.63s-1.38-1.87-2.27-1c-.73.7.13,1.87.58,2.47s2.29,2.86,2.5,3c0,0,.44.5.44.5a17.71,17.71,0,0,0-3.09-2.34c-.73-.18-1.18.79-1,1.32s.91.9,1.37,1.29a16.73,16.73,0,0,0,1.91,1.19c.45.28.76,1.26,1,1.72a3.51,3.51,0,0,0,.74.84,1.46,1.46,0,0,0,1,.19c.43-.06.46.16.71.37a21.61,21.61,0,0,0,4.3-3.06.94.94,0,0,0-.21-.39l0,0a1,1,0,0,0,.23-.41c.25-1.1,0-2.23.28-3.35a5,5,0,0,1,.66-1.51A1.09,1.09,0,0,0,15.31,21.9Zm-5.39,0a20.83,20.83,0,0,1-.55-2.06,2.32,2.32,0,0,1,0-.91,1.12,1.12,0,0,1,0-.32c.09-.37.57-.29.75-.06a7.09,7.09,0,0,1,1.08,2.23A4.64,4.64,0,0,1,11.72,23c-.06.43-.37.92-.87.65S10.08,22.54,9.92,21.94ZM7.54,23C7.25,22.49,7,22,6.7,21.52s-1.12-2.09-.11-2.44h.06c.77-.07,1.85,2.36,2,2.61s1.56,3.26.18,2.88C8.11,24.39,7.86,23.49,7.54,23Zm-.41,2.86c-.28,0-.61-.32-.8-.5a9.94,9.94,0,0,1-1-1.16A10.76,10.76,0,0,1,4,22.39c-.45-.61-.7-1.29.17-1.62.69-.26,1.43,1,1.71,1.41a15.05,15.05,0,0,1,1.52,2.44C7.59,25,7.85,25.84,7.13,25.83ZM6,27.45a2.92,2.92,0,0,1-1.51-.7c-.4-.28-.9-.57-1.08-1.05a.56.56,0,0,1,0-.34c0-.58.59-.68,1.16-.44a5.44,5.44,0,0,1,1.25.83c.34.29.87.7.88,1.2C6.66,27.27,6.22,27.45,6,27.45Zm8.65-4.87A6.91,6.91,0,0,0,13.83,24a6,6,0,0,0-.2,1.52A4.15,4.15,0,0,1,13,28a7.79,7.79,0,0,1-1.78,1.55A3.3,3.3,0,0,1,9,30.39a2.37,2.37,0,0,1-1.6-3.05,3.67,3.67,0,0,1,1-1.3,4.79,4.79,0,0,1,1-.83,4.63,4.63,0,0,1,1.91-.91c.78-.09,0,.69-.15.89A3,3,0,0,0,10.36,27a3.54,3.54,0,0,0,.1,1.14A3.57,3.57,0,0,1,11,26.87a11,11,0,0,1,.79-1.14,7.39,7.39,0,0,0,1-1,8.11,8.11,0,0,0,.38-1.18,3.58,3.58,0,0,1,.37-.66c.25-.34.64-.66,1.07-.42A.11.11,0,0,1,14.61,22.58Z"/><path class="cls-32" d="M15.41,27A15.21,15.21,0,0,1,12,29.9a17.37,17.37,0,0,1-4.33,2.37s-.13.15-.06.14A14.09,14.09,0,0,0,12,30.15,11.51,11.51,0,0,0,15.45,27C15.48,27,15.43,27,15.41,27Z"/><path class="cls-17" d="M18.91,31.87A9,9,0,0,0,21.42,33S20.08,33.65,18.91,31.87Z"/><path class="cls-15" d="M60.78,27.53s-3.92,5.92-9.9,4.82l2.27,13s12.88-2,17.12-13.17Z"/><path class="cls-16" d="M50.88,32.35l2.27,13s12.88-2,17.12-13.17l-9.49-4.61S56.86,33.45,50.88,32.35Zm6.3-.35a1.54,1.54,0,0,1,1.69-.18A10.8,10.8,0,0,1,61,34a9.59,9.59,0,0,1,1.87,2.55,2.06,2.06,0,0,1-.81,2.39c-.61.52-4.74,2.92-4.69,1a13.84,13.84,0,0,0-.49-4.53,17.58,17.58,0,0,0-1.26-2.34C55.44,32.73,57.15,32,57.18,32Z"/><path class="cls-16" d="M54.5,32.2a6.28,6.28,0,0,1,2.25,4,4.87,4.87,0,0,1-.27,1.69A1.92,1.92,0,0,0,56.54,39a12.27,12.27,0,0,1,.15,3.73.1.1,0,0,0,.15.09c1-.44,2.06-.75,3-1.25a18,18,0,0,0,1.81-1c.92-.6,2.39-1.59,2.4-2.86,0-.84-.57-1.33-1.13-1.89-.71-.71-1.35-1.47-2-2.2a11.93,11.93,0,0,1-2.65-3.35,13.37,13.37,0,0,0,2.52-2.67l9.49,4.61C66,43.32,53.15,45.31,53.15,45.31l-2.27-13A8.22,8.22,0,0,0,54.5,32.2Z"/><path class="cls-30" d="M61,26.78s.17-.8,1.82-.07,7.91,4.73,7.6,6a15.53,15.53,0,0,1-3,4.8s-.43.61-1.53,0c-1.77-1-6.86-5.78-7.41-7.7,0,0,0-.38.72-1S61,26.78,61,26.78Z"/><path class="cls-22" d="M58.55,29.77c.55,1.92,5.64,6.72,7.41,7.7,1.1.61,1.53,0,1.53,0a15.53,15.53,0,0,0,3-4.8c.06-.2-.07-.47-.32-.79-.61.25-1.64-.45-2.11-.71a24.86,24.86,0,0,1-3.26-2.11,8,8,0,0,1-2.5-2.57c-1.1-.3-1.23.29-1.23.29s-1.06,1.3-1.75,2S58.55,29.77,58.55,29.77Zm3.2-2.05c.32,0,.52.3.7.52l.38.46a16.46,16.46,0,0,0,2.59,2.11A17.64,17.64,0,0,1,68.69,33c.64.66.06,1.46-.31,2.09a1.68,1.68,0,0,1-.91.85,1.74,1.74,0,0,1-1.34-.39,11.42,11.42,0,0,1-2.74-2.35,8.38,8.38,0,0,1-1.92-3.33C61.39,29.53,61.06,27.76,61.75,27.72Z"/><path class="cls-22" d="M59.27,28.74c.69-.66,1.75-2,1.75-2s.17-.8,1.82-.07S70,31,70.43,32.41a.24.24,0,0,1-.18.06,1.09,1.09,0,0,1-.4-.07c-.38-.15-.75-.34-1.11-.52-.7-.34-1.4-.7-2.07-1.09a27.94,27.94,0,0,1-3.85-2.73c-.27-.23-.65-.78-1-.78a1,1,0,0,0-.76.49,3.81,3.81,0,0,0-.88,2.51,3.51,3.51,0,0,0,.77,1.63c.39.54.79,1.08,1.22,1.59a20.79,20.79,0,0,0,2.82,2.73,6.28,6.28,0,0,0,2.48,1.31c-.15.14-.59.41-1.46-.07-1.77-1-6.86-5.78-7.41-7.7C58.55,29.77,58.58,29.39,59.27,28.74Z"/><path class="cls-30" d="M62.1,21.9c0-.57,1.07-.13,1.27,0A2.34,2.34,0,0,1,64.32,23c.09.21.14,1.26.36,1.38.06-.26.22-.73.24-.8a7.6,7.6,0,0,1,.38-1c.29-.69.53-1.41.79-2.1,1-2.75,1.57-2.4,1.75-2.32.64.28.35,1.77.25,2.34s-.94,3.24-1.1,3.79c.9-1.74,2.75-5.83,4-5.45,1.58.49-.76,4.06-1.11,4.78h0c-.06.13-.92,1.67-1,1.83.12-.15,2-3,2.48-3.63s1.38-1.87,2.27-1c.72.7-.13,1.87-.58,2.47s-2.29,2.86-2.5,3c0,0-.45.5-.44.5a17.71,17.71,0,0,1,3.09-2.34c.73-.18,1.18.79,1,1.32s-.91.9-1.37,1.29A17.65,17.65,0,0,1,71,28.27c-.45.28-.76,1.26-1,1.72a3.23,3.23,0,0,1-.73.84,1.48,1.48,0,0,1-1,.19c-.43-.06-.46.16-.71.37a21.69,21.69,0,0,1-4.31-3.06,1.1,1.1,0,0,1,.22-.39s0,0,0,0a1,1,0,0,1-.23-.41c-.25-1.1,0-2.23-.28-3.35a5,5,0,0,0-.66-1.51A1.15,1.15,0,0,1,62.1,21.9Z"/><path class="cls-31" d="M64.66,24.34c.76,1.49,3.28,2.73,2.13,4.78,0,0-.06,0-.05-.05,1.06-2.13-1.51-3.09-2.14-4.74C64.58,24.26,64.65,24.31,64.66,24.34Z"/><path class="cls-31" d="M65.64,23.88c1.84.51,4,1.6,4.8,3.49,0,.06,0,0-.06,0a8.09,8.09,0,0,0-4.72-3.44S65.61,23.88,65.64,23.88Z"/><path class="cls-22" d="M62.28,22.64a5,5,0,0,1,.66,1.51c.26,1.12,0,2.25.28,3.35a1,1,0,0,0,.23.41s0,0,0,0a1.1,1.1,0,0,0-.22.39,21.69,21.69,0,0,0,4.31,3.06c.25-.21.28-.43.71-.37a1.48,1.48,0,0,0,1-.19A3.23,3.23,0,0,0,70,30c.25-.46.56-1.44,1-1.72a17.65,17.65,0,0,0,1.91-1.19c.46-.39,1.19-.75,1.37-1.29s-.28-1.5-1-1.32a17.71,17.71,0,0,0-3.09,2.34s.44-.49.44-.5c.21-.18,2-2.42,2.5-3s1.3-1.77.58-2.47c-.89-.86-1.73.3-2.27,1S69,25.29,68.91,25.44c.06-.16.92-1.7,1-1.83h0c.35-.72,2.69-4.29,1.11-4.78-1.26-.38-3.11,3.71-4,5.45.16-.55,1-3.26,1.1-3.79s.39-2.06-.25-2.34c-.18-.08-.7-.43-1.75,2.32-.26.69-.5,1.41-.79,2.1a7.6,7.6,0,0,0-.38,1c0,.07-.18.54-.24.8-.22-.12-.27-1.17-.36-1.38a2.34,2.34,0,0,0-.95-1.15c-.2-.11-1.24-.55-1.27,0A1.15,1.15,0,0,0,62.28,22.64Zm4.29,1c-.5.27-.81-.22-.87-.65a4.75,4.75,0,0,1,.47-2.19,7.56,7.56,0,0,1,1.08-2.23c.19-.23.67-.31.76.06A1.12,1.12,0,0,1,68,19a2.15,2.15,0,0,1,0,.91,20.78,20.78,0,0,1-.54,2.06C67.34,22.54,67.17,23.35,66.57,23.66Zm2.06.91c-1.38.38,0-2.59.18-2.88s1.19-2.68,2-2.61h.06c1,.35.18,1.86-.11,2.44s-.56,1-.84,1.45S69.31,24.39,68.63,24.57Zm1.36.05a15.05,15.05,0,0,1,1.52-2.44c.28-.43,1-1.67,1.71-1.41.86.33.62,1,.17,1.62a10.76,10.76,0,0,1-1.31,1.78,9.94,9.94,0,0,1-1,1.16c-.2.18-.52.49-.8.5C69.57,25.84,69.83,25,70,24.62ZM70.77,27c0-.5.54-.91.88-1.2a5.44,5.44,0,0,1,1.25-.83c.57-.24,1.17-.14,1.16.44a.56.56,0,0,1,0,.34c-.18.48-.68.77-1.08,1.05a3,3,0,0,1-1.51.7C71.2,27.45,70.76,27.27,70.77,27Zm-7.93-4.51c.43-.24.82.08,1.07.42a3.58,3.58,0,0,1,.37.66,8.11,8.11,0,0,0,.38,1.18,7.93,7.93,0,0,0,1,1,9.76,9.76,0,0,1,.8,1.14A3.57,3.57,0,0,1,67,28.15a3.54,3.54,0,0,0,.1-1.14,3,3,0,0,0-.74-1.82c-.2-.2-.93-1-.15-.89a4.69,4.69,0,0,1,1.91.91,4.79,4.79,0,0,1,1,.83,3.67,3.67,0,0,1,1,1.3,2.37,2.37,0,0,1-1.6,3.05,3.29,3.29,0,0,1-2.25-.81A7.79,7.79,0,0,1,64.39,28a4.15,4.15,0,0,1-.6-2.56,6,6,0,0,0-.2-1.52,6.91,6.91,0,0,0-.78-1.37A.11.11,0,0,1,62.84,22.44Z"/><path class="cls-32" d="M62,27a15.21,15.21,0,0,0,3.43,2.9,17.37,17.37,0,0,0,4.33,2.37s.13.15.06.14a14.09,14.09,0,0,1-4.39-2.26A11.66,11.66,0,0,1,62,27C61.94,27,62,27,62,27Z"/><path class="cls-17" d="M58.51,31.87A9.2,9.2,0,0,1,56,33S57.34,33.65,58.51,31.87Z"/><path class="cls-15" d="M23.25,21.88S18.2,13.48,30.64,5.6c0,0,7-4.44,14.24-1.39,11.88,5,9.3,18,13.76,21.41A12.27,12.27,0,0,1,44.88,21.2C39.16,13.73,23.25,21.88,23.25,21.88Z"/><path class="cls-33" d="M53.1,11.92a3.85,3.85,0,0,1-.28.83c-.45.89-1.47,1.42-2.3.64A9.46,9.46,0,0,1,49,11a7.64,7.64,0,0,0-2.65-2.65A14.34,14.34,0,0,0,38.7,6.21a19.23,19.23,0,0,0-14,5.81c-.08.08-.23,0-.18-.1a10.75,10.75,0,0,1,1-2.07c-5.64,6.38-2.25,12-2.25,12s15.91-8.15,21.63-.68a12.27,12.27,0,0,0,13.76,4.42C55.79,23.42,55.82,17.34,53.1,11.92Z"/><path class="cls-33" d="M57.19,23.79a7.21,7.21,0,0,1-4-.48c-.94-.37-2.26-.95-2.54-2a5.67,5.67,0,0,1,.57-3.4c.38-.95.86-1.85,1.27-2.79-.44.39-.9.75-1.3,1.18a.11.11,0,0,1-.18,0c-.25-.59-.6-1.11-.82-1.71a7.81,7.81,0,0,0-.89-1.92A17.28,17.28,0,0,0,46.12,9.2a10.56,10.56,0,0,0-7.33-1.92c-5.66.29-11.43,2.23-15.37,6.45-.05.06-.17.06-.18,0a2.88,2.88,0,0,1,0-.41,9.66,9.66,0,0,0,0,8.6s15.91-8.15,21.63-.68a12.27,12.27,0,0,0,13.76,4.42A5.45,5.45,0,0,1,57.19,23.79Z"/><path class="cls-34" d="M59.83,24.63a.56.56,0,0,0-.54-.32.79.79,0,0,0-.26-.54,1,1,0,0,0-1.16-.08,1.36,1.36,0,0,0-.3-.13,1.17,1.17,0,0,0-1.18.58,1,1,0,0,0,0,1.07,1.81,1.81,0,0,0-.45,1,.85.85,0,0,0,.74.94,1.25,1.25,0,0,0,.73-.09.9.9,0,0,0,1,.36,1.34,1.34,0,0,0,.91-1,1.43,1.43,0,0,0,.53-.59A1.2,1.2,0,0,0,59.83,24.63Z"/><path class="cls-21" d="M59,24.72a.39.39,0,0,0-.38-.22.51.51,0,0,0-.18-.37.66.66,0,0,0-.8-.06,1.33,1.33,0,0,0-.21-.09.82.82,0,0,0-.82.41.68.68,0,0,0,0,.74,1.22,1.22,0,0,0-.31.67.58.58,0,0,0,.51.65.85.85,0,0,0,.51-.06.61.61,0,0,0,.65.28,1,1,0,0,0,.66-.73,1,1,0,0,0,.37-.42A.81.81,0,0,0,59,24.72Z"/><path class="cls-35" d="M45.49,23.52A2.48,2.48,0,0,1,48,21.38c2.29-.15,2.46,6.34-1,6.44C45.5,27.85,45.49,23.52,45.49,23.52Z"/><path class="cls-36" d="M48,21.38a2.48,2.48,0,0,0-2.49,2.14s0,4.33,1.44,4.3C50.44,27.72,50.27,21.23,48,21.38Zm.45,4a1.51,1.51,0,0,1-.49-1.75,1.5,1.5,0,0,0-.51.74.1.1,0,0,1-.19,0,1.43,1.43,0,0,1,.63-1.86,1,1,0,0,1,.39-.08.66.66,0,0,1,.57.11,2,2,0,0,1,.4,2C49.16,24.77,48.93,25.65,48.43,25.34Z"/><path class="cls-21" d="M27.06,24.89a1.39,1.39,0,0,1-1.21,1.55c-1.37.22-4.7-4-4.49-6.86S24.54,11.1,33.14,8.72,48.5,10.28,50,15.27s-1.43,7.13-2.89,7.14-.06-6.34-7.77-6S26.51,20.82,27.06,24.89Z"/><path class="cls-22" d="M50,15.27a9.76,9.76,0,0,0-4.92-5.62,1.2,1.2,0,0,1,.22,1c-.19.89-1.07.9-1.82.71a20.43,20.43,0,0,0-4.4-.73A18.19,18.19,0,0,0,26.8,15.05a12.61,12.61,0,0,0-2.67,3.53,7.1,7.1,0,0,0-.73,2.24c-.08.77.05,1.54,0,2.31a.1.1,0,0,1-.16.07c-2-1.86-1.66-5.25-.43-7.44a13.28,13.28,0,0,1,.86-1.34,9.67,9.67,0,0,0-2.34,5.16c-.21,2.9,3.12,7.08,4.49,6.86a1.39,1.39,0,0,0,1.21-1.55c-.55-4.07,4.56-8.22,12.27-8.52s6.31,6.05,7.77,6S51.47,20.25,50,15.27Z"/><path class="cls-22" d="M50,15.27a7.84,7.84,0,0,0-.77-1.76,3.46,3.46,0,0,1-.69,3.18.1.1,0,0,1-.14,0,9.63,9.63,0,0,0-3.1-3.09A12.59,12.59,0,0,0,41,12.18a18.6,18.6,0,0,0-8.16.53,13.49,13.49,0,0,0-6.94,4.41c-1.71,2.21-2.65,5.12-1.28,7.74,0,.08,0,.18-.13.14a6,6,0,0,1-1.75-1.18c1,1.57,2.34,2.74,3.08,2.62a1.39,1.39,0,0,0,1.21-1.55c-.55-4.07,4.56-8.22,12.27-8.52s6.31,6.05,7.77,6S51.47,20.25,50,15.27Z"/><path class="cls-3" d="M22.58,17.07S26.8,7.22,41.4,8.53C41.4,8.53,28.42,7.76,22.58,17.07Z"/><path class="cls-35" d="M29,26.21a2.48,2.48,0,0,0-3-1.41c-2.25.47-.71,6.77,2.71,5.93C30.15,30.4,29,26.21,29,26.21Z"/><path class="cls-36" d="M29,26.21a2.48,2.48,0,0,0-3-1.41c-2.25.47-.71,6.77,2.71,5.93C30.15,30.4,29,26.21,29,26.21Zm-1.86,1.56c0,.59-.88.76-1-.45-.21.68.46,1.82.38,1.83-.71,0-.95-.64-1.12-1.22s-.36-1.91.58-2S27.14,27.19,27.16,27.77Z"/><path class="cls-35" d="M46.12,25.14A19,19,0,0,1,45,22.79c-.38-1.49-.68-4-1.76-5.19a5.14,5.14,0,0,0-3.33-1.42,13.09,13.09,0,0,0-8.11,1.49A9.6,9.6,0,0,0,29,20.16,5.46,5.46,0,0,0,28.34,24a21.93,21.93,0,0,1,.5,3.3c0,1.17-.56,2.27-.08,3.43,1.06,2.53,4.38,3.22,6.81,3.06a13.09,13.09,0,0,0,2.23-.35c3.11-.76,6.38-2.21,8-5.13A4.11,4.11,0,0,0,46.12,25.14Z"/><path class="cls-36" d="M46.12,25.14A19,19,0,0,1,45,22.79c-.38-1.49-.68-4-1.76-5.19a5.14,5.14,0,0,0-3.33-1.42,13.09,13.09,0,0,0-8.11,1.49A9.6,9.6,0,0,0,29,20.16,5.46,5.46,0,0,0,28.34,24a21.93,21.93,0,0,1,.5,3.3c0,1.17-.56,2.27-.08,3.43,1.06,2.53,4.38,3.22,6.81,3.06a13.09,13.09,0,0,0,2.23-.35c3.11-.76,6.38-2.21,8-5.13A4.11,4.11,0,0,0,46.12,25.14Zm-6.45,1.1a.93.93,0,0,1,0,.13.91.91,0,0,1-.18.37,3.35,3.35,0,0,1-2.7,1.06c-.56,0-2.34,0-2-1s2-1.51,3.1-1.54c.48,0,1.32-.1,1.64.37a.94.94,0,0,1,.16.53A.13.13,0,0,1,39.67,26.24ZM44.1,23.3a3.81,3.81,0,0,1-.62,2.08l0,0a5,5,0,0,1-2,1.4c-.26.12-1.36.7-1.57.23a2,2,0,0,1,.4-1.55A4,4,0,0,1,42.89,24a1.52,1.52,0,0,0-1-.43A5.15,5.15,0,0,1,43,22.89c.33-.19.12-.83,0-1.1v-.05s0,0,0,0h0a6.15,6.15,0,0,0-.34-.84c-.12-.19-.25-.36-.37-.54-.45-.46-.91-1-1.55-1.08a3.7,3.7,0,0,0-2.11.49c-.51.47-1,1.11-1.06,1s-.07-.37-.09-.55c-.57,1.54.46,3.85.15,4.2-.51.55-1.57.74-1.9.13,0-.07-.42-2.18-.58-2.64a2.33,2.33,0,0,0-.11-.28c0,.13-.19.48-.23.42a2.58,2.58,0,0,0-3.44-1,3.17,3.17,0,0,0-1.48,3.72c0,.08.1.62.24.56a1.33,1.33,0,0,1,.3-.11c.2,0,.69.09.64.16s-.28.41-.44.68a3.34,3.34,0,0,1,3,.21,2,2,0,0,1,.88,1.26.85.85,0,0,1-.06.63c-.56.92-2.36.24-3.06-.13a4,4,0,0,1-.5-.35,3.65,3.65,0,0,1-1.43-1.32,2.77,2.77,0,0,1-.33-1.53,5.58,5.58,0,0,1,.26-2.25,7.68,7.68,0,0,1,3.74-4.26,9.68,9.68,0,0,1,2-.91,8.52,8.52,0,0,1,7,1.06,5.32,5.32,0,0,1,2,3.74A6.82,6.82,0,0,1,44.1,23.3Z"/><path class="cls-37" d="M40.39,22.34A1.17,1.17,0,0,0,40,23.71c.16.57.62.88,1,.69A1.15,1.15,0,0,0,41.4,23C41.24,22.47,40.79,22.16,40.39,22.34Z"/><path class="cls-38" d="M40.54,22.76a.68.68,0,0,0-.25.8c.1.33.37.52.6.41a.68.68,0,0,0,.24-.8C41,22.83,40.77,22.65,40.54,22.76Z"/><path class="cls-3" d="M40.37,22.68a.26.26,0,0,0-.17.26c0,.13.08.22.17.21a.25.25,0,0,0,.17-.26C40.54,22.76,40.46,22.67,40.37,22.68Z"/><path class="cls-3" d="M40.26,23.38s-.07.1,0,.17.09.11.14.08a.16.16,0,0,0,0-.17C40.37,23.39,40.31,23.35,40.26,23.38Z"/><path class="cls-37" d="M32.18,23.68a1.17,1.17,0,0,0-.41,1.37c.16.56.62.88,1,.69a1.16,1.16,0,0,0,.42-1.36C33,23.81,32.58,23.5,32.18,23.68Z"/><path class="cls-38" d="M32.33,24.09a.7.7,0,0,0-.25.81c.1.33.37.52.6.41a.69.69,0,0,0,.24-.81C32.83,24.17,32.56,24,32.33,24.09Z"/><path class="cls-3" d="M32.16,24a.24.24,0,0,0-.16.26c0,.13.07.22.16.2a.23.23,0,0,0,.17-.25C32.33,24.1,32.25,24,32.16,24Z"/><path class="cls-3" d="M32.05,24.71a.16.16,0,0,0,0,.18c0,.07.09.1.14.08a.14.14,0,0,0,0-.17C32.16,24.73,32.1,24.69,32.05,24.71Z"/><path class="cls-39" d="M38.23,22.18c.4.34.56.08.82-.29a1.76,1.76,0,0,1,2-.71,5.87,5.87,0,0,0,1.1.26c.64,0,.07-.89-.06-1a2.81,2.81,0,0,0-3.3-.56,1.64,1.64,0,0,0-.52.47C37.91,20.83,37.67,21.7,38.23,22.18Z"/><path class="cls-40" d="M42.27,20.66a.39.39,0,0,1-.19.16,1.25,1.25,0,0,1-.87-.08,2.11,2.11,0,0,0-1.54.11c-.4.21-.7.58-1.12.76a.38.38,0,0,1-.45-.11,1,1,0,0,1-.12-.56,1.13,1.13,0,0,0,.25,1.24c.4.34.56.08.82-.29a1.76,1.76,0,0,1,2-.71,5.87,5.87,0,0,0,1.1.26C42.62,21.47,42.45,21,42.27,20.66Z"/><path class="cls-3" d="M38.13,20.86a1.73,1.73,0,0,1,1.57-1.18,2.94,2.94,0,0,1,2.41.94,3.29,3.29,0,0,0-2.34-.74A2.23,2.23,0,0,0,38.13,20.86Z"/><path class="cls-41" d="M37.3,25.1a4,4,0,0,0-1.73.65V25.7c0-.1,0-.19,0-.3a5.58,5.58,0,0,1-.09-.59s-.05,0-.05,0c0,.2,0,.4,0,.6s0,.28,0,.42a1.67,1.67,0,0,0-.36.34,1.18,1.18,0,0,0-.47,1.1c.11.75,1.14,1.06,1.76,1.11a4.33,4.33,0,0,0,2.75-.74s.07-.14,0-.11a3.83,3.83,0,0,1-3.58.28,1.07,1.07,0,0,1-.67-.91c0-.42.48-.78.8-1a4.58,4.58,0,0,1,3.18-.58,1,1,0,0,1,.66.34,1,1,0,0,1,0,.87s0,0,0,0C40.47,25,38.46,25,37.3,25.1Z"/><path class="cls-39" d="M33.25,21.15a1.66,1.66,0,0,0-.69-.15A2.8,2.8,0,0,0,30,23.16c0,.19-.06,1.28.47.92a5,5,0,0,0,.81-.78,1.77,1.77,0,0,1,2.1-.4c.41.19.68.33.85-.17C34.47,22,33.83,21.41,33.25,21.15Z"/><path class="cls-40" d="M34.21,22.07a.32.32,0,0,1-.25.32c-.41.11-.65-.26-1-.28a2.46,2.46,0,0,0-1.57.48c-.29.26-.81,1-1.26.71a.39.39,0,0,1-.1-.08c0,.28,0,1.19.48.86a5,5,0,0,0,.81-.78,1.77,1.77,0,0,1,2.1-.4c.41.19.68.33.85-.17A.94.94,0,0,0,34.21,22.07Z"/><path class="cls-3" d="M30.16,23s.21-1.35,2.2-1.77c0,0,1.23-.22,1.66.74a2.11,2.11,0,0,0-2.19-.37A3,3,0,0,0,30.16,23Z"/><path class="cls-39" d="M54.54,30.5a9.06,9.06,0,0,0-3.92-3.4A11.18,11.18,0,0,1,46.38,24a8,8,0,0,1-1.49-2.68c-.47-.3-.51,2.36-.61,3-.51,3-4.42,3.61-6.83,4.05-2.23.41-4.2,1-6.43.09a7,7,0,0,1-2.23-2.25c-.06-.42-.23-1.3-.75-1.36,0,0-.11.12-.07.14h0c.63,1.91-.41,4.43-1.52,6-.94,1.29-2.29,2.21-3.34,3.41A5.34,5.34,0,0,0,21.76,37a4.38,4.38,0,0,0,0,1.94c0,.12.58.89.68.87a5.26,5.26,0,0,0-.08,1.54,6.07,6.07,0,0,0,1.5,3.18,1.1,1.1,0,0,0,1.19.41q.09.27.21.54a6.49,6.49,0,0,0,2.76,2.73,8.34,8.34,0,0,0,4,1,8.77,8.77,0,0,0,2,.81,15.11,15.11,0,0,0,6.82.13,12.55,12.55,0,0,0,5-2.42,8.07,8.07,0,0,0,1.27-.4,8.3,8.3,0,0,0,3.16-2.53,12.77,12.77,0,0,0,1.78-2.65c1.87-.65,2.74-3.67,3.08-5.38a6.49,6.49,0,0,0-.35-3.32A3.2,3.2,0,0,0,54.54,30.5Z"/><path class="cls-40" d="M54.54,30.5a9.06,9.06,0,0,0-3.92-3.4A11.18,11.18,0,0,1,46.38,24a8,8,0,0,1-1.49-2.68c-.47-.3-.51,2.36-.61,3-.51,3-4.42,3.61-6.83,4.05-2.23.41-4.2,1-6.43.09a7,7,0,0,1-2.23-2.25c-.06-.42-.23-1.3-.75-1.36,0,0-.11.12-.07.14h0c.63,1.91-.41,4.43-1.52,6-.94,1.29-2.29,2.21-3.34,3.41A5.34,5.34,0,0,0,21.76,37a4.38,4.38,0,0,0,0,1.94c0,.12.58.89.68.87a5.26,5.26,0,0,0-.08,1.54,6.07,6.07,0,0,0,1.5,3.18,1.1,1.1,0,0,0,1.19.41q.09.27.21.54a6.49,6.49,0,0,0,2.76,2.73,8.34,8.34,0,0,0,4,1,8.77,8.77,0,0,0,2,.81,15.11,15.11,0,0,0,6.82.13,12.55,12.55,0,0,0,5-2.42,8.07,8.07,0,0,0,1.27-.4,8.3,8.3,0,0,0,3.16-2.53,12.77,12.77,0,0,0,1.78-2.65c1.87-.65,2.74-3.67,3.08-5.38a6.49,6.49,0,0,0-.35-3.32A3.2,3.2,0,0,0,54.54,30.5Zm-4.18.83a2.9,2.9,0,0,0-2.11-1c1.75,1.81,2.21,5,.31,6.86a2.8,2.8,0,0,0,1.58-1.46c0-.07.17-.08.17,0a5.93,5.93,0,0,1-2,4.06,16,16,0,0,1-3.81,2.91c-.08,0-.14,0-.12-.11.12-.44.24-.87.32-1.31a8.29,8.29,0,0,1-4.54,2.86,10.45,10.45,0,0,1-3.72.74.09.09,0,0,1,0-.16,9.84,9.84,0,0,0,1.41-1.42,8.85,8.85,0,0,1-4.29,1.55,5.27,5.27,0,0,1-4.19-1.13,3.24,3.24,0,0,0,1.09,1.35.09.09,0,0,1-.09.16c-2-.6-4.07-1.89-4.69-4,0-.08.09-.13.15-.09a1.11,1.11,0,0,0,.83.18,5.74,5.74,0,0,1-1.76-3.05A5.76,5.76,0,0,1,25.41,35a3,3,0,0,0-1.34,1.82c0,.08-.14.12-.18,0-.58-1.37.64-2.66,1.56-3.58A20.53,20.53,0,0,0,28,30.59a6.58,6.58,0,0,0,1.24-2.9,3.62,3.62,0,0,0,2.61,2.39,16,16,0,0,0,5.4,0l.72-.12c.24-.08.52-.13.67-.18a9.37,9.37,0,0,0,1.55-.51c1.61-.84,3.33-1.68,4.19-3.33,0-.07.94,1.58,1.67,2.05a10.71,10.71,0,0,0,2.13.8C49.39,29.23,50.42,31.4,50.36,31.33Z"/><path class="cls-40" d="M54.54,30.5a8.4,8.4,0,0,0-3.35-3.09l.45.49a8.15,8.15,0,0,1,.9,1.4,16.92,16.92,0,0,1,1,3.38.1.1,0,0,1-.18.09,3.07,3.07,0,0,0-1.34-1,6.84,6.84,0,0,1,1.3,3.18,7.08,7.08,0,0,1-1.28,5,.11.11,0,0,1-.19,0,7.14,7.14,0,0,0-.28-1.39,7.74,7.74,0,0,1-1.43,4.09C49,44.21,47.31,46,45.32,46.43c-.08,0-.14-.07-.12-.14a4.9,4.9,0,0,0,.25-1.3,8.13,8.13,0,0,1-5.31,3.73,13.57,13.57,0,0,1-3.6.25A6.85,6.85,0,0,1,33,48.26a.1.1,0,0,1,0-.17A5.81,5.81,0,0,0,34.77,47a7.58,7.58,0,0,1-3.8.75c-1.72-.15-3.9-1-4.72-2.63a.11.11,0,0,1,.13-.14,1.59,1.59,0,0,0,.89,0c-.5-.5-1.21-.78-1.71-1.3a8.62,8.62,0,0,1-1.27-1.84,6.82,6.82,0,0,1-.78-4.19A4.8,4.8,0,0,0,23,38.87c0,.08-.15.08-.19,0a5.34,5.34,0,0,1,.39-4.67l-.1.11A5.34,5.34,0,0,0,21.76,37a4.38,4.38,0,0,0,0,1.94c0,.12.58.89.68.87a5.26,5.26,0,0,0-.08,1.54,6.07,6.07,0,0,0,1.5,3.18,1.1,1.1,0,0,0,1.19.41q.09.27.21.54a6.49,6.49,0,0,0,2.76,2.73,8.34,8.34,0,0,0,4,1,8.77,8.77,0,0,0,2,.81,15.11,15.11,0,0,0,6.82.13,12.55,12.55,0,0,0,5-2.42,8.07,8.07,0,0,0,1.27-.4,8.3,8.3,0,0,0,3.16-2.53,12.77,12.77,0,0,0,1.78-2.65c1.87-.65,2.74-3.67,3.08-5.38a6.49,6.49,0,0,0-.35-3.32A3.2,3.2,0,0,0,54.54,30.5Z"/><path class="cls-39" d="M43,12.3c.07-.07.12-.18.08-.24-.74-1.07-3.41-1.13-4.5-.92a6.06,6.06,0,0,0-2,.79,1.17,1.17,0,0,0-.52.48c.13-.29.22-.62.32-.92a.1.1,0,0,0,0-.12l-.08-.08s-.06,0-.08,0a2.74,2.74,0,0,0-1,.85,2.59,2.59,0,0,0-.13.25c-.11-.38-.33-.73-.75-.72-.06,0-.11.08-.13.13a2.26,2.26,0,0,0,0,.9c0-.38-1.07-.18-1.28-.14-.87.15-2.43.48-3,1.25,0,0-.07.11,0,.13L30,14a9.64,9.64,0,0,0-4.76,4.19,2.88,2.88,0,0,0-.45,1,6.9,6.9,0,0,0-.15,3.66c.17.77.85,2.85,1.79,2.92.13,0,.22-.21.24-.31a2.28,2.28,0,0,0,0-.26,3,3,0,0,0,.53.63,4.7,4.7,0,0,0,1.45,1.4,13.19,13.19,0,0,0,.1-2.21,6.88,6.88,0,0,1,1-4.22c1.77-3.38,6.43-4.77,10-3.77,1.85.52,3.83,1.39,4.4,3.41.13.49.3,3.06.32,3.58,0,1.24,3.18-1.65,3-6.48A6.13,6.13,0,0,0,43,12.3Z"/><path class="cls-40" d="M43,12.3c.07-.07.12-.18.08-.24-.74-1.07-3.41-1.13-4.5-.92a6.06,6.06,0,0,0-2,.79,1.17,1.17,0,0,0-.52.48c.13-.29.22-.62.32-.92a.1.1,0,0,0,0-.12l-.08-.08s-.06,0-.08,0a2.74,2.74,0,0,0-1,.85,2.59,2.59,0,0,0-.13.25c-.11-.38-.33-.73-.75-.72-.06,0-.11.08-.13.13a2.26,2.26,0,0,0,0,.9c0-.38-1.07-.18-1.28-.14-.87.15-2.43.48-3,1.25,0,0-.07.11,0,.13L30,14a9.64,9.64,0,0,0-4.76,4.19,2.88,2.88,0,0,0-.45,1,6.9,6.9,0,0,0-.15,3.66c.17.77.85,2.85,1.79,2.92.13,0,.22-.21.24-.31a2.28,2.28,0,0,0,0-.26,3,3,0,0,0,.53.63,4.7,4.7,0,0,0,1.45,1.4,13.19,13.19,0,0,0,.1-2.21,6.88,6.88,0,0,1,1-4.22c1.77-3.38,6.43-4.77,10-3.77,1.85.52,3.83,1.39,4.4,3.41.13.49.3,3.06.32,3.58,0,1.24,3.18-1.65,3-6.48A6.13,6.13,0,0,0,43,12.3Zm3.9,6.26a3.76,3.76,0,0,1-1,2.71.11.11,0,0,1-.17-.06,8.39,8.39,0,0,0-.63-2.36,1.35,1.35,0,0,1-.26.9.11.11,0,0,1-.17,0,18,18,0,0,0-1.29-2.08,9.45,9.45,0,0,0-1.63-1.53,7.2,7.2,0,0,0-2.34-1.22,1.64,1.64,0,0,1,.8,1.25.11.11,0,0,1-.14.12,8.94,8.94,0,0,0-4.56-.3,14.91,14.91,0,0,0-4,1.8.11.11,0,0,1-.15-.1,2.84,2.84,0,0,1,.45-1.14,6.74,6.74,0,0,0-.62.47,10.12,10.12,0,0,0-1.89,2.29A14.34,14.34,0,0,0,28,22.18a7.49,7.49,0,0,0-.34,1.49A12,12,0,0,1,27.5,25a.1.1,0,0,1-.18,0,4,4,0,0,1-.68-2.45,8.07,8.07,0,0,1,.51-2.75c-.93,1.18-.65,3-1.23,4.32a.1.1,0,0,1-.17,0A4.5,4.5,0,0,1,25,21.3,6.23,6.23,0,0,1,27.63,16a14.3,14.3,0,0,1,3-1.64l-.2-.1c-.06,0-.1-.13,0-.18a5.61,5.61,0,0,1,2.89-.82,8,8,0,0,1,2.48.41,5.39,5.39,0,0,1,2.08-1.22c1.19-.38,3-1,4.12-.21a.1.1,0,0,1,0,.19,2.82,2.82,0,0,0-.88.27A7,7,0,0,1,46,15.54,5,5,0,0,1,46.85,18.56Z"/><path class="cls-17" d="M27.17,8.66S33.83,1.77,43.55,4c0,0,6.55,2.33,8.8,7.14,0,0-5.2-7.28-13.89-6.94A19.18,19.18,0,0,0,27.17,8.66Z"/><path class="cls-42" d="M37.42,25.41s-2.41.5-2.18,1.48,3.45.3,3.8-.73S37.52,25.37,37.42,25.41Z"/><path class="cls-43" d="M36.59,25.85s-.87.18-.79.53,1.25.11,1.37-.26S36.62,25.83,36.59,25.85Z"/><path class="cls-41" d="M41.28,24.37A7.29,7.29,0,0,1,42.5,24a2.58,2.58,0,0,0-2.3,1A4,4,0,0,1,41.28,24.37Z"/><path class="cls-41" d="M32.33,25.86a7,7,0,0,0-1.29,0,2.57,2.57,0,0,1,2.5.19A4.2,4.2,0,0,0,32.33,25.86Z"/><path class="cls-42" d="M43,24.12a3.87,3.87,0,0,0-2.72,1.71A15.31,15.31,0,0,1,43,24.12Z"/><path class="cls-42" d="M30.79,26.16a3.89,3.89,0,0,1,3.13.73A14.88,14.88,0,0,0,30.79,26.16Z"/><path class="cls-40" d="M33,29.81s5.39,1.6,9.49-1.81c0,0,.6,3.84-3.83,4.92A4.58,4.58,0,0,1,33,29.81Z"/><path class="cls-44" d="M33.38,29.73s4.95,1.47,8.72-1.66c0,0,.55,3.53-3.52,4.52A4.21,4.21,0,0,1,33.38,29.73Z"/><path class="cls-45" d="M39,31.37a5.92,5.92,0,0,0-2.72,1.25,4.6,4.6,0,0,0,2.33,0,5,5,0,0,0,2.34-1.19A4.76,4.76,0,0,0,39,31.37Z"/><path class="cls-46" d="M39.39,30.59a4.81,4.81,0,0,0,2.72-2.43.31.31,0,0,0,0-.09A9.69,9.69,0,0,1,34.67,30C35,31.73,38.2,31.07,39.39,30.59Z"/><path class="cls-47" d="M38.41,31.66s-1.62.45-1.36.8,1.92-.12,2.1-.64C39.25,31.52,38.41,31.66,38.41,31.66Z"/><path class="cls-39" d="M36,29.86c.4-.23.82-.44,1.21-.68.2-.13.84-.39.47-.78a1.25,1.25,0,0,0-.44-.32L37.12,28,37,28a10.7,10.7,0,0,0-1.29-.34,7.66,7.66,0,0,0-3.88-.3,6.74,6.74,0,0,0-2.73,2.15,3,3,0,0,1-2,1.08c-1.58.19-1.46-1.74-.31-2.38,0,0,.17-.25.07-.23h0a3,3,0,0,0-2.55,2.9c.08,2.31,2.61,3.69,4.68,3.88,2.35.22,4.15-2.55,5.63-3.93A6.15,6.15,0,0,1,36,29.86Z"/><path class="cls-40" d="M27.15,30.58c-1.58.19-1.46-1.74-.31-2.38a.38.38,0,0,0,.08-.11c-.78.34-1.66,1.25-1.19,2.12a1.46,1.46,0,0,0,1.69.77,7.4,7.4,0,0,0,2.93-2.19,4.4,4.4,0,0,1,3.58-1.36,26.16,26.16,0,0,1,2.62.47l.58.12h0L37,28a10.7,10.7,0,0,0-1.29-.34,7.66,7.66,0,0,0-3.88-.3,6.74,6.74,0,0,0-2.73,2.15A3,3,0,0,1,27.15,30.58Z"/><path class="cls-40" d="M33.89,29.9a8.57,8.57,0,0,0-1.62,1.62,3.28,3.28,0,0,1-1.13.82,3.79,3.79,0,0,0,.44-1.53,11.8,11.8,0,0,1-1.16,1.46,2.79,2.79,0,0,1-1.69.73,4.16,4.16,0,0,1-3.1-1.14,2.2,2.2,0,0,1,.23-3.51,2.74,2.74,0,0,0-1.51,2.52c.08,2.31,2.61,3.69,4.68,3.88,2.35.22,4.15-2.55,5.63-3.93a6.15,6.15,0,0,1,1.37-1c.4-.23.82-.44,1.21-.68.17-.11.62-.3.58-.58A5.68,5.68,0,0,0,33.89,29.9Z"/><path class="cls-39" d="M40,29.19c-.45-.08-.91-.15-1.37-.25-.23-.05-.92-.1-.69-.59a1.35,1.35,0,0,1,.31-.44l.12-.11.06-.05A10.17,10.17,0,0,1,39.58,27a7.62,7.62,0,0,1,3.57-1.55,6.85,6.85,0,0,1,3.28,1.15,3.06,3.06,0,0,0,2.23.38c1.56-.34.82-2.12-.47-2.36,0,0-.24-.18-.15-.19h0a2.93,2.93,0,0,1,3.35,1.91c.67,2.21-1.28,4.34-3.17,5.19-2.15,1-4.75-1.07-6.6-1.9A7.58,7.58,0,0,0,40,29.19Z"/><path class="cls-40" d="M48.66,27c1.56-.34.82-2.12-.47-2.36a.38.38,0,0,1-.11-.07c.84.07,2,.64,1.81,1.61a1.49,1.49,0,0,1-1.35,1.29,7.58,7.58,0,0,1-3.49-1.13,4.38,4.38,0,0,0-3.82-.13,25,25,0,0,0-2.32,1.3c-.18.09-.35.2-.52.3h0l.06-.05A10.17,10.17,0,0,1,39.58,27a7.62,7.62,0,0,1,3.57-1.55,6.85,6.85,0,0,1,3.28,1.15A3.06,3.06,0,0,0,48.66,27Z"/><path class="cls-40" d="M42.07,28.54a8.47,8.47,0,0,1,2,1,3.44,3.44,0,0,0,1.34.42,3.86,3.86,0,0,1-.91-1.32,11.4,11.4,0,0,0,1.57,1A2.81,2.81,0,0,0,48,29.8a4.2,4.2,0,0,0,2.57-2.08,2.21,2.21,0,0,0-1.36-3.25,2.78,2.78,0,0,1,2.25,1.89c.67,2.21-1.28,4.34-3.17,5.19-2.15,1-4.75-1.07-6.6-1.9A7.58,7.58,0,0,0,40,29.19c-.45-.08-.91-.15-1.37-.25-.18,0-.67-.08-.73-.35A5.64,5.64,0,0,1,42.07,28.54Z"/></g></g></g></svg>