<svg xmlns="http://www.w3.org/2000/svg" viewBox="0 0 106.83 127.9"><defs><style>.cls-1{fill:#f4aa78;}.cls-2{fill:#edf1f4;}.cls-3{fill:#f42c61;}.cls-4{fill:#f97a23;}.cls-5{fill:#ce114b;}.cls-6{fill:#f94823;}.cls-7{fill:#c3dae5;}.cls-8{fill:#f99123;}.cls-9{fill:#fc5186;}.cls-10{fill:#e2915a;}.cls-11{fill:#3a1c03;}</style></defs><g id="Layer_2" data-name="Layer 2"><g id="OBJECTS"><path class="cls-1" d="M11.73,67.39a.27.27,0,0,1-.12,0,.28.28,0,0,1-.12-.16,20,20,0,0,1-.07-11.55c1.29-4.34,3.93-6.93,7.07-6.93a4.89,4.89,0,0,1,.75.05.22.22,0,0,1,.17.09.27.27,0,0,1,.05.19,51.54,51.54,0,0,0-.64,7.22.29.29,0,0,1-.11.2.3.3,0,0,1-.14.05l-.09,0a6.36,6.36,0,0,0-2.22-.43,4,4,0,0,0-1.57.3,10.49,10.49,0,0,1,3.71,1.09.53.53,0,0,0,.19,0,.25.25,0,0,1,.21.25V58a.26.26,0,0,1-.08.19.28.28,0,0,1-.17.07h0a2.86,2.86,0,0,0-2.63,3.08,2.33,2.33,0,0,0,2.52,2.19,3.4,3.4,0,0,0,.45,0h0a.25.25,0,0,1,.16.06.22.22,0,0,1,.09.17c.1.85.21,1.7.35,2.53a.25.25,0,0,1-.07.21.25.25,0,0,1-.18.08h0a16.61,16.61,0,0,0-1.74-.09,18,18,0,0,0-5.66.93Z"/><path class="cls-2" d="M23,67.44a.15.15,0,0,1-.09,0,14.42,14.42,0,0,0-2.64-.74.26.26,0,0,1-.2-.21A53.31,53.31,0,0,1,20.81,45a.26.26,0,0,1,.24-.19c1.47,0,3,0,4.83.17a.21.21,0,0,1,.19.11.24.24,0,0,1,0,.22,65.47,65.47,0,0,0-2.9,21.84.23.23,0,0,1-.1.21A.28.28,0,0,1,23,67.44Z"/><path class="cls-2" d="M39.69,51.68a11,11,0,0,1-2.94-.57L36.41,51l-.52-.15c-2-.52-4.64-1.24-4.85-3.56a3.17,3.17,0,0,1,.83-2.4A2.51,2.51,0,0,1,33.71,44l.37,0a8.56,8.56,0,0,1,2.38.89l.64.32c1.43.68,4.4,2.12,4.81,3.95A2,2,0,0,1,41.43,51a2.09,2.09,0,0,1-1.73.66Z"/><path class="cls-1" d="M63.73,74.07a.24.24,0,0,1-.22-.12l0,0a9.43,9.43,0,0,0-8-4.69,8.25,8.25,0,0,0-4.42,1.29.28.28,0,0,1-.13,0,.25.25,0,0,1-.21-.12,7.33,7.33,0,0,0-6.18-2.8,8.43,8.43,0,0,0-5,1.54.27.27,0,0,1-.15,0,.25.25,0,0,1-.19-.09A7.88,7.88,0,0,0,33,66.24a10.62,10.62,0,0,0-5.46,1.62A11.43,11.43,0,0,0,26,69a.27.27,0,0,1-.17.06.3.3,0,0,1-.15,0,11.71,11.71,0,0,0-1.84-1.14.26.26,0,0,1-.14-.22,65,65,0,0,1,2.94-22.4.26.26,0,0,1,.24-.17h0l2.8.21,1,.07a.27.27,0,0,1,.19.11.29.29,0,0,1,0,.22,3.51,3.51,0,0,0,0,2.8c.7,1.39,2.6,2.15,4.55,2.78l.15,0a14.23,14.23,0,0,0,4.06.85,2.29,2.29,0,0,0,2.27-1c.8-1.55.31-3-1.48-4.39a.25.25,0,0,1-.08-.29.25.25,0,0,1,.23-.16h0c4.91.55,9.81,1.19,14.56,1.92a.25.25,0,0,1,.21.22.26.26,0,0,1-.15.26c-2.09.89-2.93,2.16-2.56,3.86.28,1.26,1.77,1.88,4.54,1.88.64,0,1.23,0,1.7-.06h.36c1.66-.08,3.7-.32,4.74-1.49a3.5,3.5,0,0,0,.74-2.7.29.29,0,0,1,.09-.21.23.23,0,0,1,.16-.06h0l.12,0c1.21.23,2.42.46,3.64.71a.25.25,0,0,1,.2.23,65.07,65.07,0,0,1-2.94,22.37.24.24,0,0,1-.19.17,11.62,11.62,0,0,0-2.14.66Z"/><path class="cls-2" d="M57.44,53.9a7.25,7.25,0,0,1-3.51-.71A1.38,1.38,0,0,1,53.1,52c0-1.09,1.27-2.27,1.95-2.66a11.76,11.76,0,0,1,3.61-1.08l.65-.12a13.07,13.07,0,0,1,2.32-.3c1.7,0,2.57.84,2.76,2.64a2.71,2.71,0,0,1-.57,2.14c-1,1.17-3.16,1.23-4.71,1.27l-.5,0Z"/><path class="cls-1" d="M73.09,70.25a2.58,2.58,0,0,1-1-.24.24.24,0,0,1-.13-.32c.46-1.24.85-2.41,1.19-3.56a.25.25,0,0,1,.14-.16.26.26,0,0,1,.2,0A2.37,2.37,0,0,1,75,68.74a1.86,1.86,0,0,1-1.86,1.51Z"/><path class="cls-2" d="M67,73.22a.28.28,0,0,1-.19-.09.22.22,0,0,1,0-.23,65.28,65.28,0,0,0,2.84-21.81.27.27,0,0,1,.09-.21.23.23,0,0,1,.16-.06h0c1.83.38,3.32.72,4.71,1.09a.25.25,0,0,1,.18.25A53.31,53.31,0,0,1,70,73a.25.25,0,0,1-.22.15h0c-.41,0-.81-.06-1.21-.06a13,13,0,0,0-1.54.09Z"/><path class="cls-2" d="M65.68,95.06a27.29,27.29,0,0,1-13.42-4A21.11,21.11,0,0,1,46,85.58a8,8,0,0,1-.52-.85c-.53-1-1.34-2.39-2.22-2.39a1,1,0,0,0-.32.06,10,10,0,0,0-2.86,2.08A14.33,14.33,0,0,1,38,86.2,23.46,23.46,0,0,1,30.42,89a26.08,26.08,0,0,1-5.56.6,22.55,22.55,0,0,1-11.58-3,15,15,0,0,1-1.86-1.38.73.73,0,0,1-.3-.66c.07-.73,1.2-1.43,2.18-2l.11-.06a14.38,14.38,0,0,0,2.38-1.76,45.3,45.3,0,0,0,4.76-5l1.29-1.5.78-.89c1.84-2.14,3.75-4.34,6.23-5.66a8.56,8.56,0,0,1,4-1,7.81,7.81,0,0,1,6,2.79.25.25,0,0,1,0,.33,4.73,4.73,0,0,0-1.08,1.89,4.21,4.21,0,0,0,1,3.58,9,9,0,0,0,6.69,2.63h0a6.72,6.72,0,0,0,5.32-2,4.37,4.37,0,0,0,.7-3.86,4.26,4.26,0,0,0-.23-.74.24.24,0,0,1,.1-.31,7.63,7.63,0,0,1,4.16-1.27,9.26,9.26,0,0,1,6.41,2.91c1.89,1.85,3.17,4.68,4.3,7.16.33.73.65,1.44,1,2.1l.49,1A32.65,32.65,0,0,0,71.14,89c.06.09.21.24.4.45,1.19,1.25,2.44,2.65,2.31,3.47a.64.64,0,0,1-.36.47,15.51,15.51,0,0,1-4.62,1.41,18.47,18.47,0,0,1-3.19.27Z"/><path class="cls-3" d="M42.61,91.81a6,6,0,0,1-6-4.09.24.24,0,0,1,.12-.3A20.28,20.28,0,0,0,41,84.55l.31-.3a2.91,2.91,0,0,1,1.81-1.13,1.31,1.31,0,0,1,1.06.6,8,8,0,0,1,.63,1c.12.21.24.42.37.61a16.69,16.69,0,0,0,1.87,2.34c.4.43.84.85,1.33,1.29a.21.21,0,0,1,.08.17.23.23,0,0,1-.06.18,8,8,0,0,1-5.83,2.5Z"/><path class="cls-4" d="M45.74,77.46c-2.16,0-5.18-.81-6.69-2.61a3.54,3.54,0,0,1-.84-3c.69-2.32,2.85-3.69,5.78-3.69a9.07,9.07,0,0,1,5.4,1.71A3.9,3.9,0,0,1,51,73.78a4.75,4.75,0,0,1-3.52,3.49A6.91,6.91,0,0,1,45.74,77.46Z"/><path class="cls-1" d="M18.36,63.06a1.88,1.88,0,0,1-2-1.83,2.37,2.37,0,0,1,2.15-2.48h0a.25.25,0,0,1,.16.06.23.23,0,0,1,.09.19c0,1.21.11,2.43.23,3.75a.22.22,0,0,1-.06.19.23.23,0,0,1-.18.09,3.27,3.27,0,0,1-.45,0Z"/><path class="cls-2" d="M37.71,126.9c-1.11,0-1.94-1.64-2.5-2.72-.13-.26-.24-.48-.33-.62a20,20,0,0,0-5.07-4.93,64.17,64.17,0,0,0-7.67-4.58c-1.81-1-3.67-2-5.44-3.07a33.34,33.34,0,0,1-9.57-8.47,8.81,8.81,0,0,1-1.9-6.75c.39-2.36,1.95-4.53,4.5-6.3a.37.37,0,0,0,.14-.29.18.18,0,0,0-.1-.15,7.12,7.12,0,0,0-3-.69,8.82,8.82,0,0,0-5.55,2.24.28.28,0,0,1-.16.05.2.2,0,0,1-.1,0,.25.25,0,0,1-.15-.21A11.66,11.66,0,0,1,10.84,77.64a.15.15,0,0,0,.13-.12.35.35,0,0,0-.12-.34A12.31,12.31,0,0,0,3.79,75H3.22A.25.25,0,0,1,3,74.93a.3.3,0,0,1,0-.26c2.77-4.56,8.74-7.75,14.54-7.75a12.81,12.81,0,0,1,7.7,2.38.22.22,0,0,1,.1.18.24.24,0,0,1-.07.2c-.39.37-.76.76-1.13,1.16a.22.22,0,0,1-.18.08.28.28,0,0,1-.13,0,12,12,0,0,0-6-1.91,7,7,0,0,0-1.39.13q.36,0,.72,0a12.48,12.48,0,0,1,6.43,2,.25.25,0,0,1,.11.17.23.23,0,0,1-.06.21l-1,1.2-1.09,1.27-1.2,1.37a54.57,54.57,0,0,1-5.37,5.61A10.8,10.8,0,0,1,13.19,82c-1.28.7-2.6,1.42-2.83,2.59-.2,1,2.52,2.43,3.42,2.91l.3.16a21.76,21.76,0,0,0,10.6,2.44,33.85,33.85,0,0,0,3.86-.23,25.3,25.3,0,0,0,7.31-2,.19.19,0,0,1,.1,0l.1,0a.29.29,0,0,1,.14.15A6.69,6.69,0,0,0,42.7,92.3a8.34,8.34,0,0,0,6.15-2.69.25.25,0,0,1,.19-.09.22.22,0,0,1,.15.06,28.6,28.6,0,0,0,3.94,2.6,26.47,26.47,0,0,0,12.76,3.31c.61,0,1.22,0,1.81-.06a17.55,17.55,0,0,0,6.07-1.63c.5-.23.78-.5.85-.82.13-.58-.41-1.33-1-2a37.82,37.82,0,0,1-5-7.22c-.49-1-1-1.9-1.44-2.86-.74-1.48-1.5-3-2.3-4.5a.26.26,0,0,1,0-.23.2.2,0,0,1,.11-.11l-.14,0a.24.24,0,0,1-.21-.13c-.16-.3-.33-.59-.5-.88L64,74.82a.3.3,0,0,1,0-.21.31.31,0,0,1,.15-.15,12.36,12.36,0,0,1,4.47-.82c6.83,0,13.9,5.27,15.77,11.73a.25.25,0,0,1-.07.25.23.23,0,0,1-.17.07h-.08a13.24,13.24,0,0,0-3.92-.61,11.84,11.84,0,0,0-4,.69.35.35,0,0,0-.2.29.16.16,0,0,0,.1.16,11.65,11.65,0,0,1,6.41,14.91.24.24,0,0,1-.2.17h0a.25.25,0,0,1-.2-.1,8.2,8.2,0,0,0-6.57-3.83,7.45,7.45,0,0,0-1.32.12.17.17,0,0,0-.13.11.33.33,0,0,0,0,.32c2.55,3,4.88,7.42,1.54,11.66-2.28,2.9-6,4.62-9.4,5.92a70.06,70.06,0,0,1-9.41,2.62c-5.39,1.23-11,2.5-15.38,5.87a18.54,18.54,0,0,0-1.74,1.57c-.34.33-.67.65-1,1a1.35,1.35,0,0,1-.91.39Zm30-51.09a18.88,18.88,0,0,1,3.52.35,12.83,12.83,0,0,0-3.18-.38,14.94,14.94,0,0,0-1.86.11A15.16,15.16,0,0,1,67.71,75.81Z"/><path class="cls-1" d="M77.86,76.08a.33.33,0,0,1-.13,0A17.61,17.61,0,0,0,70.8,73.3a.26.26,0,0,1-.19-.13.24.24,0,0,1,0-.22c.34-.76.66-1.54,1-2.34a.25.25,0,0,1,.13-.14l.1,0,.1,0a3.1,3.1,0,0,0,1.21.26,2.27,2.27,0,0,0,2.16-1.45,2.84,2.84,0,0,0-1.62-3.76.35.35,0,0,1-.21-.12.28.28,0,0,1-.07-.21l.06-.25a.25.25,0,0,1,.24-.18h.13A10.38,10.38,0,0,1,76,64.53a11.71,11.71,0,0,1,1.74.13,4.85,4.85,0,0,0-3-.88c-.24,0-.47,0-.71,0h0a.24.24,0,0,1-.24-.31,53,53,0,0,0,1.24-7.13.31.31,0,0,1,.09-.18.3.3,0,0,1,.16,0h0c4.3.62,5.5,4.85,5.76,8.29a19.39,19.39,0,0,1-3,11.53.26.26,0,0,1-.16.11Z"/><path class="cls-2" d="M81.08,60.85a.26.26,0,0,1-.18-.17c-1-2.94-2.84-4.63-5.53-5a.25.25,0,0,1-.21-.27c.08-1,.13-2,.14-2.94a.23.23,0,0,1,.1-.2.25.25,0,0,1,.15-.05h.06a44.47,44.47,0,0,1,4.67,1.58h0a.2.2,0,0,0,.21-.16.27.27,0,0,0-.17-.34,77,77,0,0,0-14.49-3.76l-1-.19a.28.28,0,0,1-.2-.18c-.37-1.24-1.33-1.82-3-1.82a15.24,15.24,0,0,0-2.66.32c-.5.09-1.07.21-1.66.35h-.12c-6-1-12.22-1.78-18.44-2.44l-1.57-.78a9.48,9.48,0,0,0-3.75-1.18,2.29,2.29,0,0,0-2.11,1.17.25.25,0,0,1-.21.12l-1.45-.1c-2.81-.21-5.72-.43-8.58-.43a41,41,0,0,0-6.05.41.15.15,0,0,0-.15.18.32.32,0,0,0,.29.29,39.91,39.91,0,0,1,4.8-.37h0a.25.25,0,0,1,.19.09.26.26,0,0,1,.05.22c-.23.91-.45,1.89-.63,2.9a.27.27,0,0,1-.25.21h0a5.73,5.73,0,0,0-.82,0,6.82,6.82,0,0,0-5.75,3.36.26.26,0,0,1-.2.11h0a.23.23,0,0,1-.21-.13c-2.09-3.89-1.51-9.62.15-13.27,2.13-4.7,7-6.58,10.8-7.34A54.39,54.39,0,0,1,34,30a123.41,123.41,0,0,1,17.69,1.57c7.48,1.1,17.17,2.91,25.81,7.2,4.47,2.22,6.85,5.18,7.27,9,.46,4.24-.59,10.06-3.48,13a.24.24,0,0,1-.18.07Z"/><path class="cls-3" d="M100.42,65.38l-.1,0a12.21,12.21,0,0,0-4.38-1h-.4a9.49,9.49,0,0,0-3.82.78.18.18,0,0,1-.1,0,.31.31,0,0,1-.13,0,.28.28,0,0,1-.12-.19c-.47-4.6-1.53-9.31-6.09-12.64a.25.25,0,0,1-.1-.23c.11-1,.16-2.08.17-3.14A10.33,10.33,0,0,0,81,40.33c-3.85-2.84-8.62-4.41-13.18-5.78A117,117,0,0,0,51.15,31a121.65,121.65,0,0,0-16.66-1.3h-1.2c-4.22,0-9.11.2-13.45,1.71a16.3,16.3,0,0,0-2,.91.24.24,0,0,1-.12,0,.22.22,0,0,1-.13,0,.25.25,0,0,1-.12-.22A30.39,30.39,0,0,1,23,16a18.12,18.12,0,0,1,6.73-5.51A16.42,16.42,0,0,0,32.94,8a19.68,19.68,0,0,1,2.66-2.2C38.42,3.91,42.16,3,45.46,2.17A49.84,49.84,0,0,1,56.12.84q.8,0,1.59,0a50.22,50.22,0,0,1,16.62,2.8A43.83,43.83,0,0,1,99.2,25.32c6.23,12.68,6.77,27.6,1.45,39.91a.25.25,0,0,1-.14.13A.15.15,0,0,1,100.42,65.38Z"/><path class="cls-2" d="M95.33,85.16a8.81,8.81,0,0,1-6.5-2.74,10.93,10.93,0,0,1-2.86-8c.69-5.76,4.6-9.51,10-9.58h.12a10,10,0,0,1,4.48,1.05c.11.08.15.1.17.1a10.14,10.14,0,0,1,5.36,8.47,9.76,9.76,0,0,1-2.66,7.13,11.13,11.13,0,0,1-7.76,3.55Z"/><path class="cls-5" d="M34.49,29.68A121.65,121.65,0,0,1,51.15,31a117,117,0,0,1,16.7,3.57c4.56,1.37,9.33,2.94,13.18,5.78a10.33,10.33,0,0,1,4.32,8.59c0,1.06-.06,2.12-.17,3.14a.25.25,0,0,0,.1.23c4.56,3.33,5.62,8,6.09,12.64a.28.28,0,0,0,.12.19.31.31,0,0,0,.13,0,.18.18,0,0,0,.1,0,9.4,9.4,0,0,1,1.63-.53,14.7,14.7,0,0,0-.73-6.89c-.94-2.08-2.21-4-3.3-6-1.22-2.27-1.45-5.1-2.35-7.51-1.47-4-5.37-6.43-9-8.16-5-2.36-10.83-3.21-16.16-4.37a171.78,171.78,0,0,0-17.47-2.84c-7-.78-17.29-1.84-23.84,2.31a43.35,43.35,0,0,1,12.79-1.51Z"/><path class="cls-5" d="M48.5,89.13a.21.21,0,0,0-.08-.17c-.49-.44-.93-.86-1.33-1.29a16.69,16.69,0,0,1-1.87-2.34c-.13-.19-.25-.4-.37-.61a8,8,0,0,0-.63-1,1.31,1.31,0,0,0-1.06-.6,2.91,2.91,0,0,0-1.81,1.13l-.31.3a20.28,20.28,0,0,1-4.3,2.87.24.24,0,0,0-.12.3A6.13,6.13,0,0,0,37.26,89a14.55,14.55,0,0,0,2.94-1.57c.65-.43,3.29-1.47,4.35,0a15.58,15.58,0,0,0,1.85,2.08,10.64,10.64,0,0,0,.92.76,7.42,7.42,0,0,0,1.12-1A.23.23,0,0,0,48.5,89.13Z"/><path class="cls-6" d="M46.88,74.6c-3.48,1.25-8-.72-8-4.17a4.63,4.63,0,0,0-.69,1.41,3.54,3.54,0,0,0,.84,3c1.51,1.8,4.53,2.61,6.69,2.61a6.91,6.91,0,0,0,1.72-.19A4.75,4.75,0,0,0,51,73.78,3.86,3.86,0,0,0,49.53,70C50.1,71.84,49.62,73.62,46.88,74.6Z"/><path class="cls-7" d="M86,74.43a10.93,10.93,0,0,0,2.86,8,8.81,8.81,0,0,0,6.5,2.74h.33a11.13,11.13,0,0,0,7.76-3.55,9.76,9.76,0,0,0,2.66-7.13,10.18,10.18,0,0,0-2.16-5.78c1.14,3.56.89,7.22-2.42,10.49-3.16,3.13-8.2,2.48-11.66.35-3-1.88-3.56-4.55-3.39-7.41A13.89,13.89,0,0,0,86,74.43Z"/><path class="cls-7" d="M68.62,50.06c2.48.49,5,1,7.39,1.74A12.71,12.71,0,0,0,68.62,50.06Z"/><path class="cls-7" d="M74.72,54.67c0-.85.08-1.69.08-2.5a.25.25,0,0,0-.18-.25c-1.39-.37-2.88-.71-4.71-1.09h0a.23.23,0,0,0-.16.06.27.27,0,0,0-.09.21c0,.62,0,1.26.07,1.9.81.26,1.63.47,2.42.74S73.86,54.35,74.72,54.67Z"/><path class="cls-7" d="M26.07,45.13a.21.21,0,0,0-.19-.11c-1.84-.12-3.36-.17-4.83-.17a.26.26,0,0,0-.24.19c-.14.51-.25,1.05-.37,1.58.88.13,1.76.23,2.64.33s1.7.24,2.45.28c.18-.64.37-1.27.57-1.88A.24.24,0,0,0,26.07,45.13Z"/><path class="cls-7" d="M53.93,53.19a7.25,7.25,0,0,0,3.51.71l1.17,0,.5,0c1.55,0,3.68-.1,4.71-1.27a2.71,2.71,0,0,0,.57-2.14,5.36,5.36,0,0,0-.1-.6c-1.08,1.33-3,1.76-4.57,2a16.14,16.14,0,0,1-6.6-.06.59.59,0,0,0,0,.13A1.38,1.38,0,0,0,53.93,53.19Z"/><path class="cls-7" d="M30.42,89A23.46,23.46,0,0,0,38,86.2a14.33,14.33,0,0,0,2.13-1.72,10,10,0,0,1,2.86-2.08,1,1,0,0,1,.32-.06c.88,0,1.69,1.44,2.22,2.39a8,8,0,0,0,.52.85,21.11,21.11,0,0,0,6.26,5.53,27.29,27.29,0,0,0,13.42,4,18.47,18.47,0,0,0,3.19-.27,15.51,15.51,0,0,0,4.62-1.41.61.61,0,0,0,.32-.4c-9.43,3-23.08-.59-27.64-9.29-1.57-3-3.61-3.47-6.83-.06C35,88.29,22,89.93,13.82,86.89a22.63,22.63,0,0,0,11,2.73A26.08,26.08,0,0,0,30.42,89Z"/><path class="cls-7" d="M37.17,49.92c-2.69-.86-4.79-2-5.85-4.14A3.16,3.16,0,0,0,31,47.31c.21,2.32,2.89,3,4.85,3.56l.52.15.34.09a11,11,0,0,0,2.94.57h0A2.09,2.09,0,0,0,41.43,51c.08-.1.14-.2.2-.29A15.9,15.9,0,0,1,37.17,49.92Z"/><path class="cls-7" d="M44.27,79.36c2.34.22,5.27-.26,6.81-2.22a3.56,3.56,0,0,0,.46-3.71,3.93,3.93,0,0,1-.83,2.44,6.72,6.72,0,0,1-5.32,2h0a9,9,0,0,1-6.69-2.63,4.21,4.21,0,0,1-.8-1.42,5.12,5.12,0,0,0,.29,1.67C39.15,78,41.8,79.13,44.27,79.36Z"/><path class="cls-7" d="M19.52,44.39c.52,0,1.05,0,1.6,0,1.72,0,3.46.09,5.18.19A11.87,11.87,0,0,0,19.52,44.39Z"/><path class="cls-7" d="M34.88,123.56c.09.14.2.36.33.62.56,1.08,1.39,2.72,2.5,2.72a1.35,1.35,0,0,0,.91-.39c.34-.31.67-.63,1-1A18.54,18.54,0,0,1,41.37,124c4.42-3.37,10-4.64,15.38-5.87a70.06,70.06,0,0,0,9.41-2.62c3.37-1.3,7.12-3,9.4-5.92,3.34-4.24,1-8.68-1.54-11.66a.33.33,0,0,1,0-.32.17.17,0,0,1,.13-.11,7.45,7.45,0,0,1,1.32-.12A8.2,8.2,0,0,1,82,101.19a.25.25,0,0,0,.2.1h0a.24.24,0,0,0,.2-.17A11.65,11.65,0,0,0,76,86.21a.16.16,0,0,1-.1-.16.35.35,0,0,1,.2-.29,11.84,11.84,0,0,1,4-.69,13.24,13.24,0,0,1,3.92.61h.08a.23.23,0,0,0,.17-.07.25.25,0,0,0,.07-.25c-.5-1.72-6.21-1.53-9.07-.21-2.49,1.14-.88,1.76,1,3.06A12.59,12.59,0,0,1,81.46,96c.39,2.32-1,1.26-1.31,1.09a7.85,7.85,0,0,0-5.58-.73c-4.14.79-2.27,1.46-1,3.1a8.7,8.7,0,0,1,1.38,7.1c-.53,2.73-2.95,4.37-5.23,5.57-4.54,2.37-9.73,3.18-14.71,4.11-4.17.78-10.07,3.58-14.18,6.23-2.59,1.67-2.82,2.63-4.74-.25-2.68-4-7.92-7.23-12.16-9.08a39.66,39.66,0,0,1-12.72-8.5c-2.3-2.22-4.5-4.48-4.62-7.75a8.62,8.62,0,0,1,3.48-6.55c1.21-.87,2.41-1.76.31-2.62a9.29,9.29,0,0,0-4.54-.56c-2.17.25-4.15,1.56-2.5-2a14,14,0,0,1,8.35-6.68c2.08-.44,2.11-1.07.64-2.26a10.37,10.37,0,0,0-9.07-2l-.3.45a.3.3,0,0,0,0,.26.25.25,0,0,0,.22.12h.57a12.31,12.31,0,0,1,7.06,2.14.35.35,0,0,1,.12.34.15.15,0,0,1-.13.12A11.66,11.66,0,0,0,.78,90.39a.25.25,0,0,0,.15.21.2.2,0,0,0,.1,0,.28.28,0,0,0,.16-.05,8.82,8.82,0,0,1,5.55-2.24,7.12,7.12,0,0,1,3,.69.18.18,0,0,1,.1.15.37.37,0,0,1-.14.29c-2.55,1.77-4.11,3.94-4.5,6.3a8.81,8.81,0,0,0,1.9,6.75A33.34,33.34,0,0,0,16.7,111c1.77,1.1,3.63,2.1,5.44,3.07a64.17,64.17,0,0,1,7.67,4.58A20,20,0,0,1,34.88,123.56Z"/><path class="cls-7" d="M19.35,48.29h0a.27.27,0,0,0,.25-.21c.18-1,.4-2,.63-2.9a.26.26,0,0,0-.05-.22.25.25,0,0,0-.19-.09h0a39.59,39.59,0,0,0-4,.27,10.77,10.77,0,0,0-.3,3.78,6.06,6.06,0,0,1,2.83-.68A5.73,5.73,0,0,1,19.35,48.29Z"/><path class="cls-7" d="M75.55,52.19a.25.25,0,0,0-.15.05.23.23,0,0,0-.1.2c0,.94-.06,1.93-.14,2.94a.25.25,0,0,0,.21.27A6.35,6.35,0,0,1,79,57.42c.07-.34.13-.68.2-1a17.47,17.47,0,0,0,.47-2.88c-1.21-.46-2.53-.9-4-1.33Z"/><path class="cls-8" d="M47.22,70.85c-1.3-1-4.12-1.86-5.46-.45a.64.64,0,0,0-.1.78c1,1.75,4.22,2.15,5.56.68A.72.72,0,0,0,47.22,70.85Z"/><path class="cls-9" d="M77.18,28.06C71,19.45,58.87,14.93,49,12.52s-20.55-.77-25.21,8.14c-1.32,2.51-.23,4.11,3.14,4a146.37,146.37,0,0,1,47.5,5.58C78.5,31.43,79.68,31.53,77.18,28.06Z"/><path class="cls-9" d="M93.32,22.42c-7-9.09-19.2-17.3-31.06-18-3.72-.2-3.78,1.11-.18,2.4,10.45,3.77,18.39,10.64,24,20.66,4.57,8.14,7.8,18.2,9.81,27.59,1.35,6.27,2.69,2.58,3.42.35C102.89,44.58,100.12,31.28,93.32,22.42Z"/><path class="cls-10" d="M19.05,63.55a.25.25,0,0,0-.16-.06h0a3.4,3.4,0,0,1-.45,0,2.33,2.33,0,0,1-2.52-2.19,2.86,2.86,0,0,1,2.63-3.08h0a.28.28,0,0,0,.17-.07A.26.26,0,0,0,18.8,58v-.25a.25.25,0,0,0-.21-.25.53.53,0,0,1-.19,0,8.87,8.87,0,0,0-1.66-.67,6.34,6.34,0,0,0-3.06,1.65c-2,2.19-1.65,5.62-.31,8a4.28,4.28,0,0,0,.26.42,18,18,0,0,1,3.84-.44,16.61,16.61,0,0,1,1.74.09h0a.25.25,0,0,0,.18-.08.25.25,0,0,0,.07-.21c-.14-.83-.25-1.68-.35-2.53A.22.22,0,0,0,19.05,63.55Z"/><path class="cls-10" d="M55.32,48.67a.26.26,0,0,0,.15-.26.25.25,0,0,0-.21-.22c-4.75-.73-9.65-1.37-14.56-1.92h0a.25.25,0,0,0-.23.16.25.25,0,0,0,.08.29,5.21,5.21,0,0,1,1.6,1.89l2.05.35c3,.51,6,.87,9,1.3A4.81,4.81,0,0,1,55.32,48.67Z"/><path class="cls-10" d="M76.09,75.07a7.4,7.4,0,0,0,1.62-8.19,4.54,4.54,0,0,0-2.93-2.27c-.31,0-.62.09-1,.16h-.13a.25.25,0,0,0-.24.18l-.06.25a.28.28,0,0,0,.07.21.35.35,0,0,0,.21.12,2.84,2.84,0,0,1,1.62,3.76,2.27,2.27,0,0,1-2.16,1.45,3.1,3.1,0,0,1-1.21-.26l-.1,0-.1,0a.25.25,0,0,0-.13.14c-.32.8-.64,1.58-1,2.34a.24.24,0,0,0,0,.22.26.26,0,0,0,.19.13A17.29,17.29,0,0,1,76.09,75.07Z"/><path class="cls-10" d="M30.73,47.73a4.06,4.06,0,0,1,.22-2,.29.29,0,0,0,0-.22.27.27,0,0,0-.19-.11l-1-.07-2.8-.21h0a.26.26,0,0,0-.24.17c-.39,1.18-.74,2.41-1.06,3.66A17.35,17.35,0,0,1,30.73,47.73Z"/><path class="cls-10" d="M42,51.09v0a2.29,2.29,0,0,1-2.27,1,14.23,14.23,0,0,1-4.06-.85l-.15,0a9.22,9.22,0,0,1-4.15-2.2,3.88,3.88,0,0,0,1.06,2.44c1.59,1.59,4.81,2.36,7,2.28A2.54,2.54,0,0,0,42,51.09Z"/><path class="cls-10" d="M69.1,50.85a.25.25,0,0,0-.2-.23c-1.22-.25-2.43-.48-3.64-.71l-.12,0h0a.23.23,0,0,0-.16.06.29.29,0,0,0-.09.21,3.5,3.5,0,0,1-.74,2.7c-1,1.17-3.08,1.41-4.74,1.49H59c-.47,0-1.06.06-1.7.06-2.77,0-4.26-.62-4.54-1.88a3.73,3.73,0,0,1-.07-.56,3.19,3.19,0,0,0-.21.56c-.54,2.22,2.93,2.89,4.38,3.12,2.21.36,5.43.53,6.88-1.52a2.59,2.59,0,0,0,.44-1.29,11.73,11.73,0,0,1,4.95,3.75A52.17,52.17,0,0,0,69.1,50.85Z"/><path class="cls-11" d="M46,93.87a17.22,17.22,0,0,1-8.07.37,0,0,0,0,0,0,.07A5.1,5.1,0,0,0,41.76,96a5.6,5.6,0,0,0,4.37-1.92A.13.13,0,0,0,46,93.87Z"/><path class="cls-11" d="M34,62a3.14,3.14,0,0,0,1.65-.28A3.66,3.66,0,0,1,37,61.54a4,4,0,0,1,1.07.47,3,3,0,0,0,1.58.63.9.9,0,0,0,1-.63c1-2.44-1.52-4.28-3.84-4.18a4.23,4.23,0,0,0-2.86,1.35C33.37,59.74,32.67,61.76,34,62Z"/><path class="cls-11" d="M54.37,63.9a3,3,0,0,1,1.71.37c.3.12.57.37.89.49-.81-.31.7.31.53.26a.87.87,0,0,0,1-.39C59.62,63,57.68,61,56.21,60.4c-1.75-.72-4.69-.08-5,2.12S53,64.22,54.37,63.9Z"/><path class="cls-11" d="M101.31,65.56c5.33-12.36,4.63-26.29-.58-38.63C96.18,16.16,87.24,8.13,76.55,3.66,64.37-1.44,49.8-1.08,37.69,4,35.06,5,33.52,6.55,31.47,8.42c-2.21,2-5.24,2.66-7.28,4.91A29.67,29.67,0,0,0,17,28.73a32.74,32.74,0,0,0-.35,3.95,13.51,13.51,0,0,0-5.29,6.43c-1.52,3.82-1.62,9.71.62,13.3q-.36.66-.66,1.35a19.9,19.9,0,0,0-.53,13.71,16.54,16.54,0,0,0-8.91,7.64c-.15.3,0,.8.43.75a12.23,12.23,0,0,1,7.07,1.31C2.91,78.76-.82,84.85.15,91.52c.06.39.6.45.84.22,2.11-2,4.81-3.28,7.61-2.38-2.81,2.16-4.79,5-4.28,8.7s3.7,7,6.41,9.42a51,51,0,0,0,8.63,5.93c5.41,3.11,11.71,5.66,15.24,11.09.5.77,1.45,3.57,2.84,3.4,2.11-.27,3.79-3,5.43-4.09,4.9-3.39,11.63-4.28,17.3-5.68s12-3.48,15.9-8c3.31-3.89,1.87-8.41-.92-12,2.92-.15,5.22,1.79,6.73,4.26a.5.5,0,0,0,.86,0c2.66-6.19.63-13-5.2-16.24a12.19,12.19,0,0,1,7.16.56c.38.15.69-.28.62-.61a16.69,16.69,0,0,0-6.63-9.68,20,20,0,0,0,3-13.16,15.37,15.37,0,0,0-.29-1.56c2.29-2,3.38-5.24,3.84-8.44,3.88,3,4.94,7.37,5.38,12.15a11.93,11.93,0,0,0-5.45,9c-.27,6.37,4,11.25,10.43,11.46s11.07-5.43,11.18-11.41A9.9,9.9,0,0,0,101.31,65.56ZM11.66,55.72c1.05-3.52,3.46-7.19,7.55-6.71a52.8,52.8,0,0,0-.64,7.26,5.08,5.08,0,0,0-4.56.18.06.06,0,0,0,0,.11,10.53,10.53,0,0,1,4.25,1.12,1,1,0,0,0,.26.08V58a.33.33,0,0,0-.14,0,3.11,3.11,0,0,0-2.77,3.35,2.67,2.67,0,0,0,3.25,2.38c.1.87.22,1.71.35,2.55a17.71,17.71,0,0,0-7.51.85A19.66,19.66,0,0,1,11.66,55.72Zm14.2-10.45A66,66,0,0,0,23,67.19a14.41,14.41,0,0,0-2.68-.76,52.89,52.89,0,0,1,.78-21.33C22.65,45.1,24.26,45.17,25.86,45.27Zm11,.15c1.62.79,6.39,3,4.41,5.45-.93,1.15-3.65.22-4.76-.1-1.88-.52-5-1.12-5.19-3.48-.14-1.56,1.16-3.23,2.75-3A10.74,10.74,0,0,1,36.83,45.42ZM35.44,51.5c1.63.52,5.66,1.89,6.78-.27,1-2,0-3.52-1.55-4.71q7.3.81,14.55,1.92c-1.77.75-3.17,2-2.7,4.14.55,2.5,5.09,2.09,6.85,2,3.17-.14,6-.84,5.72-4.45l3.76.73a65.29,65.29,0,0,1-2.93,22.29,11.42,11.42,0,0,0-2.18.67h0a.35.35,0,0,0,0-.08C61,69.32,55.33,67.51,51,70.29c-2.22-3.4-8.32-3.81-11.58-1.33-3.12-3.7-8-3.72-11.95-1.31a12.3,12.3,0,0,0-1.58,1.16A11.8,11.8,0,0,0,24,67.64a65.31,65.31,0,0,1,2.93-22.31l3.82.28C29.49,49.2,32.33,50.51,35.44,51.5Zm23.79-3.13c2.29-.43,4.6-.91,4.91,2.09.33,3.23-3.39,3.08-5.54,3.16A8.8,8.8,0,0,1,54.05,53c-1.74-.94.19-2.92,1.13-3.46A13.43,13.43,0,0,1,59.23,48.37ZM73.36,66.2a2.13,2.13,0,0,1,1.34,2.49,1.69,1.69,0,0,1-2.53,1.09h0C72.59,68.61,73,67.42,73.36,66.2Zm-3.55,6.73A13.77,13.77,0,0,0,67,73a66.1,66.1,0,0,0,2.85-21.9c1.57.33,3.14.68,4.69,1.09A53,53,0,0,1,69.81,72.93ZM66.9,82a39.85,39.85,0,0,0,4,7.18c.37.47,3.54,3.44,2.43,4a15.61,15.61,0,0,1-4.54,1.38c-5.61,1-11.62-.83-16.44-3.64a20.92,20.92,0,0,1-6.19-5.47c-.62-.82-1.78-3.88-3.35-3.26-1.88.73-3.29,2.75-5,3.82a23.6,23.6,0,0,1-7.46,2.79,23.69,23.69,0,0,1-16.95-2.4A14.15,14.15,0,0,1,11.58,85c-.95-.79,1.6-2.07,1.95-2.27A15.68,15.68,0,0,0,16,81,66,66,0,0,0,22,74.42c2-2.34,4.14-5,6.93-6.5a7.7,7.7,0,0,1,9.67,1.72,4.91,4.91,0,0,0-1.14,2c-1.39,8,16.16,9.32,14.17.34a5.07,5.07,0,0,0-.25-.78c3.51-2.25,7.38-1.23,10.27,1.61C64.07,75.13,65.44,79,66.9,82ZM48.25,89.14c-3.18,3.44-9.69,3.44-11.39-1.5a20.41,20.41,0,0,0,4.35-2.91c.58-.51,1.79-2.19,2.81-.86.38.49.66,1.09,1,1.6a17.94,17.94,0,0,0,1.9,2.37A16.45,16.45,0,0,0,48.25,89.14ZM47.4,77c-3.14.83-9.66-1-8.95-5.14,1.32-4.41,7.77-4.17,10.79-1.82S50.72,76.15,47.4,77ZM18.57,59c0,1.28.12,2.53.23,3.78h0a1.69,1.69,0,0,1-2.16-1.56A2.12,2.12,0,0,1,18.57,59ZM84.13,85.44a12.83,12.83,0,0,0-8.1.08c-.36.13-.56.73-.12.92A11.38,11.38,0,0,1,82.19,101c-1.91-2.67-4.7-4.42-8.14-3.8a.5.5,0,0,0-.22.83c2.87,3.36,4.55,7.51,1.54,11.34-2.26,2.87-6,4.56-9.3,5.84-8.11,3.13-17.78,3.14-24.86,8.54-1,.75-1.83,1.7-2.76,2.53-1.55,1.4-2.85-2.12-3.36-2.89a19.83,19.83,0,0,0-5.13-5c-4.09-3-8.84-5-13.12-7.66a33.7,33.7,0,0,1-9.51-8.4c-3.45-4.76-2.17-9.44,2.54-12.71a.5.5,0,0,0,0-.86C6.7,87.31,3.57,88.29,1,90.37a11.39,11.39,0,0,1,9.84-12.48c.47-.07.44-.7.12-.92A12.76,12.76,0,0,0,3.22,74.8C7.32,68,18.4,64.54,25.09,69.5c-.39.38-.76.77-1.13,1.17-2.94-1.79-6.69-2.81-9.83-1a0,0,0,0,0,0,.07,11.26,11.26,0,0,1,9.29,1.46c-.74.84-1.44,1.69-2.13,2.47a71.78,71.78,0,0,1-6.54,7c-1.34,1.16-4.28,1.92-4.67,3.85-.25,1.29,3,2.88,3.85,3.33,4.38,2.42,9.74,2.82,14.61,2.23a25.39,25.39,0,0,0,7.38-2c2,5.5,9.44,5.81,13.09,1.72a28.15,28.15,0,0,0,4,2.63,26.78,26.78,0,0,0,14.71,3.28A17.83,17.83,0,0,0,73.88,94c1.71-.8.94-2,0-3.2a37.72,37.72,0,0,1-5-7.17c-1.26-2.46-2.43-5-3.74-7.37a19.67,19.67,0,0,1,8.78.75,0,0,0,0,0,0-.05,13,13,0,0,0-9-1.15c-.2-.39-.42-.76-.64-1.14C72,71.64,81.9,77.72,84.13,85.44Zm-6.27-9.61a17.7,17.7,0,0,0-7-2.78c.35-.76.68-1.55,1-2.35a2.66,2.66,0,0,0,3.7-1.32,3.11,3.11,0,0,0-1.75-4.09.35.35,0,0,0-.14,0l.06-.25A.89.89,0,0,0,74,65a10.48,10.48,0,0,1,4.39,0,.06.06,0,0,0,.06-.1,5.07,5.07,0,0,0-4.35-1.36,52.24,52.24,0,0,0,1.25-7.17c4,.57,5.27,4.49,5.54,8.06A19,19,0,0,1,77.86,75.83ZM81.14,60.6c-.89-2.65-2.65-4.74-5.73-5.2.08-1,.13-2,.14-3A45.82,45.82,0,0,1,80.18,54c.6.24.86-.73.27-1-4.93-2-10.34-3-15.54-4C64.15,46.57,61.27,47,59,47.4c-.5.1-1.07.21-1.67.36l-.06,0q-9.16-1.45-18.42-2.43c-.52-.28-1-.54-1.48-.75-2.09-1-4.8-2.17-6.18.08-5.29-.38-10.84-.9-16.12-.12-.63.09-.36,1.06.27,1A36.93,36.93,0,0,1,20,45.12c-.25,1-.46,1.93-.64,2.92a7,7,0,0,0-6.8,3.42c-2-3.73-1.51-9.39.16-13.06,1.91-4.21,6.31-6.32,10.62-7.19,9.12-1.84,19.22-.74,28.32.6C60.4,33.09,69.48,35,77.42,39c3.72,1.84,6.66,4.55,7.13,8.84C85,51.71,84.07,57.65,81.14,60.6Zm4.29-8.51c.11-1.11.16-2.18.17-3.17a10.61,10.61,0,0,0-4.42-8.79c-3.89-2.86-8.68-4.44-13.26-5.82a117.59,117.59,0,0,0-16.74-3.58,121.1,121.1,0,0,0-16.69-1.3c-4.87,0-10.09.1-14.73,1.72a15.34,15.34,0,0,0-2.07.92,30.14,30.14,0,0,1,5.49-15.92,17.83,17.83,0,0,1,6.65-5.44c2.29-1.24,3.76-3.34,5.9-4.74,2.8-1.83,6.6-2.77,9.81-3.56A49.67,49.67,0,0,1,56.13,1.09,50.27,50.27,0,0,1,74.25,3.84,43.59,43.59,0,0,1,99,25.43c6,12.24,6.87,27.16,1.45,39.7a12.42,12.42,0,0,0-4.47-1,9.79,9.79,0,0,0-4.33.8C91.1,59.77,89.8,55.28,85.43,52.09ZM95.65,84.9C89.73,85.09,86,80,86.22,74.44c.64-5.36,4.18-9.27,9.73-9.34a9.73,9.73,0,0,1,4.49,1,.55.55,0,0,0,.24.12,9.81,9.81,0,0,1,5.15,8.24C106.09,80.22,101.15,84.72,95.65,84.9Z"/><path class="cls-11" d="M54,9a42.68,42.68,0,0,0-9.43-.93c-3.4,0-7.41.2-10.58,1.5a.08.08,0,0,0,0,.15c3,.12,6-.46,9-.51a48.64,48.64,0,0,1,9.93.86c6.52,1.24,12.33,4.37,17.91,7.82a.14.14,0,0,0,.17-.22A35,35,0,0,0,54,9Z"/></g></g></svg>