<svg id="object" xmlns="http://www.w3.org/2000/svg" viewBox="0 0 622.67 702.99"><defs><style>.cls-1{fill:#1c542c;}.cls-2{fill:#fff;}.cls-3{fill:#d64b34;}.cls-4{fill:#256338;}.cls-5{fill:#603129;}</style></defs><path class="cls-1" d="M1064.43,389.51c3.27,2.7,8-2,4.69-4.69a32.58,32.58,0,0,0-6.39-4.16,29.81,29.81,0,0,0,0-7.72c.66.37,1.32.73,2,1.12a3.27,3.27,0,0,0,4.83-2.19c.71-2.89-2.54-4.2-4.53-5.46a69.14,69.14,0,0,0-18.94-8.3c-7.57-2-15.41-2.43-23.15-3.45a231.27,231.27,0,0,0-45.4-1.33,4.39,4.39,0,0,0-5.63-1.32c-3.27,1.66-4.25,3.8-5.8,7.09a163.26,163.26,0,0,0-8.65,23.36c-3.41,11.88,2.15,15.53,11.89,21.29a307.74,307.74,0,0,0,40.48,20.06c5,2,9.81,4.45,15,6.13,3.89,1.27,8,2.49,12,3.72,2.92.91,9,4.59,11.28,1.42a3,3,0,0,0-1-4.6l-4.06-2a35.6,35.6,0,0,0,5.12-6.6q2.77,1.74,5.38,3.73c1.43,1.1,3.7.21,4.54-1.19,1-1.7.22-3.45-1.19-4.54-1.79-1.37-3.65-2.65-5.56-3.83.84-1.72,1.63-3.49,2.37-5.28,1.79,1,3.6,1.87,5.48,2.68,3.88,1.68,7.26-4,3.35-5.72a71.43,71.43,0,0,1-6.44-3.2c.76-2.13,1.46-4.21,2.09-6.18a34.34,34.34,0,0,1,3.24,2.22,3.43,3.43,0,0,0,4.69,0c1.16-1.14,1.41-3.59,0-4.69a45.52,45.52,0,0,0-5.53-3.8c-.13-.08-.27-.14-.4-.21.4-1.38.81-2.85,1.19-4.38A23.16,23.16,0,0,1,1064.43,389.51Z" transform="translate(-544.34 -42.86)"/><path class="cls-2" d="M954.55,138.16a29.53,29.53,0,0,0-4.92-2.94c-49.84-26.49-114.84-25.14-160.13,10.18-42.92,33.47-54.1,97.43-45.42,149,10.6,63,74.69,84.37,131.25,88.61,59.46,4.45,103.44-34,124.52-86.86C1022.37,239.61,1006.1,172.2,954.55,138.16Z" transform="translate(-544.34 -42.86)"/><path class="cls-2" d="M1064.79,549.6c-4.43-44.91-26.66-88.37-54.13-122.65-28-34.92-64.42-64-104.79-81.18C832.25,314.41,741.16,323,685.94,387.31c-26.86,31.26-43.55,71.36-50.41,112.59-3.86,23.21-5.13,47-1.86,70.41,3.3,23.52,12.27,45.59,24.8,65.32,24.08,37.94,58.81,69.75,98.68,88.15,43.36,20,92.22,26.1,139.05,19.55,44.17-6.17,88.26-23.22,120.36-56.59,27.36-28.45,44.56-66.58,48.22-106.76A173.17,173.17,0,0,0,1064.79,549.6Z" transform="translate(-544.34 -42.86)"/><path class="cls-3" d="M1041.22,121.77c-.72-11.53-.63-24.12-3.59-35.37-2.24-8.49-9-12.15-18-13.19-12.34-1.43-25.11-1.31-37.52-1a393.51,393.51,0,0,0-76.61,9.6c-26.28,6-52.19,14.16-76.45,26a241.29,241.29,0,0,0-34.37,20.31c-9.56,6.83-22.29,15-28.61,25.14a24.78,24.78,0,0,0-1.8,3.42c-2.13,5.09-2.09,12,2,16.1.32-.22.41-.42.77-.6a114.19,114.19,0,0,0,16,8.65q17.05,7.39,34.5,14,37.15,14.1,75.79,24.55t78.16,17.09c12.3,2.07,25,4.61,37.5,5.32,9.23.52,17.35-2.15,22-9.89,12-19.91,10.86-47.57,11.16-69.57Q1042.5,142,1041.22,121.77Z" transform="translate(-544.34 -42.86)"/><path class="cls-2" d="M1064.6,63.34c.48-13.07-20.1-22.46-31.65-20.13-13.82,2.8-27.45,20.16-22,34.29,4.33,11.17,23.6,23.44,35.69,20.4C1059.71,94.62,1066.71,76,1064.6,63.34Z" transform="translate(-544.34 -42.86)"/><path d="M794.07,233V234A10.86,10.86,0,0,0,801,244.22a8.48,8.48,0,0,0,4.33,1,11.36,11.36,0,0,0,8-3.3,11.65,11.65,0,0,0,3.29-7.94V233a8.38,8.38,0,0,0-1-4.33,10.06,10.06,0,0,0-5.94-5.94,8.38,8.38,0,0,0-4.33-1,11.39,11.39,0,0,0-7.95,3.29,11.69,11.69,0,0,0-3.29,8Z" transform="translate(-544.34 -42.86)"/><path d="M893.38,250.59v-.93a10.83,10.83,0,0,0-6.91-10.27,8.38,8.38,0,0,0-4.33-1,11.41,11.41,0,0,0-7.95,3.29,11.69,11.69,0,0,0-3.29,7.95v.93a8.5,8.5,0,0,0,1,4.33,10.13,10.13,0,0,0,5.94,5.94,8.48,8.48,0,0,0,4.33,1,11.36,11.36,0,0,0,8-3.3,11.65,11.65,0,0,0,3.29-7.94Z" transform="translate(-544.34 -42.86)"/><path class="cls-3" d="M817,256.3v1.15a18.39,18.39,0,0,0,4.85,11.73A18.47,18.47,0,0,0,833.58,274l4.41-.59a16.56,16.56,0,0,0,7.32-4.27,17.22,17.22,0,0,0,4.86-11.73V256.3a18.47,18.47,0,0,0-4.86-11.73,18.47,18.47,0,0,0-11.73-4.86l-4.41.59a16.56,16.56,0,0,0-7.32,4.27A17.25,17.25,0,0,0,817,256.3Z" transform="translate(-544.34 -42.86)"/><path d="M885,286.54a23.1,23.1,0,0,1-9.48-17c-.4-5.3-8.69-5.22-8.29.13a32.52,32.52,0,0,0,1.7,8.17c-10.71,8.65-24.7,10.44-37.48,5.7-5-1.86-7,6.18-2.08,8a46,46,0,0,0,43.29-6.24,33.18,33.18,0,0,0,8.2,8.4C885.23,296.83,889.32,289.61,885,286.54Z" transform="translate(-544.34 -42.86)"/><path class="cls-4" d="M985.85,333.91c-7.15-3.5-18-5.65-21.89-6.58-11.3-2.68-22.84-4.19-34.3-6.06q-33.25-5.4-66.85-8.36c-31-2.72-62-3.4-93.08-4-5.27-.11-10.55-.23-15.83-.39-4-.11-7.89-.8-11.49,1.22-8.74,4.9-16.71,15-22.35,23.06-4.94,7.08-13.62,19.09-10.3,28.15,3.87,10.58,20.81,10.73,29.92,12.49q21.14,4.06,42.46,7c55.61,7.78,111.7,10.72,167.76,13,10.65.43,29.93,5.08,36.24-6.6,3.09-5.72,2.71-13.77,3.46-20.12q1.49-12.65,3-25.28C992.93,338.43,990,335.94,985.85,333.91Z" transform="translate(-544.34 -42.86)"/><path class="cls-5" d="M1033.24,494.24q65.1-22.92,128.15-51.1c12.65-5.65,1.69-24.23-10.88-18.62q-60.48,27-123,48.93c-13,4.58-7.4,25.42,5.73,20.79Z" transform="translate(-544.34 -42.86)"/><path class="cls-5" d="M547.44,346.66a582.16,582.16,0,0,0,120.76,95c12,7.08,22.83-11.55,10.89-18.62a560,560,0,0,1-116.41-91.59c-9.69-10-24.93,5.29-15.24,15.24Z" transform="translate(-544.34 -42.86)"/><path d="M796,439.47v1.16a24.06,24.06,0,0,0,15.29,22.74,18.72,18.72,0,0,0,9.59,2.14l6.61-.89a24.73,24.73,0,0,0,11-6.4c1.3-1.67,2.59-3.35,3.89-5a24.85,24.85,0,0,0,3.4-12.56v-1.16a24,24,0,0,0-15.3-22.73,18.68,18.68,0,0,0-9.58-2.14l-6.61.88a24.92,24.92,0,0,0-11,6.4l-3.89,5a24.81,24.81,0,0,0-3.4,12.55Z" transform="translate(-544.34 -42.86)"/><path d="M806.92,558.26c13,0,25.48-11.44,24.87-24.88s-10.93-24.88-24.87-24.88c-13,0-25.48,11.45-24.88,24.88s10.93,24.88,24.88,24.88Z" transform="translate(-544.34 -42.86)"/></svg>