<svg id="object" xmlns="http://www.w3.org/2000/svg" viewBox="0 0 633.09 583.21"><defs><style>.cls-1{fill:#6cb3bf;}</style></defs><path class="cls-1" d="M753.84,175.52c17-3.59,12.61-30.23-4.4-26.64q-16.44,3.48-33,6.34c7.65-11.91,15.33-23.8,22.94-35.74,9.31-14.6-12.77-30.14-22.15-15.44q-11.75,18.42-23.6,36.79-3.55-19.89-6.94-39.79c-2.91-17.15-29.54-12.73-26.64,4.41q5.82,34.38,12.19,68.68-9.75,15.09-19.53,30.17c-2.73-12-5.82-23.86-9.38-35.65-5-16.43-31.64-12.18-26.64,4.4a535,535,0,0,1,14.39,60,13.88,13.88,0,0,0,1,3.14l-28.79,44.36c-4.12-9.05-8.45-18-13.09-26.79-5.28-10-11.53-21.67-25-18-11.68,3.17-16.62,17.49-21.76,27-2.59,4.81-5.12,9.65-7.66,14.5q-11.89-27-24-53.95c4.87-5.69,8.28-12.83,12-19.11l23.55-40.06C556,149.29,534,133.7,525.14,148.72c-8.61,14.65-16.35,31.86-26.27,46.08-3.63-8-7.23-16-10.89-24,2-4,3.63-8.18,5.19-11.48a389.4,389.4,0,0,0,15-36.92c5.77-16.39-19.55-25.74-25.33-9.31-2.84,8.06-5.69,17.5-9.27,26.54-4.83-10.42-9.61-20.86-14.49-31.26-7.38-15.72-31.9-4.43-24.5,11.33,5.24,11.17,10.38,22.39,15.57,33.58-8.3-2.78-16.45-6.31-23.8-9.18-16.21-6.33-25.51,19-9.32,25.34A334.77,334.77,0,0,0,451.45,181a132.54,132.54,0,0,0,13,3.33c3.33,7.26,6.59,14.54,9.89,21.81-10.87-.74-23.06-4.23-31.06-5.26-17.28-2.22-19.8,24.67-2.59,26.88,12.64,1.62,30.81,7.07,46.36,6.49q13.29,29.55,26.31,59.2L468.8,281.17c-8.53-2.35-21.18,4.22-18,14.87q8.06,26.73,16.5,53.34-27.68-5.65-55.3-11.56c-4.38-.94-8.74-1.91-13.11-2.86q-12.06-25-22.2-50.9c-6.31-16.2-30.79-4.81-24.5,11.32q6.38,16.37,13.54,32.33c-7.32-1.61-14.66-3.18-22-4.78-1.1-2-2.26-3.95-3.3-5.95a135.59,135.59,0,0,1-13.34-42.77C324.58,257,298,261.44,300.5,278.62a172.17,172.17,0,0,0,8,32.32c.6,1.68,1.27,3.33,1.93,5-15.31-2.94-30.5-5.65-45.59-10.3-16.56-5.09-26,20.22-9.31,25.34,14.11,4.34,28.19,7.19,42.46,9.93-.43.21-.87.42-1.29.64-10.1,5.28-20.28,10.4-30.49,15.46-15.55,7.68-4.29,32.22,11.32,24.5q20.43-10.11,40.58-20.77c6.05-3.22,15.18-6.48,21.71-11.38q11.94,2.58,23.87,5.26Q343.4,368.25,322.4,380.8c-14.78,8.79-3.61,33.39,11.33,24.5q33.74-20.08,65.8-42.74l.44.1q28.84,6.21,57.76,12.15l-16,17.57c-7.57,8.32-18.36,17.39-11.66,29.55,6.13,11.09,22.44,13.49,33.65,15.31,11.95,1.95,24,3.26,36.12,4.26-13.45,21.11-27,42.12-41,62.85-8.87-.21-18.56,1.22-25.82,1.52-16.58.68-33.05,2.25-49.49,4.5-17.25,2.37-12.78,29,4.41,26.64,12.32-1.69,24.66-3.06,37.07-3.86,4.06-.27,9.22-.94,14.63-1.47-5.24,6.93-10.69,13.66-16.26,20.28-7.45-.57-15.83,1.65-22.6,2.3a457.76,457.76,0,0,1-50.37,2c-17.29-.23-20,26.64-2.59,26.87,13.16.17,26.31,0,39.44-.8,3.41-.2,6.81-.52,10.22-.79-11.12,12.4-22.28,24.8-32.95,37.74-11,13.4,11.14,28.8,22.15,15.44,9.58-11.62,19.58-22.79,29.6-33.91a239.9,239.9,0,0,0,5.55,25.5c4.51,16.63,31.18,12.35,26.64-4.41-4.41-16.23-6.17-32.05-7.74-48.67,6.78-7.89,13.41-15.92,19.74-24.23.4,3.55.81,7,1.38,10.25l6.33,36c3,17.13,29.64,12.71,26.64-4.41l-9.21-52.41c-1.07-6.11-1.29-13.82-3.44-20.28,11.42-16.91,22.53-34,33.53-51.23,2.73,9.4,5.09,18.91,7,28.56,2.2,11.23,3,28.48,18,29.92,12.13,1.17,21.89-13.33,29.35-20.61,7.86-7.68,15.7-15.35,23-23.48q11.19,27.4,22.22,54.89c-3.09,5.83-5.38,12.41-7.83,17.73-6.21,13.47-11.93,27.15-17.34,41-6.34,16.21,19,25.5,25.34,9.31,4-10.13,8.07-20.19,12.46-30.15.38-.87.78-1.86,1.18-2.92,3.75,9.5,7.53,19,11.24,28.49-1.24,3.74-2.14,7.61-3.23,10.85l-13.41,39.93c-5.53,16.47,19.79,25.83,25.34,9.32q3.36-10,6.71-20c3.29,8.59,6.65,17.15,9.91,25.76,6.15,16.25,30.63,4.85,24.5-11.33-4.65-12.27-9.41-24.49-14.12-36.73.9.33,1.75.63,2.49.85l24.78,7.31c16.6,4.89,26-20.41,9.32-25.34l-37.17-11c-3.56-1-7.56-2.59-11.6-3.56-4.13-10.57-8.35-21.1-12.51-31.65,12.11,5.21,23.52,12.72,36.47,14.35,17.29,2.18,19.81-24.7,2.59-26.87-14.34-1.81-34.61-18.89-52-20.14q-10.14-25.35-20.51-50.6a222.61,222.61,0,0,0,51.31-1.19c6.58-.91,13.15-8.64,11.12-15.53q-6.29-21.3-12.16-42.73c17.07,2.49,34.12,5.06,51.13,7.87a524.9,524.9,0,0,0,25.43,46.79c9,14.63,33.58,3.48,24.5-11.33q-8.9-14.54-16.79-29.56c1.53.29,3.06.55,4.58.85,11.19,2.2,22.12,4.15,33,5.84,2.12,5.28,5.23,10.52,7.37,14.88C802.43,457,808,467,814,476.84c8.91,14.68,33.51,3.52,24.5-11.33-4.67-7.71-9.15-15.52-13.29-23.53-1-1.91-2.15-4-3.35-6.08a432.86,432.86,0,0,0,43.69,2c17.25-.09,20-27,2.59-26.87-10.92.06-21.52-.33-32-1q4-3.8,7.92-7.75c12.05-12.28-5.23-33.05-17.44-20.62a214.07,214.07,0,0,1-25,22.05c-1,.78-2.1,1.53-3.15,2.29-11.38-1.66-22.8-3.65-34.49-6l-.34-.06Q784,388.63,804,376.74c14.78-8.79,3.61-33.38-11.33-24.5q-35.09,20.86-71.16,40l-.16.1c-21.42-3.52-42.91-6.62-64.4-9.72,14.81-17.88,28.38-36.74,42.19-55.39,5.91-8,.24-20.6-9.78-21.16-22-1.24-45.75-.4-67.77-4.16q19.07-29.37,38.11-58.74c20.92-1.76,41.78-4.1,62.63-6.56,17.29-2,12.79-28.66-4.41-26.63-13.19,1.55-26.38,3.06-39.59,4.42q9.28-14.36,18.58-28.71Q725.55,181.47,753.84,175.52ZM561.54,285.76q3.51-6.6,7.08-13.18c.13-.23.31-.52.49-.8.84,1.65,1.7,3.28,2.53,4.94,4.5,9.1,8.7,18.34,12.7,27.67a14.53,14.53,0,0,0,1.63,2.86q-11.13,17.16-22.23,34.34c-4.69-10.92-9.33-21.86-14.08-32.76C553.56,301.11,557.49,293.41,561.54,285.76Zm-34.45,38.83c5.75,13.24,11.4,26.52,17.07,39.79q-23-4.22-45.93-8.76a16.86,16.86,0,0,0-2-3.11,15,15,0,0,0-.41-1.92q-6-18.63-11.69-37.31l39.33,10.82A14.55,14.55,0,0,0,527.09,324.59Zm-41.83,88.3c-4.9-.57-15.48-.71-23.71-2.46.85-.94,1.41-1.6,1.32-1.5L474,396.74l14.3-15.7q22.23,4.43,44.51,8.58-8.26,13-16.51,26C505.91,414.94,495.57,414.09,485.26,412.89Zm73.33,65.42c-2.4,2.36-6.08,6.85-10,11.13-.44-3.14-.86-5.84-1-6.42q-1.75-8-3.91-16c-2.71-10-5.86-19.84-9.3-29.6q12.21-19.29,24.48-38.55Q570.3,426,581.53,453.1A248.45,248.45,0,0,1,558.59,478.31Zm91-33.82a197.8,197.8,0,0,1-43.48-2.39q-8.83-21.39-17.83-42.69c16.91,2.77,33.86,5.31,50.82,7.78Q644.23,425.88,649.64,444.49Zm12.55-112.66c-10.56,14.25-21.28,28.37-32.84,41.82a12.89,12.89,0,0,0-2.56,4.51c-12.48-1.85-24.95-3.76-37.4-5.84-4-.67-8-1.42-12-2.11Q591.67,348.07,606,326C624.31,330,643.3,331.08,662.19,331.83Z" transform="translate(-246.79 -90.18)"/></svg>