<svg xmlns="http://www.w3.org/2000/svg" xmlns:xlink="http://www.w3.org/1999/xlink" viewBox="0 0 45.88 130.45"><defs><style>.cls-1{isolation:isolate;}.cls-2{fill:#fff;}.cls-3{fill:url(#Áåçûìÿííûé_ãðàäèåíò_162);}.cls-4{fill:#8b5690;}.cls-12,.cls-13,.cls-4,.cls-6,.cls-7,.cls-8,.cls-9{fill-rule:evenodd;}.cls-11,.cls-12,.cls-13,.cls-4{opacity:0.5;}.cls-11,.cls-12,.cls-13,.cls-4,.cls-8,.cls-9{mix-blend-mode:multiply;}.cls-5{fill:#ffb64a;}.cls-6{fill:url(#Áåçûìÿííûé_ãðàäèåíò_40);}.cls-7{fill:url(#Áåçûìÿííûé_ãðàäèåíò_293);}.cls-8,.cls-9{opacity:0.58;}.cls-8{fill:url(#Áåçûìÿííûé_ãðàäèåíò_29);}.cls-9{fill:url(#Áåçûìÿííûé_ãðàäèåíò_294);}.cls-10{fill:#dd4556;}.cls-11{fill:#7e407b;}.cls-12{fill:#b33190;}.cls-13{fill:#a47aba;}.cls-14{fill:#f5ffff;mix-blend-mode:soft-light;}</style><radialGradient id="Áåçûìÿííûé_ãðàäèåíò_162" cx="23.64" cy="93.04" r="35.79" gradientUnits="userSpaceOnUse"><stop offset="0" stop-color="#ff3143"/><stop offset="1" stop-color="#e30a47"/></radialGradient><radialGradient id="Áåçûìÿííûé_ãðàäèåíò_40" cx="22.78" cy="42.56" r="21.4" gradientUnits="userSpaceOnUse"><stop offset="0.98" stop-color="#e4deec"/><stop offset="1" stop-color="#dedbeb"/></radialGradient><linearGradient id="Áåçûìÿííûé_ãðàäèåíò_293" x1="22.33" y1="53.83" x2="22.33" y2="21.48" gradientUnits="userSpaceOnUse"><stop offset="0" stop-color="#9590c7"/><stop offset="0.99" stop-color="#7e63ba"/></linearGradient><linearGradient id="Áåçûìÿííûé_ãðàäèåíò_29" x1="23.11" y1="67.46" x2="23.11" y2="22.35" gradientUnits="userSpaceOnUse"><stop offset="0.01" stop-color="#9775ba"/><stop offset="1" stop-color="#ffeadb"/></linearGradient><linearGradient id="Áåçûìÿííûé_ãðàäèåíò_294" x1="23.3" y1="46.93" x2="23.3" y2="21.48" gradientUnits="userSpaceOnUse"><stop offset="0" stop-color="#ffeadb"/><stop offset="0.99" stop-color="#9775ba"/></linearGradient></defs><g class="cls-1"><g id="Layer_2" data-name="Layer 2"><g id="layer1"><path class="cls-2" d="M28.29,1.44c-4.38,2.9-1.22,14.21-2.05,16.21S13.35,27,6.85,37.65-.9,57.54.53,59.26s6.13,6.83,7.08,10.11,4.35,4.36,4.73,4.94-2,27.07-3.39,34,5.47,21.5,7.33,22.08S36.39,120.67,40,113.3,43,88.07,45.13,81.39c2.79-8.87-3-15.1-3.43-23s4.69-28.51,3.58-35.49c-.52-3.27-2.85-3.93-3.68-8.77s2.1-11,0-12.67S31.61-.76,28.29,1.44Z"/><path class="cls-3" d="M39.72,81.75l0,.07c-.59,1.76-1,14.61-2.95,23.26h0a22.71,22.71,0,0,1-1.9,5.64c-3,5.54-9.84,8.67-12.4,9.68-.61.25-1,.37-1,.37s-3.8,2.33-5.09,2.23l-.19,0c-1.08-.38-2.85-7.85-3.14-10.62a55.91,55.91,0,0,1,.55-9.18c.37-3.54.92-7.83,1.55-12.63a128.77,128.77,0,0,0,1-17c0-1.56,0-2.66-.06-3.15v-.28c-.57,0-1.19-.65-1.62-1.4-.6-1-.87-2.19-.29-2.24C27.5,65.51,34.91,48.19,37.44,41c.66-1.9,1-3.09,1-3.09s0,.78,0,2.07c-.1,5.9-.39,22.57-.22,25.27.19,3.3,2.74,6.39,3.32,9.32S40.49,79.93,39.72,81.75Z"/><path class="cls-4" d="M14.47,68.68a29.06,29.06,0,0,0,8.31-1.22c4-1.29,13.3-9.59,15.42-16.35l.16-10.29L13.86,67.46Z"/><path class="cls-5" d="M36.74,105.08h0a22.71,22.71,0,0,1-1.9,5.64c-3.73,6.89-13.39,10-13.39,10s-3.8,2.33-5.09,2.23l-.19,0c-1.08-.38-2.85-7.85-3.14-10.62a55.91,55.91,0,0,1,.55-9.18c.43-.07,10.35-1.59,14.52-1.39S36.74,105.08,36.74,105.08Z"/><path class="cls-5" d="M39.72,81.75c-3.06-6-1.56-16.5-1.56-16.5.19,3.3,2.74,6.39,3.32,9.32S40.49,79.93,39.72,81.75Z"/><path class="cls-4" d="M39.72,81.75c-.77,1.82-1.15,22.09-4.88,29s-13.39,10-13.39,10-3.8,2.33-5.09,2.23l-.19,0s3.42-1.15,3.08-3.25a3.17,3.17,0,0,0-1.66-2.57c3.74.93,3.76,2.57,3.76,2.57s6.89-4.72,9.86-10.43,6.5-28.84,6.5-28.84c-2,6.8-6.3,18.16-6.59,18.94.15-.79,2.69-13.48,3.24-20.33a99.05,99.05,0,0,0-.61-16.55c-5.19,7-17.58,11.77-17.58,11.77v-.78l-.06-3.15v-.28a23.7,23.7,0,0,0,6.23-.77c2.56-.81,7.74-6.22,7.31-6.17s-3.68,3-6.85,4.32-8.31,1.22-8.31,1.22c-.6-1-.87-2.19-.29-2.24C27.5,65.51,34.91,48.19,37.44,41l.94-1c-.1,5.9-.39,22.57-.22,25.27.19,3.3,2.74,6.39,3.32,9.32S40.49,79.93,39.72,81.75Z"/><path class="cls-6" d="M37.14,47c-1.44,5.26-9.57,16.83-15.5,18.84s-9.76,1.82-10.62,1-2.67-7.46-4.78-8.8,1-12.69,6.74-21.75S29.56,17.43,31.3,17.65a15.25,15.25,0,0,1,8.33,4.7C40.87,24,38.57,41.77,37.14,47Z"/><path class="cls-7" d="M35.7,26.36c0,1.91-3.75,10.3-7.46,16.84h0L28,43.6c-.63,1.1-1.25,2.14-1.85,3.07l-.05.09A18.66,18.66,0,0,1,22.78,51C18.94,53.91,9.3,54.11,9,53.62c-.2-.34,0-2.46,1.86-6.65l0,0c.71-1.63,1.66-3.57,2.91-5.84C18.29,33,27.3,21.48,29.48,21.48a8,8,0,0,1,5.75,3.24A3.16,3.16,0,0,1,35.7,26.36Z"/><path class="cls-8" d="M37.14,47c-1.44,5.26-9.57,16.83-15.5,18.84s-9.76,1.82-10.62,1-2.67-7.46-4.78-8.8c0,0,13.16-1.07,18.47-4.3S37.65,34.2,39.63,22.35C40.87,24,38.57,41.77,37.14,47Z"/><path class="cls-4" d="M16.06,79.35s.48,9.7,0,14.16a80.94,80.94,0,0,1-2.69,11.62S16,82.41,16.06,79.35Z"/><path class="cls-9" d="M35.7,26.36a4.76,4.76,0,0,0-3.82,1.15c-1.5,1.5-3.57,15.22-3.64,15.69h0L28,43.6l-1.85,3.07-.05.09,1.18-19.25c-5.55,2.22-15.76,18.41-16.4,19.42.71-1.63,1.66-3.57,2.91-5.84C18.29,33,27.3,21.48,29.48,21.48a8,8,0,0,1,5.75,3.24Z"/><path class="cls-10" d="M29.74,23.49s-.38-12.43,0-16.64l6-.83.67,1L35.7,19.25l-1.24-.6-.7,4.84Z"/><path class="cls-11" d="M35.7,6s-1.88,12.74-1.94,17.47l.7-4.84,1.24.6L36.37,7Z"/><path class="cls-12" d="M39.69,81.82c-.59,1.76-1,14.61-2.95,23.26h0a22.71,22.71,0,0,1-1.9,5.64c-3,5.54-9.84,8.67-12.4,9.68h0c.39-.29,6.56-5,8.66-9s4.08-13,5-18.43A47.93,47.93,0,0,1,39.69,81.82Z"/><path class="cls-13" d="M13.86,57.12s11.22-.62,15-3.83S38.62,27,38.62,27,33.29,45.22,27,51.77C22.72,56.26,13.86,57.12,13.86,57.12Z"/><path class="cls-12" d="M31.12,99.4s2.7-13.86,3.79-22.27a90.93,90.93,0,0,1,3.2-14.93s.16,16.46-.4,18.26S31.12,99.4,31.12,99.4Z"/><path class="cls-14" d="M15.47,121.15s-2.31-7.86-1.61-12.2c1-6,5-9.55,3.89-21.66,0,0-1.48,10.15-3.58,15.09S13.37,116.8,15.47,121.15Z"/><path class="cls-14" d="M7.71,58.44A20.4,20.4,0,0,1,10,63.71c.51,2.37,2,3.72,7.13,2.82S25.6,64.28,30.05,58a21.27,21.27,0,0,1-9.43,6.64c-6.39,2.09-8.62.53-9.28-1A17.32,17.32,0,0,0,7.71,58.44Z"/><path class="cls-14" d="M37.79,62.39s-1.29-6,.34-10Z"/></g></g></g></svg>