<svg xmlns="http://www.w3.org/2000/svg" xmlns:xlink="http://www.w3.org/1999/xlink" viewBox="0 0 65.09 59.01"><defs><style>.cls-1{isolation:isolate;}.cls-2{fill:#fff;}.cls-3{fill:url(#Áåçûìÿííûé_ãðàäèåíò_367);}.cls-4{fill:#9572a9;opacity:0.5;mix-blend-mode:multiply;}.cls-5{fill:#9f3d3b;}.cls-10,.cls-11,.cls-12,.cls-5,.cls-6,.cls-7,.cls-8,.cls-9{fill-rule:evenodd;}.cls-6{fill:url(#Áåçûìÿííûé_ãðàäèåíò_375);}.cls-7{fill:url(#Áåçûìÿííûé_ãðàäèåíò_375-2);}.cls-8{fill:url(#Áåçûìÿííûé_ãðàäèåíò_375-3);}.cls-9{fill:url(#Áåçûìÿííûé_ãðàäèåíò_375-4);}.cls-10{fill:url(#Áåçûìÿííûé_ãðàäèåíò_375-5);}.cls-11{fill:url(#Áåçûìÿííûé_ãðàäèåíò_375-6);}.cls-12{fill:url(#Áåçûìÿííûé_ãðàäèåíò_375-7);}</style><linearGradient id="Áåçûìÿííûé_ãðàäèåíò_367" x1="31.82" y1="54.07" x2="31.82" y2="4.16" gradientUnits="userSpaceOnUse"><stop offset="0" stop-color="#c2544a"/><stop offset="1" stop-color="#e7614d"/></linearGradient><linearGradient id="Áåçûìÿííûé_ãðàäèåíò_375" x1="32.24" y1="47.9" x2="32.24" y2="8.56" gradientUnits="userSpaceOnUse"><stop offset="0.02" stop-color="#ffe8b8"/><stop offset="0.97" stop-color="#ffdbd4"/></linearGradient><linearGradient id="Áåçûìÿííûé_ãðàäèåíò_375-2" x1="30.96" y1="15.83" x2="30.96" y2="13.91" xlink:href="#Áåçûìÿííûé_ãðàäèåíò_375"/><linearGradient id="Áåçûìÿííûé_ãðàäèåíò_375-3" x1="47.44" y1="27.64" x2="47.44" y2="25.72" xlink:href="#Áåçûìÿííûé_ãðàäèåíò_375"/><linearGradient id="Áåçûìÿííûé_ãðàäèåíò_375-4" x1="-13.16" y1="242.04" x2="-13.16" y2="240.13" gradientTransform="translate(-60.88 -181.7) rotate(-27.32)" xlink:href="#Áåçûìÿííûé_ãðàäèåíò_375"/><linearGradient id="Áåçûìÿííûé_ãðàäèåíò_375-5" x1="21.68" y1="40.46" x2="21.68" y2="38.54" xlink:href="#Áåçûìÿííûé_ãðàäèåíò_375"/><linearGradient id="Áåçûìÿííûé_ãðàäèåíò_375-6" x1="18.2" y1="26.08" x2="18.2" y2="24.16" xlink:href="#Áåçûìÿííûé_ãðàäèåíò_375"/><linearGradient id="Áåçûìÿííûé_ãðàäèåíò_375-7" x1="31.55" y1="35.91" x2="31.55" y2="19.38" xlink:href="#Áåçûìÿííûé_ãðàäèåíò_375"/></defs><g class="cls-1"><g id="Layer_2" data-name="Layer 2"><g id="layer1"><path class="cls-2" d="M31,0C26,0,22.54,14.87,20.82,16.68S1.4,20.83.18,24.16c-1.81,5,10.45,9.62,11.29,12.69S5.53,54.51,9,57.14c4.79,3.64,16-7.65,19.9-7.65,4.49,0,16,11.19,20.6,9.31,3.4-1.39.19-18.9,2.26-21.95S64.21,29.7,65.07,25.12s-20.93-6-22.51-8.25S36.66.06,31,0Z"/><path class="cls-3" d="M45.24,36.85c-.34.76,3.81,13.83,2.23,16.66a1,1,0,0,1-.53.5c-2.87,1-17-9.12-18.15-9.12s-13.32,9.19-16,7.33S16,36.47,15.85,35.9,4.62,27.67,5,25.12s17.33-4.72,17.67-5c.63-.64,5.73-16.35,8.54-15.91s8.1,15.47,8.86,15.91,16.82,3.63,18.43,5.64a.6.6,0,0,1,.13.3C58.76,28,45.63,36,45.24,36.85Z"/><path class="cls-4" d="M5,25.12C5.62,26.75,16.39,34,16.7,34.31s-.89,1.59-.89,1.59C15.68,35.33,4.58,27.67,5,25.12Z"/><path class="cls-4" d="M47.44,53.51a1,1,0,0,1-.54.5c-2.87,1-17-9.12-18.14-9.12s-13.33,9.19-16,7.33a21.25,21.25,0,0,0,9.56-5.54c4.91-4.66,5.75-5.37,6.77-5S43.17,54,47.44,53.51Z"/><path class="cls-4" d="M58.6,26c.13,2-13,10-13.39,10.83A6.45,6.45,0,0,1,45,34.31c.26-.76,10.55-4.74,13.52-8.59A.6.6,0,0,1,58.6,26Z"/><path class="cls-5" d="M54.27,26.15c-.48-1-13.4-3.19-15.5-4.62S32.55,8.62,30.83,9,26,20.09,23.94,21.24,10.41,23.47,10.2,25.55s9.34,4.39,10.11,6.16S13.8,47.22,15.05,48.25s12-8.16,13.77-8.35S41.45,48,43.17,47.26s-1.15-12.15,0-13.68S54.74,27.14,54.27,26.15ZM42.55,33.39c-.91,2.15.71,10.48-.91,11.19S31.16,38.6,29,39s-10.77,7.93-12.08,7.08,4.62-12.82,4.19-14.36-8.7-3.86-8.37-5.56c.67-3.41,9.8-2.8,11.77-3.81s4.84-11.52,6.55-11.72,5,9.68,7.44,11.45,13,3.16,13.23,4.43S43.46,31.24,42.55,33.39Z"/><path class="cls-6" d="M54.27,25.72c-.48-1-13.4-3.18-15.5-4.62S32.55,8.19,30.83,8.57,26,19.67,23.94,20.81,10.41,23,10.2,25.12s9.34,4.4,10.11,6.17S13.8,46.8,15.05,47.82s12-8.16,13.77-8.35,12.63,8.13,14.35,7.36-1.15-12.14,0-13.68S54.74,26.71,54.27,25.72ZM42.55,33c-.91,2.16.71,10.48-.91,11.2s-10.48-6-12.63-5.6-10.77,7.93-12.08,7.08,4.62-12.82,4.19-14.35-8.7-3.86-8.37-5.57c.67-3.41,9.8-2.8,11.77-3.81s4.84-11.52,6.55-11.71,5,9.67,7.44,11.44,13,3.16,13.23,4.44S43.46,30.81,42.55,33Z"/><path class="cls-7" d="M30.64,14c-.62.47-.82,1.53,0,1.77S32,15,31.78,14.6,31.1,13.67,30.64,14Z"/><path class="cls-8" d="M47.12,25.84c-.62.47-.82,1.53,0,1.77s1.33-.82,1.14-1.2S47.58,25.49,47.12,25.84Z"/><path class="cls-9" d="M37.39,37.94c-.34.7,0,1.73.81,1.57s.81-1.33.47-1.59S37.64,37.41,37.39,37.94Z"/><path class="cls-10" d="M21.36,38.66c-.62.47-.81,1.53,0,1.76s1.33-.81,1.14-1.19S21.82,38.3,21.36,38.66Z"/><path class="cls-11" d="M17.88,24.27c-.62.47-.81,1.53,0,1.77s1.33-.81,1.15-1.19S18.35,23.92,17.88,24.27Z"/><path class="cls-5" d="M35.91,24.54c-.52-.55-2.5-4.86-4.36-4.67s-3.14,3.62-4.34,4.18-5.08.91-5.53,2.63,2.94,3.3,3.09,4.5-1.29,4,.67,4.68,4.34-1.67,5.52-1.53,4.47,3.1,6.58,1.68c1.63-1.1.3-4.07.53-4.69s3.52-3,3.4-3.9C41.18,25.26,36.44,25.09,35.91,24.54ZM37.3,30.7c-.31.79.81,3.08-.5,4.16S32.32,33.23,31,33.3,27.35,35.36,26,34.74s.45-3.16-.05-4.28-3.21-2.32-3.4-3.39,3.83-2.21,5-2.52,2.84-3.49,4-3.63c2.06-.27,2.69,3.68,4,4.58s4.9.51,4.88,1.92S37.61,29.91,37.3,30.7Z"/><path class="cls-12" d="M35.91,24.05c-.52-.54-2.5-4.86-4.36-4.67S28.41,23,27.21,23.56s-5.08.91-5.53,2.63,2.94,3.3,3.09,4.5-1.29,4,.67,4.68S29.78,33.7,31,33.84s4.47,3.1,6.58,1.68c1.63-1.1.3-4.06.53-4.69s3.52-3,3.4-3.9C41.18,24.77,36.44,24.6,35.91,24.05Zm1.39,6.16c-.31.79.81,3.08-.5,4.16S32.32,32.74,31,32.82s-3.61,2-4.92,1.43S26.49,31.09,26,30s-3.21-2.32-3.4-3.39,3.83-2.21,5-2.52,2.84-3.49,4-3.63c2.06-.27,2.69,3.68,4,4.59s4.9.5,4.88,1.91S37.61,29.42,37.3,30.21Z"/></g></g></g></svg>