<svg xmlns="http://www.w3.org/2000/svg" xmlns:xlink="http://www.w3.org/1999/xlink" viewBox="0 0 147.75 106.01"><defs><style>.cls-1{isolation:isolate;}.cls-2{fill:#fff;}.cls-3{fill:url(#Áåçûìÿííûé_ãðàäèåíò_403);}.cls-17,.cls-18,.cls-19,.cls-4{fill-rule:evenodd;}.cls-17,.cls-19,.cls-4{opacity:0.58;}.cls-11,.cls-17,.cls-18,.cls-19,.cls-4{mix-blend-mode:multiply;}.cls-4{fill:url(#Áåçûìÿííûé_ãðàäèåíò_394);}.cls-5{fill:url(#Áåçûìÿííûé_ãðàäèåíò_162);}.cls-6{fill:url(#Áåçûìÿííûé_ãðàäèåíò_162-2);}.cls-7{fill:url(#Áåçûìÿííûé_ãðàäèåíò_403-2);}.cls-8{fill:url(#Áåçûìÿííûé_ãðàäèåíò_162-3);}.cls-9{fill:url(#Áåçûìÿííûé_ãðàäèåíò_403-3);}.cls-10{fill:url(#Áåçûìÿííûé_ãðàäèåíò_403-4);}.cls-11{fill:#9545a9;opacity:0.94;}.cls-12,.cls-13{fill:#ffcf6d;}.cls-12,.cls-20,.cls-21{mix-blend-mode:soft-light;}.cls-14,.cls-15,.cls-16{opacity:0.6;}.cls-14{fill:url(#Áåçûìÿííûé_ãðàäèåíò_375);}.cls-15{fill:url(#Áåçûìÿííûé_ãðàäèåíò_375-2);}.cls-16{fill:url(#Áåçûìÿííûé_ãðàäèåíò_375-3);}.cls-17{fill:url(#Áåçûìÿííûé_ãðàäèåíò_394-2);}.cls-18{opacity:0.71;fill:url(#Áåçûìÿííûé_ãðàäèåíò_412);}.cls-19{fill:url(#Áåçûìÿííûé_ãðàäèåíò_394-3);}.cls-20{fill:#f5ffff;}.cls-21{fill:#f5ffae;}</style><radialGradient id="Áåçûìÿííûé_ãðàäèåíò_403" cx="74.14" cy="95.26" r="20.77" gradientUnits="userSpaceOnUse"><stop offset="0" stop-color="#ff874d"/><stop offset="1" stop-color="#ff684a"/></radialGradient><linearGradient id="Áåçûìÿííûé_ãðàäèåíò_394" x1="74.14" y1="97.92" x2="74.14" y2="89.66" gradientUnits="userSpaceOnUse"><stop offset="0.01" stop-color="#a45eba"/><stop offset="1" stop-color="#b398db"/></linearGradient><radialGradient id="Áåçûìÿííûé_ãðàäèåíò_162" cx="14.33" cy="90.58" r="5.61" gradientUnits="userSpaceOnUse"><stop offset="0" stop-color="#ff3143"/><stop offset="1" stop-color="#e30a47"/></radialGradient><radialGradient id="Áåçûìÿííûé_ãðàäèåíò_162-2" cx="71.18" cy="52.98" r="42.75" xlink:href="#Áåçûìÿííûé_ãðàäèåíò_162"/><radialGradient id="Áåçûìÿííûé_ãðàäèåíò_403-2" cx="26.18" cy="62.49" r="27.77" xlink:href="#Áåçûìÿííûé_ãðàäèåíò_403"/><radialGradient id="Áåçûìÿííûé_ãðàäèåíò_162-3" cx="133" cy="90.25" r="5.61" xlink:href="#Áåçûìÿííûé_ãðàäèåíò_162"/><radialGradient id="Áåçûìÿííûé_ãðàäèåíò_403-3" cx="121.35" cy="62.15" r="27.77" xlink:href="#Áåçûìÿííûé_ãðàäèåíò_403"/><radialGradient id="Áåçûìÿííûé_ãðàäèåíò_403-4" cx="73.8" cy="17.14" r="15.67" xlink:href="#Áåçûìÿííûé_ãðàäèåíò_403"/><linearGradient id="Áåçûìÿííûé_ãðàäèåíò_375" x1="38.4" y1="80.29" x2="109.54" y2="80.29" gradientUnits="userSpaceOnUse"><stop offset="0.02" stop-color="#ffe8b8"/><stop offset="0.97" stop-color="#ffdbd4"/></linearGradient><linearGradient id="Áåçûìÿííûé_ãðàäèåíò_375-2" x1="101.92" y1="54.05" x2="122.61" y2="54.05" xlink:href="#Áåçûìÿííûé_ãðàäèåíò_375"/><linearGradient id="Áåçûìÿííûé_ãðàäèåíò_375-3" x1="24.21" y1="54.84" x2="45.45" y2="54.84" xlink:href="#Áåçûìÿííûé_ãðàäèåíò_375"/><linearGradient id="Áåçûìÿííûé_ãðàäèåíò_394-2" x1="73.34" y1="23.47" x2="73.34" y2="10.61" xlink:href="#Áåçûìÿííûé_ãðàäèåíò_394"/><linearGradient id="Áåçûìÿííûé_ãðàäèåíò_412" x1="73.77" y1="97.34" x2="73.77" y2="17.87" gradientUnits="userSpaceOnUse"><stop offset="0.01" stop-color="#ce27a1"/><stop offset="1" stop-color="#c97f81"/></linearGradient><linearGradient id="Áåçûìÿííûé_ãðàäèåíò_394-3" x1="73.81" y1="96.64" x2="73.81" y2="81.38" xlink:href="#Áåçûìÿííûé_ãðàäèåíò_394"/></defs><g class="cls-1"><g id="Layer_2" data-name="Layer 2"><g id="layer1"><path class="cls-2" d="M96,19.88c-2.38-1.14-2.71-3.27-2.17-6.1s2.41-5,1.05-9.71S69.38-1,60.49,1.76,49.92,6.18,52,14.42c1.45,5.72-11,7.68-15,11S24,46.94,14.43,59.08,1,74.9.11,78.89s3.4,7.28,3.28,8.86-1.11,4.59,1.75,7.51,12.46,7.41,15.13,6.68,5.61-2.78,9.48-2.54,5.34-5.06,7.28-5.26.76,4.59,4.09,6.26,19.7,7.08,39.2,5.23,26.91-7.64,27.39-10,1.09-4.52,2.79-4.64,2.19,5.48,5,7.6,7.29,1,9.35,1.78,3.18,1.93,8.27.47,13.47-9.29,13.47-11.21-1.58-3.51,0-5.15,3.07-7.21-6.19-16.73c-11.66-12-23.5-37.18-28.11-41.43S98.85,21.24,96,19.88Z"/><path class="cls-3" d="M103,89.66s0,1-.19,2.25a8.55,8.55,0,0,1-.86,3.35c-.82,1-12.82,5.11-28,5.56s-26.66-3-27.75-4.18a3,3,0,0,1-.58-1,4.21,4.21,0,0,1-.19-2C72.1,96.68,103,89.66,103,89.66Z"/><path class="cls-4" d="M103,89.66s0,1-.19,2.25c-1.1,1.07-8.16,5.3-26.42,5.91-20.45.68-30.82-2.16-30.82-2.16a4.21,4.21,0,0,1-.19-2C72.1,96.68,103,89.66,103,89.66Z"/><path class="cls-5" d="M21.71,95.54h0c-.16.17-2.39,2.28-5,1.68a18.69,18.69,0,0,1-5.5-3.08c-2-1.47-3.66-3-3.9-3.73a2.24,2.24,0,0,1,0-1.57,2.4,2.4,0,0,1,.49-.76h0C10.13,90.59,21.71,95.54,21.71,95.54Z"/><path class="cls-6" d="M109.63,83.2h0c-1.28,3.63-9.64,10.35-25.25,12.43S51.66,96.19,46.12,94c-5.07-2-8.78-8.18-8-12.63a6.4,6.4,0,0,1,.32-1.18c1-2.52,3.32-10.11,5.18-17.16C45,57.66,46.12,52.61,46.12,50.4c0-5.09-7.72-21.08-7.72-21.08.73-1.54,4.73-2.82,8.18-4.27a83.34,83.34,0,0,0,9.54-5.45h0a3,3,0,0,1-.5-1.13,1.08,1.08,0,0,1,.07-.59c.28-.55,1.23-.37,1.53-1a1.23,1.23,0,0,0,.09-.61c-.07-1.08-2-3-2-4.41a1.15,1.15,0,0,1,.42-.95C59,8,66.76,5.77,74.57,5.15c9.17-.73,15.85.57,16.66,3.64a5.47,5.47,0,0,1,.17,1.83C91.23,13,89.82,15,89.87,16a1.19,1.19,0,0,0,.62.94c.71.46,1.75.61,1.83.89,0,0,0,0,0,0a9.8,9.8,0,0,1-1,2.35v0h0a18.84,18.84,0,0,0,4.44,3.44c.35.16,1,.4,1.8.69h0c3.82,1.34,11.51,3.78,11.51,4.61,0,1-8.61,17.06-7.89,22.6.46,3.47,4.13,13.59,6.5,21.54v0C109.17,77.88,110.11,81.85,109.63,83.2Z"/><path class="cls-7" d="M47.21,50.79c0,.93-1.6,6.28-3.63,12.25-1.41,4.16-3,8.61-4.45,12.07-3.47,8.44-9.54,19.17-11.91,20.08a13.39,13.39,0,0,1-5.52.36A20.41,20.41,0,0,1,13.5,93a21.42,21.42,0,0,1-5.69-4.92,10.46,10.46,0,0,1-2.66-6.44,5.57,5.57,0,0,1,.6-2.1C7.9,74.8,15.34,66.14,20.91,58.26c4.17-5.92,10.14-16.08,13.92-22.64h0c2.14-3.73,3.57-6.29,3.57-6.29C42.67,31.68,47.21,49.22,47.21,50.79Z"/><path class="cls-8" d="M140.25,90.08c-.46,1.33-6.4,6-9.21,6.77l-.19.05c-2.72.61-5-1.69-5-1.69s11.59-5,13.89-7.46h0a2.3,2.3,0,0,1,.31.41A2.2,2.2,0,0,1,140.25,90.08Z"/><path class="cls-9" d="M142.39,81.32a10.59,10.59,0,0,1-2.67,6.43A21.42,21.42,0,0,1,134,92.67a20.52,20.52,0,0,1-8.21,2.54,13.53,13.53,0,0,1-5.51-.36c-2.36-.9-8.43-11.64-11.9-20.08-.22-.52-.43-1.07-.65-1.63v0c-3.37-8.52-7.43-21.19-7.43-22.66s4.54-19.12,8.82-21.48c0,0,2.58,4.64,6,10.46v0c3.6,6.18,8.13,13.69,11.49,18.46,6.12,8.66,14.49,18.23,15.63,22.56h0A3.28,3.28,0,0,1,142.39,81.32Z"/><path class="cls-10" d="M92.32,17.84l-.94,2.36v0l0,0c-.52.52-8.86,8.72-18,9.07-9.4.36-17.26-9.72-17.26-9.72h0l-.5-1.13a1.08,1.08,0,0,1,.07-.59c.28-.55,1.23-.37,1.53-1a1.23,1.23,0,0,0,.09-.61c-.07-1.08-2-3-2-4.41a1.15,1.15,0,0,1,.42-.95C59,8,66.76,5.77,74.57,5.15c9.17-.73,15.85.57,16.66,3.64a5.47,5.47,0,0,1,.17,1.83C91.23,13,89.82,15,89.87,16a1.19,1.19,0,0,0,.62.94C91.2,17.41,92.24,17.56,92.32,17.84Z"/><path class="cls-11" d="M57.91,10.56c-.56,1.32,5.26,4.7,16,4.63S89.59,10.4,89.12,8.38s-8.41-3-17.92-1.84S58.32,9.6,57.91,10.56Z"/><path class="cls-12" d="M43.79,38.6s24.38-4,59.83,0l-1.17,3.48s-18.27-2-57.47,0Z"/><path class="cls-12" d="M44.6,59a371.45,371.45,0,0,1,57.82-1l.56,1.76s-31-.59-59.1,2.38Z"/><polygon class="cls-13" points="51.17 46.84 53.03 49.16 57.22 49.91 54.56 46.63 51.17 46.84"/><polygon class="cls-13" points="63.39 46.38 61.71 48.83 57.59 49.9 59.99 46.42 63.39 46.38"/><polygon class="cls-13" points="51.42 53.59 53.11 51.15 57.23 50.07 54.83 53.55 51.42 53.59"/><polygon class="cls-13" points="63.65 53.13 61.79 50.81 57.6 50.06 60.26 53.34 63.65 53.13"/><polygon class="cls-13" points="67.98 46.62 69.79 48.97 73.96 49.82 71.38 46.48 67.98 46.62"/><polygon class="cls-13" points="80.21 46.42 78.47 48.84 74.33 49.82 76.81 46.39 80.21 46.42"/><polygon class="cls-13" points="68.09 53.38 69.82 50.96 73.96 49.98 71.49 53.41 68.09 53.38"/><polygon class="cls-13" points="80.32 53.18 78.51 50.83 74.33 49.98 76.92 53.32 80.32 53.18"/><polygon class="cls-13" points="84.54 46.74 86.33 49.11 90.49 49.99 87.94 46.63 84.54 46.74"/><polygon class="cls-13" points="96.77 46.64 95.01 49.04 90.86 49.99 93.37 46.59 96.77 46.64"/><polygon class="cls-13" points="84.59 53.5 86.34 51.1 90.49 50.15 87.99 53.56 84.59 53.5"/><polygon class="cls-13" points="96.82 53.4 95.03 51.03 90.86 50.15 93.42 53.52 96.82 53.4"/><path class="cls-14" d="M38.4,80.2s4.45,3.73,34.71,4.27,36.43-4.27,36.43-4.27l-1-4.14s-4,4.73-35.16,4.23-33.62-4.23-33.62-4.23Z"/><path class="cls-15" d="M101.92,56.48s13.14-6.31,17.31-10.1l3.38,5.47s-9.09,7.76-19,9.87Z"/><path class="cls-16" d="M28.36,46.63s11.69,9.61,17.09,10.7l-1.87,5.72S32,58.74,24.21,53.32Z"/><path class="cls-12" d="M19.85,59.74S33.11,68.23,41.12,70l-.64,1.7a98.87,98.87,0,0,1-22.09-10Z"/><path class="cls-12" d="M106.59,70.11s12.4-3.72,21.34-10.37l1.47,2s-12.48,8-22.21,10Z"/><path class="cls-17" d="M90.49,17a34.07,34.07,0,0,1-17,6.46c-9.95.82-16.31-6.52-16.31-6.52a1.23,1.23,0,0,0,.09-.61c-.07-1.08-2-3-2-4.41a21.19,21.19,0,0,0,11.82,5.27c7.54.91,19.13-.62,24.28-6.53h0C91.23,13,89.82,15,89.87,16A1.19,1.19,0,0,0,90.49,17Z"/><path class="cls-18" d="M139.72,87.75a2.3,2.3,0,0,1,.31.41l-8.36,7.1a2.86,2.86,0,0,0-.63,1.59l-.19.05c-2.72.61-5-1.69-5-1.69a13.53,13.53,0,0,1-5.51-.36c-2.36-.9-8.43-11.64-11.9-20.08-.22-.52-.43-1.07-.65-1.63,1.41,4.74,2.35,8.71,1.87,10.06-1.27,3.63-9.63,10.36-25.25,12.44S51.66,96.19,46.12,94,36.67,84.65,38.4,80.2c1-2.52,3.32-10.11,5.18-17.16-1.41,4.16-3,8.61-4.45,12.07-3.47,8.44-9.54,19.17-11.91,20.08a13.39,13.39,0,0,1-5.52.36c-.16.17-2.39,2.28-5,1.68a18.69,18.69,0,0,1-5.5-3.08c2.06,1,4,1.77,4.78,1.51C17.78,95,9.83,92,7.32,88.85a2.4,2.4,0,0,1,.49-.76,10.46,10.46,0,0,1-2.66-6.44,5.57,5.57,0,0,1,.6-2.1c1.32.93,14.3,10,18.46,8.2s11.85-15.66,12-16.06l-5,4.37s14.17-24.36,10-36.6c-2.13-6.22-6.29-3.84-6.29-3.84h0c2.14-3.73,3.57-6.29,3.57-6.29.73-1.54,4.73-2.82,8.18-4.27a83.34,83.34,0,0,0,9.54-5.45h0a3,3,0,0,1-.5-1.13,1.08,1.08,0,0,1,.07-.59,23.22,23.22,0,0,0,16.61,8.72c10.76.8,18.6-5.94,19.06-6.34l0,0h0l4.44,3.44S83.39,32.5,73.7,33s-17.89-8.18-19.5-7.9a11,11,0,0,0-7,6C45.58,34.86,52,55.85,52,55.85l-2.73-1.8s-8.52,21.36-6.76,27.66,27.21,8.94,27.21,8.94L66.23,86.2s31.84,2.36,37.39-3-3.3-29.61-3.3-29.61L96,55.67s6-15.45,5.91-22.08c-.1-6.46-4.08-9.09-4.29-9.22,3.82,1.34,11.51,3.78,11.51,4.61,0,0,2.58,4.64,6,10.46v0S111,36.26,109,36.83s.54,19.17,3.27,27.29a124.75,124.75,0,0,0,7.91,17.44l-4.09-4.36s2,10.55,4.27,12.46,17.5-2.48,21.89-9.17a3.28,3.28,0,0,1,.14.83A10.59,10.59,0,0,1,139.72,87.75Z"/><path class="cls-19" d="M109.63,83.21c-1.28,3.63-9.64,10.35-25.25,12.43S51.66,96.19,46.12,94c-5.07-2-8.78-8.18-8-12.63,0,0,8.13,8,31.67,9.27C92.94,91.9,109.16,83.45,109.63,83.21Z"/><path class="cls-20" d="M116.55,43.25s5.73,12.64,11.11,20.93A57.69,57.69,0,0,0,141,78.1s-6.65-9.73-12.22-16.74A206.35,206.35,0,0,1,116.55,43.25Z"/><path class="cls-20" d="M7.22,78.44A197.66,197.66,0,0,0,22.06,61.19C28.35,52.69,32.29,41,32.29,41S24.76,53.85,18.72,62,7.73,76.55,7.22,78.44Z"/><path class="cls-20" d="M51.82,97.92s24.56,6.4,45.14-1.28C97,96.64,71.64,102.15,51.82,97.92Z"/><path class="cls-21" d="M58.56,13.33A42.6,42.6,0,0,0,74.41,15.6a36.9,36.9,0,0,0,16.46-4.43S83.19,17,74.31,17C63.39,17.14,58.56,13.33,58.56,13.33Z"/><path class="cls-21" d="M121.35,94.66s11.51,1.41,18.59-7.88C139.94,86.78,128.67,94.74,121.35,94.66Z"/><path class="cls-21" d="M6,83.87s2.77,4.8,10.11,7.92c8.15,3.47,11.25,2.33,11.25,2.33s-5,2.54-12.07-.91A19.25,19.25,0,0,1,6,83.87Z"/></g></g></g></svg>